G04 ================== begin FILE IDENTIFICATION RECORD ==================*
G04 Layout Name:  D:/Spira Heaven/0-My Works/Srtp/PCB/Trans/PCB/Trans.brd*
G04 Film Name:    DRILL*
G04 File Format:  Gerber RS274X*
G04 File Origin:  Cadence Allegro 16.6-S003*
G04 Origin Date:  Mon Feb 24 20:45:19 2014*
G04 *
G04 Layer:  MANUFACTURING/PHOTOPLOT_OUTLINE*
G04 Layer:  MANUFACTURING/NCDRILL_LEGEND*
G04 Layer:  MANUFACTURING/NCDRILL_FIGURE*
G04 Layer:  MANUFACTURING/NCLEGEND-1-4*
G04 Layer:  BOARD GEOMETRY/OUTLINE*
G04 *
G04 Offset:    (0.000 0.000)*
G04 Mirror:    No*
G04 Mode:      Positive*
G04 Rotation:  0*
G04 FullContactRelief:  No*
G04 UndefLineWidth:     0.200*
G04 ================== end FILE IDENTIFICATION RECORD ====================*
%FSLAX25Y25*MOMM*%
%IR0*IPPOS*OFA0.00000B0.00000*MIA0B0*SFA1.00000B1.00000*%
%AMMACRO14*
1,1,.2,1.,0.0*
20,1,.2,1.,0.0,.984808,-.173648,0.0*
1,1,.2,.984808,-.173648*
20,1,.2,.984808,-.173648,.939693,-.34202,0.0*
1,1,.2,.939693,-.34202*
20,1,.2,.939693,-.34202,.866025,-.5,0.0*
1,1,.2,.866025,-.5*
20,1,.2,.866025,-.5,.766044,-.642788,0.0*
1,1,.2,.766044,-.642788*
20,1,.2,.766044,-.642788,.642788,-.766044,0.0*
1,1,.2,.642788,-.766044*
20,1,.2,.642788,-.766044,.5,-.866025,0.0*
1,1,.2,.5,-.866025*
20,1,.2,.5,-.866025,.34202,-.939693,0.0*
1,1,.2,.34202,-.939693*
20,1,.2,.34202,-.939693,.173648,-.984808,0.0*
1,1,.2,.173648,-.984808*
20,1,.2,.173648,-.984808,0.0,-1.,0.0*
1,1,.2,0.0,-1.*
20,1,.2,0.0,-1.,-.173648,-.984808,0.0*
1,1,.2,-.173648,-.984808*
20,1,.2,-.173648,-.984808,-.34202,-.939693,0.0*
1,1,.2,-.34202,-.939693*
20,1,.2,-.34202,-.939693,-.5,-.866025,0.0*
1,1,.2,-.5,-.866025*
20,1,.2,-.5,-.866025,-.642788,-.766044,0.0*
1,1,.2,-.642788,-.766044*
20,1,.2,-.642788,-.766044,-.766044,-.642788,0.0*
1,1,.2,-.766044,-.642788*
20,1,.2,-.766044,-.642788,-.866025,-.5,0.0*
1,1,.2,-.866025,-.5*
20,1,.2,-.866025,-.5,-.939693,-.34202,0.0*
1,1,.2,-.939693,-.34202*
20,1,.2,-.939693,-.34202,-.984808,-.173648,0.0*
1,1,.2,-.984808,-.173648*
20,1,.2,-.984808,-.173648,-1.,0.0,0.0*
1,1,.2,-1.,0.0*
20,1,.2,-1.,0.0,-.984808,.173648,0.0*
1,1,.2,-.984808,.173648*
20,1,.2,-.984808,.173648,-.939693,.34202,0.0*
1,1,.2,-.939693,.34202*
20,1,.2,-.939693,.34202,-.866025,.5,0.0*
1,1,.2,-.866025,.5*
20,1,.2,-.866025,.5,-.766044,.642788,0.0*
1,1,.2,-.766044,.642788*
20,1,.2,-.766044,.642788,-.642788,.766044,0.0*
1,1,.2,-.642788,.766044*
20,1,.2,-.642788,.766044,-.5,.866025,0.0*
1,1,.2,-.5,.866025*
20,1,.2,-.5,.866025,-.34202,.939693,0.0*
1,1,.2,-.34202,.939693*
20,1,.2,-.34202,.939693,-.173648,.984808,0.0*
1,1,.2,-.173648,.984808*
20,1,.2,-.173648,.984808,0.0,1.,0.0*
1,1,.2,0.0,1.*
20,1,.2,0.0,1.,.173648,.984808,0.0*
1,1,.2,.173648,.984808*
20,1,.2,.173648,.984808,.34202,.939693,0.0*
1,1,.2,.34202,.939693*
20,1,.2,.34202,.939693,.5,.866025,0.0*
1,1,.2,.5,.866025*
20,1,.2,.5,.866025,.642788,.766044,0.0*
1,1,.2,.642788,.766044*
20,1,.2,.642788,.766044,.766044,.642788,0.0*
1,1,.2,.766044,.642788*
20,1,.2,.766044,.642788,.866025,.5,0.0*
1,1,.2,.866025,.5*
20,1,.2,.866025,.5,.939693,.34202,0.0*
1,1,.2,.939693,.34202*
20,1,.2,.939693,.34202,.984808,.173648,0.0*
1,1,.2,.984808,.173648*
20,1,.2,.984808,.173648,1.,0.0,0.0*
1,1,.2,1.,0.0*
%
%ADD14MACRO14*%
%AMMACRO13*
1,1,.2,.65,0.0*
20,1,.2,.65,0.0,.640125,-.112871,0.0*
1,1,.2,.640125,-.112871*
20,1,.2,.640125,-.112871,.6108,-.222313,0.0*
1,1,.2,.6108,-.222313*
20,1,.2,.6108,-.222313,.562917,-.325,0.0*
1,1,.2,.562917,-.325*
20,1,.2,.562917,-.325,.497929,-.417812,0.0*
1,1,.2,.497929,-.417812*
20,1,.2,.497929,-.417812,.417812,-.497929,0.0*
1,1,.2,.417812,-.497929*
20,1,.2,.417812,-.497929,.325,-.562917,0.0*
1,1,.2,.325,-.562917*
20,1,.2,.325,-.562917,.222313,-.6108,0.0*
1,1,.2,.222313,-.6108*
20,1,.2,.222313,-.6108,.112871,-.640125,0.0*
1,1,.2,.112871,-.640125*
20,1,.2,.112871,-.640125,0.0,-.65,0.0*
1,1,.2,0.0,-.65*
20,1,.2,0.0,-.65,-.112871,-.640125,0.0*
1,1,.2,-.112871,-.640125*
20,1,.2,-.112871,-.640125,-.222313,-.6108,0.0*
1,1,.2,-.222313,-.6108*
20,1,.2,-.222313,-.6108,-.325,-.562917,0.0*
1,1,.2,-.325,-.562917*
20,1,.2,-.325,-.562917,-.417812,-.497929,0.0*
1,1,.2,-.417812,-.497929*
20,1,.2,-.417812,-.497929,-.497929,-.417812,0.0*
1,1,.2,-.497929,-.417812*
20,1,.2,-.497929,-.417812,-.562917,-.325,0.0*
1,1,.2,-.562917,-.325*
20,1,.2,-.562917,-.325,-.6108,-.222313,0.0*
1,1,.2,-.6108,-.222313*
20,1,.2,-.6108,-.222313,-.640125,-.112871,0.0*
1,1,.2,-.640125,-.112871*
20,1,.2,-.640125,-.112871,-.65,0.0,0.0*
1,1,.2,-.65,0.0*
20,1,.2,-.65,0.0,-.640125,.112871,0.0*
1,1,.2,-.640125,.112871*
20,1,.2,-.640125,.112871,-.6108,.222313,0.0*
1,1,.2,-.6108,.222313*
20,1,.2,-.6108,.222313,-.562917,.325,0.0*
1,1,.2,-.562917,.325*
20,1,.2,-.562917,.325,-.497929,.417812,0.0*
1,1,.2,-.497929,.417812*
20,1,.2,-.497929,.417812,-.417812,.497929,0.0*
1,1,.2,-.417812,.497929*
20,1,.2,-.417812,.497929,-.325,.562917,0.0*
1,1,.2,-.325,.562917*
20,1,.2,-.325,.562917,-.222313,.6108,0.0*
1,1,.2,-.222313,.6108*
20,1,.2,-.222313,.6108,-.112871,.640125,0.0*
1,1,.2,-.112871,.640125*
20,1,.2,-.112871,.640125,0.0,.65,0.0*
1,1,.2,0.0,.65*
20,1,.2,0.0,.65,.112871,.640125,0.0*
1,1,.2,.112871,.640125*
20,1,.2,.112871,.640125,.222313,.6108,0.0*
1,1,.2,.222313,.6108*
20,1,.2,.222313,.6108,.325,.562917,0.0*
1,1,.2,.325,.562917*
20,1,.2,.325,.562917,.417812,.497929,0.0*
1,1,.2,.417812,.497929*
20,1,.2,.417812,.497929,.497929,.417812,0.0*
1,1,.2,.497929,.417812*
20,1,.2,.497929,.417812,.562917,.325,0.0*
1,1,.2,.562917,.325*
20,1,.2,.562917,.325,.6108,.222313,0.0*
1,1,.2,.6108,.222313*
20,1,.2,.6108,.222313,.640125,.112871,0.0*
1,1,.2,.640125,.112871*
20,1,.2,.640125,.112871,.65,0.0,0.0*
1,1,.2,.65,0.0*
%
%ADD13MACRO13*%
%AMMACRO10*
1,1,.2,1.6,0.0*
20,1,.2,1.6,0.0,1.575692,-.277837,0.0*
1,1,.2,1.575692,-.277837*
20,1,.2,1.575692,-.277837,1.503508,-.547232,0.0*
1,1,.2,1.503508,-.547232*
20,1,.2,1.503508,-.547232,1.385641,-.8,0.0*
1,1,.2,1.385641,-.8*
20,1,.2,1.385641,-.8,1.225671,-1.02846,0.0*
1,1,.2,1.225671,-1.02846*
20,1,.2,1.225671,-1.02846,1.02846,-1.225671,0.0*
1,1,.2,1.02846,-1.225671*
20,1,.2,1.02846,-1.225671,.8,-1.385641,0.0*
1,1,.2,.8,-1.385641*
20,1,.2,.8,-1.385641,.547232,-1.503508,0.0*
1,1,.2,.547232,-1.503508*
20,1,.2,.547232,-1.503508,.277837,-1.575692,0.0*
1,1,.2,.277837,-1.575692*
20,1,.2,.277837,-1.575692,0.0,-1.6,0.0*
1,1,.2,0.0,-1.6*
20,1,.2,0.0,-1.6,-.277837,-1.575692,0.0*
1,1,.2,-.277837,-1.575692*
20,1,.2,-.277837,-1.575692,-.547232,-1.503508,0.0*
1,1,.2,-.547232,-1.503508*
20,1,.2,-.547232,-1.503508,-.8,-1.385641,0.0*
1,1,.2,-.8,-1.385641*
20,1,.2,-.8,-1.385641,-1.02846,-1.225671,0.0*
1,1,.2,-1.02846,-1.225671*
20,1,.2,-1.02846,-1.225671,-1.225671,-1.02846,0.0*
1,1,.2,-1.225671,-1.02846*
20,1,.2,-1.225671,-1.02846,-1.385641,-.8,0.0*
1,1,.2,-1.385641,-.8*
20,1,.2,-1.385641,-.8,-1.503508,-.547232,0.0*
1,1,.2,-1.503508,-.547232*
20,1,.2,-1.503508,-.547232,-1.575692,-.277837,0.0*
1,1,.2,-1.575692,-.277837*
20,1,.2,-1.575692,-.277837,-1.6,0.0,0.0*
1,1,.2,-1.6,0.0*
20,1,.2,-1.6,0.0,-1.575692,.277837,0.0*
1,1,.2,-1.575692,.277837*
20,1,.2,-1.575692,.277837,-1.503508,.547232,0.0*
1,1,.2,-1.503508,.547232*
20,1,.2,-1.503508,.547232,-1.385641,.8,0.0*
1,1,.2,-1.385641,.8*
20,1,.2,-1.385641,.8,-1.225671,1.02846,0.0*
1,1,.2,-1.225671,1.02846*
20,1,.2,-1.225671,1.02846,-1.02846,1.225671,0.0*
1,1,.2,-1.02846,1.225671*
20,1,.2,-1.02846,1.225671,-.8,1.385641,0.0*
1,1,.2,-.8,1.385641*
20,1,.2,-.8,1.385641,-.547232,1.503508,0.0*
1,1,.2,-.547232,1.503508*
20,1,.2,-.547232,1.503508,-.277837,1.575692,0.0*
1,1,.2,-.277837,1.575692*
20,1,.2,-.277837,1.575692,0.0,1.6,0.0*
1,1,.2,0.0,1.6*
20,1,.2,0.0,1.6,.277837,1.575692,0.0*
1,1,.2,.277837,1.575692*
20,1,.2,.277837,1.575692,.547232,1.503508,0.0*
1,1,.2,.547232,1.503508*
20,1,.2,.547232,1.503508,.8,1.385641,0.0*
1,1,.2,.8,1.385641*
20,1,.2,.8,1.385641,1.02846,1.225671,0.0*
1,1,.2,1.02846,1.225671*
20,1,.2,1.02846,1.225671,1.225671,1.02846,0.0*
1,1,.2,1.225671,1.02846*
20,1,.2,1.225671,1.02846,1.385641,.8,0.0*
1,1,.2,1.385641,.8*
20,1,.2,1.385641,.8,1.503508,.547232,0.0*
1,1,.2,1.503508,.547232*
20,1,.2,1.503508,.547232,1.575692,.277837,0.0*
1,1,.2,1.575692,.277837*
20,1,.2,1.575692,.277837,1.6,0.0,0.0*
1,1,.2,1.6,0.0*
%
%ADD10MACRO10*%
%AMMACRO11*
1,1,.2,.15,0.0*
20,1,.2,.15,0.0,.147721,-.026047,0.0*
1,1,.2,.147721,-.026047*
20,1,.2,.147721,-.026047,.140954,-.051303,0.0*
1,1,.2,.140954,-.051303*
20,1,.2,.140954,-.051303,.129904,-.075,0.0*
1,1,.2,.129904,-.075*
20,1,.2,.129904,-.075,.114907,-.096418,0.0*
1,1,.2,.114907,-.096418*
20,1,.2,.114907,-.096418,.096418,-.114907,0.0*
1,1,.2,.096418,-.114907*
20,1,.2,.096418,-.114907,.075,-.129904,0.0*
1,1,.2,.075,-.129904*
20,1,.2,.075,-.129904,.051303,-.140954,0.0*
1,1,.2,.051303,-.140954*
20,1,.2,.051303,-.140954,.026047,-.147721,0.0*
1,1,.2,.026047,-.147721*
20,1,.2,.026047,-.147721,0.0,-.15,0.0*
1,1,.2,0.0,-.15*
20,1,.2,0.0,-.15,-.026047,-.147721,0.0*
1,1,.2,-.026047,-.147721*
20,1,.2,-.026047,-.147721,-.051303,-.140954,0.0*
1,1,.2,-.051303,-.140954*
20,1,.2,-.051303,-.140954,-.075,-.129904,0.0*
1,1,.2,-.075,-.129904*
20,1,.2,-.075,-.129904,-.096418,-.114907,0.0*
1,1,.2,-.096418,-.114907*
20,1,.2,-.096418,-.114907,-.114907,-.096418,0.0*
1,1,.2,-.114907,-.096418*
20,1,.2,-.114907,-.096418,-.129904,-.075,0.0*
1,1,.2,-.129904,-.075*
20,1,.2,-.129904,-.075,-.140954,-.051303,0.0*
1,1,.2,-.140954,-.051303*
20,1,.2,-.140954,-.051303,-.147721,-.026047,0.0*
1,1,.2,-.147721,-.026047*
20,1,.2,-.147721,-.026047,-.15,0.0,0.0*
1,1,.2,-.15,0.0*
20,1,.2,-.15,0.0,-.147721,.026047,0.0*
1,1,.2,-.147721,.026047*
20,1,.2,-.147721,.026047,-.140954,.051303,0.0*
1,1,.2,-.140954,.051303*
20,1,.2,-.140954,.051303,-.129904,.075,0.0*
1,1,.2,-.129904,.075*
20,1,.2,-.129904,.075,-.114907,.096418,0.0*
1,1,.2,-.114907,.096418*
20,1,.2,-.114907,.096418,-.096418,.114907,0.0*
1,1,.2,-.096418,.114907*
20,1,.2,-.096418,.114907,-.075,.129904,0.0*
1,1,.2,-.075,.129904*
20,1,.2,-.075,.129904,-.051303,.140954,0.0*
1,1,.2,-.051303,.140954*
20,1,.2,-.051303,.140954,-.026047,.147721,0.0*
1,1,.2,-.026047,.147721*
20,1,.2,-.026047,.147721,0.0,.15,0.0*
1,1,.2,0.0,.15*
20,1,.2,0.0,.15,.026047,.147721,0.0*
1,1,.2,.026047,.147721*
20,1,.2,.026047,.147721,.051303,.140954,0.0*
1,1,.2,.051303,.140954*
20,1,.2,.051303,.140954,.075,.129904,0.0*
1,1,.2,.075,.129904*
20,1,.2,.075,.129904,.096418,.114907,0.0*
1,1,.2,.096418,.114907*
20,1,.2,.096418,.114907,.114907,.096418,0.0*
1,1,.2,.114907,.096418*
20,1,.2,.114907,.096418,.129904,.075,0.0*
1,1,.2,.129904,.075*
20,1,.2,.129904,.075,.140954,.051303,0.0*
1,1,.2,.140954,.051303*
20,1,.2,.140954,.051303,.147721,.026047,0.0*
1,1,.2,.147721,.026047*
20,1,.2,.147721,.026047,.15,0.0,0.0*
1,1,.2,.15,0.0*
%
%ADD11MACRO11*%
%AMMACRO12*
1,1,.2,.165,0.0*
20,1,.2,.165,0.0,.162493,-.028652,0.0*
1,1,.2,.162493,-.028652*
20,1,.2,.162493,-.028652,.155049,-.056433,0.0*
1,1,.2,.155049,-.056433*
20,1,.2,.155049,-.056433,.142894,-.0825,0.0*
1,1,.2,.142894,-.0825*
20,1,.2,.142894,-.0825,.126397,-.10606,0.0*
1,1,.2,.126397,-.10606*
20,1,.2,.126397,-.10606,.10606,-.126397,0.0*
1,1,.2,.10606,-.126397*
20,1,.2,.10606,-.126397,.0825,-.142894,0.0*
1,1,.2,.0825,-.142894*
20,1,.2,.0825,-.142894,.056433,-.155049,0.0*
1,1,.2,.056433,-.155049*
20,1,.2,.056433,-.155049,.028652,-.162493,0.0*
1,1,.2,.028652,-.162493*
20,1,.2,.028652,-.162493,0.0,-.165,0.0*
1,1,.2,0.0,-.165*
20,1,.2,0.0,-.165,-.028652,-.162493,0.0*
1,1,.2,-.028652,-.162493*
20,1,.2,-.028652,-.162493,-.056433,-.155049,0.0*
1,1,.2,-.056433,-.155049*
20,1,.2,-.056433,-.155049,-.0825,-.142894,0.0*
1,1,.2,-.0825,-.142894*
20,1,.2,-.0825,-.142894,-.10606,-.126397,0.0*
1,1,.2,-.10606,-.126397*
20,1,.2,-.10606,-.126397,-.126397,-.10606,0.0*
1,1,.2,-.126397,-.10606*
20,1,.2,-.126397,-.10606,-.142894,-.0825,0.0*
1,1,.2,-.142894,-.0825*
20,1,.2,-.142894,-.0825,-.155049,-.056433,0.0*
1,1,.2,-.155049,-.056433*
20,1,.2,-.155049,-.056433,-.162493,-.028652,0.0*
1,1,.2,-.162493,-.028652*
20,1,.2,-.162493,-.028652,-.165,0.0,0.0*
1,1,.2,-.165,0.0*
20,1,.2,-.165,0.0,-.162493,.028652,0.0*
1,1,.2,-.162493,.028652*
20,1,.2,-.162493,.028652,-.155049,.056433,0.0*
1,1,.2,-.155049,.056433*
20,1,.2,-.155049,.056433,-.142894,.0825,0.0*
1,1,.2,-.142894,.0825*
20,1,.2,-.142894,.0825,-.126397,.10606,0.0*
1,1,.2,-.126397,.10606*
20,1,.2,-.126397,.10606,-.10606,.126397,0.0*
1,1,.2,-.10606,.126397*
20,1,.2,-.10606,.126397,-.0825,.142894,0.0*
1,1,.2,-.0825,.142894*
20,1,.2,-.0825,.142894,-.056433,.155049,0.0*
1,1,.2,-.056433,.155049*
20,1,.2,-.056433,.155049,-.028652,.162493,0.0*
1,1,.2,-.028652,.162493*
20,1,.2,-.028652,.162493,0.0,.165,0.0*
1,1,.2,0.0,.165*
20,1,.2,0.0,.165,.028652,.162493,0.0*
1,1,.2,.028652,.162493*
20,1,.2,.028652,.162493,.056433,.155049,0.0*
1,1,.2,.056433,.155049*
20,1,.2,.056433,.155049,.0825,.142894,0.0*
1,1,.2,.0825,.142894*
20,1,.2,.0825,.142894,.10606,.126397,0.0*
1,1,.2,.10606,.126397*
20,1,.2,.10606,.126397,.126397,.10606,0.0*
1,1,.2,.126397,.10606*
20,1,.2,.126397,.10606,.142894,.0825,0.0*
1,1,.2,.142894,.0825*
20,1,.2,.142894,.0825,.155049,.056433,0.0*
1,1,.2,.155049,.056433*
20,1,.2,.155049,.056433,.162493,.028652,0.0*
1,1,.2,.162493,.028652*
20,1,.2,.162493,.028652,.165,0.0,0.0*
1,1,.2,.165,0.0*
%
%ADD12MACRO12*%
%ADD15C,.2*%
G75*
%LPD*%
G75*
G54D10*
X581000Y2209000D03*
X582000Y4834000D03*
Y16031000D03*
Y20350000D03*
X8640000Y7925000D03*
X8639000Y14662000D03*
X22690000Y7924000D03*
Y14661000D03*
X31217000Y2212000D03*
Y4835000D03*
Y16033000D03*
Y20350000D03*
X34111500Y3393900D03*
G54D11*
X2857000Y8871000D03*
X3378000Y8271000D03*
X3303000Y8309000D03*
X2975000Y8745000D03*
X3147000Y8521000D03*
X3039000Y8655000D03*
X3083000Y8597000D03*
X2912000Y8800000D03*
X3195000Y8459000D03*
X3246000Y8386000D03*
X3767000Y7824000D03*
X3816000Y7748000D03*
X3648000Y7969000D03*
X3489000Y8168000D03*
X3429000Y8221000D03*
X3719000Y7901000D03*
X3603000Y8037000D03*
X3541000Y8104000D03*
X4246000Y10343000D03*
X4066000Y10136000D03*
X4154000Y10330000D03*
X4016000Y10072000D03*
X4116000Y10222000D03*
X4299000Y10422000D03*
X4354000Y10488000D03*
X4500000Y10671000D03*
X4624000Y10772000D03*
X4569000Y10708300D03*
X4425000Y10522000D03*
X4675000Y10826600D03*
X4442200Y10594800D03*
X4737000Y10910000D03*
X4799500Y10967200D03*
X4876000Y11025000D03*
X5000000Y11177000D03*
X5012800Y11272000D03*
X5087000Y11343000D03*
X4908500Y11102900D03*
X7266000Y4186000D03*
X7205000Y4272000D03*
X7314000Y4125000D03*
X7142000Y4349000D03*
X7079000Y4416000D03*
X7050500Y7201500D03*
Y7328500D03*
Y7709500D03*
Y7455500D03*
Y7836500D03*
Y7582500D03*
Y7963500D03*
Y8090500D03*
Y8217500D03*
Y8344500D03*
Y8725500D03*
Y8852500D03*
Y8471500D03*
Y8598500D03*
Y8979500D03*
Y9106500D03*
Y9233500D03*
Y9360500D03*
Y9741500D03*
Y9487500D03*
Y9868500D03*
Y9614500D03*
Y9995500D03*
Y10249500D03*
Y10122500D03*
Y10630500D03*
Y10757500D03*
Y10503500D03*
Y10376500D03*
Y11138500D03*
Y11011500D03*
Y10884500D03*
Y11265500D03*
Y11392500D03*
Y11773500D03*
Y11519500D03*
Y11646500D03*
Y11900500D03*
X7852000Y3225000D03*
X7776000Y3367000D03*
X7824000Y3304000D03*
X7523000Y3756000D03*
X7623000Y3608000D03*
X7573000Y3690000D03*
X7464000Y3847000D03*
X7716100Y3444100D03*
X7662000Y3537000D03*
X7408000Y3924000D03*
X7365000Y4008000D03*
X7818600Y9881400D03*
X7914000Y3182000D03*
X8109000Y2963000D03*
X7966000Y3106000D03*
X8045000Y3019000D03*
X8182000Y6132000D03*
X8296500Y6119500D03*
X8042500D03*
X7879500Y9614500D03*
X7923000Y9745000D03*
X7879500Y9995500D03*
Y10249500D03*
Y10122500D03*
X7885000Y10755700D03*
X7862000Y10382000D03*
X7910000Y10616000D03*
X7879500Y10503500D03*
Y10884500D03*
Y11265500D03*
Y11138500D03*
Y11011500D03*
Y11646500D03*
Y11773500D03*
Y11519500D03*
Y11392500D03*
Y11900500D03*
X8686000Y2976300D03*
X8790000Y3083000D03*
X8677500Y6119500D03*
X8804500D03*
X8423500D03*
X8550500D03*
X8696000Y12688000D03*
X8761000Y12635000D03*
X8769000Y18411000D03*
X8707000Y18331000D03*
X8986000Y3285000D03*
X9046000Y3362000D03*
X8940000Y3203000D03*
X8879000Y3145000D03*
X9133000Y3433000D03*
X9329000Y3604000D03*
X9227200Y3477100D03*
X9281000Y3543000D03*
X9312500Y6119500D03*
X8931500D03*
X9185500D03*
X9058500D03*
X9190000Y12295000D03*
X9313000Y12149000D03*
X9273000Y12235000D03*
X9120000Y12356000D03*
X8987000Y12472000D03*
X9053000Y12396000D03*
X8876000Y12592000D03*
X8923000Y12537000D03*
X8855000Y18473000D03*
X9138000Y18701000D03*
X9063700Y18638000D03*
X9267000Y18809000D03*
X9201000Y18756000D03*
X8945000Y18524000D03*
X8985000Y18583000D03*
X9339800Y18863000D03*
X9452000Y3760000D03*
X9379100Y3693000D03*
X9498000Y3845000D03*
X9779000Y4193000D03*
X9579000Y3936000D03*
X9699000Y4124000D03*
X9654000Y4022000D03*
X9439500Y6119500D03*
X9566500D03*
X9693500D03*
X9820500D03*
X9747000Y11825000D03*
X9818000Y11777000D03*
X9615000Y11932000D03*
X9552000Y11970000D03*
X9430000Y12041000D03*
X9383000Y12100000D03*
X9678000Y11886000D03*
X9483000Y11995000D03*
X9378900Y18921300D03*
X9618900Y19203000D03*
X9550000Y19154000D03*
X9690000Y19257000D03*
X9766000Y19305000D03*
X9494000Y19075000D03*
X9444000Y18981000D03*
X9835000Y19362000D03*
X9864000Y4270000D03*
X9929000Y4348000D03*
X10007000Y4413000D03*
X10328500Y6119500D03*
X9947500D03*
X10074500D03*
X10201500D03*
X9895000Y11706000D03*
X9978000Y11652000D03*
X9892000Y19437000D03*
X9969000Y19496000D03*
X10836500Y6119500D03*
X10455500D03*
X10709500D03*
X10582500D03*
X11277000Y2884000D03*
X11196000Y2965000D03*
X11090500Y6119500D03*
X10963500D03*
X11217500D03*
X11267000Y8092000D03*
X11139000Y12703000D03*
X11293000Y12640000D03*
X11233200Y12681900D03*
X11200000Y20452000D03*
X11073500Y20553000D03*
X11291000Y20397000D03*
X11109200Y20492700D03*
X11808000Y2360000D03*
X11577000Y2577000D03*
X11710000Y2492000D03*
X11638000Y2534000D03*
X11777000Y2430000D03*
X11420000Y2733000D03*
X11495000Y2679000D03*
X11367000Y2803000D03*
X11598500Y6119500D03*
X11471500D03*
X11344500D03*
X11725500D03*
X11763000Y8085000D03*
X11684300Y12704900D03*
X11797300Y12665900D03*
X11470100Y12694100D03*
X11724000Y12619000D03*
X11390600Y12686400D03*
X11605100Y12679000D03*
X11522000Y12647000D03*
X11793500Y19967900D03*
X11753000Y20031000D03*
X11435000Y20289000D03*
X11682200Y20079000D03*
X11624800Y20119200D03*
X11495600Y20234100D03*
X11581200Y20174000D03*
X11379600Y20337800D03*
X12319000Y1869000D03*
X12177000Y1988000D03*
X11869000Y2280000D03*
X12256000Y1933000D03*
X12130000Y2048000D03*
X12062000Y2107000D03*
X11985000Y2177000D03*
X11934000Y2230000D03*
X11979500Y6119500D03*
X11852500D03*
X12106500D03*
X12233500D03*
X12268700Y8079300D03*
X11858700Y12628100D03*
X12052000Y12722000D03*
X11920300Y12671900D03*
X12132000Y12673000D03*
X12261100Y12719800D03*
X11987700Y12690900D03*
X12201300Y12683400D03*
X11996200Y19799000D03*
X12283000Y19598000D03*
X12125000Y19695000D03*
X12043000Y19742000D03*
X12221000Y19651000D03*
X11911000Y19858000D03*
X11854000Y19907000D03*
X12410000Y1783000D03*
X12492000Y1717000D03*
X12487500Y6119500D03*
X12614500D03*
X12741500D03*
X12360500D03*
X12780000Y8080000D03*
X12763000Y8274000D03*
X12486000Y8317000D03*
X12626000Y8294200D03*
X12414000Y9316000D03*
X12496000Y9370000D03*
X12722000Y9540000D03*
X12777000Y9604000D03*
X12653000Y9463000D03*
X12566000Y9410000D03*
X12735200Y11185800D03*
X12790200Y11142400D03*
X12410500Y11338500D03*
X12582800Y11265500D03*
X12655200Y11210400D03*
X12477200Y11316900D03*
X12409100Y12729000D03*
X12492000Y12701000D03*
X12369000Y12671600D03*
X12380000Y18277000D03*
X12562000Y18459000D03*
X12484000Y18417000D03*
X12434000Y18346000D03*
X12787000Y18646000D03*
X12625000Y18530000D03*
X12710000Y18583000D03*
X12353000Y19540000D03*
X12868500Y6119500D03*
X12961000Y6126000D03*
X13237500Y6120500D03*
X12914000Y8317000D03*
X13216000Y8307600D03*
X13085500Y8275900D03*
X12838200Y9655500D03*
X13028500Y9785900D03*
X13081300Y9854700D03*
X12910000Y9701100D03*
X12967000Y9741800D03*
X13140000Y9893000D03*
X13223200Y9998100D03*
X13294000Y10041000D03*
X13163000Y9962000D03*
X13312000Y10689000D03*
X13250000Y10744000D03*
X13120000Y10834000D03*
X13189100Y10791400D03*
X12928500Y11072900D03*
X12984000Y10944000D03*
X12972000Y11018000D03*
X13068000Y10926000D03*
X12829000Y11084000D03*
X12837800Y18701800D03*
X12984000Y18804000D03*
X12933000Y18748000D03*
X13084000Y18923000D03*
X13284000Y19115000D03*
X13021500Y18863200D03*
X13206000Y19054000D03*
X13134000Y18979000D03*
X13807000Y3039000D03*
X13491500Y6120500D03*
X13618500D03*
X13745500D03*
X13364500D03*
X13466000Y8317000D03*
X13643300Y8303300D03*
X13475000Y8081400D03*
X13336000Y8294000D03*
X13326900Y10176300D03*
X13473800Y10306900D03*
X13425700Y10183300D03*
X13332500Y10106500D03*
X13420000Y10262000D03*
X13454000Y10593000D03*
X13599000Y10495000D03*
X13673000Y10419000D03*
X13388000Y10639000D03*
X13538100Y10553000D03*
X13334000Y19183000D03*
X13406500Y19241900D03*
X13484000Y19302000D03*
X13610000Y19435000D03*
X13689000Y19498000D03*
X13544000Y19359300D03*
X14097000Y3271000D03*
X14159000Y3359000D03*
X14045000Y3206000D03*
X13963800Y3145500D03*
X13898000Y3085000D03*
X14215000Y3439000D03*
X14126500Y6120500D03*
X13872500D03*
X14253500D03*
X13999500D03*
X14037000Y8069000D03*
X14552000Y3754000D03*
X14448000Y3607000D03*
X14501000Y3693000D03*
X14591000Y3841000D03*
X14325000Y3481000D03*
X14380000Y3546000D03*
X14676000Y3926000D03*
X14792000Y4124000D03*
X14738000Y4036000D03*
X14380500Y6120500D03*
X14507500D03*
X14761500D03*
X14634500D03*
X14558000Y8087000D03*
X14884000Y4187000D03*
X14948000Y4280000D03*
X15030000Y4345000D03*
X15077700Y4416000D03*
X14888500Y6120500D03*
X15142500D03*
X15269500D03*
X15015500D03*
X15055000Y8087000D03*
X15523500Y6120500D03*
X15777500D03*
X15650500D03*
X15396500D03*
X15554000Y8077000D03*
X15904500Y6120500D03*
X16031500D03*
X16285500D03*
X16158500D03*
X16675200Y2644000D03*
X16726000Y2557000D03*
X16376000Y2880000D03*
X16526200Y2771000D03*
X16593000Y2696000D03*
X16452000Y2828000D03*
X16321800Y2956000D03*
X16793500Y6120500D03*
X16539500D03*
X16412500D03*
X16666500D03*
X16335300Y8101000D03*
X17274000Y1999000D03*
X17010000Y2295000D03*
X16955000Y2363000D03*
X17212000Y2042000D03*
X16889000Y2424000D03*
X17181000Y2117000D03*
X17136000Y2190000D03*
X17063000Y2237000D03*
X16811000Y2496000D03*
X16920500Y6120500D03*
X17047500D03*
X17174500D03*
X16827000Y8104000D03*
X17516000Y1798000D03*
X17426000Y1875000D03*
X17576000Y1721000D03*
X17352000Y1945000D03*
X17555500Y6120500D03*
X17428500D03*
X17301500D03*
X17682500D03*
X17344000Y8101000D03*
X17658800Y20462200D03*
X17519800Y20562600D03*
X17712000Y20402000D03*
X17765800Y20344100D03*
X17580000Y20515000D03*
X17936500Y6120500D03*
X18190500D03*
X18063500D03*
X17809500D03*
X18090000Y8297000D03*
X17851000Y8087000D03*
X18264000Y8304000D03*
X18027000Y10326400D03*
X18052000Y10254000D03*
X18127000Y10208000D03*
X18268000Y10094000D03*
X18200000Y10145000D03*
X18182000Y10432000D03*
X18269000Y10496000D03*
X18088000Y10378000D03*
X18131500Y19977600D03*
X18074000Y20028000D03*
X17818800Y20294400D03*
X18025800Y20079400D03*
X18246000Y19883000D03*
X17970000Y20128000D03*
X18180200Y19927300D03*
X17866000Y20236700D03*
X17920400Y20192500D03*
X18559500Y6119500D03*
X18686500D03*
X18432500D03*
X18504000Y8291000D03*
X18359000Y8071000D03*
X18633000Y8252000D03*
X18381400Y8261300D03*
X18666000Y9704000D03*
X18651000Y9798000D03*
X18580000Y9831000D03*
X18751000Y9683000D03*
X18398000Y9983000D03*
X18518000Y9878000D03*
X18448000Y9876900D03*
X18305000Y10017000D03*
X18526000Y10746000D03*
X18655500Y10847800D03*
X18350000Y10550000D03*
X18595000Y10803000D03*
X18462200Y10675100D03*
X18388000Y10621000D03*
X18696000Y10905000D03*
X18758700Y10936400D03*
X18499000Y19612000D03*
X18400900Y19721800D03*
X18550000Y19534000D03*
X18342800Y19780900D03*
X18439000Y19663000D03*
X18306200Y19840700D03*
X19231000Y3280000D03*
X19162000Y3196000D03*
X18903000Y3029000D03*
X19070000Y3139000D03*
X19005000Y3081000D03*
X19067500Y6119500D03*
X18813500D03*
X18940500D03*
X19194500D03*
X19228000Y8309000D03*
X18907000Y8258000D03*
X19052500Y8259100D03*
X19236000Y9369000D03*
X19010000Y9489000D03*
X19158000Y9409000D03*
X19087000Y9453000D03*
X18943000Y9540000D03*
X18876000Y9587000D03*
X18811000Y9619000D03*
X19212000Y11294500D03*
X18886000Y11074000D03*
X18949600Y11126500D03*
X19095000Y11232000D03*
X19136700Y11288300D03*
X18812000Y11021000D03*
X19033000Y11188000D03*
X19184900Y12705100D03*
X19248000Y12655000D03*
X18919800Y12722100D03*
X19049000Y12717000D03*
X19119800Y12662100D03*
X18970300Y12673500D03*
X19072000Y18457000D03*
X18996000Y18397000D03*
X18927000Y18347000D03*
X19130000Y18527000D03*
X19222000Y18578000D03*
X19292000Y3359000D03*
X19661000Y3754000D03*
X19349000Y3420000D03*
X19552000Y3610000D03*
X19597000Y3685000D03*
X19715000Y3837000D03*
X19431000Y3479000D03*
X19495000Y3534000D03*
X19575500Y6119500D03*
X19702500D03*
X19321500D03*
X19448500D03*
X19655000Y8083000D03*
X19305000Y9315000D03*
X19298900Y11357300D03*
X19391400Y12678800D03*
X19511400Y12639000D03*
X19779000Y12677000D03*
X19631400Y12640700D03*
X19461000Y12693000D03*
X19589000Y12702600D03*
X19321200Y12691100D03*
X19704000Y12685000D03*
X19360000Y18704000D03*
X19303800Y18642100D03*
X19430800Y18764000D03*
X19579000Y19005000D03*
X19773500Y19154500D03*
X19481000Y18877000D03*
X19552600Y18939000D03*
X19723800Y19105000D03*
X19654000Y19045000D03*
X19981000Y4188000D03*
X20208000Y4404000D03*
X20064000Y4268000D03*
X19781000Y3921000D03*
X19922000Y4116000D03*
X19852000Y4031000D03*
X20131000Y4350000D03*
X19829500Y6119500D03*
X19956500D03*
X20083500D03*
X20210500D03*
X20178000Y8080000D03*
X19842600Y12710000D03*
X19980100Y12725400D03*
X20152300Y12700100D03*
X20250000Y12710000D03*
X19912000Y12684000D03*
X20068000Y12703000D03*
X19841700Y19196300D03*
X19889000Y19248000D03*
X19965000Y19301000D03*
X20125000Y19430000D03*
X20195000Y19475000D03*
X20031000Y19364000D03*
X20464500Y6119500D03*
X20591500D03*
X20718500D03*
X20337500D03*
X20689000Y8091000D03*
X20845500Y6119500D03*
X21099500D03*
X21226500D03*
X20972500D03*
X21525000Y2887000D03*
X21675000Y2772000D03*
X21748000Y2691000D03*
X21617000Y2827300D03*
X21459000Y2962000D03*
X21353500Y6119500D03*
X21607500D03*
X21480500D03*
X21734500D03*
X21489000Y11633000D03*
X21764000Y11847000D03*
X21613000Y11722000D03*
X21715000Y11786000D03*
X21560700Y11675400D03*
X21620000Y20388000D03*
X21487000Y20563000D03*
X21705000Y20333000D03*
X21557000Y20439000D03*
X22159900Y2311000D03*
X22099500Y2357000D03*
X22197400Y2248000D03*
X21803000Y2633000D03*
X21948000Y2495000D03*
X21875000Y2563000D03*
X22021000Y2437000D03*
X22242500Y6119500D03*
X21988500D03*
X21861500D03*
X22115500D03*
X21953000Y11997000D03*
X22082000Y12087000D03*
X22140000Y12129000D03*
X22209000Y12171000D03*
X22029000Y12027000D03*
X21909000Y11928000D03*
X21817300Y11896700D03*
X22260000Y12231000D03*
X22189000Y19938000D03*
X22134500Y19985600D03*
X21855400Y20225400D03*
X22090700Y20042200D03*
X21786200Y20287000D03*
X22043900Y20094400D03*
X22226200Y19878000D03*
X21914000Y20187000D03*
X21994700Y20144300D03*
X22674800Y1805000D03*
X22594000Y1872000D03*
X22725000Y1735000D03*
X22447000Y1993000D03*
X22521000Y1939000D03*
X22390000Y2044000D03*
X22325000Y2120000D03*
X22282800Y2193000D03*
X22496500Y6119500D03*
X22623500D03*
X22369500D03*
X22750500D03*
X22325000Y12297000D03*
X22392000Y12338000D03*
X22675000Y12579000D03*
X22740000Y12710000D03*
X22513000Y12447000D03*
X22579000Y12497000D03*
X22468000Y12378000D03*
X22383000Y19782000D03*
X22691000Y19580000D03*
X22545000Y19695000D03*
X22456000Y19737800D03*
X22593000Y19628000D03*
X22324600Y19831000D03*
X23222000Y1722000D03*
X22999000Y6103000D03*
X23120000Y6102000D03*
X23257000Y6104000D03*
X22877500Y6119500D03*
X22779000Y19528000D03*
X23272000Y1801000D03*
X23324000Y1876000D03*
X23442000Y1997000D03*
X23733000Y2308000D03*
X23390000Y1935000D03*
X23511000Y2029000D03*
X23550000Y2100000D03*
X23612000Y2178000D03*
X23677000Y2230000D03*
X23375000Y6140000D03*
X23538000Y9698500D03*
X23551000Y9606000D03*
X23550500Y9868500D03*
X23563000Y10031000D03*
X23550500Y10122500D03*
X23555000Y10206500D03*
X23550500Y10630500D03*
Y10503500D03*
Y10757500D03*
Y10376500D03*
Y11011500D03*
Y11138500D03*
Y10884500D03*
Y11265500D03*
Y11646500D03*
Y11773500D03*
Y11392500D03*
Y11519500D03*
Y11900500D03*
X23784000Y2361000D03*
X23854000Y2409000D03*
X23999000Y2616000D03*
X23890000Y2495000D03*
X23961000Y2550000D03*
X24222000Y2886000D03*
X24110000Y2760000D03*
X24056000Y2693000D03*
X24160000Y2818000D03*
X24251000Y2956000D03*
X24389500Y7328500D03*
Y7201500D03*
Y7836500D03*
Y7455500D03*
Y7709500D03*
Y7582500D03*
Y7963500D03*
Y8217500D03*
Y8344500D03*
Y8090500D03*
Y8725500D03*
Y8471500D03*
Y8852500D03*
Y8598500D03*
Y8979500D03*
Y9106500D03*
Y9360500D03*
Y9233500D03*
Y9741500D03*
Y9614500D03*
Y9487500D03*
Y9868500D03*
Y10249500D03*
Y9995500D03*
Y10122500D03*
Y10376500D03*
Y10630500D03*
Y10757500D03*
Y10503500D03*
Y11265500D03*
Y11011500D03*
Y11138500D03*
Y10884500D03*
Y11773500D03*
Y11392500D03*
Y11519500D03*
Y11646500D03*
Y11900500D03*
X26197000Y11177000D03*
X26138000Y11293000D03*
X26064000Y11339000D03*
X26595000Y10641000D03*
X26474400Y10769300D03*
X26537000Y10698000D03*
X26715000Y10536000D03*
X26427000Y10821000D03*
X26660000Y10602000D03*
X26413000Y10896000D03*
X26365100Y10947200D03*
X26250000Y11094000D03*
X26301000Y11023000D03*
X26898000Y10353000D03*
X27058000Y10126000D03*
X26958000Y10288000D03*
X27123000Y10047000D03*
X27013600Y10220600D03*
X26869000Y10417000D03*
X26780000Y10473000D03*
X27378000Y7828000D03*
X27420000Y7886000D03*
X27303000Y7746000D03*
X27490000Y7955000D03*
X27659000Y8161000D03*
X27704200Y8220800D03*
X27552000Y8021000D03*
X27604000Y8101000D03*
X27756100Y8271900D03*
X27819500Y8321500D03*
X27907000Y8381000D03*
X28184000Y8722000D03*
X27992000Y8522000D03*
X28117000Y8656000D03*
X28076000Y8583000D03*
X27932000Y8457000D03*
X28328000Y8872000D03*
X28257000Y8795000D03*
X34111500Y6248800D03*
G54D12*
X5588000Y7876000D03*
X5422000Y7488000D03*
X5606000Y8616000D03*
X5401000Y9899000D03*
X5610000Y10328000D03*
X5608000Y11067000D03*
X5963000Y7716000D03*
X5973000Y8071000D03*
X5960000Y8776000D03*
X5968000Y8421000D03*
X5962000Y10168000D03*
X5981000Y10872000D03*
X5962000Y10522000D03*
X5967000Y11227000D03*
X7019000Y6928000D03*
X7036500Y7074500D03*
X8815000Y5198000D03*
X8805000Y10168000D03*
X8804000Y10872000D03*
X8849000Y10554000D03*
X8791000Y11227000D03*
X8503000Y13006000D03*
X8820000Y13399000D03*
X8815000Y17909000D03*
X8975000Y4817000D03*
X9179000Y5177000D03*
X9153000Y10328000D03*
X9158000Y10754000D03*
X9162000Y11067000D03*
X9364000Y11497000D03*
X8975000Y13048000D03*
X9170000Y13399000D03*
X8975000Y17568000D03*
X9169000Y17889000D03*
X9715000Y4824000D03*
X9510000Y5184000D03*
X9715000Y13037000D03*
X9520000Y13405000D03*
X9715000Y17569000D03*
X9519000Y17889000D03*
X10145000Y4618000D03*
X9875000Y5173000D03*
X10313000Y8314000D03*
X9875000Y13401000D03*
X10234000Y18109000D03*
X9875000Y17897000D03*
X10497000Y7055000D03*
X10751000Y7500000D03*
Y8174000D03*
Y13861000D03*
X10497000Y13907000D03*
X11322000Y5177000D03*
X11259000Y7080000D03*
X10992000Y6934000D03*
X11101000Y12837000D03*
X11322000Y13401000D03*
X11338000Y17556000D03*
X11178000Y17901000D03*
X11786000Y4833000D03*
X11482000Y4808000D03*
X11677000Y5158000D03*
X11482000Y13068000D03*
X11822000Y13059000D03*
X11677000Y13403000D03*
X11733000Y16575000D03*
X11533000Y17907000D03*
X12222000Y4820000D03*
X12027000Y5142000D03*
X12222000Y13046000D03*
X12022000Y13367000D03*
X12236000Y16211000D03*
X11962000Y16475000D03*
X12078000Y17568000D03*
X11883000Y17904000D03*
X12238000Y17896000D03*
X12657000Y4611000D03*
X12382000Y5161000D03*
X12686000Y8626000D03*
X12526000Y8999000D03*
Y11652000D03*
X12840000Y11659000D03*
X12686000Y12040000D03*
X12382000Y13399000D03*
X12848000Y14441000D03*
X12526000Y16210000D03*
X12686000Y16591000D03*
X13054000Y8646000D03*
X12884000Y8983000D03*
X13254000Y8971000D03*
X13202000Y11675000D03*
X13002000Y12015000D03*
X12884000Y16252000D03*
X13132000Y16241000D03*
X12940000Y16593000D03*
X13425000Y8620000D03*
X13585000Y8988000D03*
X13586000Y11671000D03*
X13438000Y12032000D03*
X13564000Y12753000D03*
X13596000Y16222000D03*
X13436000Y16585000D03*
X14082000Y4818000D03*
X13922000Y5148000D03*
X14276000Y5170000D03*
X14082000Y13039000D03*
X13922000Y13401000D03*
X14276000Y13408000D03*
X13963000Y16211000D03*
X14082000Y17547000D03*
X14276000Y17899000D03*
X13922000Y17891000D03*
X14822000Y4807000D03*
X14626000Y5177000D03*
X14822000Y13050000D03*
X14626000Y13394000D03*
X14822000Y17546000D03*
X14626000Y17898000D03*
X15269000Y4635000D03*
X14982000Y5169000D03*
Y13381000D03*
X15275000Y18108000D03*
X14982000Y17894000D03*
X16088000Y12832000D03*
X16582000Y4819000D03*
X16422000Y5157000D03*
X16776000Y5183000D03*
X16582000Y13046000D03*
X16422000Y13397000D03*
X16776000Y13386000D03*
X16582000Y17557000D03*
X16422000Y17905000D03*
X16776000Y17908000D03*
X17322000Y4845000D03*
X17126000Y5183000D03*
X17322000Y13059000D03*
X17126000Y13410000D03*
X17322000Y17562000D03*
X17126000Y17898000D03*
X17726000Y4636000D03*
X17482000Y5186000D03*
Y13396000D03*
Y17872000D03*
X18298000Y8649000D03*
X18138000Y8997000D03*
Y11667000D03*
Y11665000D03*
X18291000Y11985000D03*
X17861000Y16209000D03*
X18160000Y16254000D03*
X18495000Y8986000D03*
X18483000Y11664000D03*
X18495000Y11671000D03*
X18739000Y12843000D03*
X18510000Y16242000D03*
X18320000Y16615000D03*
X18672000Y17732000D03*
X19187000Y4822000D03*
X19027000Y5199000D03*
X19039000Y8645000D03*
X19199000Y8979000D03*
X18845000Y8998000D03*
X19199000Y11674000D03*
X19039000Y12014000D03*
X19187000Y13038000D03*
X19027000Y13405000D03*
X18860000Y16237000D03*
X19209000Y16232000D03*
X19049000Y16637000D03*
X19187000Y17552000D03*
X19027000Y17909000D03*
X19556000Y4829000D03*
X19381000Y5167000D03*
X19731000Y5175000D03*
X19548000Y13040000D03*
X19731000Y13375000D03*
X19381000Y13402000D03*
X19552000Y16209000D03*
X19381000Y17924000D03*
X19731000Y17925000D03*
X19927000Y4811000D03*
X20087000Y5168000D03*
X19842000Y11679000D03*
X19927000Y13052000D03*
X20087000Y13395000D03*
X19927000Y17562000D03*
X20087000Y17869000D03*
X20341000Y4628000D03*
X20448000Y7070000D03*
X20610000Y18138000D03*
X21082000Y7629000D03*
Y8214000D03*
X21730000Y4804000D03*
X21570000Y5174000D03*
X21331000Y12787000D03*
X21730000Y13035000D03*
X21570000Y13399000D03*
X21730000Y17559000D03*
X21570000Y17898000D03*
X21925000Y5191000D03*
X22275000Y5186000D03*
X22202000Y10168000D03*
X22215000Y10872000D03*
X22232000Y10564000D03*
X22210000Y11227000D03*
X21925000Y13389000D03*
X22275000Y13390000D03*
X21925000Y17929000D03*
X22275000Y17897000D03*
X22470000Y4796000D03*
X22630000Y5181000D03*
X22548000Y10328000D03*
X22533000Y10764000D03*
X22572000Y11067000D03*
X22470000Y13051000D03*
X22630000Y13381000D03*
X22470000Y17567000D03*
X22630000Y17878000D03*
X22869000Y4628000D03*
X22962000Y18138000D03*
X24407000Y6971000D03*
X25303000Y7876000D03*
X25671000Y7716000D03*
X25669000Y8405000D03*
X25663000Y8072000D03*
X25296000Y8616000D03*
X25678000Y8777000D03*
X25285000Y10328000D03*
X25669000Y10168000D03*
X25654000Y10873000D03*
X25662000Y10523000D03*
X25297000Y11067000D03*
X25672000Y11227000D03*
X25890000Y9054000D03*
Y11553000D03*
X34111500Y5535100D03*
G54D13*
X9261000Y7259000D03*
X9313000Y7919000D03*
X9294000Y14133000D03*
X9280000Y14786000D03*
X18195000Y13036000D03*
X19858000Y12000000D03*
X22200000Y7262000D03*
X22193000Y7919000D03*
X22177000Y14129000D03*
X22160000Y14794000D03*
X29201000Y13190000D03*
X29661000Y14119000D03*
X29843000Y13368000D03*
X34111500Y4821300D03*
G54D14*
X30918000Y13875000D03*
Y14535000D03*
X34111500Y4107600D03*
G54D15*
G01X0Y1124000D02*
Y21300000D01*
X31753000D01*
Y1124000D01*
X0D01*
G01X32970000Y3037100D02*
Y8683000D01*
X45251000D01*
Y3037100D01*
X32970000D01*
G01Y3750800D02*
X45251000D01*
G01X32970000Y4464500D02*
X45251000D01*
G01X32970000Y5178200D02*
X45251000D01*
G01X32970000Y5891900D02*
X45251000D01*
G01X32970000Y6605600D02*
X45251000D01*
G01X32970000Y7319300D02*
X45251000D01*
G01X32970000Y8033000D02*
X45251000D01*
G01X33249400Y6843000D02*
Y7160500D01*
X33399000D01*
G01X33343900Y7007000D02*
X33249400D01*
G01X33591900Y7160500D02*
X33686300D01*
G01X33639100D02*
Y6843000D01*
G01X33591900D02*
X33686300D01*
G01X33977600Y7001700D02*
X34056400D01*
Y6906500D01*
X34032700Y6874700D01*
X34005200Y6853600D01*
X33965800Y6843000D01*
X33926400Y6853600D01*
X33898900Y6874700D01*
X33875300Y6906500D01*
X33859500Y6943500D01*
X33851600Y6985900D01*
Y7022900D01*
X33859500Y7054700D01*
X33875300Y7091700D01*
X33898900Y7123500D01*
X33922500Y7144600D01*
X33954000Y7160500D01*
X33981600D01*
X34013000Y7149900D01*
X34036700Y7128700D01*
G01X34182300Y7160500D02*
Y6933000D01*
X34198000Y6885300D01*
X34229500Y6853600D01*
X34268900Y6843000D01*
X34308300Y6853600D01*
X34339800Y6885300D01*
X34355500Y6933000D01*
Y7160500D01*
G01X34505100Y6843000D02*
Y7160500D01*
X34603500D01*
X34635000Y7144600D01*
X34654700Y7123500D01*
X34662500Y7081100D01*
X34654700Y7038800D01*
X34631000Y7012300D01*
X34603500Y6996500D01*
X34505100D01*
G01X34603500D02*
X34662500Y6843000D01*
G01X34977400D02*
X34820000D01*
Y7160500D01*
X34977400D01*
G01X34914400Y7007000D02*
X34820000D01*
G01X34760900Y7556800D02*
X34859300Y7874300D01*
X34957700Y7556800D01*
G01X34922300Y7667900D02*
X34796300D01*
G01X35095500Y7874300D02*
Y7556800D01*
X35252900D01*
G01X35410400Y7874300D02*
Y7556800D01*
X35567800D01*
G01X36032300Y7874300D02*
Y7646800D01*
X36048000Y7599100D01*
X36079500Y7567400D01*
X36118900Y7556800D01*
X36158300Y7567400D01*
X36189800Y7599100D01*
X36205500Y7646800D01*
Y7874300D01*
G01X36343300Y7556800D02*
Y7874300D01*
X36524300Y7556800D01*
Y7874300D01*
G01X36701500D02*
X36795900D01*
G01X36748700D02*
Y7556800D01*
G01X36701500D02*
X36795900D01*
G01X37063600Y7874300D02*
Y7556800D01*
G01X36973100Y7874300D02*
X37154100D01*
G01X37295800Y7599100D02*
X37327300Y7572700D01*
X37362800Y7556800D01*
X37394200D01*
X37425700Y7572700D01*
X37449400Y7599100D01*
X37461200Y7636200D01*
X37453300Y7673200D01*
X37433600Y7705000D01*
X37398200Y7726100D01*
X37350900Y7736700D01*
X37323400Y7757900D01*
X37311600Y7794900D01*
X37319500Y7832000D01*
X37339100Y7858400D01*
X37366700Y7874300D01*
X37394200D01*
X37421800Y7863700D01*
X37445400Y7837300D01*
G01X37909900Y7556800D02*
X38008300Y7874300D01*
X38106700Y7556800D01*
G01X38071300Y7667900D02*
X37945300D01*
G01X38244500Y7556800D02*
Y7874300D01*
X38342900D01*
X38374400Y7858400D01*
X38394100Y7837300D01*
X38401900Y7794900D01*
X38394100Y7752600D01*
X38370400Y7726100D01*
X38342900Y7710300D01*
X38244500D01*
G01X38342900D02*
X38401900Y7556800D01*
G01X38716800D02*
X38559400D01*
Y7874300D01*
X38716800D01*
G01X38653800Y7720800D02*
X38559400D01*
G01X39220700Y7874300D02*
X39315100D01*
G01X39267900D02*
Y7556800D01*
G01X39220700D02*
X39315100D01*
G01X39492300D02*
Y7874300D01*
X39673300Y7556800D01*
Y7874300D01*
G01X40110200Y7556800D02*
Y7874300D01*
X40212600Y7609700D01*
X40315000Y7874300D01*
Y7556800D01*
G01X40480300Y7874300D02*
X40574700D01*
G01X40527500D02*
Y7556800D01*
G01X40480300D02*
X40574700D01*
G01X40763700Y7874300D02*
Y7556800D01*
X40921100D01*
G01X41078600Y7874300D02*
Y7556800D01*
X41236000D01*
G01X41425000Y7874300D02*
X41519400D01*
G01X41472200D02*
Y7556800D01*
G01X41425000D02*
X41519400D01*
G01X41684700D02*
Y7874300D01*
X41787100Y7609700D01*
X41889500Y7874300D01*
Y7556800D01*
G01X42180700D02*
X42023300D01*
Y7874300D01*
X42180700D01*
G01X42117700Y7720800D02*
X42023300D01*
G01X42416900Y7874300D02*
Y7556800D01*
G01X42326400Y7874300D02*
X42507400D01*
G01X42810500Y7556800D02*
X42653100D01*
Y7874300D01*
X42810500D01*
G01X42747500Y7720800D02*
X42653100D01*
G01X42968000Y7556800D02*
Y7874300D01*
X43066400D01*
X43097900Y7858400D01*
X43117600Y7837300D01*
X43125400Y7794900D01*
X43117600Y7752600D01*
X43093900Y7726100D01*
X43066400Y7710300D01*
X42968000D01*
G01X43066400D02*
X43125400Y7556800D01*
G01X43278900Y7599100D02*
X43310400Y7572700D01*
X43345900Y7556800D01*
X43377300D01*
X43408800Y7572700D01*
X43432500Y7599100D01*
X43444300Y7636200D01*
X43436400Y7673200D01*
X43416700Y7705000D01*
X43381300Y7726100D01*
X43334000Y7736700D01*
X43306500Y7757900D01*
X43294700Y7794900D01*
X43302600Y7832000D01*
X43322200Y7858400D01*
X43349800Y7874300D01*
X43377300D01*
X43404900Y7863700D01*
X43428500Y7837300D01*
G01X35087600Y8206800D02*
Y8524300D01*
X35166300D01*
X35197800Y8508400D01*
X35221400Y8487300D01*
X35241100Y8455500D01*
X35256900Y8418500D01*
X35260800Y8365500D01*
X35256900Y8312600D01*
X35241100Y8275600D01*
X35221400Y8243800D01*
X35197800Y8222700D01*
X35166300Y8206800D01*
X35087600D01*
G01X35410400D02*
Y8524300D01*
X35508800D01*
X35540300Y8508400D01*
X35560000Y8487300D01*
X35567800Y8444900D01*
X35560000Y8402600D01*
X35536300Y8376100D01*
X35508800Y8360300D01*
X35410400D01*
G01X35508800D02*
X35567800Y8206800D01*
G01X35756800Y8524300D02*
X35851200D01*
G01X35804000D02*
Y8206800D01*
G01X35756800D02*
X35851200D01*
G01X36040200Y8524300D02*
Y8206800D01*
X36197600D01*
G01X36355100Y8524300D02*
Y8206800D01*
X36512500D01*
G01X37150200Y8497800D02*
X37126600Y8513700D01*
X37099000Y8524300D01*
X37067500D01*
X37032100Y8508400D01*
X37004600Y8482000D01*
X36984900Y8450200D01*
X36969100Y8397300D01*
X36965200Y8349700D01*
X36973100Y8302000D01*
X36984900Y8270300D01*
X37008500Y8238500D01*
X37036000Y8217400D01*
X37063600Y8206800D01*
X37091200D01*
X37118700Y8217400D01*
X37142300Y8233300D01*
X37162000Y8254400D01*
G01X37295800Y8206800D02*
Y8524300D01*
G01X37461200D02*
Y8206800D01*
G01Y8365500D02*
X37295800D01*
G01X37595000Y8206800D02*
X37693400Y8524300D01*
X37791800Y8206800D01*
G01X37756400Y8317900D02*
X37630400D01*
G01X37929600Y8206800D02*
Y8524300D01*
X38028000D01*
X38059500Y8508400D01*
X38079200Y8487300D01*
X38087000Y8444900D01*
X38079200Y8402600D01*
X38055500Y8376100D01*
X38028000Y8360300D01*
X37929600D01*
G01X38028000D02*
X38087000Y8206800D01*
G01X38323200Y8524300D02*
Y8206800D01*
G01X38232700Y8524300D02*
X38413700D01*
G01X38638100Y8196200D02*
X38630200Y8201500D01*
Y8212100D01*
X38638100Y8217400D01*
X38646000Y8212100D01*
Y8201500D01*
X38638100Y8196200D01*
G01Y8339100D02*
X38630200Y8344400D01*
Y8355000D01*
X38638100Y8360300D01*
X38646000Y8355000D01*
Y8344400D01*
X38638100Y8339100D01*
G01X39267900Y8524300D02*
Y8206800D01*
G01X39177400Y8524300D02*
X39358400D01*
G01X39582800Y8206800D02*
X39551300Y8212100D01*
X39523800Y8233300D01*
X39500100Y8265000D01*
X39484400Y8302000D01*
X39476500Y8344400D01*
Y8386700D01*
X39484400Y8429100D01*
X39500100Y8466100D01*
X39523800Y8497800D01*
X39551300Y8519000D01*
X39582800Y8524300D01*
X39614300Y8519000D01*
X39641800Y8497800D01*
X39665500Y8466100D01*
X39681200Y8429100D01*
X39689100Y8386700D01*
Y8344400D01*
X39681200Y8302000D01*
X39665500Y8265000D01*
X39641800Y8233300D01*
X39614300Y8212100D01*
X39582800Y8206800D01*
G01X39819000D02*
Y8524300D01*
X39913400D01*
X39944900Y8508400D01*
X39968600Y8471400D01*
X39976400Y8429100D01*
X39968600Y8386700D01*
X39948900Y8355000D01*
X39913400Y8339100D01*
X39819000D01*
G01X40527500Y8524300D02*
Y8206800D01*
G01X40472400Y8418500D02*
X40582600D01*
G01X40842400Y8206800D02*
X40818800Y8212100D01*
X40795200Y8233300D01*
X40779400Y8270300D01*
X40771500Y8312600D01*
X40779400Y8355000D01*
X40795200Y8392000D01*
X40818800Y8413200D01*
X40842400Y8418500D01*
X40866000Y8413200D01*
X40889600Y8392000D01*
X40905400Y8355000D01*
X40909300Y8312600D01*
X40905400Y8270300D01*
X40889600Y8233300D01*
X40866000Y8212100D01*
X40842400Y8206800D01*
G01X41503700Y8376100D02*
X41519400Y8392000D01*
X41531200Y8418500D01*
X41539100Y8455500D01*
X41531200Y8487300D01*
X41515500Y8508400D01*
X41487900Y8524300D01*
X41381700D01*
Y8206800D01*
X41511600D01*
X41539100Y8228000D01*
X41554900Y8259700D01*
X41562700Y8296800D01*
X41554900Y8333800D01*
X41531200Y8365500D01*
X41503700Y8376100D01*
X41381700D01*
G01X41787100Y8206800D02*
X41755600Y8212100D01*
X41728100Y8233300D01*
X41704400Y8265000D01*
X41688700Y8302000D01*
X41680800Y8344400D01*
Y8386700D01*
X41688700Y8429100D01*
X41704400Y8466100D01*
X41728100Y8497800D01*
X41755600Y8519000D01*
X41787100Y8524300D01*
X41818600Y8519000D01*
X41846100Y8497800D01*
X41869800Y8466100D01*
X41885500Y8429100D01*
X41893400Y8386700D01*
Y8344400D01*
X41885500Y8302000D01*
X41869800Y8265000D01*
X41846100Y8233300D01*
X41818600Y8212100D01*
X41787100Y8206800D01*
G01X42102000Y8524300D02*
Y8206800D01*
G01X42011500Y8524300D02*
X42192500D01*
G01X42416900D02*
Y8206800D01*
G01X42326400Y8524300D02*
X42507400D01*
G01X42731800Y8206800D02*
X42700300Y8212100D01*
X42672800Y8233300D01*
X42649100Y8265000D01*
X42633400Y8302000D01*
X42625500Y8344400D01*
Y8386700D01*
X42633400Y8429100D01*
X42649100Y8466100D01*
X42672800Y8497800D01*
X42700300Y8519000D01*
X42731800Y8524300D01*
X42763300Y8519000D01*
X42790800Y8497800D01*
X42814500Y8466100D01*
X42830200Y8429100D01*
X42838100Y8386700D01*
Y8344400D01*
X42830200Y8302000D01*
X42814500Y8265000D01*
X42790800Y8233300D01*
X42763300Y8212100D01*
X42731800Y8206800D01*
G01X42944300D02*
Y8524300D01*
X43046700Y8259700D01*
X43149100Y8524300D01*
Y8206800D01*
G01X35253000Y7319300D02*
Y3037100D01*
G01X37181700Y5693800D02*
X37150200Y5683200D01*
X37126600Y5656800D01*
X37110800Y5625000D01*
X37099000Y5582700D01*
X37095100Y5535000D01*
X37099000Y5487400D01*
X37110800Y5445100D01*
X37126600Y5413300D01*
X37150200Y5386900D01*
X37181700Y5376300D01*
X37213200Y5386900D01*
X37236800Y5413300D01*
X37252600Y5445100D01*
X37264400Y5487400D01*
X37268300Y5535000D01*
X37264400Y5582700D01*
X37252600Y5625000D01*
X37236800Y5656800D01*
X37213200Y5683200D01*
X37181700Y5693800D01*
G01X37496600Y5365700D02*
X37488700Y5371000D01*
Y5381600D01*
X37496600Y5386900D01*
X37504500Y5381600D01*
Y5371000D01*
X37496600Y5365700D01*
G01X37724900Y5439800D02*
X37748500Y5402800D01*
X37780000Y5381600D01*
X37815400Y5376300D01*
X37846900Y5381600D01*
X37878400Y5408000D01*
X37898100Y5439800D01*
X37902000Y5471500D01*
X37894200Y5508600D01*
X37866600Y5535000D01*
X37839100Y5545600D01*
X37803600D01*
G01X37839100D02*
X37862700Y5561500D01*
X37882400Y5588000D01*
X37890200Y5619700D01*
X37882400Y5651500D01*
X37862700Y5677900D01*
X37827200Y5693800D01*
X37791800Y5688500D01*
X37756400Y5667300D01*
G01X38039800Y5439800D02*
X38063400Y5402800D01*
X38094900Y5381600D01*
X38130300Y5376300D01*
X38161800Y5381600D01*
X38193300Y5408000D01*
X38213000Y5439800D01*
X38216900Y5471500D01*
X38209100Y5508600D01*
X38181500Y5535000D01*
X38154000Y5545600D01*
X38118500D01*
G01X38154000D02*
X38177600Y5561500D01*
X38197300Y5588000D01*
X38205100Y5619700D01*
X38197300Y5651500D01*
X38177600Y5677900D01*
X38142100Y5693800D01*
X38106700Y5688500D01*
X38071300Y5667300D01*
G01X37099000Y6885300D02*
X37130500Y6858900D01*
X37166000Y6843000D01*
X37197400D01*
X37228900Y6858900D01*
X37252600Y6885300D01*
X37264400Y6922400D01*
X37256500Y6959400D01*
X37236800Y6991200D01*
X37201400Y7012300D01*
X37154100Y7022900D01*
X37126600Y7044100D01*
X37114800Y7081100D01*
X37122700Y7118200D01*
X37142300Y7144600D01*
X37169900Y7160500D01*
X37197400D01*
X37225000Y7149900D01*
X37248600Y7123500D01*
G01X37449400Y7160500D02*
X37543800D01*
G01X37496600D02*
Y6843000D01*
G01X37449400D02*
X37543800D01*
G01X37736700Y7160500D02*
X37886300D01*
X37736700Y6843000D01*
X37886300D01*
G01X38205100D02*
X38047700D01*
Y7160500D01*
X38205100D01*
G01X38142100Y7007000D02*
X38047700D01*
G01X37252600Y3298700D02*
X37276200Y3261700D01*
X37307700Y3240500D01*
X37343100Y3235200D01*
X37374600Y3240500D01*
X37406100Y3266900D01*
X37425800Y3298700D01*
X37429700Y3330400D01*
X37421900Y3367500D01*
X37394300Y3393900D01*
X37366800Y3404500D01*
X37331300D01*
G01X37366800D02*
X37390400Y3420400D01*
X37410100Y3446900D01*
X37417900Y3478600D01*
X37410100Y3510400D01*
X37390400Y3536800D01*
X37354900Y3552700D01*
X37319500Y3547400D01*
X37284100Y3526200D01*
G01X37654100Y3224600D02*
X37646200Y3229900D01*
Y3240500D01*
X37654100Y3245800D01*
X37662000Y3240500D01*
Y3229900D01*
X37654100Y3224600D01*
G01X37894200Y3499800D02*
X37917800Y3531500D01*
X37945400Y3547400D01*
X37976900Y3552700D01*
X38016200Y3542100D01*
X38043800Y3515700D01*
X38051700Y3483900D01*
X38047700Y3452200D01*
X38032000Y3425700D01*
X37953300Y3372800D01*
X37917800Y3335700D01*
X37894200Y3282800D01*
X37886300Y3235200D01*
X38051700D01*
G01X37264400Y4213500D02*
X37288000Y4245200D01*
X37315600Y4261100D01*
X37347100Y4266400D01*
X37386400Y4255800D01*
X37414000Y4229400D01*
X37421900Y4197600D01*
X37417900Y4165900D01*
X37402200Y4139400D01*
X37323500Y4086500D01*
X37288000Y4049400D01*
X37264400Y3996500D01*
X37256500Y3948900D01*
X37421900D01*
G01X37654100Y3938300D02*
X37646200Y3943600D01*
Y3954200D01*
X37654100Y3959500D01*
X37662000Y3954200D01*
Y3943600D01*
X37654100Y3938300D01*
G01X37969000Y4266400D02*
X37937500Y4255800D01*
X37913900Y4229400D01*
X37898100Y4197600D01*
X37886300Y4155300D01*
X37882400Y4107600D01*
X37886300Y4060000D01*
X37898100Y4017700D01*
X37913900Y3985900D01*
X37937500Y3959500D01*
X37969000Y3948900D01*
X38000500Y3959500D01*
X38024100Y3985900D01*
X38039900Y4017700D01*
X38051700Y4060000D01*
X38055600Y4107600D01*
X38051700Y4155300D01*
X38039900Y4197600D01*
X38024100Y4229400D01*
X38000500Y4255800D01*
X37969000Y4266400D01*
G01X37339200Y4662600D02*
Y4980100D01*
X37292000Y4916600D01*
G01Y4662600D02*
X37386400D01*
G01X37654100Y4652000D02*
X37646200Y4657300D01*
Y4667900D01*
X37654100Y4673200D01*
X37662000Y4667900D01*
Y4657300D01*
X37654100Y4652000D01*
G01X37882400Y4726100D02*
X37906000Y4689100D01*
X37937500Y4667900D01*
X37972900Y4662600D01*
X38004400Y4667900D01*
X38035900Y4694300D01*
X38055600Y4726100D01*
X38059500Y4757800D01*
X38051700Y4794900D01*
X38024100Y4821300D01*
X37996600Y4831900D01*
X37961100D01*
G01X37996600D02*
X38020200Y4847800D01*
X38039900Y4874300D01*
X38047700Y4906000D01*
X38039900Y4937800D01*
X38020200Y4964200D01*
X37984700Y4980100D01*
X37949300Y4974800D01*
X37913900Y4953600D01*
G01X37339200Y6407500D02*
X37307700Y6396900D01*
X37284100Y6370500D01*
X37268300Y6338700D01*
X37256500Y6296400D01*
X37252600Y6248700D01*
X37256500Y6201100D01*
X37268300Y6158800D01*
X37284100Y6127000D01*
X37307700Y6100600D01*
X37339200Y6090000D01*
X37370700Y6100600D01*
X37394300Y6127000D01*
X37410100Y6158800D01*
X37421900Y6201100D01*
X37425800Y6248700D01*
X37421900Y6296400D01*
X37410100Y6338700D01*
X37394300Y6370500D01*
X37370700Y6396900D01*
X37339200Y6407500D01*
G01X37654100Y6079400D02*
X37646200Y6084700D01*
Y6095300D01*
X37654100Y6100600D01*
X37662000Y6095300D01*
Y6084700D01*
X37654100Y6079400D01*
G01X37882400Y6153500D02*
X37906000Y6116500D01*
X37937500Y6095300D01*
X37972900Y6090000D01*
X38004400Y6095300D01*
X38035900Y6121700D01*
X38055600Y6153500D01*
X38059500Y6185200D01*
X38051700Y6222300D01*
X38024100Y6248700D01*
X37996600Y6259300D01*
X37961100D01*
G01X37996600D02*
X38020200Y6275200D01*
X38039900Y6301700D01*
X38047700Y6333400D01*
X38039900Y6365200D01*
X38020200Y6391600D01*
X37984700Y6407500D01*
X37949300Y6402200D01*
X37913900Y6381000D01*
G01X40055200Y7319300D02*
Y3037100D01*
G01X40803000Y3235200D02*
Y3552700D01*
X40897400D01*
X40928900Y3536800D01*
X40952600Y3499800D01*
X40960400Y3457500D01*
X40952600Y3415100D01*
X40932900Y3383400D01*
X40897400Y3367500D01*
X40803000D01*
G01X41117900Y3552700D02*
Y3235200D01*
X41275300D01*
G01X41413100D02*
X41511500Y3552700D01*
X41609900Y3235200D01*
G01X41574500Y3346300D02*
X41448500D01*
G01X41826400Y3552700D02*
Y3235200D01*
G01X41735900Y3552700D02*
X41916900D01*
G01X42220000Y3235200D02*
X42062600D01*
Y3552700D01*
X42220000D01*
G01X42157000Y3399200D02*
X42062600D01*
G01X42369600Y3235200D02*
Y3552700D01*
X42448300D01*
X42479800Y3536800D01*
X42503400Y3515700D01*
X42523100Y3483900D01*
X42538900Y3446900D01*
X42542800Y3393900D01*
X42538900Y3341000D01*
X42523100Y3304000D01*
X42503400Y3272200D01*
X42479800Y3251100D01*
X42448300Y3235200D01*
X42369600D01*
G01X40803000Y3948900D02*
Y4266400D01*
X40897400D01*
X40928900Y4250500D01*
X40952600Y4213500D01*
X40960400Y4171200D01*
X40952600Y4128800D01*
X40932900Y4097100D01*
X40897400Y4081200D01*
X40803000D01*
G01X41117900Y4266400D02*
Y3948900D01*
X41275300D01*
G01X41413100D02*
X41511500Y4266400D01*
X41609900Y3948900D01*
G01X41574500Y4060000D02*
X41448500D01*
G01X41826400Y4266400D02*
Y3948900D01*
G01X41735900Y4266400D02*
X41916900D01*
G01X42220000Y3948900D02*
X42062600D01*
Y4266400D01*
X42220000D01*
G01X42157000Y4112900D02*
X42062600D01*
G01X42369600Y3948900D02*
Y4266400D01*
X42448300D01*
X42479800Y4250500D01*
X42503400Y4229400D01*
X42523100Y4197600D01*
X42538900Y4160600D01*
X42542800Y4107600D01*
X42538900Y4054700D01*
X42523100Y4017700D01*
X42503400Y3985900D01*
X42479800Y3964800D01*
X42448300Y3948900D01*
X42369600D01*
G01X40803000Y4662600D02*
Y4980100D01*
X40897400D01*
X40928900Y4964200D01*
X40952600Y4927200D01*
X40960400Y4884900D01*
X40952600Y4842500D01*
X40932900Y4810800D01*
X40897400Y4794900D01*
X40803000D01*
G01X41117900Y4980100D02*
Y4662600D01*
X41275300D01*
G01X41413100D02*
X41511500Y4980100D01*
X41609900Y4662600D01*
G01X41574500Y4773700D02*
X41448500D01*
G01X41826400Y4980100D02*
Y4662600D01*
G01X41735900Y4980100D02*
X41916900D01*
G01X42220000Y4662600D02*
X42062600D01*
Y4980100D01*
X42220000D01*
G01X42157000Y4826600D02*
X42062600D01*
G01X42369600Y4662600D02*
Y4980100D01*
X42448300D01*
X42479800Y4964200D01*
X42503400Y4943100D01*
X42523100Y4911300D01*
X42538900Y4874300D01*
X42542800Y4821300D01*
X42538900Y4768400D01*
X42523100Y4731400D01*
X42503400Y4699600D01*
X42479800Y4678500D01*
X42448300Y4662600D01*
X42369600D01*
G01X40803000Y5376300D02*
Y5693800D01*
X40897400D01*
X40928900Y5677900D01*
X40952600Y5640900D01*
X40960400Y5598600D01*
X40952600Y5556200D01*
X40932900Y5524500D01*
X40897400Y5508600D01*
X40803000D01*
G01X41117900Y5693800D02*
Y5376300D01*
X41275300D01*
G01X41413100D02*
X41511500Y5693800D01*
X41609900Y5376300D01*
G01X41574500Y5487400D02*
X41448500D01*
G01X41826400Y5693800D02*
Y5376300D01*
G01X41735900Y5693800D02*
X41916900D01*
G01X42220000Y5376300D02*
X42062600D01*
Y5693800D01*
X42220000D01*
G01X42157000Y5540300D02*
X42062600D01*
G01X42369600Y5376300D02*
Y5693800D01*
X42448300D01*
X42479800Y5677900D01*
X42503400Y5656800D01*
X42523100Y5625000D01*
X42538900Y5588000D01*
X42542800Y5535000D01*
X42538900Y5482100D01*
X42523100Y5445100D01*
X42503400Y5413300D01*
X42479800Y5392200D01*
X42448300Y5376300D01*
X42369600D01*
G01X40803000Y6090000D02*
Y6407500D01*
X40897400D01*
X40928900Y6391600D01*
X40952600Y6354600D01*
X40960400Y6312300D01*
X40952600Y6269900D01*
X40932900Y6238200D01*
X40897400Y6222300D01*
X40803000D01*
G01X41117900Y6407500D02*
Y6090000D01*
X41275300D01*
G01X41413100D02*
X41511500Y6407500D01*
X41609900Y6090000D01*
G01X41574500Y6201100D02*
X41448500D01*
G01X41826400Y6407500D02*
Y6090000D01*
G01X41735900Y6407500D02*
X41916900D01*
G01X42220000Y6090000D02*
X42062600D01*
Y6407500D01*
X42220000D01*
G01X42157000Y6254000D02*
X42062600D01*
G01X42369600Y6090000D02*
Y6407500D01*
X42448300D01*
X42479800Y6391600D01*
X42503400Y6370500D01*
X42523100Y6338700D01*
X42538900Y6301700D01*
X42542800Y6248700D01*
X42538900Y6195800D01*
X42523100Y6158800D01*
X42503400Y6127000D01*
X42479800Y6105900D01*
X42448300Y6090000D01*
X42369600D01*
G01X40803000Y6843000D02*
Y7160500D01*
X40897400D01*
X40928900Y7144600D01*
X40952600Y7107600D01*
X40960400Y7065300D01*
X40952600Y7022900D01*
X40932900Y6991200D01*
X40897400Y6975300D01*
X40803000D01*
G01X41117900Y7160500D02*
Y6843000D01*
X41275300D01*
G01X41413100D02*
X41511500Y7160500D01*
X41609900Y6843000D01*
G01X41574500Y6954100D02*
X41448500D01*
G01X41826400Y7160500D02*
Y6843000D01*
G01X41735900Y7160500D02*
X41916900D01*
G01X42220000Y6843000D02*
X42062600D01*
Y7160500D01*
X42220000D01*
G01X42157000Y7007000D02*
X42062600D01*
G01X42369600Y6843000D02*
Y7160500D01*
X42448300D01*
X42479800Y7144600D01*
X42503400Y7123500D01*
X42523100Y7091700D01*
X42538900Y7054700D01*
X42542800Y7001700D01*
X42538900Y6948800D01*
X42523100Y6911800D01*
X42503400Y6880000D01*
X42479800Y6858900D01*
X42448300Y6843000D01*
X42369600D01*
G01X43282900Y7319300D02*
Y3037100D01*
G01X44109500Y3235200D02*
Y3552700D01*
X44062300Y3489200D01*
G01Y3235200D02*
X44156700D01*
G01X44349600Y3499800D02*
X44373200Y3531500D01*
X44400800Y3547400D01*
X44432300Y3552700D01*
X44471600Y3542100D01*
X44499200Y3515700D01*
X44507100Y3483900D01*
X44503100Y3452200D01*
X44487400Y3425700D01*
X44408700Y3372800D01*
X44373200Y3335700D01*
X44349600Y3282800D01*
X44341700Y3235200D01*
X44507100D01*
G01X44109500Y4662600D02*
Y4980100D01*
X44062300Y4916600D01*
G01Y4662600D02*
X44156700D01*
G01X44337800Y4726100D02*
X44361400Y4689100D01*
X44392900Y4667900D01*
X44428300Y4662600D01*
X44459800Y4667900D01*
X44491300Y4694300D01*
X44511000Y4726100D01*
X44514900Y4757800D01*
X44507100Y4794900D01*
X44479500Y4821300D01*
X44452000Y4831900D01*
X44416500D01*
G01X44452000D02*
X44475600Y4847800D01*
X44495300Y4874300D01*
X44503100Y4906000D01*
X44495300Y4937800D01*
X44475600Y4964200D01*
X44440100Y4980100D01*
X44404700Y4974800D01*
X44369300Y4953600D01*
G01X43877300Y5640900D02*
X43900900Y5672600D01*
X43928500Y5688500D01*
X43960000Y5693800D01*
X43999300Y5683200D01*
X44026900Y5656800D01*
X44034800Y5625000D01*
X44030800Y5593300D01*
X44015100Y5566800D01*
X43936400Y5513900D01*
X43900900Y5476800D01*
X43877300Y5423900D01*
X43869400Y5376300D01*
X44034800D01*
G01X44180400Y5439800D02*
X44204000Y5402800D01*
X44235500Y5381600D01*
X44270900Y5376300D01*
X44302400Y5381600D01*
X44333900Y5408000D01*
X44353600Y5439800D01*
X44357500Y5471500D01*
X44349700Y5508600D01*
X44322100Y5535000D01*
X44294600Y5545600D01*
X44259100D01*
G01X44294600D02*
X44318200Y5561500D01*
X44337900Y5588000D01*
X44345700Y5619700D01*
X44337900Y5651500D01*
X44318200Y5677900D01*
X44282700Y5693800D01*
X44247300Y5688500D01*
X44211900Y5667300D01*
G01X44515000Y5413300D02*
X44542500Y5386900D01*
X44574000Y5376300D01*
X44605500Y5386900D01*
X44633100Y5418600D01*
X44652800Y5466300D01*
X44660600Y5513900D01*
Y5572100D01*
X44652800Y5619700D01*
X44633100Y5662000D01*
X44609500Y5683200D01*
X44581900Y5693800D01*
X44550400Y5683200D01*
X44526800Y5662000D01*
X44511000Y5630300D01*
X44503200Y5588000D01*
X44511000Y5550900D01*
X44530700Y5513900D01*
X44554300Y5492700D01*
X44581900Y5487400D01*
X44613400Y5498000D01*
X44637000Y5524500D01*
X44660600Y5572100D01*
G01X43944200Y6090000D02*
X43952100Y6158800D01*
X43963900Y6217000D01*
X43979700Y6269900D01*
X43999300Y6328100D01*
X44030800Y6407500D01*
X43873400D01*
G01X44267000Y6090000D02*
X44294600Y6095300D01*
X44326000Y6111200D01*
X44345700Y6137600D01*
X44353600Y6174700D01*
X44345700Y6211700D01*
X44322100Y6243500D01*
X44286700Y6259300D01*
X44247300D01*
X44223700Y6269900D01*
X44204000Y6296400D01*
X44196100Y6333400D01*
X44208000Y6370500D01*
X44235500Y6396900D01*
X44267000Y6407500D01*
X44298500Y6396900D01*
X44326000Y6370500D01*
X44337900Y6333400D01*
X44330000Y6296400D01*
X44310300Y6269900D01*
X44286700Y6259300D01*
X44247300D01*
X44211900Y6243500D01*
X44188300Y6211700D01*
X44180400Y6174700D01*
X44188300Y6137600D01*
X44208000Y6111200D01*
X44239400Y6095300D01*
X44267000Y6090000D01*
G01X44495300Y6137600D02*
X44518900Y6111200D01*
X44546500Y6095300D01*
X44581900Y6090000D01*
X44617300Y6100600D01*
X44644900Y6121700D01*
X44664600Y6158800D01*
X44668500Y6201100D01*
X44660600Y6243500D01*
X44640900Y6269900D01*
X44613400Y6291100D01*
X44585800Y6296400D01*
X44558300Y6291100D01*
X44522900Y6269900D01*
X44534700Y6407500D01*
X44640900D01*
G01X43952100Y6843000D02*
X43920600Y6848300D01*
X43893100Y6869500D01*
X43869400Y6901200D01*
X43853700Y6938200D01*
X43845800Y6980600D01*
Y7022900D01*
X43853700Y7065300D01*
X43869400Y7102300D01*
X43893100Y7134000D01*
X43920600Y7155200D01*
X43952100Y7160500D01*
X43983600Y7155200D01*
X44011100Y7134000D01*
X44034800Y7102300D01*
X44050500Y7065300D01*
X44058400Y7022900D01*
Y6980600D01*
X44050500Y6938200D01*
X44034800Y6901200D01*
X44011100Y6869500D01*
X43983600Y6848300D01*
X43952100Y6843000D01*
G01X43983600Y6927700D02*
X44030800Y6843000D01*
G01X44267000Y7160500D02*
Y6843000D01*
G01X44176500Y7160500D02*
X44357500D01*
G01X44581900Y6843000D02*
Y6985900D01*
X44503200Y7160500D01*
G01X44660600D02*
X44581900Y6985900D01*
G01X44192200Y4213500D02*
X44215800Y4245200D01*
X44243400Y4261100D01*
X44274900Y4266400D01*
X44314200Y4255800D01*
X44341800Y4229400D01*
X44349700Y4197600D01*
X44345700Y4165900D01*
X44330000Y4139400D01*
X44251300Y4086500D01*
X44215800Y4049400D01*
X44192200Y3996500D01*
X44184300Y3948900D01*
X44349700D01*
G01X-594000Y477000D02*
Y21822000D01*
X46673000D01*
Y477000D01*
X-594000D01*
M02*
