G04 ================== begin FILE IDENTIFICATION RECORD ==================*
G04 Layout Name:  D:/Spira Heaven/0-My Works/Srtp/PCB/Trans/PCB/Trans.brd*
G04 Film Name:    SIGNAL_1*
G04 File Format:  Gerber RS274X*
G04 File Origin:  Cadence Allegro 16.6-S003*
G04 Origin Date:  Mon Feb 24 20:45:19 2014*
G04 *
G04 Layer:  VIA CLASS/SIGNAL_1*
G04 Layer:  PIN/SIGNAL_1*
G04 Layer:  ETCH/SIGNAL_1*
G04 Layer:  BOARD GEOMETRY/OUTLINE*
G04 *
G04 Offset:    (0.000 0.000)*
G04 Mirror:    No*
G04 Mode:      Positive*
G04 Rotation:  0*
G04 FullContactRelief:  No*
G04 UndefLineWidth:     0.200*
G04 ================== end FILE IDENTIFICATION RECORD ====================*
%FSLAX25Y25*MOMM*%
%IR0*IPPOS*OFA0.00000B0.00000*MIA0B0*SFA1.00000B1.00000*%
%ADD13C,1.5*%
%ADD10C,6.*%
%ADD14C,2.6*%
%ADD11C,.5*%
%ADD12C,.61*%
%ADD15C,1.*%
%ADD16C,2.*%
%ADD17C,.3*%
%ADD18C,.2*%
%ADD19C,.8*%
G75*
%LPD*%
G75*
G36*
G01X5620000Y11047200D02*
Y11055000D01*
X5604800Y11072300D01*
X5586500Y11045500D01*
X5602300Y11029500D01*
X5620000Y11047200D01*
G37*
G36*
G01X7289700Y4200400D02*
X7281000Y4205800D01*
X7262300Y4185600D01*
X7283600Y4168500D01*
X7292400Y4177100D01*
G03X7289700Y4200400I-10612J10577D01*
G37*
G36*
G01X7231800Y4280500D02*
X7222700Y4289600D01*
X7201300Y4272500D01*
X7219400Y4251900D01*
X7228500Y4256900D01*
G03X7231800Y4280500I-7395J13065D01*
G37*
G36*
G01X7338700Y4135600D02*
X7331600Y4142500D01*
X7310200Y4125000D01*
X7331600Y4107500D01*
X7338700Y4114400D01*
G03Y4135600I-10600J10600D01*
G37*
G36*
G01X7166700Y4359600D02*
X7159600Y4366500D01*
X7138200Y4349000D01*
X7159600Y4331500D01*
X7166700Y4338400D01*
G03Y4359600I-10600J10600D01*
G37*
G36*
G01X7106800Y4423600D02*
X7096700Y4433600D01*
X7075300Y4416600D01*
X7091800Y4395100D01*
X7101800Y4399100D01*
G03X7106800Y4423600I-5670J13917D01*
G37*
G36*
G01X7786000Y3392000D02*
X7776000D01*
X7773300Y3364300D01*
X7801000Y3367000D01*
Y3377000D01*
G03X7786000Y3392000I-15000J0D01*
G37*
G36*
G01X7834000Y3329000D02*
X7824000D01*
X7821300Y3301300D01*
X7849000Y3304000D01*
Y3314000D01*
G03X7834000Y3329000I-15000J0D01*
G37*
G36*
G01X7547700Y3766600D02*
X7540600Y3773500D01*
X7519200Y3756000D01*
X7540600Y3738500D01*
X7547700Y3745400D01*
G03Y3766600I-10600J10600D01*
G37*
G36*
G01X7647700Y3618600D02*
X7640600Y3625500D01*
X7619200Y3608000D01*
X7640600Y3590500D01*
X7647700Y3597400D01*
G03Y3618600I-10600J10600D01*
G37*
G36*
G01X7597700Y3700600D02*
X7590600Y3707500D01*
X7569200Y3690000D01*
X7590600Y3672500D01*
X7597700Y3679400D01*
G03Y3700600I-10600J10600D01*
G37*
G36*
G01X7496700Y3849600D02*
X7481700Y3864600D01*
X7460500Y3848300D01*
X7472000Y3839000D01*
X7486100D01*
X7496700Y3849600D01*
G37*
G36*
G01X7726100Y3469100D02*
X7716100D01*
X7713400Y3441400D01*
X7741100Y3444100D01*
Y3454100D01*
G03X7726100Y3469100I-15000J0D01*
G37*
G36*
G01X7683400Y3557900D02*
X7670400Y3558900D01*
X7658400Y3535900D01*
X7679700Y3519400D01*
X7692700Y3532400D01*
G03X7683400Y3557900I-10613J10575D01*
G37*
G36*
G01X7432700Y3934600D02*
X7425600Y3941500D01*
X7404200Y3924000D01*
X7425600Y3906500D01*
X7432700Y3913400D01*
G03Y3934600I-10600J10600D01*
G37*
G36*
G01X7393100Y4022000D02*
X7379000D01*
X7361600Y4006300D01*
X7382700Y3990400D01*
X7403700Y4011400D01*
X7393100Y4022000D01*
G37*
G36*
G01X7862000Y3250000D02*
X7852000D01*
X7849300Y3222300D01*
X7877000Y3225000D01*
Y3235000D01*
G03X7862000Y3250000I-15000J0D01*
G37*
G36*
G01X8119000Y2988000D02*
X8109000D01*
X8106300Y2960300D01*
X8134000Y2963000D01*
Y2973000D01*
G03X8119000Y2988000I-15000J0D01*
G37*
G36*
G01X7976000Y3131000D02*
X7966000D01*
X7963300Y3103300D01*
X7991000Y3106000D01*
Y3116000D01*
G03X7976000Y3131000I-15000J0D01*
G37*
G36*
G01X8055000Y3044000D02*
X8045000D01*
X8042300Y3016300D01*
X8070000Y3019000D01*
Y3029000D01*
G03X8055000Y3044000I-15000J0D01*
G37*
G36*
G01X8696600Y2976000D02*
X8739000Y3018400D01*
X8701000Y3032800D01*
X8671000D01*
X8633000Y3018400D01*
X8675400Y2976000D01*
G03X8696600I10600J10600D01*
G37*
G36*
G01X9887500Y4285100D02*
X9878400Y4290100D01*
X9860300Y4269500D01*
X9881700Y4252400D01*
X9890800Y4261500D01*
G03X9887500Y4285100I-10695J10535D01*
G37*
G36*
G01X9839300Y4259400D02*
X9846400Y4252500D01*
X9867800Y4270000D01*
X9846400Y4287500D01*
X9839300Y4280600D01*
G03Y4259400I10600J-10600D01*
G37*
G36*
G01X10031700Y4423600D02*
X10024600Y4430500D01*
X10003200Y4413000D01*
X10024600Y4395500D01*
X10031700Y4402400D01*
G03Y4423600I-10600J10600D01*
G37*
G36*
G01X9982300Y4402400D02*
X9989400Y4395500D01*
X10010800Y4413000D01*
X9989400Y4430500D01*
X9982300Y4423600D01*
G03Y4402400I10600J-10600D01*
G37*
G36*
G01X11299200Y2902400D02*
X11288100Y2905400D01*
X11273300Y2883200D01*
X11294700Y2866400D01*
X11305800Y2877400D01*
G03X11299200Y2902400I-10676J10553D01*
G37*
G36*
G01X11228700Y2967600D02*
X11213700Y2982600D01*
X11192500Y2966300D01*
X11204000Y2957000D01*
X11218100D01*
X11228700Y2967600D01*
G37*
G36*
G01X11587000Y2602000D02*
X11577000D01*
X11574300Y2574300D01*
X11602000Y2577000D01*
Y2587000D01*
G03X11587000Y2602000I-15000J0D01*
G37*
G36*
G01X11734700Y2502600D02*
X11727600Y2509500D01*
X11706200Y2492000D01*
X11727600Y2474500D01*
X11734700Y2481400D01*
G03Y2502600I-10600J10600D01*
G37*
G36*
G01X11648000Y2559000D02*
X11638000D01*
X11635300Y2531300D01*
X11663000Y2534000D01*
Y2544000D01*
G03X11648000Y2559000I-15000J0D01*
G37*
G36*
G01X11801700Y2440600D02*
X11794600Y2447500D01*
X11773200Y2430000D01*
X11794600Y2412500D01*
X11801700Y2419400D01*
G03Y2440600I-10600J10600D01*
G37*
G36*
G01X11430000Y2758000D02*
X11420000D01*
X11417300Y2730300D01*
X11445000Y2733000D01*
Y2743000D01*
G03X11430000Y2758000I-15000J0D01*
G37*
G36*
G01X11526100Y2696000D02*
X11512000D01*
X11491700Y2677200D01*
X11512600Y2661500D01*
X11536700Y2685400D01*
X11526100Y2696000D01*
G37*
G36*
G01X11398100Y2820000D02*
X11384000D01*
X11363700Y2801200D01*
X11384600Y2785500D01*
X11408700Y2809400D01*
X11398100Y2820000D01*
G37*
G36*
G01X12200100Y1997000D02*
X12186000D01*
X12173500Y1986600D01*
X12194700Y1970400D01*
X12210700Y1986400D01*
X12200100Y1997000D01*
G37*
G36*
G01X12281700Y1942600D02*
X12273600Y1950500D01*
X12252300Y1933200D01*
X12272100Y1914100D01*
X12280200Y1920100D01*
G03X12281700Y1942600I-9107J11907D01*
G37*
G36*
G01X11832200Y2372900D02*
X11824100Y2378900D01*
X11804300Y2359800D01*
X11825600Y2342500D01*
X11833700Y2350400D01*
G03X11832200Y2372900I-10607J10593D01*
G37*
G36*
G01X12154700Y2058600D02*
X12147600Y2065500D01*
X12126200Y2048000D01*
X12147600Y2030500D01*
X12154700Y2037400D01*
G03Y2058600I-10600J10600D01*
G37*
G36*
G01X12085100Y2116000D02*
X12071000D01*
X12058500Y2105600D01*
X12079700Y2089400D01*
X12095700Y2105400D01*
X12085100Y2116000D01*
G37*
G36*
G01X12009700Y2187600D02*
X12002600Y2194500D01*
X11981200Y2177000D01*
X12002600Y2159500D01*
X12009700Y2166400D01*
G03Y2187600I-10600J10600D01*
G37*
G36*
G01X11962100Y2244000D02*
X11948000D01*
X11930600Y2228300D01*
X11951700Y2212400D01*
X11972700Y2233400D01*
X11962100Y2244000D01*
G37*
G36*
G01X12434700Y1793600D02*
X12427600Y1800500D01*
X12406200Y1783000D01*
X12427600Y1765500D01*
X12434700Y1772400D01*
G03Y1793600I-10600J10600D01*
G37*
G36*
G01X12340200Y1891000D02*
X12326200D01*
X12315400Y1867800D01*
X12336700Y1851400D01*
X12350700Y1865400D01*
G03X12340200Y1891000I-10606J10603D01*
G37*
G36*
G01X12513700Y1736800D02*
X12501700Y1738800D01*
X12488400Y1716100D01*
X12509700Y1699400D01*
X12521800Y1711400D01*
G03X12513700Y1736800I-10664J10591D01*
G37*
G36*
G01X12745200Y11210800D02*
X12735200D01*
X12732500Y11183100D01*
X12760200Y11185800D01*
Y11195800D01*
G03X12745200Y11210800I-15000J0D01*
G37*
G36*
G01X12800200Y11167400D02*
X12790200D01*
X12787500Y11139700D01*
X12815200Y11142400D01*
Y11152400D01*
G03X12800200Y11167400I-15000J0D01*
G37*
G36*
G01X12420500Y11363500D02*
X12410500D01*
X12407800Y11335800D01*
X12435500Y11338500D01*
Y11348500D01*
G03X12420500Y11363500I-15000J0D01*
G37*
G36*
G01X12592800Y11290500D02*
X12582800D01*
X12580100Y11262800D01*
X12607800Y11265500D01*
Y11275500D01*
G03X12592800Y11290500I-15000J0D01*
G37*
G36*
G01X12665200Y11235400D02*
X12655200D01*
X12652500Y11207700D01*
X12680200Y11210400D01*
Y11220400D01*
G03X12665200Y11235400I-15000J0D01*
G37*
G36*
G01X12487200Y11341900D02*
X12477200D01*
X12474500Y11314200D01*
X12502200Y11316900D01*
Y11326900D01*
G03X12487200Y11341900I-15000J0D01*
G37*
G36*
G01X12701500Y16621500D02*
X12686000D01*
X12683300Y16588300D01*
X12716500Y16591000D01*
Y16606500D01*
G03X12701500Y16621500I-15000J0D01*
G37*
G36*
G01X13260000Y10769000D02*
X13250000D01*
X13247300Y10741300D01*
X13275000Y10744000D01*
Y10754000D01*
G03X13260000Y10769000I-15000J0D01*
G37*
G36*
G01X13130000Y10859000D02*
X13120000D01*
X13117300Y10831300D01*
X13145000Y10834000D01*
Y10844000D01*
G03X13130000Y10859000I-15000J0D01*
G37*
G36*
G01X13199100Y10816400D02*
X13189100D01*
X13186400Y10788700D01*
X13214100Y10791400D01*
Y10801400D01*
G03X13199100Y10816400I-15000J0D01*
G37*
G36*
G01X12938500Y11097900D02*
X12928500D01*
X12925800Y11070200D01*
X12953500Y11072900D01*
Y11082900D01*
G03X12938500Y11097900I-15000J0D01*
G37*
G36*
G01X12994000Y10969000D02*
X12984000D01*
X12981300Y10941300D01*
X13009000Y10944000D01*
Y10954000D01*
G03X12994000Y10969000I-15000J0D01*
G37*
G36*
G01X12982000Y11043000D02*
X12972000D01*
X12969300Y11015300D01*
X12997000Y11018000D01*
Y11028000D01*
G03X12982000Y11043000I-15000J0D01*
G37*
G36*
G01X12839000Y11109000D02*
X12829000D01*
X12826300Y11081300D01*
X12854000Y11084000D01*
Y11094000D01*
G03X12839000Y11109000I-15000J0D01*
G37*
G36*
G01X13322000Y10714000D02*
X13312000D01*
X13309300Y10686300D01*
X13337000Y10689000D01*
Y10699000D01*
G03X13322000Y10714000I-15000J0D01*
G37*
G36*
G01X13464000Y10618000D02*
X13454000D01*
X13451300Y10590300D01*
X13479000Y10593000D01*
Y10603000D01*
G03X13464000Y10618000I-15000J0D01*
G37*
G36*
G01X13623700Y10505600D02*
X13616600Y10512500D01*
X13595200Y10495000D01*
X13616600Y10477500D01*
X13623700Y10484400D01*
G03Y10505600I-10600J10600D01*
G37*
G36*
G01X13697700Y10429600D02*
X13690600Y10436500D01*
X13669200Y10419000D01*
X13690600Y10401500D01*
X13697700Y10408400D01*
G03Y10429600I-10600J10600D01*
G37*
G36*
G01X13398000Y10664000D02*
X13388000D01*
X13385300Y10636300D01*
X13413000Y10639000D01*
Y10649000D01*
G03X13398000Y10664000I-15000J0D01*
G37*
G36*
G01X13548100Y10578000D02*
X13538100D01*
X13535400Y10550300D01*
X13563100Y10553000D01*
Y10563000D01*
G03X13548100Y10578000I-15000J0D01*
G37*
G36*
G01X13571200Y11664000D02*
X13579000D01*
X13591600Y11673700D01*
X13564500Y11692500D01*
X13553500Y11681700D01*
X13571200Y11664000D01*
G37*
G36*
G01X14069700Y3216600D02*
X14062600Y3223500D01*
X14041200Y3206000D01*
X14062600Y3188500D01*
X14069700Y3195400D01*
G03Y3216600I-10600J10600D01*
G37*
G36*
G01X14020300Y3195400D02*
X14027400Y3188500D01*
X14048800Y3206000D01*
X14027400Y3223500D01*
X14020300Y3216600D01*
G03Y3195400I10600J-10600D01*
G37*
G36*
G01X14576700Y3764600D02*
X14569600Y3771500D01*
X14548200Y3754000D01*
X14569600Y3736500D01*
X14576700Y3743400D01*
G03Y3764600I-10600J10600D01*
G37*
G36*
G01X14525200Y3745500D02*
X14534300Y3736400D01*
X14555700Y3753500D01*
X14537600Y3774100D01*
X14528500Y3769100D01*
G03X14525200Y3745500I7395J-13065D01*
G37*
G36*
G01X14404700Y3556600D02*
X14397600Y3563500D01*
X14376200Y3546000D01*
X14397600Y3528500D01*
X14404700Y3535400D01*
G03Y3556600I-10600J10600D01*
G37*
G36*
G01X14355300Y3535400D02*
X14362400Y3528500D01*
X14383800Y3546000D01*
X14362400Y3563500D01*
X14355300Y3556600D01*
G03Y3535400I10600J-10600D01*
G37*
G36*
G01X14651300Y3915400D02*
X14658400Y3908500D01*
X14679800Y3926000D01*
X14658400Y3943500D01*
X14651300Y3936600D01*
G03Y3915400I10600J-10600D01*
G37*
G36*
G01X14700700Y3936600D02*
X14693600Y3943500D01*
X14672200Y3926000D01*
X14693600Y3908500D01*
X14700700Y3915400D01*
G03Y3936600I-10600J10600D01*
G37*
G36*
G01X14766300Y4114400D02*
X14774400Y4106500D01*
X14795700Y4123800D01*
X14775900Y4142900D01*
X14767800Y4136900D01*
G03X14766300Y4114400I9107J-11907D01*
G37*
G36*
G01X14824700Y4126600D02*
X14809700Y4141600D01*
X14788500Y4125300D01*
X14800000Y4116000D01*
X14814100D01*
X14824700Y4126600D01*
G37*
G36*
G01X16615100Y2704000D02*
X16601000D01*
X16589500Y2694700D01*
X16610700Y2678400D01*
X16625700Y2693400D01*
X16615100Y2704000D01*
G37*
G36*
G01X16568300Y2685400D02*
X16575400Y2678500D01*
X16596800Y2696000D01*
X16575400Y2713500D01*
X16568300Y2706600D01*
G03Y2685400I10600J-10600D01*
G37*
G36*
G01X17243100Y2059000D02*
X17229000D01*
X17208700Y2040200D01*
X17229600Y2024500D01*
X17253700Y2048400D01*
X17243100Y2059000D01*
G37*
G36*
G01X17181300Y2037400D02*
X17194300Y2024400D01*
X17215600Y2040900D01*
X17203600Y2063900D01*
X17190600Y2062900D01*
G03X17181300Y2037400I1313J-14925D01*
G37*
G36*
G01X17486900Y1783000D02*
X17501000D01*
X17519300Y1799700D01*
X17498400Y1815500D01*
X17476300Y1793600D01*
X17486900Y1783000D01*
G37*
G36*
G01X17538800Y1814900D02*
X17528800Y1818900D01*
X17512300Y1797400D01*
X17533700Y1780400D01*
X17543800Y1790400D01*
G03X17538800Y1814900I-10670J10583D01*
G37*
G36*
G01X17302800Y2005600D02*
X17291700Y2016600D01*
X17270300Y1999800D01*
X17285100Y1977600D01*
X17296200Y1980600D01*
G03X17302800Y2005600I-4076J14447D01*
G37*
G36*
G01X17382700Y1949600D02*
X17369700Y1962600D01*
X17348400Y1946100D01*
X17360400Y1923100D01*
X17373400Y1924100D01*
G03X17382700Y1949600I-1313J14925D01*
G37*
G36*
G01X17324900Y1932000D02*
X17339000D01*
X17355400Y1946600D01*
X17334300Y1962600D01*
X17314300Y1942600D01*
X17324900Y1932000D01*
G37*
G36*
G01X19208200Y3263100D02*
X19218200Y3259100D01*
X19234700Y3280600D01*
X19213300Y3297600D01*
X19203200Y3287600D01*
G03X19208200Y3263100I10670J-10583D01*
G37*
G36*
G01X19127300Y3195400D02*
X19144300Y3178400D01*
X19165500Y3194600D01*
X19152000Y3206000D01*
X19137900D01*
X19127300Y3195400D01*
G37*
G36*
G01X18880800Y3010600D02*
X18891900Y3007600D01*
X18906700Y3029800D01*
X18885300Y3046600D01*
X18874200Y3035600D01*
G03X18880800Y3010600I10676J-10553D01*
G37*
G36*
G01X19041200Y3132400D02*
X19052300Y3121400D01*
X19073700Y3138200D01*
X19058900Y3160400D01*
X19047800Y3157400D01*
G03X19041200Y3132400I4076J-14447D01*
G37*
G36*
G01X18972300Y3078400D02*
X18987300Y3063400D01*
X19008500Y3079700D01*
X18997000Y3089000D01*
X18982900D01*
X18972300Y3078400D01*
G37*
G36*
G01X19195500Y12680400D02*
X19202400Y12687500D01*
X19184900Y12708800D01*
X19167400Y12687500D01*
X19174300Y12680400D01*
G03X19195500I10600J10600D01*
G37*
G36*
G01X19238000Y12624600D02*
X19248000Y12634600D01*
X19249200Y12658600D01*
X19223000Y12655000D01*
Y12624600D01*
X19238000D01*
G37*
G36*
G01X18894800Y12732100D02*
Y12722100D01*
X18922500Y12719400D01*
X18919800Y12747100D01*
X18909800D01*
G03X18894800Y12732100I0J-15000D01*
G37*
G36*
G01X19059600Y12692300D02*
X19066500Y12699400D01*
X19049000Y12720800D01*
X19031500Y12699400D01*
X19038400Y12692300D01*
G03X19059600I10600J10600D01*
G37*
G36*
G01X19109800Y12637100D02*
X19119800D01*
X19122500Y12664800D01*
X19094800Y12662100D01*
Y12652100D01*
G03X19109800Y12637100I15000J0D01*
G37*
G36*
G01X18944800Y12662100D02*
X18958900D01*
X18973700Y12675000D01*
X18952600Y12691100D01*
X18934200Y12672700D01*
X18944800Y12662100D01*
G37*
G36*
G01X19267300Y3348400D02*
X19274400Y3341500D01*
X19295800Y3359000D01*
X19274400Y3376500D01*
X19267300Y3369600D01*
G03Y3348400I10600J-10600D01*
G37*
G36*
G01X19636300Y3743400D02*
X19643400Y3736500D01*
X19664800Y3754000D01*
X19643400Y3771500D01*
X19636300Y3764600D01*
G03Y3743400I10600J-10600D01*
G37*
G36*
G01X19324300Y3409400D02*
X19331400Y3402500D01*
X19352800Y3420000D01*
X19331400Y3437500D01*
X19324300Y3430600D01*
G03Y3409400I10600J-10600D01*
G37*
G36*
G01X19527300Y3599400D02*
X19534400Y3592500D01*
X19555800Y3610000D01*
X19534400Y3627500D01*
X19527300Y3620600D01*
G03Y3599400I10600J-10600D01*
G37*
G36*
G01X19572300Y3674400D02*
X19579400Y3667500D01*
X19600800Y3685000D01*
X19579400Y3702500D01*
X19572300Y3695600D01*
G03Y3674400I10600J-10600D01*
G37*
G36*
G01X19690300Y3826400D02*
X19697400Y3819500D01*
X19718800Y3837000D01*
X19697400Y3854500D01*
X19690300Y3847600D01*
G03Y3826400I10600J-10600D01*
G37*
G36*
G01X19401200Y3473400D02*
X19413300Y3461400D01*
X19434600Y3478100D01*
X19421300Y3500800D01*
X19409300Y3498800D01*
G03X19401200Y3473400I2564J-14809D01*
G37*
G36*
G01X19458300Y3535400D02*
X19477300Y3516400D01*
X19498400Y3532400D01*
X19483000Y3546000D01*
X19468900D01*
X19458300Y3535400D01*
G37*
G36*
G01X19751200Y3915400D02*
X19763300Y3903400D01*
X19784600Y3920100D01*
X19771300Y3942800D01*
X19759300Y3940800D01*
G03X19751200Y3915400I2564J-14809D01*
G37*
G36*
G01X19402000Y12654100D02*
X19408900Y12661200D01*
X19391400Y12682600D01*
X19373900Y12661200D01*
X19380800Y12654100D01*
G03X19402000I10600J10600D01*
G37*
G36*
G01X19642000Y12616000D02*
X19648900Y12623100D01*
X19631400Y12644400D01*
X19613900Y12623100D01*
X19620800Y12616000D01*
G03X19642000I10600J10600D01*
G37*
G36*
G01X19462000Y12658700D02*
X19478600Y12675300D01*
X19462400Y12696500D01*
X19451400Y12683400D01*
Y12669300D01*
X19462000Y12658700D01*
G37*
G36*
G01X19582000Y12660300D02*
X19606500Y12685000D01*
X19590800Y12705900D01*
X19571400Y12685000D01*
Y12670900D01*
X19582000Y12660300D01*
G37*
G36*
G01X19318600Y12653200D02*
X19338800Y12673400D01*
X19322800Y12694500D01*
X19308000Y12677900D01*
Y12663800D01*
X19318600Y12653200D01*
G37*
G36*
G01X19714600Y12660300D02*
X19721500Y12667400D01*
X19704000Y12688800D01*
X19686500Y12667400D01*
X19693400Y12660300D01*
G03X19714600I10600J10600D01*
G37*
G36*
G01X19413600Y13412600D02*
X19402600Y13423500D01*
X19377200Y13402000D01*
X19402600Y13380500D01*
X19413600Y13391400D01*
G03Y13412600I-10700J10600D01*
G37*
G36*
G01X19956400Y4176700D02*
X19963700Y4170000D01*
X19984700Y4188100D01*
X19963400Y4205500D01*
X19956000Y4198300D01*
G03X19956400Y4176700I10602J-10607D01*
G37*
G36*
G01X20039300Y4257400D02*
X20046400Y4250500D01*
X20067800Y4268000D01*
X20046400Y4285500D01*
X20039300Y4278600D01*
G03Y4257400I10600J-10600D01*
G37*
G36*
G01X19897300Y4105400D02*
X19904400Y4098500D01*
X19925800Y4116000D01*
X19904400Y4133500D01*
X19897300Y4126600D01*
G03Y4105400I10600J-10600D01*
G37*
G36*
G01X19827300Y4020400D02*
X19834400Y4013500D01*
X19855800Y4031000D01*
X19834400Y4048500D01*
X19827300Y4041600D01*
G03Y4020400I10600J-10600D01*
G37*
G36*
G01X20106800Y4337100D02*
X20114900Y4331100D01*
X20134700Y4350200D01*
X20113400Y4367500D01*
X20105300Y4359600D01*
G03X20106800Y4337100I10607J-10593D01*
G37*
G36*
G01X20174300Y4402400D02*
X20190300Y4386400D01*
X20211500Y4402600D01*
X20199000Y4413000D01*
X20184900D01*
X20174300Y4402400D01*
G37*
G36*
G01X19853200Y12685300D02*
X19860100Y12692400D01*
X19842600Y12713800D01*
X19825100Y12692400D01*
X19832000Y12685300D01*
G03X19853200I10600J10600D01*
G37*
G36*
G01X19990700Y12700700D02*
X19997600Y12707800D01*
X19980100Y12729200D01*
X19962600Y12707800D01*
X19969500Y12700700D01*
G03X19990700I10600J10600D01*
G37*
G36*
G01X19789600Y12652300D02*
X19796500Y12659400D01*
X19779000Y12680800D01*
X19761500Y12659400D01*
X19768400Y12652300D01*
G03X19789600I10600J10600D01*
G37*
G36*
G01X20162900Y12675400D02*
X20169800Y12682500D01*
X20152300Y12703800D01*
X20134800Y12682500D01*
X20141700Y12675400D01*
G03X20162900I10600J10600D01*
G37*
G36*
G01X20260600Y12685300D02*
X20267500Y12692400D01*
X20250000Y12713800D01*
X20232500Y12692400D01*
X20239400Y12685300D01*
G03X20260600I10600J10600D01*
G37*
G36*
G01X19922600Y12659300D02*
X19929500Y12666400D01*
X19912000Y12687800D01*
X19894500Y12666400D01*
X19901400Y12659300D01*
G03X19922600I10600J10600D01*
G37*
G36*
G01X20078600Y12678300D02*
X20085500Y12685400D01*
X20068000Y12706800D01*
X20050500Y12685400D01*
X20057400Y12678300D01*
G03X20078600I10600J10600D01*
G37*
G36*
G01X21638800Y2846700D02*
X21627100Y2849000D01*
X21613400Y2826400D01*
X21634700Y2809700D01*
X21646500Y2821400D01*
G03X21638800Y2846700I-10669J10575D01*
G37*
G36*
G01X21593000Y2813700D02*
X21601400Y2808000D01*
X21620700Y2827600D01*
X21599400Y2844800D01*
X21591000Y2836600D01*
G03X21593000Y2813700I10601J-10611D01*
G37*
G36*
G01X21971500Y2510100D02*
X21962400Y2515100D01*
X21944300Y2494500D01*
X21965700Y2477400D01*
X21974800Y2486500D01*
G03X21971500Y2510100I-10695J10535D01*
G37*
G36*
G01X21923300Y2484400D02*
X21930400Y2477500D01*
X21951800Y2495000D01*
X21930400Y2512500D01*
X21923300Y2505600D01*
G03Y2484400I10600J-10600D01*
G37*
G36*
G01X22545700Y1949600D02*
X22538600Y1956500D01*
X22517200Y1939000D01*
X22538600Y1921500D01*
X22545700Y1928400D01*
G03Y1949600I-10600J10600D01*
G37*
G36*
G01X22499600Y1918100D02*
X22512600Y1917100D01*
X22524600Y1940100D01*
X22503300Y1956600D01*
X22490300Y1943600D01*
G03X22499600Y1918100I10613J-10575D01*
G37*
G36*
G01X22438500Y17555300D02*
X22448500Y17545500D01*
X22475700Y17564500D01*
X22464000Y17573000D01*
X22456200D01*
X22438500Y17555300D01*
G37*
G36*
G01X23197300Y1711400D02*
X23204400Y1704500D01*
X23225800Y1722000D01*
X23204400Y1739500D01*
X23197300Y1732600D01*
G03Y1711400I10600J-10600D01*
G37*
G36*
G01X23247300Y1790400D02*
X23254400Y1783500D01*
X23275800Y1801000D01*
X23254400Y1818500D01*
X23247300Y1811600D01*
G03Y1790400I10600J-10600D01*
G37*
G36*
G01X23299300Y1865400D02*
X23306400Y1858500D01*
X23327800Y1876000D01*
X23306400Y1893500D01*
X23299300Y1886600D01*
G03Y1865400I10600J-10600D01*
G37*
G36*
G01X23415200Y1988500D02*
X23424300Y1979400D01*
X23445700Y1996500D01*
X23427600Y2017100D01*
X23418500Y2012100D01*
G03X23415200Y1988500I7395J-13065D01*
G37*
G36*
G01X23708300Y2297400D02*
X23715400Y2290500D01*
X23736800Y2308000D01*
X23715400Y2325500D01*
X23708300Y2318600D01*
G03Y2297400I10600J-10600D01*
G37*
G36*
G01X23361200Y1928400D02*
X23372300Y1917400D01*
X23393700Y1934200D01*
X23378900Y1956400D01*
X23367800Y1953400D01*
G03X23361200Y1928400I4076J-14447D01*
G37*
G36*
G01X23486000Y2039000D02*
Y2029000D01*
X23513700Y2026300D01*
X23511000Y2054000D01*
X23501000D01*
G03X23486000Y2039000I0J-15000D01*
G37*
G36*
G01X23525000Y2110000D02*
Y2100000D01*
X23552700Y2097300D01*
X23550000Y2125000D01*
X23540000D01*
G03X23525000Y2110000I0J-15000D01*
G37*
G36*
G01X23573300Y2181400D02*
X23594300Y2160400D01*
X23615400Y2176300D01*
X23598000Y2192000D01*
X23583900D01*
X23573300Y2181400D01*
G37*
G36*
G01X23749300Y2360400D02*
X23766300Y2343400D01*
X23787500Y2359600D01*
X23774000Y2371000D01*
X23759900D01*
X23749300Y2360400D01*
G37*
G36*
G01X23863200Y2486500D02*
X23872300Y2477400D01*
X23893700Y2494500D01*
X23875600Y2515100D01*
X23866500Y2510100D01*
G03X23863200Y2486500I7395J-13065D01*
G37*
G36*
G01X23921300Y2554400D02*
X23943400Y2532500D01*
X23964300Y2548300D01*
X23946000Y2565000D01*
X23931900D01*
X23921300Y2554400D01*
G37*
G36*
G01X24195200Y2877500D02*
X24204300Y2868400D01*
X24225700Y2885500D01*
X24207600Y2906100D01*
X24198500Y2901100D01*
G03X24195200Y2877500I7395J-13065D01*
G37*
G36*
G01X24085300Y2749400D02*
X24092400Y2742500D01*
X24113800Y2760000D01*
X24092400Y2777500D01*
X24085300Y2770600D01*
G03Y2749400I10600J-10600D01*
G37*
G36*
G01X24028200Y2685400D02*
X24038300Y2675400D01*
X24059700Y2692400D01*
X24043200Y2713900D01*
X24033200Y2709900D01*
G03X24028200Y2685400I5670J-13917D01*
G37*
G36*
G01X24121300Y2821400D02*
X24142300Y2800400D01*
X24163400Y2816300D01*
X24146000Y2832000D01*
X24131900D01*
X24121300Y2821400D01*
G37*
G36*
G01X24226300Y2945400D02*
X24233400Y2938500D01*
X24254800Y2956000D01*
X24233400Y2973500D01*
X24226300Y2966600D01*
G03Y2945400I10600J-10600D01*
G37*
G36*
G01X25300300Y7916500D02*
X25281500Y7897500D01*
X25299600Y7870800D01*
X25318000Y7891000D01*
Y7898800D01*
X25300300Y7916500D01*
G37*
G36*
G01X8675400Y3001000D02*
X8668500Y2993900D01*
X8686000Y2972600D01*
X8703500Y2993900D01*
X8696600Y3001000D01*
G03X8675400I-10600J-10600D01*
G37*
G54D10*
X581000Y2209000D03*
X582000Y4834000D03*
Y16031000D03*
Y20350000D03*
X8640000Y7925000D03*
X8639000Y14662000D03*
X22690000Y7924000D03*
Y14661000D03*
X31217000Y2212000D03*
Y4835000D03*
Y16033000D03*
Y20350000D03*
G54D11*
G01X5588000Y7876000D02*
X5620000D01*
G01X5606000Y8616000D02*
X5620000D01*
G01X5608000Y11067000D02*
X5620000Y11055000D01*
Y10328000D01*
G01X5610000D02*
X5620000D01*
G01X5963000Y7716000D02*
X5980000D01*
G01X5960000Y8776000D02*
X5980000D01*
G01Y10168000D02*
X5962000D01*
G01X5980000Y11224000D02*
X5977000Y11227000D01*
G01X8815000Y5175000D02*
Y5198000D01*
G01X8818000Y10168000D02*
X8805000D01*
G01X8820000Y13399000D02*
X8863200Y13355800D01*
X9131800D01*
X9170000Y13394000D01*
G01X8815000Y17909000D02*
Y17900000D01*
G01X8975000Y4826000D02*
Y4817000D01*
G01X9153000Y10328000D02*
X9179000D01*
G01X9158000Y10754000D02*
Y11713000D01*
G01X8975000Y17568000D02*
Y17572000D01*
X8974000D01*
G01X9169000Y17889000D02*
Y17900000D01*
G01X9715000Y4824000D02*
X9719000D01*
Y4826000D01*
G01X9713000Y13049000D02*
Y13037000D01*
X9715000D01*
G01Y17573000D02*
Y17569000D01*
G01X9519000Y17889000D02*
Y17900000D01*
G01X9881000Y5175000D02*
Y5173000D01*
X9875000D01*
G01Y13401000D02*
X9872000D01*
Y13394000D01*
G01X9875000Y17897000D02*
Y17900000D01*
G01X11322000Y5177000D02*
X11314000D01*
Y5175000D01*
G01X11299000Y13394000D02*
Y13401000D01*
X11322000D01*
G01X11178000Y17901000D02*
Y17900000D01*
G01X11482000Y4808000D02*
Y4826000D01*
G01Y13049000D02*
Y13068000D01*
G01X11338000Y17556000D02*
X11337000D01*
Y17573000D01*
G01X11533000Y17907000D02*
Y17900000D01*
G01X12222000Y4826000D02*
Y4820000D01*
G01X12200000Y13049000D02*
Y13046000D01*
X12222000D01*
G01X12236000Y16211000D02*
X12279200Y16254200D01*
X12517800D01*
X12526000Y16246000D01*
G01X12078000Y17568000D02*
X12069000D01*
Y17573000D01*
G01X11883000Y17904000D02*
X11875000D01*
Y17900000D01*
G01X12238000Y17896000D02*
Y17900000D01*
G01X12382000Y5175000D02*
Y5161000D01*
G01X12696000Y8635000D02*
X12687000Y8626000D01*
X12686000D01*
G01X12512000Y8999000D02*
Y8986000D01*
G01X12526000Y11652000D02*
X12569200Y11695200D01*
X12808800D01*
X12840000Y11664000D01*
G01X12686000Y12040000D02*
X12683000D01*
Y12037000D01*
G01X12382000Y13394000D02*
Y13399000D01*
G01X12526000Y16246000D02*
Y16210000D01*
G01X13202000Y11664000D02*
X13579000D01*
X13586000Y11671000D01*
G01X13002000Y12037000D02*
X13040200Y12075200D01*
X13394800D01*
X13438000Y12032000D01*
G01X13132000Y16241000D02*
X13147000D01*
Y16246000D01*
G01X12940000Y16593000D02*
Y16616000D01*
G01X13425000Y8620000D02*
Y8635000D01*
G01X13585000Y8988000D02*
X13589000D01*
Y8986000D01*
G01X13596000Y16246000D02*
Y16222000D01*
G01X14082000Y4818000D02*
X14072000D01*
Y4826000D01*
G01X13922000Y5148000D02*
Y5175000D01*
G01X14082000Y13039000D02*
Y13049000D01*
G01X13922000Y13394000D02*
Y13401000D01*
G01X13963000Y16246000D02*
Y16211000D01*
G01X14082000Y17547000D02*
Y17573000D01*
G01X13922000Y17891000D02*
Y17900000D01*
G01X14276000Y17899000D02*
X14278000D01*
Y17900000D01*
G01X14626000Y17898000D02*
Y17900000D01*
G01X14822000Y4807000D02*
Y4826000D01*
G01X14984000Y5175000D02*
Y5169000D01*
X14982000D01*
G01X14822000Y13050000D02*
X14819000D01*
Y13049000D01*
G01X14982000Y13381000D02*
X14990000D01*
Y13394000D01*
G01X14822000Y17546000D02*
Y17573000D01*
G01X14982000Y17894000D02*
X14975000D01*
Y17900000D01*
G01X16582000Y4819000D02*
X16575000D01*
Y4826000D01*
G01X16422000Y5175000D02*
Y5157000D01*
G01X16582000Y13046000D02*
X16594000D01*
Y13049000D01*
G01X16436000Y13394000D02*
Y13397000D01*
X16422000D01*
G01X16582000Y17557000D02*
Y17573000D01*
G01X16422000Y17905000D02*
X16408000D01*
Y17900000D01*
G01X16776000Y17908000D02*
X16773000D01*
Y17900000D01*
G01X17126000Y17898000D02*
X17107000D01*
Y17900000D01*
G01X17322000Y4845000D02*
Y4826000D01*
G01X17480000Y5175000D02*
Y5186000D01*
X17482000D01*
G01X17322000Y13049000D02*
Y13059000D01*
G01X17482000Y13396000D02*
X17490000D01*
Y13394000D01*
G01X17322000Y17573000D02*
Y17562000D01*
G01X17482000Y17872000D02*
Y17900000D01*
G01X19039000Y8635000D02*
Y8645000D01*
G01X18138000Y8997000D02*
Y8986000D01*
G01X18195000Y13036000D02*
Y13049000D01*
G01X18160000Y16246000D02*
Y16254000D01*
G01X17861000Y16246000D02*
Y16209000D01*
G01X18298000Y8649000D02*
Y8635000D01*
G01X19226000Y8986000D02*
Y8979000D01*
G01X18510000Y16246000D02*
Y16242000D01*
G01X19049000Y16637000D02*
X18341000D01*
X18320000Y16616000D01*
G01D02*
Y16615000D01*
G01X19187000Y4822000D02*
X19186000D01*
Y4826000D01*
G01X19027000Y5199000D02*
Y5175000D01*
G01X19187000Y13049000D02*
Y13038000D01*
G01X19018000Y13394000D02*
Y13405000D01*
X19027000D01*
G01X19515000Y16246000D02*
X19552000Y16209000D01*
G01X19209000Y16232000D02*
X19202000D01*
Y16246000D01*
G01X18860000D02*
Y16237000D01*
G01X19187000Y17552000D02*
Y17573000D01*
G01X19027000Y17909000D02*
Y17900000D01*
G01X19381000Y17924000D02*
Y17900000D01*
G01X19731000Y17925000D02*
Y17900000D01*
G01X19927000Y4826000D02*
Y4811000D01*
G01X20095000Y5175000D02*
Y5168000D01*
X20087000D01*
G01X19926000Y13049000D02*
Y13052000D01*
X19927000D01*
G01X20088000Y13394000D02*
Y13395000D01*
X20087000D01*
G01X19927000Y17562000D02*
Y17573000D01*
G01X20087000Y17869000D02*
Y17900000D01*
G01X21730000Y4804000D02*
Y4826000D01*
G01X22470000Y4796000D02*
Y4826000D01*
G01X21570000Y5174000D02*
X21568000D01*
Y5175000D01*
G01X21730000Y13035000D02*
Y13049000D01*
G01X21570000Y13399000D02*
Y13394000D01*
G01X21712000Y17573000D02*
X22464000D01*
X22470000Y17567000D01*
G01X21712000Y17573000D02*
X21726000Y17559000D01*
X21730000D01*
G01X21570000Y17898000D02*
Y17900000D01*
G01X22218000Y11219000D02*
X22210000Y11227000D01*
G01X21925000Y17900000D02*
Y17929000D01*
G01X22630000Y5181000D02*
X22586800Y5137800D01*
X22312200D01*
X22275000Y5175000D01*
G01X22548000Y10328000D02*
X22571000D01*
X22572000Y10327000D01*
G01X22275000Y17897000D02*
X22280000D01*
Y17900000D01*
G01X25303000Y7876000D02*
X25318000Y7891000D01*
Y8616000D01*
G01X25296000D02*
X25318000D01*
G01X25285000Y10328000D02*
X25318000D01*
G01X25678000Y10163000D02*
X25669000D01*
Y10168000D01*
G01X25678000Y11221000D02*
X25672000Y11227000D01*
X2857000Y8871000D03*
X3378000Y8271000D03*
X3303000Y8309000D03*
X2975000Y8745000D03*
X3147000Y8521000D03*
X3039000Y8655000D03*
X3083000Y8597000D03*
X2912000Y8800000D03*
X3195000Y8459000D03*
X3246000Y8386000D03*
X3767000Y7824000D03*
X3816000Y7748000D03*
X3648000Y7969000D03*
X3489000Y8168000D03*
X3429000Y8221000D03*
X3719000Y7901000D03*
X3603000Y8037000D03*
X3541000Y8104000D03*
X4246000Y10343000D03*
X4066000Y10136000D03*
X4154000Y10330000D03*
X4016000Y10072000D03*
X4116000Y10222000D03*
X4299000Y10422000D03*
X4354000Y10488000D03*
X4500000Y10671000D03*
X4624000Y10772000D03*
X4569000Y10708300D03*
X4425000Y10522000D03*
X4675000Y10826600D03*
X4442200Y10594800D03*
X4737000Y10910000D03*
X4799500Y10967200D03*
X4876000Y11025000D03*
X5000000Y11177000D03*
X5012800Y11272000D03*
X5087000Y11343000D03*
X4908500Y11102900D03*
X7266000Y4186000D03*
X7205000Y4272000D03*
X7314000Y4125000D03*
X7142000Y4349000D03*
X7079000Y4416000D03*
X7050500Y7201500D03*
Y7328500D03*
Y7709500D03*
Y7455500D03*
Y7836500D03*
Y7582500D03*
Y7963500D03*
Y8090500D03*
Y8217500D03*
Y8344500D03*
Y8725500D03*
Y8852500D03*
Y8471500D03*
Y8598500D03*
Y8979500D03*
Y9106500D03*
Y9233500D03*
Y9360500D03*
Y9741500D03*
Y9487500D03*
Y9868500D03*
Y9614500D03*
Y9995500D03*
Y10249500D03*
Y10122500D03*
Y10630500D03*
Y10757500D03*
Y10503500D03*
Y10376500D03*
Y11138500D03*
Y11011500D03*
Y10884500D03*
Y11265500D03*
Y11392500D03*
Y11773500D03*
Y11519500D03*
Y11646500D03*
Y11900500D03*
X7852000Y3225000D03*
X7776000Y3367000D03*
X7824000Y3304000D03*
X7523000Y3756000D03*
X7623000Y3608000D03*
X7573000Y3690000D03*
X7464000Y3847000D03*
X7716100Y3444100D03*
X7662000Y3537000D03*
X7408000Y3924000D03*
X7365000Y4008000D03*
X7818600Y9881400D03*
X7914000Y3182000D03*
X8109000Y2963000D03*
X7966000Y3106000D03*
X8045000Y3019000D03*
X8182000Y6132000D03*
X8296500Y6119500D03*
X8042500D03*
X7879500Y9614500D03*
X7923000Y9745000D03*
X7879500Y9995500D03*
Y10249500D03*
Y10122500D03*
X7885000Y10755700D03*
X7862000Y10382000D03*
X7910000Y10616000D03*
X7879500Y10503500D03*
Y10884500D03*
Y11265500D03*
Y11138500D03*
Y11011500D03*
Y11646500D03*
Y11773500D03*
Y11519500D03*
Y11392500D03*
Y11900500D03*
X8686000Y2976300D03*
X8790000Y3083000D03*
X8677500Y6119500D03*
X8804500D03*
X8423500D03*
X8550500D03*
X8696000Y12688000D03*
X8761000Y12635000D03*
X8769000Y18411000D03*
X8707000Y18331000D03*
X8986000Y3285000D03*
X9046000Y3362000D03*
X8940000Y3203000D03*
X8879000Y3145000D03*
X9133000Y3433000D03*
X9329000Y3604000D03*
X9227200Y3477100D03*
X9281000Y3543000D03*
X9312500Y6119500D03*
X8931500D03*
X9185500D03*
X9058500D03*
X9190000Y12295000D03*
X9313000Y12149000D03*
X9273000Y12235000D03*
X9120000Y12356000D03*
X8987000Y12472000D03*
X9053000Y12396000D03*
X8876000Y12592000D03*
X8923000Y12537000D03*
X8855000Y18473000D03*
X9138000Y18701000D03*
X9063700Y18638000D03*
X9267000Y18809000D03*
X9201000Y18756000D03*
X8945000Y18524000D03*
X8985000Y18583000D03*
X9339800Y18863000D03*
X9452000Y3760000D03*
X9379100Y3693000D03*
X9498000Y3845000D03*
X9779000Y4193000D03*
X9579000Y3936000D03*
X9699000Y4124000D03*
X9654000Y4022000D03*
X9439500Y6119500D03*
X9566500D03*
X9693500D03*
X9820500D03*
X9747000Y11825000D03*
X9818000Y11777000D03*
X9615000Y11932000D03*
X9552000Y11970000D03*
X9430000Y12041000D03*
X9383000Y12100000D03*
X9678000Y11886000D03*
X9483000Y11995000D03*
X9378900Y18921300D03*
X9618900Y19203000D03*
X9550000Y19154000D03*
X9690000Y19257000D03*
X9766000Y19305000D03*
X9494000Y19075000D03*
X9444000Y18981000D03*
X9835000Y19362000D03*
X9864000Y4270000D03*
X9929000Y4348000D03*
X10007000Y4413000D03*
X10328500Y6119500D03*
X9947500D03*
X10074500D03*
X10201500D03*
X9895000Y11706000D03*
X9978000Y11652000D03*
X9892000Y19437000D03*
X9969000Y19496000D03*
X10836500Y6119500D03*
X10455500D03*
X10709500D03*
X10582500D03*
X11277000Y2884000D03*
X11196000Y2965000D03*
X11090500Y6119500D03*
X10963500D03*
X11217500D03*
X11267000Y8092000D03*
X11139000Y12703000D03*
X11293000Y12640000D03*
X11233200Y12681900D03*
X11200000Y20452000D03*
X11073500Y20553000D03*
X11291000Y20397000D03*
X11109200Y20492700D03*
X11808000Y2360000D03*
X11577000Y2577000D03*
X11710000Y2492000D03*
X11638000Y2534000D03*
X11777000Y2430000D03*
X11420000Y2733000D03*
X11495000Y2679000D03*
X11367000Y2803000D03*
X11598500Y6119500D03*
X11471500D03*
X11344500D03*
X11725500D03*
X11763000Y8085000D03*
X11684300Y12704900D03*
X11797300Y12665900D03*
X11470100Y12694100D03*
X11724000Y12619000D03*
X11390600Y12686400D03*
X11605100Y12679000D03*
X11522000Y12647000D03*
X11793500Y19967900D03*
X11753000Y20031000D03*
X11435000Y20289000D03*
X11682200Y20079000D03*
X11624800Y20119200D03*
X11495600Y20234100D03*
X11581200Y20174000D03*
X11379600Y20337800D03*
X12319000Y1869000D03*
X12177000Y1988000D03*
X11869000Y2280000D03*
X12256000Y1933000D03*
X12130000Y2048000D03*
X12062000Y2107000D03*
X11985000Y2177000D03*
X11934000Y2230000D03*
X11979500Y6119500D03*
X11852500D03*
X12106500D03*
X12233500D03*
X12268700Y8079300D03*
X11858700Y12628100D03*
X12052000Y12722000D03*
X11920300Y12671900D03*
X12132000Y12673000D03*
X12261100Y12719800D03*
X11987700Y12690900D03*
X12201300Y12683400D03*
X11996200Y19799000D03*
X12283000Y19598000D03*
X12125000Y19695000D03*
X12043000Y19742000D03*
X12221000Y19651000D03*
X11911000Y19858000D03*
X11854000Y19907000D03*
X12410000Y1783000D03*
X12492000Y1717000D03*
X12487500Y6119500D03*
X12614500D03*
X12741500D03*
X12360500D03*
X12780000Y8080000D03*
X12763000Y8274000D03*
X12486000Y8317000D03*
X12626000Y8294200D03*
X12414000Y9316000D03*
X12496000Y9370000D03*
X12722000Y9540000D03*
X12777000Y9604000D03*
X12653000Y9463000D03*
X12566000Y9410000D03*
X12735200Y11185800D03*
X12790200Y11142400D03*
X12410500Y11338500D03*
X12582800Y11265500D03*
X12655200Y11210400D03*
X12477200Y11316900D03*
X12409100Y12729000D03*
X12492000Y12701000D03*
X12369000Y12671600D03*
X12380000Y18277000D03*
X12562000Y18459000D03*
X12484000Y18417000D03*
X12434000Y18346000D03*
X12787000Y18646000D03*
X12625000Y18530000D03*
X12710000Y18583000D03*
X12353000Y19540000D03*
X12868500Y6119500D03*
X12961000Y6126000D03*
X13237500Y6120500D03*
X12914000Y8317000D03*
X13216000Y8307600D03*
X13085500Y8275900D03*
X12838200Y9655500D03*
X13028500Y9785900D03*
X13081300Y9854700D03*
X12910000Y9701100D03*
X12967000Y9741800D03*
X13140000Y9893000D03*
X13223200Y9998100D03*
X13294000Y10041000D03*
X13163000Y9962000D03*
X13312000Y10689000D03*
X13250000Y10744000D03*
X13120000Y10834000D03*
X13189100Y10791400D03*
X12928500Y11072900D03*
X12984000Y10944000D03*
X12972000Y11018000D03*
X13068000Y10926000D03*
X12829000Y11084000D03*
X12837800Y18701800D03*
X12984000Y18804000D03*
X12933000Y18748000D03*
X13084000Y18923000D03*
X13284000Y19115000D03*
X13021500Y18863200D03*
X13206000Y19054000D03*
X13134000Y18979000D03*
X13807000Y3039000D03*
X13491500Y6120500D03*
X13618500D03*
X13745500D03*
X13364500D03*
X13466000Y8317000D03*
X13643300Y8303300D03*
X13475000Y8081400D03*
X13336000Y8294000D03*
X13326900Y10176300D03*
X13473800Y10306900D03*
X13425700Y10183300D03*
X13332500Y10106500D03*
X13420000Y10262000D03*
X13454000Y10593000D03*
X13599000Y10495000D03*
X13673000Y10419000D03*
X13388000Y10639000D03*
X13538100Y10553000D03*
X13334000Y19183000D03*
X13406500Y19241900D03*
X13484000Y19302000D03*
X13610000Y19435000D03*
X13689000Y19498000D03*
X13544000Y19359300D03*
X14097000Y3271000D03*
X14159000Y3359000D03*
X14045000Y3206000D03*
X13963800Y3145500D03*
X13898000Y3085000D03*
X14215000Y3439000D03*
X14126500Y6120500D03*
X13872500D03*
X14253500D03*
X13999500D03*
X14037000Y8069000D03*
X14552000Y3754000D03*
X14448000Y3607000D03*
X14501000Y3693000D03*
X14591000Y3841000D03*
X14325000Y3481000D03*
X14380000Y3546000D03*
X14676000Y3926000D03*
X14792000Y4124000D03*
X14738000Y4036000D03*
X14380500Y6120500D03*
X14507500D03*
X14761500D03*
X14634500D03*
X14558000Y8087000D03*
X14884000Y4187000D03*
X14948000Y4280000D03*
X15030000Y4345000D03*
X15077700Y4416000D03*
X14888500Y6120500D03*
X15142500D03*
X15269500D03*
X15015500D03*
X15055000Y8087000D03*
X15523500Y6120500D03*
X15777500D03*
X15650500D03*
X15396500D03*
X15554000Y8077000D03*
X15904500Y6120500D03*
X16031500D03*
X16285500D03*
X16158500D03*
X16675200Y2644000D03*
X16726000Y2557000D03*
X16376000Y2880000D03*
X16526200Y2771000D03*
X16593000Y2696000D03*
X16452000Y2828000D03*
X16321800Y2956000D03*
X16793500Y6120500D03*
X16539500D03*
X16412500D03*
X16666500D03*
X16335300Y8101000D03*
X17274000Y1999000D03*
X17010000Y2295000D03*
X16955000Y2363000D03*
X17212000Y2042000D03*
X16889000Y2424000D03*
X17181000Y2117000D03*
X17136000Y2190000D03*
X17063000Y2237000D03*
X16811000Y2496000D03*
X16920500Y6120500D03*
X17047500D03*
X17174500D03*
X16827000Y8104000D03*
X17516000Y1798000D03*
X17426000Y1875000D03*
X17576000Y1721000D03*
X17352000Y1945000D03*
X17555500Y6120500D03*
X17428500D03*
X17301500D03*
X17682500D03*
X17344000Y8101000D03*
X17658800Y20462200D03*
X17519800Y20562600D03*
X17712000Y20402000D03*
X17765800Y20344100D03*
X17580000Y20515000D03*
X17936500Y6120500D03*
X18190500D03*
X18063500D03*
X17809500D03*
X18090000Y8297000D03*
X17851000Y8087000D03*
X18264000Y8304000D03*
X18027000Y10326400D03*
X18052000Y10254000D03*
X18127000Y10208000D03*
X18268000Y10094000D03*
X18200000Y10145000D03*
X18182000Y10432000D03*
X18269000Y10496000D03*
X18088000Y10378000D03*
X18131500Y19977600D03*
X18074000Y20028000D03*
X17818800Y20294400D03*
X18025800Y20079400D03*
X18246000Y19883000D03*
X17970000Y20128000D03*
X18180200Y19927300D03*
X17866000Y20236700D03*
X17920400Y20192500D03*
X18559500Y6119500D03*
X18686500D03*
X18432500D03*
X18504000Y8291000D03*
X18359000Y8071000D03*
X18633000Y8252000D03*
X18381400Y8261300D03*
X18666000Y9704000D03*
X18651000Y9798000D03*
X18580000Y9831000D03*
X18751000Y9683000D03*
X18398000Y9983000D03*
X18518000Y9878000D03*
X18448000Y9876900D03*
X18305000Y10017000D03*
X18526000Y10746000D03*
X18655500Y10847800D03*
X18350000Y10550000D03*
X18595000Y10803000D03*
X18462200Y10675100D03*
X18388000Y10621000D03*
X18696000Y10905000D03*
X18758700Y10936400D03*
X18499000Y19612000D03*
X18400900Y19721800D03*
X18550000Y19534000D03*
X18342800Y19780900D03*
X18439000Y19663000D03*
X18306200Y19840700D03*
X19231000Y3280000D03*
X19162000Y3196000D03*
X18903000Y3029000D03*
X19070000Y3139000D03*
X19005000Y3081000D03*
X19067500Y6119500D03*
X18813500D03*
X18940500D03*
X19194500D03*
X19228000Y8309000D03*
X18907000Y8258000D03*
X19052500Y8259100D03*
X19236000Y9369000D03*
X19010000Y9489000D03*
X19158000Y9409000D03*
X19087000Y9453000D03*
X18943000Y9540000D03*
X18876000Y9587000D03*
X18811000Y9619000D03*
X19212000Y11294500D03*
X18886000Y11074000D03*
X18949600Y11126500D03*
X19095000Y11232000D03*
X19136700Y11288300D03*
X18812000Y11021000D03*
X19033000Y11188000D03*
X19184900Y12705100D03*
X19248000Y12655000D03*
X18919800Y12722100D03*
X19049000Y12717000D03*
X19119800Y12662100D03*
X18970300Y12673500D03*
X19072000Y18457000D03*
X18996000Y18397000D03*
X18927000Y18347000D03*
X19130000Y18527000D03*
X19222000Y18578000D03*
X19292000Y3359000D03*
X19661000Y3754000D03*
X19349000Y3420000D03*
X19552000Y3610000D03*
X19597000Y3685000D03*
X19715000Y3837000D03*
X19431000Y3479000D03*
X19495000Y3534000D03*
X19575500Y6119500D03*
X19702500D03*
X19321500D03*
X19448500D03*
X19655000Y8083000D03*
X19305000Y9315000D03*
X19298900Y11357300D03*
X19391400Y12678800D03*
X19511400Y12639000D03*
X19779000Y12677000D03*
X19631400Y12640700D03*
X19461000Y12693000D03*
X19589000Y12702600D03*
X19321200Y12691100D03*
X19704000Y12685000D03*
X19360000Y18704000D03*
X19303800Y18642100D03*
X19430800Y18764000D03*
X19579000Y19005000D03*
X19773500Y19154500D03*
X19481000Y18877000D03*
X19552600Y18939000D03*
X19723800Y19105000D03*
X19654000Y19045000D03*
X19981000Y4188000D03*
X20208000Y4404000D03*
X20064000Y4268000D03*
X19781000Y3921000D03*
X19922000Y4116000D03*
X19852000Y4031000D03*
X20131000Y4350000D03*
X19829500Y6119500D03*
X19956500D03*
X20083500D03*
X20210500D03*
X20178000Y8080000D03*
X19842600Y12710000D03*
X19980100Y12725400D03*
X20152300Y12700100D03*
X20250000Y12710000D03*
X19912000Y12684000D03*
X20068000Y12703000D03*
X19841700Y19196300D03*
X19889000Y19248000D03*
X19965000Y19301000D03*
X20125000Y19430000D03*
X20195000Y19475000D03*
X20031000Y19364000D03*
X20464500Y6119500D03*
X20591500D03*
X20718500D03*
X20337500D03*
X20689000Y8091000D03*
X20845500Y6119500D03*
X21099500D03*
X21226500D03*
X20972500D03*
X21525000Y2887000D03*
X21675000Y2772000D03*
X21748000Y2691000D03*
X21617000Y2827300D03*
X21459000Y2962000D03*
X21353500Y6119500D03*
X21607500D03*
X21480500D03*
X21734500D03*
X21489000Y11633000D03*
X21764000Y11847000D03*
X21613000Y11722000D03*
X21715000Y11786000D03*
X21560700Y11675400D03*
X21620000Y20388000D03*
X21487000Y20563000D03*
X21705000Y20333000D03*
X21557000Y20439000D03*
X22159900Y2311000D03*
X22099500Y2357000D03*
X22197400Y2248000D03*
X21803000Y2633000D03*
X21948000Y2495000D03*
X21875000Y2563000D03*
X22021000Y2437000D03*
X22242500Y6119500D03*
X21988500D03*
X21861500D03*
X22115500D03*
X21953000Y11997000D03*
X22082000Y12087000D03*
X22140000Y12129000D03*
X22209000Y12171000D03*
X22029000Y12027000D03*
X21909000Y11928000D03*
X21817300Y11896700D03*
X22260000Y12231000D03*
X22189000Y19938000D03*
X22134500Y19985600D03*
X21855400Y20225400D03*
X22090700Y20042200D03*
X21786200Y20287000D03*
X22043900Y20094400D03*
X22226200Y19878000D03*
X21914000Y20187000D03*
X21994700Y20144300D03*
X22674800Y1805000D03*
X22594000Y1872000D03*
X22725000Y1735000D03*
X22447000Y1993000D03*
X22521000Y1939000D03*
X22390000Y2044000D03*
X22325000Y2120000D03*
X22282800Y2193000D03*
X22496500Y6119500D03*
X22623500D03*
X22369500D03*
X22750500D03*
X22325000Y12297000D03*
X22392000Y12338000D03*
X22675000Y12579000D03*
X22740000Y12710000D03*
X22513000Y12447000D03*
X22579000Y12497000D03*
X22468000Y12378000D03*
X22383000Y19782000D03*
X22691000Y19580000D03*
X22545000Y19695000D03*
X22456000Y19737800D03*
X22593000Y19628000D03*
X22324600Y19831000D03*
X23222000Y1722000D03*
X22999000Y6103000D03*
X23120000Y6102000D03*
X23257000Y6104000D03*
X22877500Y6119500D03*
X22779000Y19528000D03*
X23272000Y1801000D03*
X23324000Y1876000D03*
X23442000Y1997000D03*
X23733000Y2308000D03*
X23390000Y1935000D03*
X23511000Y2029000D03*
X23550000Y2100000D03*
X23612000Y2178000D03*
X23677000Y2230000D03*
X23375000Y6140000D03*
X23538000Y9698500D03*
X23551000Y9606000D03*
X23550500Y9868500D03*
X23563000Y10031000D03*
X23550500Y10122500D03*
X23555000Y10206500D03*
X23550500Y10630500D03*
Y10503500D03*
Y10757500D03*
Y10376500D03*
Y11011500D03*
Y11138500D03*
Y10884500D03*
Y11265500D03*
Y11646500D03*
Y11773500D03*
Y11392500D03*
Y11519500D03*
Y11900500D03*
X23784000Y2361000D03*
X23854000Y2409000D03*
X23999000Y2616000D03*
X23890000Y2495000D03*
X23961000Y2550000D03*
X24222000Y2886000D03*
X24110000Y2760000D03*
X24056000Y2693000D03*
X24160000Y2818000D03*
X24251000Y2956000D03*
X24389500Y7328500D03*
Y7201500D03*
Y7836500D03*
Y7455500D03*
Y7709500D03*
Y7582500D03*
Y7963500D03*
Y8217500D03*
Y8344500D03*
Y8090500D03*
Y8725500D03*
Y8471500D03*
Y8852500D03*
Y8598500D03*
Y8979500D03*
Y9106500D03*
Y9360500D03*
Y9233500D03*
Y9741500D03*
Y9614500D03*
Y9487500D03*
Y9868500D03*
Y10249500D03*
Y9995500D03*
Y10122500D03*
Y10376500D03*
Y10630500D03*
Y10757500D03*
Y10503500D03*
Y11265500D03*
Y11011500D03*
Y11138500D03*
Y10884500D03*
Y11773500D03*
Y11392500D03*
Y11519500D03*
Y11646500D03*
Y11900500D03*
X26197000Y11177000D03*
X26138000Y11293000D03*
X26064000Y11339000D03*
X26595000Y10641000D03*
X26474400Y10769300D03*
X26537000Y10698000D03*
X26715000Y10536000D03*
X26427000Y10821000D03*
X26660000Y10602000D03*
X26413000Y10896000D03*
X26365100Y10947200D03*
X26250000Y11094000D03*
X26301000Y11023000D03*
X26898000Y10353000D03*
X27058000Y10126000D03*
X26958000Y10288000D03*
X27123000Y10047000D03*
X27013600Y10220600D03*
X26869000Y10417000D03*
X26780000Y10473000D03*
X27378000Y7828000D03*
X27420000Y7886000D03*
X27303000Y7746000D03*
X27490000Y7955000D03*
X27659000Y8161000D03*
X27704200Y8220800D03*
X27552000Y8021000D03*
X27604000Y8101000D03*
X27756100Y8271900D03*
X27819500Y8321500D03*
X27907000Y8381000D03*
X28184000Y8722000D03*
X27992000Y8522000D03*
X28117000Y8656000D03*
X28076000Y8583000D03*
X27932000Y8457000D03*
X28328000Y8872000D03*
X28257000Y8795000D03*
G54D12*
X5588000Y7876000D03*
X5422000Y7488000D03*
X5606000Y8616000D03*
X5401000Y9899000D03*
X5610000Y10328000D03*
X5608000Y11067000D03*
X5963000Y7716000D03*
X5973000Y8071000D03*
X5960000Y8776000D03*
X5968000Y8421000D03*
X5962000Y10168000D03*
X5981000Y10872000D03*
X5962000Y10522000D03*
X5967000Y11227000D03*
X7019000Y6928000D03*
X7036500Y7074500D03*
X8815000Y5198000D03*
X8805000Y10168000D03*
X8804000Y10872000D03*
X8849000Y10554000D03*
X8791000Y11227000D03*
X8503000Y13006000D03*
X8820000Y13399000D03*
X8815000Y17909000D03*
X8975000Y4817000D03*
X9179000Y5177000D03*
X9153000Y10328000D03*
X9158000Y10754000D03*
X9162000Y11067000D03*
X9364000Y11497000D03*
X8975000Y13048000D03*
X9170000Y13399000D03*
X8975000Y17568000D03*
X9169000Y17889000D03*
X9715000Y4824000D03*
X9510000Y5184000D03*
X9715000Y13037000D03*
X9520000Y13405000D03*
X9715000Y17569000D03*
X9519000Y17889000D03*
X10145000Y4618000D03*
X9875000Y5173000D03*
X10313000Y8314000D03*
X9875000Y13401000D03*
X10234000Y18109000D03*
X9875000Y17897000D03*
X10497000Y7055000D03*
X10751000Y7500000D03*
Y8174000D03*
Y13861000D03*
X10497000Y13907000D03*
X11322000Y5177000D03*
X11259000Y7080000D03*
X10992000Y6934000D03*
X11101000Y12837000D03*
X11322000Y13401000D03*
X11338000Y17556000D03*
X11178000Y17901000D03*
X11786000Y4833000D03*
X11482000Y4808000D03*
X11677000Y5158000D03*
X11482000Y13068000D03*
X11822000Y13059000D03*
X11677000Y13403000D03*
X11733000Y16575000D03*
X11533000Y17907000D03*
X12222000Y4820000D03*
X12027000Y5142000D03*
X12222000Y13046000D03*
X12022000Y13367000D03*
X12236000Y16211000D03*
X11962000Y16475000D03*
X12078000Y17568000D03*
X11883000Y17904000D03*
X12238000Y17896000D03*
X12657000Y4611000D03*
X12382000Y5161000D03*
X12686000Y8626000D03*
X12526000Y8999000D03*
Y11652000D03*
X12840000Y11659000D03*
X12686000Y12040000D03*
X12382000Y13399000D03*
X12848000Y14441000D03*
X12526000Y16210000D03*
X12686000Y16591000D03*
X13054000Y8646000D03*
X12884000Y8983000D03*
X13254000Y8971000D03*
X13202000Y11675000D03*
X13002000Y12015000D03*
X12884000Y16252000D03*
X13132000Y16241000D03*
X12940000Y16593000D03*
X13425000Y8620000D03*
X13585000Y8988000D03*
X13586000Y11671000D03*
X13438000Y12032000D03*
X13564000Y12753000D03*
X13596000Y16222000D03*
X13436000Y16585000D03*
X14082000Y4818000D03*
X13922000Y5148000D03*
X14276000Y5170000D03*
X14082000Y13039000D03*
X13922000Y13401000D03*
X14276000Y13408000D03*
X13963000Y16211000D03*
X14082000Y17547000D03*
X14276000Y17899000D03*
X13922000Y17891000D03*
X14822000Y4807000D03*
X14626000Y5177000D03*
X14822000Y13050000D03*
X14626000Y13394000D03*
X14822000Y17546000D03*
X14626000Y17898000D03*
X15269000Y4635000D03*
X14982000Y5169000D03*
Y13381000D03*
X15275000Y18108000D03*
X14982000Y17894000D03*
X16088000Y12832000D03*
X16582000Y4819000D03*
X16422000Y5157000D03*
X16776000Y5183000D03*
X16582000Y13046000D03*
X16422000Y13397000D03*
X16776000Y13386000D03*
X16582000Y17557000D03*
X16422000Y17905000D03*
X16776000Y17908000D03*
X17322000Y4845000D03*
X17126000Y5183000D03*
X17322000Y13059000D03*
X17126000Y13410000D03*
X17322000Y17562000D03*
X17126000Y17898000D03*
X17726000Y4636000D03*
X17482000Y5186000D03*
Y13396000D03*
Y17872000D03*
X18298000Y8649000D03*
X18138000Y8997000D03*
Y11667000D03*
Y11665000D03*
X18291000Y11985000D03*
X17861000Y16209000D03*
X18160000Y16254000D03*
X18495000Y8986000D03*
X18483000Y11664000D03*
X18495000Y11671000D03*
X18739000Y12843000D03*
X18510000Y16242000D03*
X18320000Y16615000D03*
X18672000Y17732000D03*
X19187000Y4822000D03*
X19027000Y5199000D03*
X19039000Y8645000D03*
X19199000Y8979000D03*
X18845000Y8998000D03*
X19199000Y11674000D03*
X19039000Y12014000D03*
X19187000Y13038000D03*
X19027000Y13405000D03*
X18860000Y16237000D03*
X19209000Y16232000D03*
X19049000Y16637000D03*
X19187000Y17552000D03*
X19027000Y17909000D03*
X19556000Y4829000D03*
X19381000Y5167000D03*
X19731000Y5175000D03*
X19548000Y13040000D03*
X19731000Y13375000D03*
X19381000Y13402000D03*
X19552000Y16209000D03*
X19381000Y17924000D03*
X19731000Y17925000D03*
X19927000Y4811000D03*
X20087000Y5168000D03*
X19842000Y11679000D03*
X19927000Y13052000D03*
X20087000Y13395000D03*
X19927000Y17562000D03*
X20087000Y17869000D03*
X20341000Y4628000D03*
X20448000Y7070000D03*
X20610000Y18138000D03*
X21082000Y7629000D03*
Y8214000D03*
X21730000Y4804000D03*
X21570000Y5174000D03*
X21331000Y12787000D03*
X21730000Y13035000D03*
X21570000Y13399000D03*
X21730000Y17559000D03*
X21570000Y17898000D03*
X21925000Y5191000D03*
X22275000Y5186000D03*
X22202000Y10168000D03*
X22215000Y10872000D03*
X22232000Y10564000D03*
X22210000Y11227000D03*
X21925000Y13389000D03*
X22275000Y13390000D03*
X21925000Y17929000D03*
X22275000Y17897000D03*
X22470000Y4796000D03*
X22630000Y5181000D03*
X22548000Y10328000D03*
X22533000Y10764000D03*
X22572000Y11067000D03*
X22470000Y13051000D03*
X22630000Y13381000D03*
X22470000Y17567000D03*
X22630000Y17878000D03*
X22869000Y4628000D03*
X22962000Y18138000D03*
X24407000Y6971000D03*
X25303000Y7876000D03*
X25671000Y7716000D03*
X25669000Y8405000D03*
X25663000Y8072000D03*
X25296000Y8616000D03*
X25678000Y8777000D03*
X25285000Y10328000D03*
X25669000Y10168000D03*
X25654000Y10873000D03*
X25662000Y10523000D03*
X25297000Y11067000D03*
X25672000Y11227000D03*
X25890000Y9054000D03*
Y11553000D03*
G54D13*
X9261000Y7259000D03*
X9313000Y7919000D03*
X9294000Y14133000D03*
X9280000Y14786000D03*
X18195000Y13036000D03*
X19858000Y12000000D03*
X22200000Y7262000D03*
X22193000Y7919000D03*
X22177000Y14129000D03*
X22160000Y14794000D03*
X29201000Y13190000D03*
X29661000Y14119000D03*
X29843000Y13368000D03*
G54D14*
X30918000Y13875000D03*
Y14535000D03*
G54D15*
G01X8849000Y10554000D02*
X8818000D01*
G01X11786000Y4833000D02*
Y4826000D01*
G01X11822000Y13049000D02*
Y13059000D01*
G01X12022000Y13367000D02*
Y13394000D01*
G01X13054000Y8635000D02*
Y8646000D01*
G01X13254000Y8971000D02*
Y8986000D01*
G01X13202000Y11675000D02*
Y11664000D01*
G01X13002000Y12015000D02*
Y12037000D01*
G01X19556000Y4829000D02*
X19553000D01*
Y4826000D01*
G01X19548000Y13040000D02*
Y13049000D01*
G01X22232000Y10564000D02*
X22218000D01*
G01X22572000Y10764000D02*
X22533000D01*
G54D16*
G01X8975000Y4826000D02*
X5820000D01*
X5620000Y5026000D01*
Y7876000D01*
G01D02*
Y8616000D01*
G01X5980000Y7716000D02*
X8521000Y5175000D01*
X8815000D01*
G01X5620000Y8616000D02*
Y10328000D01*
G01X9158000Y11713000D02*
X8014000Y12857000D01*
X6391000D01*
X5608000Y12074000D01*
Y11067000D01*
G01X8791000Y11227000D02*
X7810000Y12208000D01*
X6964000D01*
X5980000Y11224000D01*
G01Y7716000D02*
Y8071000D01*
G01Y8421000D02*
Y8776000D01*
G01Y8071000D02*
Y8421000D01*
G01Y8776000D02*
Y10168000D01*
G01D02*
Y10522000D01*
G01D02*
Y10867000D01*
G01D02*
Y11224000D01*
G01X5977000Y11227000D02*
X5967000D01*
G01X9261000Y7259000D02*
X7976000D01*
X7975000Y7260000D01*
Y9323000D01*
X8818000Y10166000D01*
Y10168000D01*
G01X9294000Y14133000D02*
X8000000D01*
X7999000Y14134000D01*
Y17084000D01*
X8815000Y17900000D01*
G01X9185000Y5175000D02*
X8815000D01*
G01X8818000Y10554000D02*
Y10168000D01*
G01Y10872000D02*
Y11200000D01*
X8791000Y11227000D01*
G01X8818000Y10554000D02*
Y10872000D01*
G01X9169000Y17900000D02*
X8815000D01*
G01X9719000Y4826000D02*
X8975000D01*
G01X9510000Y5175000D02*
X9185000D01*
G01X9261000Y7259000D02*
X9264000Y7262000D01*
X22200000D01*
G01X9179000Y10328000D02*
Y8053000D01*
X9313000Y7919000D01*
G01D02*
X22193000D01*
G01X9162000Y11067000D02*
X9205200Y11023800D01*
Y10354200D01*
X9179000Y10328000D01*
G01X9162000Y11067000D02*
Y11713000D01*
X9158000D01*
G01X8975000Y13048000D02*
X8976000Y13049000D01*
X9713000D01*
G01X9520000Y13394000D02*
X9170000D01*
G01X9294000Y14133000D02*
X9298000Y14129000D01*
X22177000D01*
G01X9280000Y14786000D02*
X22152000D01*
X22160000Y14794000D01*
G01X9280000Y14786000D02*
X8974000Y15092000D01*
Y17572000D01*
G01D02*
Y17573000D01*
X9715000D01*
G01X9519000Y17900000D02*
X9169000D01*
G01X11482000Y4826000D02*
X9719000D01*
G01X11314000Y5175000D02*
X9881000D01*
G01D02*
X9510000D01*
G01X11482000Y13049000D02*
X9713000D01*
G01X9872000Y13394000D02*
X9520000D01*
G01X11299000D02*
X9872000D01*
G01X9715000Y17573000D02*
X11337000D01*
G01X9875000Y17900000D02*
X9519000D01*
G01X11178000D02*
X9875000D01*
G01X11677000Y5175000D02*
X11314000D01*
G01X12686000Y8626000D02*
X11442000D01*
X11441000Y8627000D01*
Y11887000D01*
X11591000Y12037000D01*
X12683000D01*
G01X11678000Y13394000D02*
X11299000D01*
G01X11337000Y17573000D02*
X12069000D01*
G01X11533000Y17900000D02*
X11178000D01*
G01X11786000Y4826000D02*
X11482000D01*
G01X12222000D02*
X11786000D01*
G01X12027000Y5175000D02*
X11677000D01*
G01X11822000Y13049000D02*
X11482000D01*
G01X12200000D02*
X11822000D01*
G01X12022000Y13394000D02*
X11678000D01*
G01X11875000Y17900000D02*
X11533000D01*
G01X12238000D02*
X11875000D01*
G01X14072000Y4826000D02*
X12222000D01*
G01X13922000Y5175000D02*
X12382000D01*
G01D02*
X12027000D01*
G01X12526000Y11652000D02*
X12465000D01*
X12265500Y11452500D01*
Y9245500D01*
X12512000Y8999000D01*
G01X14082000Y13049000D02*
X12200000D01*
G01X13922000Y13394000D02*
X12382000D01*
G01X12022000D02*
X12382000D01*
G01X12069000Y17573000D02*
X14082000D01*
G01X13922000Y17900000D02*
X12238000D01*
G01X13054000Y8635000D02*
X12696000D01*
G01X12526000Y8999000D02*
X12512000D01*
G01Y8986000D02*
X12884000D01*
G01X13254000D02*
X12884000D01*
G01X13202000Y11664000D02*
X12840000D01*
G01X12683000Y12037000D02*
X13002000D01*
G01X13147000Y16246000D02*
X12884000D01*
G01D02*
X12526000D01*
G01X13054000Y8635000D02*
X13425000D01*
G01X13254000Y8986000D02*
X13589000D01*
G01X13147000Y16246000D02*
X13596000D01*
G01X12940000Y16616000D02*
X13436000D01*
G01X13425000Y8635000D02*
X18298000D01*
G01X18138000Y8986000D02*
X13589000D01*
G01X13963000Y16246000D02*
X13596000D01*
G01X13436000Y16616000D02*
X18320000D01*
G01X14822000Y4826000D02*
X14072000D01*
G01X14271000Y5175000D02*
X13922000D01*
G01X14626000D02*
X14271000D01*
G01X14082000Y13049000D02*
X14819000D01*
G01X14276000Y13394000D02*
X13922000D01*
G01X14626000D02*
X14276000D01*
G01X17861000Y16246000D02*
X13963000D01*
G01X14082000Y17573000D02*
X14822000D01*
G01X14278000Y17900000D02*
X13922000D01*
G01X14626000D02*
X14278000D01*
G01X16575000Y4826000D02*
X14822000D01*
G01X14984000Y5175000D02*
X14626000D01*
G01X14819000Y13049000D02*
X16594000D01*
G01X14990000Y13394000D02*
X14626000D01*
G01X14822000Y17573000D02*
X16582000D01*
G01X14975000Y17900000D02*
X14626000D01*
G01X16422000Y5175000D02*
X14984000D01*
G01X14990000Y13394000D02*
X16436000D01*
G01X16408000Y17900000D02*
X14975000D01*
G01X17322000Y4826000D02*
X16575000D01*
G01X16763000Y5175000D02*
X16422000D01*
G01X17126000D02*
X16763000D01*
G01X17322000Y13049000D02*
X16594000D01*
G01X17126000Y13394000D02*
X16776000D01*
G01D02*
X16436000D01*
G01X16582000Y17573000D02*
X17322000D01*
G01X16773000Y17900000D02*
X16408000D01*
G01X17107000D02*
X16773000D01*
G01X19186000Y4826000D02*
X17322000D01*
G01X17480000Y5175000D02*
X17126000D01*
G01X18195000Y13049000D02*
X17322000D01*
G01X17490000Y13394000D02*
X17126000D01*
G01X17322000Y17573000D02*
X19187000D01*
G01X17482000Y17900000D02*
X17107000D01*
G01X19027000Y5175000D02*
X17480000D01*
G01X17490000Y13394000D02*
X19018000D01*
G01X18160000Y16246000D02*
X17861000D01*
G01X19027000Y17900000D02*
X17482000D01*
G01X18298000Y8635000D02*
X19039000D01*
G01X18495000Y8986000D02*
X18138000D01*
G01X19187000Y13049000D02*
X18195000D01*
G01X18510000Y16246000D02*
X18160000D01*
G01X18845000Y8986000D02*
X19226000D01*
G01X18845000D02*
X18495000D01*
G01X18860000Y16246000D02*
X18510000D01*
G01X19553000Y4826000D02*
X19186000D01*
G01X19381000Y5175000D02*
X19027000D01*
G01X19039000Y8645000D02*
X22372000D01*
X22572000Y8845000D01*
Y10327000D01*
G01X19226000Y8979000D02*
X21074000D01*
X22202000Y10107000D01*
Y10168000D01*
G01X19226000Y8979000D02*
X19199000D01*
G01X19548000Y13049000D02*
X19187000D01*
G01X19018000Y13394000D02*
X19434000D01*
G01X19202000Y16246000D02*
X19515000D01*
G01X19202000D02*
X18860000D01*
G01X21712000Y17573000D02*
X20776000Y16637000D01*
X19049000D01*
G01X19187000Y17573000D02*
X19927000D01*
G01X19381000Y17900000D02*
X19027000D01*
G01X19927000Y4826000D02*
X19553000D01*
G01X20095000Y5175000D02*
X19731000D01*
G01D02*
X19381000D01*
G01X22202000Y10168000D02*
X21353000D01*
X19842000Y11679000D01*
G01X22572000Y10327000D02*
Y11525000D01*
X22571000Y11526000D01*
X21911000D01*
X21389900Y11004900D01*
X20853100D01*
X19858000Y12000000D01*
G01X19926000Y13049000D02*
X19548000D01*
G01X20088000Y13394000D02*
X19731000D01*
G01X19434000D02*
X19731000D01*
G01X19552000Y16209000D02*
X21819000D01*
X22630000Y17020000D01*
Y17878000D01*
G01X19731000Y17900000D02*
X19381000D01*
G01X20087000D02*
X19731000D01*
G01X21730000Y4826000D02*
X19927000D01*
G01X21568000Y5175000D02*
X20095000D01*
G01X21730000Y13049000D02*
X19926000D01*
G01X21570000Y13394000D02*
X20088000D01*
G01X19927000Y17573000D02*
X21712000D01*
G01X20087000Y17900000D02*
X21570000D01*
G01X22470000Y4826000D02*
X21730000D01*
G01X21925000Y5175000D02*
X21568000D01*
G01X21730000Y13049000D02*
X22468000D01*
G01X21909000Y13394000D02*
X21570000D01*
G01Y17900000D02*
X21925000D01*
G01X22275000Y5175000D02*
X21925000D01*
G01X22200000Y7262000D02*
X23090000Y6372000D01*
X24733000D01*
X25671000Y7310000D01*
Y7716000D01*
G01X22193000Y7919000D02*
Y7580200D01*
X23135200Y6638000D01*
X24550000D01*
X25303000Y7391000D01*
Y7876000D01*
G01X22218000Y10564000D02*
Y10168000D01*
X22202000D01*
G01X22218000Y10872000D02*
Y11219000D01*
G01Y10564000D02*
Y10872000D01*
G01X22270000Y13394000D02*
X21909000D01*
G01X22632000D02*
X22270000D01*
G01X22177000Y14129000D02*
X22632000Y13674000D01*
Y13394000D01*
G01X22160000Y14794000D02*
X22655000Y15289000D01*
X22657000D01*
X23873000Y14073000D01*
Y14071000D01*
X22851000Y13049000D01*
X22468000D01*
G01X22280000Y17900000D02*
X21925000D01*
G01X22280000D02*
X22630000D01*
Y17878000D01*
G01X22572000Y10327000D02*
Y10764000D01*
G01Y11067000D02*
Y10764000D01*
G01X22470000Y13051000D02*
X22468000D01*
Y13049000D01*
G01X22630000Y13381000D02*
X22632000D01*
Y13394000D01*
G01X25318000Y10328000D02*
Y11046000D01*
X25297000Y11067000D01*
G01X25678000Y8078000D02*
Y7723000D01*
X25671000Y7716000D01*
G01X25678000Y8407000D02*
Y8078000D01*
G01Y8777000D02*
Y8407000D01*
G01X25318000Y8616000D02*
Y10328000D01*
G01X25678000Y10163000D02*
Y8777000D01*
G01Y10523000D02*
Y10163000D01*
G01Y10873000D02*
Y10523000D01*
G01Y10873000D02*
Y11221000D01*
G01X25672000Y11227000D02*
Y12990000D01*
X25872000Y13190000D01*
X29201000D01*
G54D17*
G01X5973000Y8071000D02*
X5980000D01*
G01X5968000Y8421000D02*
X5980000D01*
G01X5962000Y10522000D02*
X5980000D01*
G01Y10867000D02*
X5981000D01*
Y10872000D01*
G01X7266000Y4186000D02*
X7267700Y4187700D01*
X9779000D01*
G01X7205000Y4272000D02*
X7207000Y4270000D01*
X9864000D01*
G01X9699000Y4125000D02*
X7314000D01*
G01X9941000Y4349000D02*
X7142000D01*
G01X7079000Y4416000D02*
X7082000Y4413000D01*
X10007000D01*
G01X9133000Y3434000D02*
X7843000D01*
X7776000Y3367000D01*
G01X9046000Y3373000D02*
X7893000D01*
X7824000Y3304000D01*
G01X9452000Y3756000D02*
X7523000D01*
G01X9335000Y3608000D02*
X7623000D01*
G01X9378000Y3690000D02*
X7573000D01*
G01X7464000Y3847000D02*
X7472000Y3839000D01*
X9498000D01*
G01X9227200Y3484000D02*
X9166900D01*
X9157900Y3493000D01*
X7765000D01*
X7716100Y3444100D01*
G01X9281000Y3537000D02*
X9234900D01*
X9228900Y3543000D01*
X7668000D01*
X7662000Y3537000D01*
G01X9579000Y3926000D02*
X9577000Y3924000D01*
X7408000D01*
G01X9640000Y4022000D02*
X7379000D01*
X7365000Y4008000D01*
G01X7852000Y3225000D02*
X7904000Y3277000D01*
X8986000D01*
G01X8940000Y3206000D02*
X7938000D01*
X7914000Y3182000D01*
G01X8686000Y3029000D02*
X8175000D01*
X8109000Y2963000D01*
G01X7966000Y3106000D02*
X8010800Y3150800D01*
X8857800D01*
G01X8790000Y3079000D02*
X8105000D01*
X8045000Y3019000D01*
G01X8686000Y2976300D02*
Y3029000D01*
G01X13816000D02*
X8820900D01*
X8814900Y3023000D01*
X8765100D01*
X8759100Y3029000D01*
X8686000D01*
G01X8790000Y3083000D02*
Y3079000D01*
G01X13898000D02*
X13851900D01*
X13831900Y3099000D01*
X13782100D01*
X13762100Y3079000D01*
X8790000D01*
G01X8818000Y10872000D02*
X8804000D01*
G01X14097000Y3277000D02*
X8986000D01*
G01Y3285000D02*
Y3277000D01*
G01X9046000Y3362000D02*
Y3373000D01*
G01D02*
X9175600D01*
X9181500Y3367100D01*
X9272900D01*
X9278800Y3373000D01*
X14159000D01*
G01X8940000Y3203000D02*
Y3206000D01*
G01D02*
X14045000D01*
G01X8857800Y3150800D02*
X8907300D01*
X8915100Y3143000D01*
X13755300D01*
X13763100Y3150800D01*
X13964800D01*
G01X8879000Y3145000D02*
X8857800D01*
Y3150800D01*
G01X9133000Y3434000D02*
X9185400D01*
X9202300Y3417100D01*
X9252100D01*
X9268000Y3433000D01*
X9326700D01*
X9327700Y3434000D01*
X14221000D01*
G01X9133000Y3433000D02*
Y3434000D01*
G01X9329000Y3604000D02*
X9335000D01*
Y3608000D01*
G01X9227200Y3484000D02*
X9255100D01*
X9256100Y3483000D01*
X9305900D01*
X9306900Y3484000D01*
X14175100D01*
X14190100Y3499000D01*
X14260900D01*
X14275900Y3484000D01*
X14325000D01*
G01X9227200Y3477100D02*
Y3484000D01*
G01X9281000Y3537000D02*
X14157300D01*
X14179300Y3559000D01*
X14271700D01*
X14284700Y3546000D01*
X14380000D01*
G01X9281000Y3543000D02*
Y3537000D01*
G01X9179000Y5177000D02*
X9185000D01*
Y5175000D01*
G01X9170000Y13394000D02*
Y13399000D01*
G01X9452000Y3760000D02*
Y3756000D01*
G01X14552000Y3754000D02*
X14550000Y3756000D01*
X9452000D01*
G01X14447000Y3608000D02*
X14293500D01*
X14292500Y3609000D01*
X14159500D01*
X14158500Y3608000D01*
X9335000D01*
G01X9379100Y3693000D02*
X9378000D01*
Y3690000D01*
G01X14498000D02*
X9378000D01*
G01X14589000Y3839000D02*
X9498000D01*
G01D02*
Y3845000D01*
G01X9779000Y4187700D02*
X14884000D01*
G01X9779000Y4193000D02*
Y4187700D01*
G01X9579000Y3936000D02*
Y3926000D01*
G01D02*
X14676000D01*
G01X9699000Y4124000D02*
Y4125000D01*
G01X14792000Y4124000D02*
X14791000Y4125000D01*
X9699000D01*
G01X9640000Y4022000D02*
X9654000D01*
G01X14735000Y4031000D02*
X14730000D01*
X14726000Y4027000D01*
X9640000D01*
Y4022000D01*
G01X9510000Y5184000D02*
Y5175000D01*
G01X9520000Y13394000D02*
Y13405000D01*
G01X14940000Y4272000D02*
X9866000D01*
X9864000Y4270000D01*
G01X9929000Y4348000D02*
X9941000D01*
Y4349000D01*
G01X15030000D02*
X9941000D01*
G01X15072000Y4413000D02*
X10007000D01*
G01X16376000Y2888000D02*
X11281000D01*
X11277000Y2884000D01*
G01X11196000Y2965000D02*
X11204000Y2957000D01*
X16332000D01*
G01X11808000Y2360000D02*
X11809000Y2361000D01*
X16949000D01*
G01X16682000Y2640000D02*
X16621900D01*
X16617900Y2636000D01*
X11636000D01*
X11577000Y2577000D01*
G01X11710000Y2492000D02*
X16823000D01*
Y2495000D01*
G01X11638000Y2534000D02*
X11669000Y2565000D01*
X16728000D01*
G01X11777000Y2430000D02*
X16895000D01*
G01X16507800Y2770000D02*
X16506800D01*
X16498800Y2762000D01*
X11449000D01*
X11420000Y2733000D01*
G01X11495000Y2679000D02*
X11512000Y2696000D01*
X16593000D01*
G01X16452000Y2825000D02*
X16405900D01*
X16400900Y2820000D01*
X11384000D01*
X11367000Y2803000D01*
G01X11677000Y5158000D02*
Y5175000D01*
G01Y13403000D02*
X11678000D01*
Y13394000D01*
G01X12319000Y1869000D02*
X12326000Y1876000D01*
X17428000D01*
G01X17312000Y1992000D02*
X17246900D01*
X17236900Y1982000D01*
X12314800D01*
X12299800Y1997000D01*
X12186000D01*
X12177000Y1988000D01*
G01X17011000Y2308000D02*
X16984900D01*
X16979900Y2303000D01*
X11892000D01*
X11869000Y2280000D01*
G01X17352000Y1945000D02*
X17339000Y1932000D01*
X12257000D01*
X12256000Y1933000D01*
G01X12130000Y2048000D02*
X17206000D01*
X17212000Y2042000D01*
G01X12062000Y2107000D02*
X12071000Y2116000D01*
X17181000D01*
G01X17136000Y2192000D02*
X17126900D01*
X17111900Y2177000D01*
X11985000D01*
G01X17070000Y2249000D02*
X17048900D01*
X17034900Y2235000D01*
X16985100D01*
X16976100Y2244000D01*
X11948000D01*
X11934000Y2230000D01*
G01X12027000Y5142000D02*
Y5175000D01*
G01X12410000Y1783000D02*
X17501000D01*
X17516000Y1798000D01*
G01X12492000Y1717000D02*
X12497000Y1722000D01*
X17591000D01*
G01X19184900Y12705100D02*
Y12642300D01*
X19144700Y12602100D01*
X19133600D01*
X19045000Y12513500D01*
X19015900D01*
X19014500Y12512100D01*
X18832500D01*
X18793600Y12551000D01*
X18086000D01*
X18036100Y12501100D01*
X14175300D01*
X14035000Y12360800D01*
Y11758800D01*
X13851500Y11575300D01*
Y11560600D01*
X13554000Y11263100D01*
X12812500D01*
X12735200Y11185800D01*
G01X19248000Y12655000D02*
Y12634600D01*
X19165400Y12552000D01*
X19156700D01*
X19068200Y12463500D01*
X19036700D01*
X19035300Y12462100D01*
X18811700D01*
X18772800Y12501000D01*
X18106800D01*
X18047800Y12442000D01*
X14242600D01*
X14085000Y12284400D01*
Y11738000D01*
X13901500Y11554500D01*
Y11539800D01*
X13574800Y11213100D01*
X12860900D01*
X12790200Y11142400D01*
G01X18919800Y12722100D02*
X18882400Y12759500D01*
X14024700D01*
X13651500Y12386300D01*
Y11643800D01*
X13470800Y11463100D01*
X12535100D01*
X12410500Y11338500D01*
G01X19049000Y12717000D02*
Y12667300D01*
X18995200Y12613500D01*
X18974300D01*
X18972900Y12612100D01*
X18874100D01*
X18835200Y12651000D01*
X14174400D01*
X13751500Y12228100D01*
Y11602200D01*
X13512400Y11363100D01*
X12680400D01*
X12582800Y11265500D01*
G01X19119800Y12662100D02*
X19021200Y12563500D01*
X18995100D01*
X18993700Y12562100D01*
X18853300D01*
X18814400Y12601000D01*
X18065200D01*
X18015300Y12551100D01*
X14145300D01*
X13985000Y12390800D01*
Y11779600D01*
X13801500Y11596100D01*
Y11581400D01*
X13533200Y11313100D01*
X12757900D01*
X12655200Y11210400D01*
G01X18970300Y12673500D02*
X18958900Y12662100D01*
X18894900D01*
X18856000Y12701000D01*
X14153600D01*
X13701500Y12248900D01*
Y11623000D01*
X13491600Y11413100D01*
X12573400D01*
X12477200Y11316900D01*
G01X12686000Y16591000D02*
X12729200Y16634200D01*
X12921800D01*
X12940000Y16616000D01*
G01X12884000Y8986000D02*
Y8983000D01*
G01X19842600Y12710000D02*
Y12590400D01*
X19768000Y12515800D01*
Y12512300D01*
X19699000Y12443300D01*
Y12438100D01*
X19371900Y12111000D01*
X19363200D01*
X19138700Y11886500D01*
X18400400D01*
X18338900Y11825000D01*
X18285100D01*
X18118100Y11992000D01*
X14993000D01*
X13744000Y10743000D01*
X13366000D01*
X13312000Y10689000D01*
G01X19779000Y12677000D02*
Y12597600D01*
X19718000Y12536600D01*
Y12533100D01*
X19649000Y12464100D01*
Y12458900D01*
X19351100Y12161000D01*
X19342400D01*
X19140400Y11959000D01*
X19080600D01*
X19058100Y11936500D01*
X18379600D01*
X18318100Y11875000D01*
X18305900D01*
X18138900Y12042000D01*
X14566400D01*
X14500000Y11975600D01*
Y11569800D01*
X13723300Y10793100D01*
X13299100D01*
X13250000Y10744000D01*
G01X19631400Y12640700D02*
Y12595400D01*
X19618000Y12582000D01*
Y12574700D01*
X19549000Y12505700D01*
Y12500500D01*
X19309500Y12261000D01*
X19299200D01*
X19290300Y12252100D01*
X19286500D01*
X19176400Y12142000D01*
X14459200D01*
X14385100Y12067900D01*
Y11598600D01*
X13685500Y10899000D01*
X13185000D01*
X13120000Y10834000D01*
G01X19704000Y12685000D02*
Y12596000D01*
X19668000Y12560000D01*
Y12553900D01*
X19599000Y12484900D01*
Y12479700D01*
X19330300Y12211000D01*
X19319000D01*
X19200000Y12092000D01*
X14486200D01*
X14439000Y12044800D01*
Y11581700D01*
X13706300Y10849000D01*
X13246700D01*
X13189100Y10791400D01*
G01X19391400Y12678800D02*
Y12639700D01*
X19348900Y12597200D01*
Y12583600D01*
X19226200Y12460900D01*
X19215900D01*
X19207100Y12452100D01*
X19198400D01*
X19109800Y12363500D01*
X19078300D01*
X19076900Y12362100D01*
X18770100D01*
X18731200Y12401000D01*
X18148400D01*
X18089400Y12342000D01*
X14288400D01*
X14185000Y12238600D01*
Y11696400D01*
X14001500Y11512900D01*
Y11498200D01*
X13616400Y11113100D01*
X12968700D01*
X12928500Y11072900D01*
G01X19511400Y12639000D02*
Y12609700D01*
X19448900Y12547200D01*
Y12542000D01*
X19267900Y12361000D01*
X19257600D01*
X19248700Y12352100D01*
X19240100D01*
X19130000Y12242000D01*
X14390200D01*
X14285000Y12136800D01*
Y11640100D01*
X13657900Y11013000D01*
X13053000D01*
X12984000Y10944000D01*
G01X19461000Y12693000D02*
X19451400Y12683400D01*
Y12628900D01*
X19399000Y12576500D01*
Y12562900D01*
X19247100Y12411000D01*
X19236800D01*
X19227900Y12402100D01*
X19219300D01*
X19130600Y12313400D01*
X19099000D01*
X19097700Y12312100D01*
X18749300D01*
X18710400Y12351000D01*
X18169200D01*
X18110200Y12292000D01*
X14369400D01*
X14235000Y12157600D01*
Y11675600D01*
X14051500Y11492100D01*
Y11477400D01*
X13637200Y11063100D01*
X13017100D01*
X12972000Y11018000D01*
G01X13068000Y10926000D02*
X13092000Y10950000D01*
X13665700D01*
X14335100Y11619400D01*
Y12093900D01*
X14433200Y12192000D01*
X19150800D01*
X19260900Y12302100D01*
X19269500D01*
X19278400Y12311000D01*
X19288700D01*
X19498900Y12521200D01*
Y12526400D01*
X19568000Y12595500D01*
Y12602800D01*
X19571400Y12606200D01*
Y12685000D01*
X19589000Y12702600D01*
G01X12829000Y11084000D02*
X12908100Y11163100D01*
X13595600D01*
X13951500Y11519000D01*
Y11533700D01*
X14135000Y11717200D01*
Y12263600D01*
X14263400Y12392000D01*
X18068600D01*
X18127600Y12451000D01*
X18752000D01*
X18790900Y12412100D01*
X19056100D01*
X19057500Y12413500D01*
X19089000D01*
X19177600Y12502100D01*
X19186300D01*
X19195200Y12511000D01*
X19205500D01*
X19298800Y12604300D01*
Y12620900D01*
X19308000Y12630100D01*
Y12677900D01*
X19321200Y12691100D01*
G01X12840000Y11659000D02*
Y11664000D01*
G01X12884000Y16246000D02*
Y16252000D01*
G01X19980100Y12725400D02*
Y12577600D01*
X19189000Y11786500D01*
X18442000D01*
X18380500Y11725000D01*
X18243500D01*
X18186000Y11782500D01*
X14931500D01*
X13790000Y10641000D01*
X13502000D01*
X13454000Y10593000D01*
G01X20152300Y12700100D02*
Y12599300D01*
X19393000Y11840000D01*
Y11597200D01*
X19284800Y11489000D01*
X14779600D01*
X13785600Y10495000D01*
X13599000D01*
G01X20250000Y12710000D02*
Y12626200D01*
X19443000Y11819200D01*
Y11576400D01*
X19305600Y11439000D01*
X14800400D01*
X13780400Y10419000D01*
X13673000D01*
G01X19912000Y12684000D02*
Y12589000D01*
X19818000Y12495000D01*
Y12491500D01*
X19749000Y12422500D01*
Y12417300D01*
X19392700Y12061000D01*
X19384000D01*
X19159500Y11836500D01*
X18421200D01*
X18359700Y11775000D01*
X18264300D01*
X18097300Y11942000D01*
X15020200D01*
X13771200Y10693000D01*
X13442000D01*
X13388000Y10639000D01*
G01X20068000Y12703000D02*
Y12594700D01*
X19343000Y11869700D01*
Y11618000D01*
X19264000Y11539000D01*
X18719700D01*
X18522200Y11736500D01*
X18462800D01*
X18401300Y11675000D01*
X18222700D01*
X18165200Y11732500D01*
X14952300D01*
X13810800Y10591000D01*
X13576100D01*
X13538100Y10553000D01*
G01X13436000Y16616000D02*
Y16585000D01*
G01X19231000Y3280000D02*
X19228000Y3277000D01*
X14097000D01*
G01Y3271000D02*
Y3277000D01*
G01X19292000Y3359000D02*
X14268400D01*
X14254400Y3373000D01*
X14159000D01*
G01Y3359000D02*
Y3373000D01*
G01X19162000Y3196000D02*
X19152000Y3206000D01*
X14045000D01*
G01X18903000Y3029000D02*
X18899000Y3025000D01*
X13873100D01*
X13869100Y3029000D01*
X13816000D01*
G01X13807000Y3039000D02*
X13816000D01*
Y3029000D01*
G01X19070000Y3139000D02*
X19066000Y3143000D01*
X14003200D01*
X13995400Y3150800D01*
X13964800D01*
G01X13963800Y3145500D02*
X13964800Y3146500D01*
Y3150800D01*
G01X19005000Y3081000D02*
X18997000Y3089000D01*
X18878100D01*
X18868100Y3079000D01*
X13898000D01*
G01Y3085000D02*
Y3079000D01*
G01X19349000Y3420000D02*
X14278200D01*
X14264200Y3434000D01*
X14221000D01*
G01X14215000Y3439000D02*
X14221000D01*
Y3434000D01*
G01X14276000Y5170000D02*
X14271000D01*
Y5175000D01*
G01X14276000Y13394000D02*
Y13408000D01*
G01X19661000Y3754000D02*
X14552000D01*
G01X14448000Y3607000D02*
X14447000Y3608000D01*
G01D02*
X14449000Y3610000D01*
X19552000D01*
G01X14501000Y3693000D02*
X14498000Y3690000D01*
G01X19597000Y3685000D02*
X14503000D01*
X14498000Y3690000D01*
G01X14591000Y3841000D02*
X14589000Y3839000D01*
G01X19715000Y3837000D02*
X14591000D01*
X14589000Y3839000D01*
G01X19431000Y3479000D02*
X19426000Y3484000D01*
X14325000D01*
G01Y3481000D02*
Y3484000D01*
G01X19495000Y3534000D02*
X19483000Y3546000D01*
X14380000D01*
G01X19781000Y3921000D02*
X19776000Y3926000D01*
X14676000D01*
G01X19922000Y4116000D02*
X14800000D01*
X14792000Y4124000D01*
G01X14738000Y4036000D02*
X14735000D01*
Y4031000D01*
G01X19852000D02*
X14735000D01*
G01X14626000Y5177000D02*
Y5175000D01*
G01X14884000Y4187700D02*
X19980700D01*
X19981000Y4188000D01*
G01X14884000Y4187000D02*
Y4187700D01*
G01X14948000Y4280000D02*
X14940000Y4272000D01*
G01D02*
X14944000Y4268000D01*
X20064000D01*
G01X20131000Y4350000D02*
X20130000Y4349000D01*
X15030000D01*
G01Y4345000D02*
Y4349000D01*
G01X15077700Y4416000D02*
X15072000D01*
Y4413000D01*
G01D02*
X20199000D01*
X20208000Y4404000D01*
G01X16675200Y2644000D02*
X16682000D01*
Y2640000D01*
G01X21803000D02*
X21781900D01*
X21772900Y2631000D01*
X21723100D01*
X21714100Y2640000D01*
X16682000D01*
G01X16726000Y2557000D02*
X16728000D01*
Y2565000D01*
G01D02*
X21886000D01*
G01X16376000Y2880000D02*
Y2888000D01*
G01X21504000D02*
X16376000D01*
G01X16526200Y2771000D02*
X16507800D01*
Y2770000D01*
G01D02*
X21589400D01*
X21592100Y2767300D01*
X21641900D01*
X21644600Y2770000D01*
X21688000D01*
G01X16593000Y2696000D02*
X16601000Y2704000D01*
X16700100D01*
X16708100Y2696000D01*
X21763000D01*
G01X16452000Y2828000D02*
Y2825000D01*
G01X21617000Y2827300D02*
X21615700Y2826000D01*
X16556100D01*
X16551100Y2831000D01*
X16501300D01*
X16495300Y2825000D01*
X16452000D01*
G01X16321800Y2956000D02*
X16332000D01*
Y2957000D01*
G01X21459000D02*
X16332000D01*
G01X16776000Y5183000D02*
X16763000D01*
Y5175000D01*
G01X16776000Y13394000D02*
Y13386000D01*
G01X17274000Y1999000D02*
X17278000Y1995000D01*
X17312000D01*
Y1992000D01*
G01X17010000Y2295000D02*
X17011000D01*
Y2308000D01*
G01D02*
X22063600D01*
X22074600Y2297000D01*
X22124400D01*
X22135400Y2308000D01*
X22166000D01*
G01X16955000Y2363000D02*
X16949000D01*
Y2361000D01*
G01X22106000D02*
X16949000D01*
G01X22397000Y2042000D02*
X17424600D01*
X17407600Y2059000D01*
X17229000D01*
X17212000Y2042000D01*
G01X17181000Y2116000D02*
X22335000D01*
Y2120000D01*
G01X17181000Y2116000D02*
Y2117000D01*
G01X17136000Y2190000D02*
Y2192000D01*
G01X22284000D02*
X22255800D01*
X22251800Y2188000D01*
X22172500D01*
X22168500Y2192000D01*
X17136000D01*
G01X17063000Y2237000D02*
X17070000D01*
Y2249000D01*
G01X22197400D02*
X22147200D01*
X22145200Y2247000D01*
X17163900D01*
X17160900Y2250000D01*
X17111100D01*
X17110100Y2249000D01*
X17070000D01*
G01X16823000Y2495000D02*
X21948000D01*
G01X16811000Y2496000D02*
X16812000Y2495000D01*
X16823000D01*
G01X16889000Y2424000D02*
X16895000Y2430000D01*
G01X22021000Y2434000D02*
X16899000D01*
X16897000Y2432000D01*
X16895000D01*
Y2430000D01*
G01X17126000Y5183000D02*
Y5175000D01*
G01Y13394000D02*
Y13410000D01*
G01X17516000Y1798000D02*
X17519000Y1801000D01*
X22680000D01*
G01X17426000Y1875000D02*
X17428000D01*
Y1876000D01*
G01D02*
X22594000D01*
G01X17576000Y1721000D02*
X17591000D01*
Y1722000D01*
G01D02*
X22733000D01*
G01X22447000Y1992000D02*
X22422900D01*
X22414900Y1984000D01*
X22365100D01*
X22360100Y1989000D01*
X17392900D01*
X17376900Y2005000D01*
X17327100D01*
X17314100Y1992000D01*
X17312000D01*
G01X22521000Y1939000D02*
X22515000Y1933000D01*
X22345300D01*
X22339300Y1939000D01*
X17358000D01*
X17352000Y1945000D01*
G01X18495000Y11671000D02*
X18490000D01*
X18483000Y11664000D01*
G01X18845000Y8998000D02*
Y8986000D01*
G01Y11672000D02*
Y11665000D01*
G01X19381000Y5167000D02*
Y5175000D01*
G01X19731000Y13394000D02*
Y13375000D01*
G01X19381000Y13402000D02*
X19434000D01*
Y13394000D01*
G01X21525000Y2887000D02*
X21504000D01*
Y2888000D01*
G01X24222000Y2886000D02*
X24220000Y2888000D01*
X21504000D01*
G01X21688000Y2770000D02*
Y2772000D01*
X21675000D01*
G01X21688000Y2770000D02*
X21698000Y2760000D01*
X24110000D01*
G01X21748000Y2691000D02*
X21749000Y2692000D01*
X21763000D01*
Y2696000D01*
G01X24160000Y2818000D02*
X24146000Y2832000D01*
X21621700D01*
X21617000Y2827300D01*
G01X21459000Y2962000D02*
Y2957000D01*
G01D02*
X21464000D01*
X21465000Y2956000D01*
X24251000D01*
G01X22159900Y2311000D02*
X22166000D01*
Y2308000D01*
G01D02*
X23733000D01*
G01X22106000Y2361000D02*
X22125000D01*
X22135000Y2371000D01*
X23774000D01*
X23784000Y2361000D01*
G01X22099500Y2357000D02*
X22106000D01*
Y2361000D01*
G01X23677000Y2230000D02*
X23654000Y2253000D01*
X22257900D01*
X22253900Y2249000D01*
X22197400D01*
G01Y2248000D02*
Y2249000D01*
G01X21803000Y2633000D02*
Y2640000D01*
G01D02*
X23975000D01*
X23999000Y2616000D01*
G01X21948000Y2495000D02*
X21950000Y2497000D01*
X23888000D01*
X23890000Y2495000D01*
G01X21886000Y2565000D02*
Y2563000D01*
X21875000D01*
G01X21886000Y2565000D02*
X23946000D01*
X23961000Y2550000D01*
G01X22021000Y2437000D02*
Y2434000D01*
G01D02*
X23829000D01*
X23854000Y2409000D01*
G01X24056000Y2693000D02*
X24053000Y2696000D01*
X21763000D01*
G01X21925000Y5191000D02*
Y5175000D01*
G01X22215000Y10872000D02*
X22218000D01*
G01X21925000Y13389000D02*
X21909000D01*
Y13394000D01*
G01X22674800Y1805000D02*
X22680000D01*
Y1801000D01*
G01D02*
X23272000D01*
G01X22594000Y1876000D02*
X23324000D01*
G01X22594000Y1872000D02*
Y1876000D01*
G01X22733000Y1722000D02*
X23222000D01*
G01X22725000Y1735000D02*
X22733000D01*
Y1722000D01*
G01X22447000Y1992000D02*
X22489100D01*
X22496100Y1999000D01*
X23440000D01*
X23442000Y1997000D01*
G01X22447000Y1993000D02*
Y1992000D01*
G01X23390000Y1935000D02*
X23386000Y1939000D01*
X22521000D01*
G01X23511000Y2029000D02*
X23473600Y2066400D01*
X22435500D01*
X22411100Y2042000D01*
X22397000D01*
G01X22390000Y2044000D02*
X22397000D01*
Y2042000D01*
G01X22335000Y2120000D02*
X22325000D01*
G01X23550000Y2100000D02*
X23512600Y2137400D01*
X22356400D01*
X22339000Y2120000D01*
X22335000D01*
G01X22282800Y2193000D02*
X22284000D01*
Y2192000D01*
G01X23612000Y2178000D02*
X23598000Y2192000D01*
X22284000D01*
G01X22275000Y5186000D02*
Y5175000D01*
G01Y13390000D02*
X22270000D01*
Y13394000D01*
G01X25663000Y8072000D02*
Y8078000D01*
X25678000D01*
G01X25669000Y8405000D02*
Y8407000D01*
X25678000D01*
G01Y10523000D02*
X25662000D01*
G01X25654000Y10873000D02*
X25678000D01*
G54D18*
G01X0Y1124000D02*
Y21300000D01*
X31753000D01*
Y1124000D01*
X0D01*
G54D19*
G01X29661000Y14119000D02*
Y13550000D01*
X29843000Y13368000D01*
M02*
