G04 ================== begin FILE IDENTIFICATION RECORD ==================*
G04 Layout Name:  D:/Spira Heaven/0-My Works/Srtp/PCB/Trans/PCB/Trans.brd*
G04 Film Name:    SOLDERMASK_TOP*
G04 File Format:  Gerber RS274X*
G04 File Origin:  Cadence Allegro 16.6-S003*
G04 Origin Date:  Mon Feb 24 20:45:19 2014*
G04 *
G04 Layer:  PIN/SOLDERMASK_TOP*
G04 Layer:  PIN/TOP*
G04 Layer:  PACKAGE GEOMETRY/SOLDERMASK_TOP*
G04 Layer:  BOARD GEOMETRY/OUTLINE*
G04 Layer:  BOARD GEOMETRY/SOLDERMASK_TOP*
G04 *
G04 Offset:    (0.000 0.000)*
G04 Mirror:    No*
G04 Mode:      Positive*
G04 Rotation:  0*
G04 FullContactRelief:  No*
G04 UndefLineWidth:     0.200*
G04 ================== end FILE IDENTIFICATION RECORD ====================*
%FSLAX25Y25*MOMM*%
%IR0*IPPOS*OFA0.00000B0.00000*MIA0B0*SFA1.00000B1.00000*%
%ADD12R,.8X1.*%
%ADD14R,1.X.8*%
%ADD10C,6.*%
%ADD22C,2.6*%
%ADD19R,.762X1.422*%
%ADD13R,.279X1.676*%
%ADD11R,1.676X.279*%
%ADD16R,1.2X1.4*%
%ADD15R,1.2X2.5*%
%ADD21R,2.4X2.2*%
%ADD17R,2.5X1.2*%
%ADD18R,1.6X2.6*%
%ADD20R,10.389X13.665*%
%ADD23C,.2*%
G75*
%LPD*%
G75*
G54D10*
X581000Y2209000D03*
X582000Y4834000D03*
Y16031000D03*
Y20350000D03*
X8640000Y7925000D03*
X8639000Y14662000D03*
X22690000Y7924000D03*
Y14661000D03*
X31217000Y2212000D03*
Y4835000D03*
Y16033000D03*
Y20350000D03*
G54D20*
X29017000Y15528100D03*
D03*
G54D11*
X5433000Y7571000D03*
D03*
Y7621000D03*
D03*
Y7671000D03*
D03*
Y7721000D03*
D03*
Y7771000D03*
D03*
Y7821000D03*
D03*
Y7871000D03*
D03*
Y7921000D03*
D03*
Y7971000D03*
D03*
Y8021000D03*
D03*
Y8071000D03*
D03*
Y8121000D03*
D03*
Y8171000D03*
D03*
Y8221000D03*
D03*
Y8271000D03*
D03*
Y8321000D03*
D03*
Y8371000D03*
D03*
Y8421000D03*
D03*
Y8471000D03*
D03*
Y8521000D03*
D03*
Y8571000D03*
D03*
Y8621000D03*
D03*
Y8671000D03*
D03*
Y8721000D03*
D03*
Y8771000D03*
D03*
Y8821000D03*
D03*
Y8871000D03*
D03*
Y8921000D03*
D03*
Y10022000D03*
D03*
Y10072000D03*
D03*
Y10122000D03*
D03*
Y10172000D03*
D03*
Y10222000D03*
D03*
Y10272000D03*
D03*
Y10322000D03*
D03*
Y10372000D03*
D03*
Y10422000D03*
D03*
Y10472000D03*
D03*
Y10522000D03*
D03*
Y10572000D03*
D03*
Y10622000D03*
D03*
Y10672000D03*
D03*
Y10722000D03*
D03*
Y10772000D03*
D03*
Y10822000D03*
D03*
Y10872000D03*
D03*
Y10922000D03*
D03*
Y10972000D03*
D03*
Y11022000D03*
D03*
Y11072000D03*
D03*
Y11122000D03*
D03*
Y11172000D03*
D03*
Y11222000D03*
D03*
Y11272000D03*
D03*
Y11322000D03*
D03*
Y11372000D03*
D03*
X6167000Y7871000D03*
D03*
Y7821000D03*
D03*
Y7771000D03*
D03*
Y7721000D03*
D03*
Y7671000D03*
D03*
Y7621000D03*
D03*
Y7571000D03*
D03*
Y8321000D03*
D03*
Y8271000D03*
D03*
Y8221000D03*
D03*
Y8171000D03*
D03*
Y8121000D03*
D03*
Y8071000D03*
D03*
Y8021000D03*
D03*
Y7971000D03*
D03*
Y7921000D03*
D03*
Y8821000D03*
D03*
Y8771000D03*
D03*
Y8721000D03*
D03*
Y8671000D03*
D03*
Y8621000D03*
D03*
Y8571000D03*
D03*
Y8521000D03*
D03*
Y8471000D03*
D03*
Y8421000D03*
D03*
Y8371000D03*
D03*
Y8921000D03*
D03*
Y8871000D03*
D03*
Y10322000D03*
D03*
Y10272000D03*
D03*
Y10222000D03*
D03*
Y10172000D03*
D03*
Y10122000D03*
D03*
Y10072000D03*
D03*
Y10022000D03*
D03*
Y10822000D03*
D03*
Y10772000D03*
D03*
Y10722000D03*
D03*
Y10672000D03*
D03*
Y10622000D03*
D03*
Y10572000D03*
D03*
Y10522000D03*
D03*
Y10472000D03*
D03*
Y10422000D03*
D03*
Y10372000D03*
D03*
Y11322000D03*
D03*
Y11272000D03*
D03*
Y11222000D03*
D03*
Y11172000D03*
D03*
Y11122000D03*
D03*
Y11072000D03*
D03*
Y11022000D03*
D03*
Y10972000D03*
D03*
Y10922000D03*
D03*
Y10872000D03*
D03*
Y11372000D03*
D03*
X8633000Y10022000D03*
D03*
Y10072000D03*
D03*
Y10122000D03*
D03*
Y10172000D03*
D03*
Y10222000D03*
D03*
Y10272000D03*
D03*
Y10322000D03*
D03*
Y10372000D03*
D03*
Y10422000D03*
D03*
Y10472000D03*
D03*
Y10522000D03*
D03*
Y10572000D03*
D03*
Y10622000D03*
D03*
Y10672000D03*
D03*
Y10722000D03*
D03*
Y10772000D03*
D03*
Y10822000D03*
D03*
Y10872000D03*
D03*
Y10922000D03*
D03*
Y10972000D03*
D03*
Y11022000D03*
D03*
Y11072000D03*
D03*
Y11122000D03*
D03*
Y11172000D03*
D03*
Y11222000D03*
D03*
Y11272000D03*
D03*
Y11322000D03*
D03*
Y11372000D03*
D03*
X9367000Y10322000D03*
D03*
Y10272000D03*
D03*
Y10222000D03*
D03*
Y10172000D03*
D03*
Y10122000D03*
D03*
Y10072000D03*
D03*
Y10022000D03*
D03*
Y10822000D03*
D03*
Y10772000D03*
D03*
Y10722000D03*
D03*
Y10672000D03*
D03*
Y10622000D03*
D03*
Y10572000D03*
D03*
Y10522000D03*
D03*
Y10472000D03*
D03*
Y10422000D03*
D03*
Y10372000D03*
D03*
Y11322000D03*
D03*
Y11272000D03*
D03*
Y11222000D03*
D03*
Y11172000D03*
D03*
Y11122000D03*
D03*
Y11072000D03*
D03*
Y11022000D03*
D03*
Y10972000D03*
D03*
Y10922000D03*
D03*
Y10872000D03*
D03*
Y11372000D03*
D03*
X22033000Y10022000D03*
D03*
Y10072000D03*
D03*
Y10122000D03*
D03*
Y10172000D03*
D03*
Y10222000D03*
D03*
Y10272000D03*
D03*
Y10322000D03*
D03*
Y10372000D03*
D03*
Y10422000D03*
D03*
Y10472000D03*
D03*
Y10522000D03*
D03*
Y10572000D03*
D03*
Y10622000D03*
D03*
Y10672000D03*
D03*
Y10722000D03*
D03*
Y10772000D03*
D03*
Y10822000D03*
D03*
Y10872000D03*
D03*
Y10922000D03*
D03*
Y10972000D03*
D03*
Y11022000D03*
D03*
Y11072000D03*
D03*
Y11122000D03*
D03*
Y11172000D03*
D03*
Y11222000D03*
D03*
Y11272000D03*
D03*
Y11322000D03*
D03*
Y11372000D03*
D03*
X22767000Y10322000D03*
D03*
Y10272000D03*
D03*
Y10222000D03*
D03*
Y10172000D03*
D03*
Y10122000D03*
D03*
Y10072000D03*
D03*
Y10022000D03*
D03*
Y10822000D03*
D03*
Y10772000D03*
D03*
Y10722000D03*
D03*
Y10672000D03*
D03*
Y10622000D03*
D03*
Y10572000D03*
D03*
Y10522000D03*
D03*
Y10472000D03*
D03*
Y10422000D03*
D03*
Y10372000D03*
D03*
Y11322000D03*
D03*
Y11272000D03*
D03*
Y11222000D03*
D03*
Y11172000D03*
D03*
Y11122000D03*
D03*
Y11072000D03*
D03*
Y11022000D03*
D03*
Y10972000D03*
D03*
Y10922000D03*
D03*
Y10872000D03*
D03*
Y11372000D03*
D03*
X25133000Y7572000D03*
D03*
Y7622000D03*
D03*
Y7672000D03*
D03*
Y7722000D03*
D03*
Y7772000D03*
D03*
Y7822000D03*
D03*
Y7872000D03*
D03*
Y7922000D03*
D03*
Y7972000D03*
D03*
Y8022000D03*
D03*
Y8072000D03*
D03*
Y8122000D03*
D03*
Y8172000D03*
D03*
Y8222000D03*
D03*
Y8272000D03*
D03*
Y8322000D03*
D03*
Y8372000D03*
D03*
Y8422000D03*
D03*
Y8472000D03*
D03*
Y8522000D03*
D03*
Y8572000D03*
D03*
Y8622000D03*
D03*
Y8672000D03*
D03*
Y8722000D03*
D03*
Y8772000D03*
D03*
Y8822000D03*
D03*
Y8872000D03*
D03*
Y8922000D03*
D03*
Y10023000D03*
D03*
Y10073000D03*
D03*
Y10123000D03*
D03*
Y10173000D03*
D03*
Y10223000D03*
D03*
Y10273000D03*
D03*
Y10323000D03*
D03*
Y10373000D03*
D03*
Y10423000D03*
D03*
Y10473000D03*
D03*
Y10523000D03*
D03*
Y10573000D03*
D03*
Y10623000D03*
D03*
Y10673000D03*
D03*
Y10723000D03*
D03*
Y10773000D03*
D03*
Y10823000D03*
D03*
Y10873000D03*
D03*
Y10923000D03*
D03*
Y10973000D03*
D03*
Y11023000D03*
D03*
Y11073000D03*
D03*
Y11123000D03*
D03*
Y11173000D03*
D03*
Y11223000D03*
D03*
Y11273000D03*
D03*
Y11323000D03*
D03*
Y11373000D03*
D03*
X25867000Y7872000D03*
D03*
Y7822000D03*
D03*
Y7772000D03*
D03*
Y7722000D03*
D03*
Y7672000D03*
D03*
Y7622000D03*
D03*
Y7572000D03*
D03*
Y8322000D03*
D03*
Y8272000D03*
D03*
Y8222000D03*
D03*
Y8172000D03*
D03*
Y8122000D03*
D03*
Y8072000D03*
D03*
Y8022000D03*
D03*
Y7972000D03*
D03*
Y7922000D03*
D03*
Y8822000D03*
D03*
Y8772000D03*
D03*
Y8722000D03*
D03*
Y8672000D03*
D03*
Y8622000D03*
D03*
Y8572000D03*
D03*
Y8522000D03*
D03*
Y8472000D03*
D03*
Y8422000D03*
D03*
Y8372000D03*
D03*
Y8922000D03*
D03*
Y8872000D03*
D03*
Y10323000D03*
D03*
Y10273000D03*
D03*
Y10223000D03*
D03*
Y10173000D03*
D03*
Y10123000D03*
D03*
Y10073000D03*
D03*
Y10023000D03*
D03*
Y10823000D03*
D03*
Y10773000D03*
D03*
Y10723000D03*
D03*
Y10673000D03*
D03*
Y10623000D03*
D03*
Y10573000D03*
D03*
Y10523000D03*
D03*
Y10473000D03*
D03*
Y10423000D03*
D03*
Y10373000D03*
D03*
Y11323000D03*
D03*
Y11273000D03*
D03*
Y11223000D03*
D03*
Y11173000D03*
D03*
Y11123000D03*
D03*
Y11073000D03*
D03*
Y11023000D03*
D03*
Y10973000D03*
D03*
Y10923000D03*
D03*
Y10873000D03*
D03*
Y11373000D03*
D03*
G54D21*
X30101000Y13875000D03*
Y14535000D03*
G54D12*
X5593000Y9200000D03*
X5433000D03*
X5593000Y11700000D03*
X5433000D03*
X6167000Y7300000D03*
X6007000D03*
X6167000Y9700000D03*
X6007000D03*
X8793000Y11700000D03*
X8633000D03*
X8815000Y12872000D03*
Y13586000D03*
Y17363000D03*
Y18093000D03*
X9207000Y9700000D03*
X8975000Y12872000D03*
Y13586000D03*
Y17363000D03*
Y18093000D03*
X9367000Y9700000D03*
X9715000Y12856000D03*
Y13586000D03*
Y17363000D03*
Y18093000D03*
X9875000Y12856000D03*
Y13586000D03*
Y17363000D03*
Y18093000D03*
X11322000Y12856000D03*
Y13586000D03*
X11178000Y17364000D03*
X11338000D03*
X11178000Y18094000D03*
X11338000D03*
X11482000Y12856000D03*
Y13586000D03*
X12222000Y12856000D03*
Y13586000D03*
X12238000Y17364000D03*
X12078000D03*
X12238000Y18094000D03*
X12078000D03*
X12382000Y12856000D03*
Y13586000D03*
X13922000Y12856000D03*
X14082000D03*
X13922000Y13586000D03*
X14082000D03*
X13922000Y17363000D03*
X14082000D03*
X13922000Y18093000D03*
X14082000D03*
X14822000Y12856000D03*
Y13586000D03*
Y17363000D03*
Y18093000D03*
X14982000Y12856000D03*
Y13586000D03*
Y17363000D03*
Y18093000D03*
X16422000Y12856000D03*
X16582000D03*
X16422000Y13586000D03*
X16582000D03*
X16422000Y17363000D03*
X16582000D03*
X16422000Y18093000D03*
X16582000D03*
X17482000Y12856000D03*
X17322000D03*
X17482000Y13586000D03*
X17322000D03*
X17482000Y17363000D03*
X17322000D03*
X17482000Y18093000D03*
X17322000D03*
X19027000Y12856000D03*
X19187000D03*
X19027000Y13586000D03*
X19187000D03*
X19027000Y17363000D03*
X19187000D03*
X19027000Y18093000D03*
X19187000D03*
X20087000Y12856000D03*
X19927000D03*
X20087000Y13586000D03*
X19927000D03*
X20087000Y17363000D03*
X19927000D03*
X20087000Y18093000D03*
X19927000D03*
X21570000Y12856000D03*
X21730000D03*
X21570000Y13586000D03*
X21730000D03*
X21570000Y17363000D03*
X21730000D03*
X21570000Y18093000D03*
X21730000D03*
X22193000Y11700000D03*
X22033000D03*
X22767000Y9700000D03*
X22607000D03*
X22630000Y12856000D03*
X22470000D03*
X22630000Y13586000D03*
X22470000D03*
X22630000Y17363000D03*
X22470000D03*
X22630000Y18093000D03*
X22470000D03*
X25135000Y9201000D03*
X25133000Y11700000D03*
X25707000Y7300000D03*
X25295000Y9201000D03*
X25707000Y9700000D03*
X25293000Y11700000D03*
X25867000Y7300000D03*
Y9700000D03*
X28984000Y14119000D03*
X29144000D03*
X29525000D03*
X29365000D03*
X30181000Y12935000D03*
X30021000D03*
X30181000Y13362000D03*
X30021000D03*
X30675000Y12935000D03*
Y13362000D03*
X30835000Y12935000D03*
Y13362000D03*
G54D13*
X8829000Y4633000D03*
D03*
X8779000D03*
D03*
X8729000D03*
D03*
X8679000D03*
D03*
Y5367000D03*
D03*
X8729000D03*
D03*
X8779000D03*
D03*
X8829000D03*
D03*
X9329000Y4633000D03*
D03*
X9279000D03*
D03*
X9229000D03*
D03*
X9179000D03*
D03*
X9129000D03*
D03*
X9079000D03*
D03*
X9029000D03*
D03*
X8979000D03*
D03*
X8929000D03*
D03*
X8879000D03*
D03*
Y5367000D03*
D03*
X8929000D03*
D03*
X8979000D03*
D03*
X9029000D03*
D03*
X9079000D03*
D03*
X9129000D03*
D03*
X9179000D03*
D03*
X9229000D03*
D03*
X9279000D03*
D03*
X9329000D03*
D03*
X9779000Y4633000D03*
D03*
X9729000D03*
D03*
X9679000D03*
D03*
X9629000D03*
D03*
X9579000D03*
D03*
X9529000D03*
D03*
X9479000D03*
D03*
X9429000D03*
D03*
X9379000D03*
D03*
Y5367000D03*
D03*
X9429000D03*
D03*
X9479000D03*
D03*
X9529000D03*
D03*
X9579000D03*
D03*
X9629000D03*
D03*
X9679000D03*
D03*
X9729000D03*
D03*
X9779000D03*
D03*
X10029000Y4633000D03*
D03*
X9979000D03*
D03*
X9929000D03*
D03*
X9879000D03*
D03*
X9829000D03*
D03*
Y5367000D03*
D03*
X9879000D03*
D03*
X9929000D03*
D03*
X9979000D03*
D03*
X10029000D03*
D03*
X11277000Y4633000D03*
D03*
X11227000D03*
D03*
X11177000D03*
D03*
Y5367000D03*
D03*
X11227000D03*
D03*
X11277000D03*
D03*
X11777000Y4633000D03*
D03*
X11727000D03*
D03*
X11677000D03*
D03*
X11627000D03*
D03*
X11577000D03*
D03*
X11527000D03*
D03*
X11477000D03*
D03*
X11427000D03*
D03*
X11377000D03*
D03*
X11327000D03*
D03*
Y5367000D03*
D03*
X11377000D03*
D03*
X11427000D03*
D03*
X11477000D03*
D03*
X11527000D03*
D03*
X11577000D03*
D03*
X11627000D03*
D03*
X11677000D03*
D03*
X11727000D03*
D03*
X11777000D03*
D03*
X12277000Y4633000D03*
D03*
X12227000D03*
D03*
X12177000D03*
D03*
X12127000D03*
D03*
X12077000D03*
D03*
X12027000D03*
D03*
X11977000D03*
D03*
X11927000D03*
D03*
X11877000D03*
D03*
X11827000D03*
D03*
Y5367000D03*
D03*
X11877000D03*
D03*
X11927000D03*
D03*
X11977000D03*
D03*
X12027000D03*
D03*
X12077000D03*
D03*
X12127000D03*
D03*
X12177000D03*
D03*
X12227000D03*
D03*
X12277000D03*
D03*
X12527000Y4633000D03*
D03*
X12477000D03*
D03*
X12427000D03*
D03*
X12377000D03*
D03*
X12327000D03*
D03*
Y5367000D03*
D03*
X12377000D03*
D03*
X12427000D03*
D03*
X12477000D03*
D03*
X12527000D03*
D03*
X12784000Y8445000D03*
D03*
X12734000D03*
D03*
X12684000D03*
D03*
X12634000D03*
D03*
X12584000D03*
D03*
X12534000D03*
D03*
X12484000D03*
D03*
X12434000D03*
D03*
X12384000D03*
D03*
Y9179000D03*
D03*
X12434000D03*
D03*
X12484000D03*
D03*
X12534000D03*
D03*
X12584000D03*
D03*
X12634000D03*
D03*
X12684000D03*
D03*
X12734000D03*
D03*
X12784000D03*
D03*
Y11480000D03*
D03*
X12734000D03*
D03*
X12684000D03*
D03*
X12634000D03*
D03*
X12584000D03*
D03*
X12534000D03*
D03*
X12484000D03*
D03*
X12434000D03*
D03*
X12384000D03*
D03*
Y12214000D03*
D03*
X12434000D03*
D03*
X12484000D03*
D03*
X12534000D03*
D03*
X12584000D03*
D03*
X12634000D03*
D03*
X12684000D03*
D03*
X12734000D03*
D03*
X12784000D03*
D03*
Y16051000D03*
D03*
X12734000D03*
D03*
X12684000D03*
D03*
X12634000D03*
D03*
X12584000D03*
D03*
X12534000D03*
D03*
X12484000D03*
D03*
X12434000D03*
D03*
X12384000D03*
D03*
Y16785000D03*
D03*
X12434000D03*
D03*
X12484000D03*
D03*
X12534000D03*
D03*
X12584000D03*
D03*
X12634000D03*
D03*
X12684000D03*
D03*
X12734000D03*
D03*
X12784000D03*
D03*
X13284000Y8445000D03*
D03*
X13234000D03*
D03*
X13184000D03*
D03*
X13134000D03*
D03*
X13084000D03*
D03*
X13034000D03*
D03*
X12984000D03*
D03*
X12934000D03*
D03*
X12884000D03*
D03*
X12834000D03*
D03*
Y9179000D03*
D03*
X12884000D03*
D03*
X12934000D03*
D03*
X12984000D03*
D03*
X13034000D03*
D03*
X13084000D03*
D03*
X13134000D03*
D03*
X13184000D03*
D03*
X13234000D03*
D03*
X13284000D03*
D03*
Y11480000D03*
D03*
X13234000D03*
D03*
X13184000D03*
D03*
X13134000D03*
D03*
X13084000D03*
D03*
X13034000D03*
D03*
X12984000D03*
D03*
X12934000D03*
D03*
X12884000D03*
D03*
X12834000D03*
D03*
Y12214000D03*
D03*
X12884000D03*
D03*
X12934000D03*
D03*
X12984000D03*
D03*
X13034000D03*
D03*
X13084000D03*
D03*
X13134000D03*
D03*
X13184000D03*
D03*
X13234000D03*
D03*
X13284000D03*
D03*
Y16051000D03*
D03*
X13234000D03*
D03*
X13184000D03*
D03*
X13134000D03*
D03*
X13084000D03*
D03*
X13034000D03*
D03*
X12984000D03*
D03*
X12934000D03*
D03*
X12884000D03*
D03*
X12834000D03*
D03*
Y16785000D03*
D03*
X12884000D03*
D03*
X12934000D03*
D03*
X12984000D03*
D03*
X13034000D03*
D03*
X13084000D03*
D03*
X13134000D03*
D03*
X13184000D03*
D03*
X13234000D03*
D03*
X13284000D03*
D03*
X13776000Y4633000D03*
D03*
Y5367000D03*
D03*
X13734000Y8445000D03*
D03*
X13684000D03*
D03*
X13634000D03*
D03*
X13584000D03*
D03*
X13534000D03*
D03*
X13484000D03*
D03*
X13434000D03*
D03*
X13384000D03*
D03*
X13334000D03*
D03*
Y9179000D03*
D03*
X13384000D03*
D03*
X13434000D03*
D03*
X13484000D03*
D03*
X13534000D03*
D03*
X13584000D03*
D03*
X13634000D03*
D03*
X13684000D03*
D03*
X13734000D03*
D03*
Y11480000D03*
D03*
X13684000D03*
D03*
X13634000D03*
D03*
X13584000D03*
D03*
X13534000D03*
D03*
X13484000D03*
D03*
X13434000D03*
D03*
X13384000D03*
D03*
X13334000D03*
D03*
Y12214000D03*
D03*
X13384000D03*
D03*
X13434000D03*
D03*
X13484000D03*
D03*
X13534000D03*
D03*
X13584000D03*
D03*
X13634000D03*
D03*
X13684000D03*
D03*
X13734000D03*
D03*
Y16051000D03*
D03*
X13684000D03*
D03*
X13634000D03*
D03*
X13584000D03*
D03*
X13534000D03*
D03*
X13484000D03*
D03*
X13434000D03*
D03*
X13384000D03*
D03*
X13334000D03*
D03*
Y16785000D03*
D03*
X13384000D03*
D03*
X13434000D03*
D03*
X13484000D03*
D03*
X13534000D03*
D03*
X13584000D03*
D03*
X13634000D03*
D03*
X13684000D03*
D03*
X13734000D03*
D03*
X14276000Y4633000D03*
D03*
X14226000D03*
D03*
X14176000D03*
D03*
X14126000D03*
D03*
X14076000D03*
D03*
X14026000D03*
D03*
X13976000D03*
D03*
X13926000D03*
D03*
X13876000D03*
D03*
X13826000D03*
D03*
Y5367000D03*
D03*
X13876000D03*
D03*
X13926000D03*
D03*
X13976000D03*
D03*
X14026000D03*
D03*
X14076000D03*
D03*
X14126000D03*
D03*
X14176000D03*
D03*
X14226000D03*
D03*
X14276000D03*
D03*
X14776000Y4633000D03*
D03*
X14726000D03*
D03*
X14676000D03*
D03*
X14626000D03*
D03*
X14576000D03*
D03*
X14526000D03*
D03*
X14476000D03*
D03*
X14426000D03*
D03*
X14376000D03*
D03*
X14326000D03*
D03*
Y5367000D03*
D03*
X14376000D03*
D03*
X14426000D03*
D03*
X14476000D03*
D03*
X14526000D03*
D03*
X14576000D03*
D03*
X14626000D03*
D03*
X14676000D03*
D03*
X14726000D03*
D03*
X14776000D03*
D03*
X15126000Y4633000D03*
D03*
X15076000D03*
D03*
X15026000D03*
D03*
X14976000D03*
D03*
X14926000D03*
D03*
X14876000D03*
D03*
X14826000D03*
D03*
Y5367000D03*
D03*
X14876000D03*
D03*
X14926000D03*
D03*
X14976000D03*
D03*
X15026000D03*
D03*
X15076000D03*
D03*
X15126000D03*
D03*
X16276000Y4633000D03*
D03*
Y5367000D03*
D03*
X16776000Y4633000D03*
D03*
X16726000D03*
D03*
X16676000D03*
D03*
X16626000D03*
D03*
X16576000D03*
D03*
X16526000D03*
D03*
X16476000D03*
D03*
X16426000D03*
D03*
X16376000D03*
D03*
X16326000D03*
D03*
Y5367000D03*
D03*
X16376000D03*
D03*
X16426000D03*
D03*
X16476000D03*
D03*
X16526000D03*
D03*
X16576000D03*
D03*
X16626000D03*
D03*
X16676000D03*
D03*
X16726000D03*
D03*
X16776000D03*
D03*
X17276000Y4633000D03*
D03*
X17226000D03*
D03*
X17176000D03*
D03*
X17126000D03*
D03*
X17076000D03*
D03*
X17026000D03*
D03*
X16976000D03*
D03*
X16926000D03*
D03*
X16876000D03*
D03*
X16826000D03*
D03*
Y5367000D03*
D03*
X16876000D03*
D03*
X16926000D03*
D03*
X16976000D03*
D03*
X17026000D03*
D03*
X17076000D03*
D03*
X17126000D03*
D03*
X17176000D03*
D03*
X17226000D03*
D03*
X17276000D03*
D03*
X17626000Y4633000D03*
D03*
X17576000D03*
D03*
X17526000D03*
D03*
X17476000D03*
D03*
X17426000D03*
D03*
X17376000D03*
D03*
X17326000D03*
D03*
Y5367000D03*
D03*
X17376000D03*
D03*
X17426000D03*
D03*
X17476000D03*
D03*
X17526000D03*
D03*
X17576000D03*
D03*
X17626000D03*
D03*
X18245000Y8446000D03*
D03*
X18195000D03*
D03*
X18145000D03*
D03*
X18095000D03*
D03*
X18045000D03*
D03*
X17995000D03*
D03*
Y9180000D03*
D03*
X18045000D03*
D03*
X18095000D03*
D03*
X18145000D03*
D03*
X18195000D03*
D03*
X18245000D03*
D03*
Y11480000D03*
D03*
X18195000D03*
D03*
X18145000D03*
D03*
X18095000D03*
D03*
X18045000D03*
D03*
X17995000D03*
D03*
Y12214000D03*
D03*
X18045000D03*
D03*
X18095000D03*
D03*
X18145000D03*
D03*
X18195000D03*
D03*
X18245000D03*
D03*
X18260000Y16049000D03*
D03*
X18210000D03*
D03*
X18160000D03*
D03*
X18110000D03*
D03*
X18060000D03*
D03*
X18010000D03*
D03*
Y16783000D03*
D03*
X18060000D03*
D03*
X18110000D03*
D03*
X18160000D03*
D03*
X18210000D03*
D03*
X18260000D03*
D03*
X18745000Y8446000D03*
D03*
X18695000D03*
D03*
X18645000D03*
D03*
X18595000D03*
D03*
X18545000D03*
D03*
X18495000D03*
D03*
X18445000D03*
D03*
X18395000D03*
D03*
X18345000D03*
D03*
X18295000D03*
D03*
Y9180000D03*
D03*
X18345000D03*
D03*
X18395000D03*
D03*
X18445000D03*
D03*
X18495000D03*
D03*
X18545000D03*
D03*
X18595000D03*
D03*
X18645000D03*
D03*
X18695000D03*
D03*
X18745000D03*
D03*
Y11480000D03*
D03*
X18695000D03*
D03*
X18645000D03*
D03*
X18595000D03*
D03*
X18545000D03*
D03*
X18495000D03*
D03*
X18445000D03*
D03*
X18395000D03*
D03*
X18345000D03*
D03*
X18295000D03*
D03*
Y12214000D03*
D03*
X18345000D03*
D03*
X18395000D03*
D03*
X18445000D03*
D03*
X18495000D03*
D03*
X18545000D03*
D03*
X18595000D03*
D03*
X18645000D03*
D03*
X18695000D03*
D03*
X18745000D03*
D03*
X18760000Y16049000D03*
D03*
X18710000D03*
D03*
X18660000D03*
D03*
X18610000D03*
D03*
X18560000D03*
D03*
X18510000D03*
D03*
X18460000D03*
D03*
X18410000D03*
D03*
X18360000D03*
D03*
X18310000D03*
D03*
Y16783000D03*
D03*
X18360000D03*
D03*
X18410000D03*
D03*
X18460000D03*
D03*
X18510000D03*
D03*
X18560000D03*
D03*
X18610000D03*
D03*
X18660000D03*
D03*
X18710000D03*
D03*
X18760000D03*
D03*
X19231000Y4633000D03*
D03*
X19181000D03*
D03*
X19131000D03*
D03*
X19081000D03*
D03*
X19031000D03*
D03*
X18981000D03*
D03*
X18931000D03*
D03*
X18881000D03*
D03*
Y5367000D03*
D03*
X18931000D03*
D03*
X18981000D03*
D03*
X19031000D03*
D03*
X19081000D03*
D03*
X19131000D03*
D03*
X19181000D03*
D03*
X19231000D03*
D03*
X19245000Y8446000D03*
D03*
X19195000D03*
D03*
X19145000D03*
D03*
X19095000D03*
D03*
X19045000D03*
D03*
X18995000D03*
D03*
X18945000D03*
D03*
X18895000D03*
D03*
X18845000D03*
D03*
X18795000D03*
D03*
Y9180000D03*
D03*
X18845000D03*
D03*
X18895000D03*
D03*
X18945000D03*
D03*
X18995000D03*
D03*
X19045000D03*
D03*
X19095000D03*
D03*
X19145000D03*
D03*
X19195000D03*
D03*
X19245000D03*
D03*
Y11480000D03*
D03*
X19195000D03*
D03*
X19145000D03*
D03*
X19095000D03*
D03*
X19045000D03*
D03*
X18995000D03*
D03*
X18945000D03*
D03*
X18895000D03*
D03*
X18845000D03*
D03*
X18795000D03*
D03*
Y12214000D03*
D03*
X18845000D03*
D03*
X18895000D03*
D03*
X18945000D03*
D03*
X18995000D03*
D03*
X19045000D03*
D03*
X19095000D03*
D03*
X19145000D03*
D03*
X19195000D03*
D03*
X19245000D03*
D03*
X19260000Y16049000D03*
D03*
X19210000D03*
D03*
X19160000D03*
D03*
X19110000D03*
D03*
X19060000D03*
D03*
X19010000D03*
D03*
X18960000D03*
D03*
X18910000D03*
D03*
X18860000D03*
D03*
X18810000D03*
D03*
Y16783000D03*
D03*
X18860000D03*
D03*
X18910000D03*
D03*
X18960000D03*
D03*
X19010000D03*
D03*
X19060000D03*
D03*
X19110000D03*
D03*
X19160000D03*
D03*
X19210000D03*
D03*
X19260000D03*
D03*
X19731000Y4633000D03*
D03*
X19681000D03*
D03*
X19631000D03*
D03*
X19581000D03*
D03*
X19531000D03*
D03*
X19481000D03*
D03*
X19431000D03*
D03*
X19381000D03*
D03*
X19331000D03*
D03*
X19281000D03*
D03*
Y5367000D03*
D03*
X19331000D03*
D03*
X19381000D03*
D03*
X19431000D03*
D03*
X19481000D03*
D03*
X19531000D03*
D03*
X19581000D03*
D03*
X19631000D03*
D03*
X19681000D03*
D03*
X19731000D03*
D03*
X19345000Y8446000D03*
D03*
X19295000D03*
D03*
Y9180000D03*
D03*
X19345000D03*
D03*
Y11480000D03*
D03*
X19295000D03*
D03*
Y12214000D03*
D03*
X19345000D03*
D03*
X19360000Y16049000D03*
D03*
X19310000D03*
D03*
Y16783000D03*
D03*
X19360000D03*
D03*
X20231000Y4633000D03*
D03*
X20181000D03*
D03*
X20131000D03*
D03*
X20081000D03*
D03*
X20031000D03*
D03*
X19981000D03*
D03*
X19931000D03*
D03*
X19881000D03*
D03*
X19831000D03*
D03*
X19781000D03*
D03*
Y5367000D03*
D03*
X19831000D03*
D03*
X19881000D03*
D03*
X19931000D03*
D03*
X19981000D03*
D03*
X20031000D03*
D03*
X20081000D03*
D03*
X20131000D03*
D03*
X20181000D03*
D03*
X20231000D03*
D03*
X21725000Y4633000D03*
D03*
X21675000D03*
D03*
X21625000D03*
D03*
X21575000D03*
D03*
X21525000D03*
D03*
X21475000D03*
D03*
X21425000D03*
D03*
Y5367000D03*
D03*
X21475000D03*
D03*
X21525000D03*
D03*
X21575000D03*
D03*
X21625000D03*
D03*
X21675000D03*
D03*
X21725000D03*
D03*
X22225000Y4633000D03*
D03*
X22175000D03*
D03*
X22125000D03*
D03*
X22075000D03*
D03*
X22025000D03*
D03*
X21975000D03*
D03*
X21925000D03*
D03*
X21875000D03*
D03*
X21825000D03*
D03*
X21775000D03*
D03*
Y5367000D03*
D03*
X21825000D03*
D03*
X21875000D03*
D03*
X21925000D03*
D03*
X21975000D03*
D03*
X22025000D03*
D03*
X22075000D03*
D03*
X22125000D03*
D03*
X22175000D03*
D03*
X22225000D03*
D03*
X22725000Y4633000D03*
D03*
X22675000D03*
D03*
X22625000D03*
D03*
X22575000D03*
D03*
X22525000D03*
D03*
X22475000D03*
D03*
X22425000D03*
D03*
X22375000D03*
D03*
X22325000D03*
D03*
X22275000D03*
D03*
Y5367000D03*
D03*
X22325000D03*
D03*
X22375000D03*
D03*
X22425000D03*
D03*
X22475000D03*
D03*
X22525000D03*
D03*
X22575000D03*
D03*
X22625000D03*
D03*
X22675000D03*
D03*
X22725000D03*
D03*
X22775000Y4633000D03*
D03*
Y5367000D03*
D03*
G54D22*
X30918000Y13875000D03*
Y14535000D03*
G54D23*
G01X0Y1124000D02*
Y21300000D01*
X31753000D01*
Y1124000D01*
X0D01*
G54D14*
X8400000Y4633000D03*
Y4793000D03*
X10300000Y5207000D03*
Y5367000D03*
X10900000Y4633000D03*
Y4793000D03*
X12100000Y8605000D03*
Y8445000D03*
Y9019000D03*
Y9179000D03*
Y11640000D03*
Y11480000D03*
Y12054000D03*
Y12214000D03*
Y16211000D03*
Y16051000D03*
Y16625000D03*
Y16785000D03*
X12800000Y5207000D03*
Y5367000D03*
X13500000Y4633000D03*
Y4793000D03*
X14100000Y8605000D03*
Y8445000D03*
Y9019000D03*
Y9179000D03*
Y11640000D03*
Y11480000D03*
Y12054000D03*
Y12214000D03*
Y16211000D03*
Y16051000D03*
Y16625000D03*
Y16785000D03*
X15400000Y5207000D03*
Y5367000D03*
X16000000Y4633000D03*
Y4793000D03*
X17700000Y8606000D03*
Y8446000D03*
Y9020000D03*
Y9180000D03*
Y11640000D03*
Y11480000D03*
Y12054000D03*
Y12214000D03*
Y16209000D03*
Y16049000D03*
Y16623000D03*
Y16783000D03*
X17900000Y5207000D03*
Y5367000D03*
X18600000Y4633000D03*
Y4793000D03*
X19700000Y8606000D03*
Y8446000D03*
Y9020000D03*
Y9180000D03*
Y11640000D03*
Y11480000D03*
Y12054000D03*
Y12214000D03*
Y16209000D03*
Y16049000D03*
Y16623000D03*
Y16783000D03*
X20500000Y5207000D03*
Y5367000D03*
X21200000Y4633000D03*
Y4793000D03*
X23100000Y5207000D03*
Y5367000D03*
G54D15*
X9735000Y7260000D03*
X9481000D03*
Y7920000D03*
X9735000D03*
Y14129000D03*
X9481000D03*
Y14789000D03*
X9735000D03*
X10243000Y7260000D03*
X9989000D03*
Y7920000D03*
X10243000D03*
Y14129000D03*
X9989000D03*
Y14789000D03*
X10243000D03*
X10751000Y7260000D03*
X10497000D03*
Y7920000D03*
X10751000D03*
Y14129000D03*
X10497000D03*
Y14789000D03*
X10751000D03*
X11259000Y7260000D03*
X11005000D03*
Y7920000D03*
X11259000D03*
Y14129000D03*
X11005000D03*
Y14789000D03*
X11259000D03*
X11767000Y7260000D03*
X11513000D03*
Y7920000D03*
X11767000D03*
Y14129000D03*
X11513000D03*
Y14789000D03*
X11767000D03*
X12275000Y7260000D03*
X12021000D03*
Y7920000D03*
X12275000D03*
Y14129000D03*
X12021000D03*
Y14789000D03*
X12275000D03*
X12783000Y7260000D03*
X12529000D03*
Y7920000D03*
X12783000D03*
Y14129000D03*
X12529000D03*
Y14789000D03*
X12783000D03*
X13291000Y7260000D03*
X13037000D03*
Y7920000D03*
X13291000D03*
Y14129000D03*
X13037000D03*
Y14789000D03*
X13291000D03*
X13799000Y7260000D03*
X13545000D03*
Y7920000D03*
X13799000D03*
Y14129000D03*
X13545000D03*
Y14789000D03*
X13799000D03*
X14307000Y7260000D03*
X14053000D03*
Y7920000D03*
X14307000D03*
Y14129000D03*
X14053000D03*
Y14789000D03*
X14307000D03*
X14815000Y7260000D03*
X14561000D03*
Y7920000D03*
X14815000D03*
Y14129000D03*
X14561000D03*
Y14789000D03*
X14815000D03*
X15323000Y7260000D03*
X15069000D03*
Y7920000D03*
X15323000D03*
Y14129000D03*
X15069000D03*
Y14789000D03*
X15323000D03*
X15831000Y7260000D03*
X15577000D03*
Y7920000D03*
X15831000D03*
Y14129000D03*
X15577000D03*
Y14789000D03*
X15831000D03*
X16085000Y7260000D03*
Y7920000D03*
Y14129000D03*
Y14789000D03*
X16593000Y7260000D03*
X16339000D03*
Y7920000D03*
X16593000D03*
Y14129000D03*
X16339000D03*
Y14789000D03*
X16593000D03*
X17101000Y7260000D03*
X16847000D03*
Y7920000D03*
X17101000D03*
Y14129000D03*
X16847000D03*
Y14789000D03*
X17101000D03*
X17609000Y7260000D03*
X17355000D03*
Y7920000D03*
X17609000D03*
Y14129000D03*
X17355000D03*
Y14789000D03*
X17609000D03*
X18117000Y7260000D03*
X17863000D03*
Y7920000D03*
X18117000D03*
Y14129000D03*
X17863000D03*
Y14789000D03*
X18117000D03*
X18625000Y7260000D03*
X18371000D03*
Y7920000D03*
X18625000D03*
Y14129000D03*
X18371000D03*
Y14789000D03*
X18625000D03*
X19133000Y7260000D03*
X18879000D03*
Y7920000D03*
X19133000D03*
Y14129000D03*
X18879000D03*
Y14789000D03*
X19133000D03*
X19387000Y7260000D03*
X19686000D03*
X19387000Y7920000D03*
X19686000D03*
X19387000Y14129000D03*
X19686000Y14132000D03*
X19387000Y14789000D03*
X19686000Y14792000D03*
X20194000Y7260000D03*
X19940000D03*
Y7920000D03*
X20194000D03*
Y14132000D03*
X19940000D03*
Y14792000D03*
X20194000D03*
X20702000Y7260000D03*
X20448000D03*
Y7920000D03*
X20702000D03*
Y14132000D03*
X20448000D03*
Y14792000D03*
X20702000D03*
X21210000Y7260000D03*
X20956000D03*
Y7920000D03*
X21210000D03*
Y14132000D03*
X20956000D03*
Y14792000D03*
X21210000D03*
X21718000Y7260000D03*
X21464000D03*
Y7920000D03*
X21718000D03*
Y14132000D03*
X21464000D03*
Y14792000D03*
X21718000D03*
X21972000Y7260000D03*
Y7920000D03*
Y14132000D03*
Y14792000D03*
G54D16*
X11822000Y13223000D03*
X12022000D03*
X12253000Y17733000D03*
X12053000D03*
X19711000Y13223000D03*
X19511000D03*
X20104000Y17736000D03*
X19904000D03*
G54D17*
X28519000Y9824000D03*
Y10078000D03*
Y10332000D03*
Y10586000D03*
Y10840000D03*
Y11094000D03*
Y11348000D03*
Y11602000D03*
Y11856000D03*
Y12110000D03*
X29179000Y9824000D03*
Y10332000D03*
Y10078000D03*
Y10840000D03*
Y10586000D03*
Y11348000D03*
Y11094000D03*
Y11856000D03*
Y11602000D03*
Y12110000D03*
G54D18*
X28722000Y14039000D03*
X28382000D03*
G54D19*
X28636000Y14535000D03*
D03*
X28509000D03*
D03*
X28382000D03*
D03*
X29144000D03*
D03*
X29017000D03*
D03*
X28890000D03*
D03*
X28763000D03*
D03*
X29652000D03*
D03*
X29525000D03*
D03*
X29398000D03*
D03*
X29271000D03*
D03*
M02*
