G04 ================== begin FILE IDENTIFICATION RECORD ==================*
G04 Layout Name:  D:/Spira Heaven/0-My Works/Srtp/PCB/Trans/PCB/Trans.brd*
G04 Film Name:    SOLDERMASK_BOTTOM*
G04 File Format:  Gerber RS274X*
G04 File Origin:  Cadence Allegro 16.6-S003*
G04 Origin Date:  Mon Feb 24 20:45:19 2014*
G04 *
G04 Layer:  PIN/SOLDERMASK_BOTTOM*
G04 Layer:  PIN/BOTTOM*
G04 Layer:  PACKAGE GEOMETRY/SOLDERMASK_TOP*
G04 Layer:  BOARD GEOMETRY/OUTLINE*
G04 Layer:  BOARD GEOMETRY/SOLDERMASK_TOP*
G04 *
G04 Offset:    (0.000 0.000)*
G04 Mirror:    No*
G04 Mode:      Positive*
G04 Rotation:  0*
G04 FullContactRelief:  No*
G04 UndefLineWidth:     0.200*
G04 ================== end FILE IDENTIFICATION RECORD ====================*
%FSLAX25Y25*MOMM*%
%IR0*IPPOS*OFA0.00000B0.00000*MIA0B0*SFA1.00000B1.00000*%
%ADD14R,.8X1.*%
%ADD11R,1.X.8*%
%ADD13R,.74X2.*%
%ADD12R,2.X.74*%
%ADD10C,6.*%
%ADD18C,2.6*%
%ADD15R,.279X1.676*%
%ADD17R,1.2X1.4*%
%ADD16R,1.4X1.2*%
%ADD19C,.2*%
G75*
%LPD*%
G75*
G54D10*
X581000Y2209000D03*
X582000Y4834000D03*
Y16031000D03*
Y20350000D03*
X8640000Y7925000D03*
X8639000Y14662000D03*
X22690000Y7924000D03*
Y14661000D03*
X31217000Y2212000D03*
Y4835000D03*
Y16033000D03*
Y20350000D03*
G54D11*
X5450000Y7716000D03*
Y7876000D03*
Y8776000D03*
Y8616000D03*
X5449000Y10168000D03*
Y10328000D03*
Y11227000D03*
Y11067000D03*
X6149000Y7716000D03*
Y7876000D03*
Y8776000D03*
Y8616000D03*
X6142000Y10168000D03*
Y10328000D03*
Y11227000D03*
Y11067000D03*
X8653000Y10168000D03*
Y10328000D03*
Y11228000D03*
Y11068000D03*
X8400000Y13428000D03*
Y13588000D03*
Y18093000D03*
Y17933000D03*
X9352000Y10168000D03*
Y10328000D03*
Y11227000D03*
Y11067000D03*
X10300000Y12854000D03*
Y13014000D03*
Y17519000D03*
Y17359000D03*
X10756000Y18094000D03*
Y17934000D03*
X10900000Y13428000D03*
Y13588000D03*
X12800000Y12854000D03*
Y13014000D03*
X12656000Y17520000D03*
Y17360000D03*
X13500000Y13428000D03*
Y13588000D03*
Y18093000D03*
Y17933000D03*
X15400000Y12854000D03*
Y13014000D03*
Y17519000D03*
Y17359000D03*
X16000000Y13428000D03*
Y13588000D03*
Y18093000D03*
Y17933000D03*
X17900000Y12854000D03*
Y13014000D03*
Y17519000D03*
Y17359000D03*
X18600000Y13428000D03*
Y13588000D03*
Y18093000D03*
Y17933000D03*
X20500000Y12854000D03*
Y13014000D03*
Y17519000D03*
Y17359000D03*
X21200000Y13428000D03*
Y13588000D03*
Y18093000D03*
Y17933000D03*
X22054000Y10168000D03*
Y10328000D03*
Y11227000D03*
Y11067000D03*
X22746000Y10168000D03*
Y10328000D03*
Y11227000D03*
Y11067000D03*
X23100000Y12854000D03*
Y13014000D03*
Y17519000D03*
Y17359000D03*
X25153000Y7716000D03*
Y7876000D03*
Y8776000D03*
Y8616000D03*
Y10168000D03*
Y10328000D03*
X25156000Y11227000D03*
Y11067000D03*
X25853000Y7716000D03*
Y7876000D03*
X25841000Y8777000D03*
Y8617000D03*
X25852000Y10168000D03*
Y10328000D03*
Y11227000D03*
Y11067000D03*
G54D12*
X7253000Y7328500D03*
Y7201500D03*
Y7074500D03*
Y6947500D03*
Y7836500D03*
Y7709500D03*
Y7582500D03*
Y7455500D03*
Y8344500D03*
Y8217500D03*
Y8090500D03*
Y7963500D03*
Y8852500D03*
Y8725500D03*
Y8598500D03*
Y8471500D03*
Y9360500D03*
Y9233500D03*
Y9106500D03*
Y8979500D03*
Y9868500D03*
Y9741500D03*
Y9614500D03*
Y9487500D03*
Y10376500D03*
Y10249500D03*
Y10122500D03*
Y9995500D03*
Y10757500D03*
Y10630500D03*
Y10503500D03*
Y11265500D03*
Y11138500D03*
Y11011500D03*
Y10884500D03*
Y11773500D03*
Y11646500D03*
Y11519500D03*
Y11392500D03*
Y11900500D03*
X7677000Y6947500D03*
Y7074500D03*
Y7201500D03*
Y7328500D03*
Y7455500D03*
Y7582500D03*
Y7709500D03*
Y7836500D03*
Y7963500D03*
Y8090500D03*
Y8217500D03*
Y8344500D03*
Y8471500D03*
Y8598500D03*
Y8725500D03*
Y8852500D03*
Y8979500D03*
Y9106500D03*
Y9233500D03*
Y9360500D03*
Y9487500D03*
Y9614500D03*
Y9741500D03*
Y9868500D03*
Y9995500D03*
Y10122500D03*
Y10249500D03*
Y10376500D03*
Y10503500D03*
Y10630500D03*
Y10757500D03*
Y10884500D03*
Y11011500D03*
Y11138500D03*
Y11265500D03*
Y11392500D03*
Y11519500D03*
Y11646500D03*
Y11773500D03*
Y11900500D03*
X23763000Y7328500D03*
Y7201500D03*
Y7074500D03*
Y6947500D03*
Y7836500D03*
Y7709500D03*
Y7582500D03*
Y7455500D03*
Y8344500D03*
Y8217500D03*
Y8090500D03*
Y7963500D03*
Y8852500D03*
Y8725500D03*
Y8598500D03*
Y8471500D03*
Y9360500D03*
Y9233500D03*
Y9106500D03*
Y8979500D03*
Y9868500D03*
Y9741500D03*
Y9614500D03*
Y9487500D03*
Y10376500D03*
Y10249500D03*
Y10122500D03*
Y9995500D03*
Y10757500D03*
Y10630500D03*
Y10503500D03*
Y11265500D03*
Y11138500D03*
Y11011500D03*
Y10884500D03*
Y11773500D03*
Y11646500D03*
Y11519500D03*
Y11392500D03*
Y11900500D03*
X24187000Y6947500D03*
Y7074500D03*
Y7201500D03*
Y7328500D03*
Y7455500D03*
Y7582500D03*
Y7709500D03*
Y7836500D03*
Y7963500D03*
Y8090500D03*
Y8217500D03*
Y8344500D03*
Y8471500D03*
Y8598500D03*
Y8725500D03*
Y8852500D03*
Y8979500D03*
Y9106500D03*
Y9233500D03*
Y9360500D03*
Y9487500D03*
Y9614500D03*
Y9741500D03*
Y9868500D03*
Y9995500D03*
Y10122500D03*
Y10249500D03*
Y10376500D03*
Y10503500D03*
Y10630500D03*
Y10757500D03*
Y10884500D03*
Y11011500D03*
Y11138500D03*
Y11265500D03*
Y11392500D03*
Y11519500D03*
Y11646500D03*
Y11773500D03*
Y11900500D03*
G54D13*
X8042500Y6314000D03*
X8169500D03*
X8296500D03*
Y6738000D03*
X8169500D03*
X8042500D03*
Y15312000D03*
X8169500D03*
X8296500D03*
Y15736000D03*
X8169500D03*
X8042500D03*
X8423500Y6314000D03*
X8550500D03*
X8677500D03*
X8804500D03*
Y6738000D03*
X8677500D03*
X8550500D03*
X8423500D03*
Y15312000D03*
X8550500D03*
X8677500D03*
X8804500D03*
Y15736000D03*
X8677500D03*
X8550500D03*
X8423500D03*
X8931500Y6314000D03*
X9058500D03*
X9185500D03*
X9312500D03*
Y6738000D03*
X9185500D03*
X9058500D03*
X8931500D03*
Y15312000D03*
X9058500D03*
X9185500D03*
X9312500D03*
Y15736000D03*
X9185500D03*
X9058500D03*
X8931500D03*
X9439500Y6314000D03*
X9566500D03*
X9693500D03*
X9820500D03*
Y6738000D03*
X9693500D03*
X9566500D03*
X9439500D03*
Y15312000D03*
X9566500D03*
X9693500D03*
X9820500D03*
Y15736000D03*
X9693500D03*
X9566500D03*
X9439500D03*
X9947500Y6314000D03*
X10074500D03*
X10201500D03*
X10328500D03*
Y6738000D03*
X10201500D03*
X10074500D03*
X9947500D03*
Y15312000D03*
X10074500D03*
X10201500D03*
X10328500D03*
Y15736000D03*
X10201500D03*
X10074500D03*
X9947500D03*
X10455500Y6314000D03*
X10582500D03*
X10709500D03*
X10836500D03*
Y6738000D03*
X10709500D03*
X10582500D03*
X10455500D03*
Y15312000D03*
X10582500D03*
X10709500D03*
X10836500D03*
Y15736000D03*
X10709500D03*
X10582500D03*
X10455500D03*
X10963500Y6314000D03*
X11090500D03*
X11217500D03*
Y6738000D03*
X11090500D03*
X10963500D03*
Y15312000D03*
X11090500D03*
X11217500D03*
Y15736000D03*
X11090500D03*
X10963500D03*
X11344500Y6314000D03*
X11471500D03*
X11598500D03*
X11725500D03*
Y6738000D03*
X11598500D03*
X11471500D03*
X11344500D03*
Y15312000D03*
X11471500D03*
X11598500D03*
X11725500D03*
Y15736000D03*
X11598500D03*
X11471500D03*
X11344500D03*
X11852500Y6314000D03*
X11979500D03*
X12106500D03*
X12233500D03*
Y6738000D03*
X12106500D03*
X11979500D03*
X11852500D03*
Y15312000D03*
X11979500D03*
X12106500D03*
X12233500D03*
Y15736000D03*
X12106500D03*
X11979500D03*
X11852500D03*
X12360500Y6314000D03*
X12487500D03*
X12614500D03*
X12741500D03*
Y6738000D03*
X12614500D03*
X12487500D03*
X12360500D03*
Y15312000D03*
X12487500D03*
X12614500D03*
X12741500D03*
Y15736000D03*
X12614500D03*
X12487500D03*
X12360500D03*
X12868500Y6314000D03*
X12995500D03*
X13237500D03*
X12995500Y6738000D03*
X12868500D03*
X13237500D03*
X12868500Y15312000D03*
X12995500D03*
X13237500Y15316000D03*
X12995500Y15736000D03*
X12868500D03*
X13237500Y15740000D03*
X13364500Y6314000D03*
X13491500D03*
X13618500D03*
X13745500D03*
Y6738000D03*
X13618500D03*
X13491500D03*
X13364500D03*
Y15316000D03*
X13491500D03*
X13618500D03*
X13745500D03*
Y15740000D03*
X13618500D03*
X13491500D03*
X13364500D03*
X13872500Y6314000D03*
X13999500D03*
X14126500D03*
X14253500D03*
Y6738000D03*
X14126500D03*
X13999500D03*
X13872500D03*
Y15316000D03*
X13999500D03*
X14126500D03*
X14253500D03*
Y15740000D03*
X14126500D03*
X13999500D03*
X13872500D03*
X14380500Y6314000D03*
X14507500D03*
X14634500D03*
X14761500D03*
Y6738000D03*
X14634500D03*
X14507500D03*
X14380500D03*
Y15316000D03*
X14507500D03*
X14634500D03*
X14761500D03*
Y15740000D03*
X14634500D03*
X14507500D03*
X14380500D03*
X14888500Y6314000D03*
X15015500D03*
X15142500D03*
X15269500D03*
Y6738000D03*
X15142500D03*
X15015500D03*
X14888500D03*
Y15316000D03*
X15015500D03*
X15142500D03*
X15269500D03*
Y15740000D03*
X15142500D03*
X15015500D03*
X14888500D03*
X15396500Y6314000D03*
X15523500D03*
X15650500D03*
X15777500D03*
Y6738000D03*
X15650500D03*
X15523500D03*
X15396500D03*
Y15316000D03*
X15523500D03*
X15650500D03*
X15777500D03*
Y15740000D03*
X15650500D03*
X15523500D03*
X15396500D03*
X15904500Y6314000D03*
X16031500D03*
X16158500D03*
X16285500D03*
Y6738000D03*
X16158500D03*
X16031500D03*
X15904500D03*
Y15316000D03*
X16031500D03*
X16158500D03*
X16285500D03*
Y15740000D03*
X16158500D03*
X16031500D03*
X15904500D03*
X16412500Y6314000D03*
X16539500D03*
X16666500D03*
X16793500D03*
Y6738000D03*
X16666500D03*
X16539500D03*
X16412500D03*
Y15316000D03*
X16539500D03*
X16666500D03*
X16793500D03*
Y15740000D03*
X16666500D03*
X16539500D03*
X16412500D03*
X16920500Y6314000D03*
X17047500D03*
X17174500D03*
X17301500D03*
Y6738000D03*
X17174500D03*
X17047500D03*
X16920500D03*
Y15316000D03*
X17047500D03*
X17174500D03*
X17301500D03*
Y15740000D03*
X17174500D03*
X17047500D03*
X16920500D03*
X17428500Y6314000D03*
X17555500D03*
X17682500D03*
Y6738000D03*
X17555500D03*
X17428500D03*
Y15316000D03*
X17555500D03*
X17682500D03*
Y15740000D03*
X17555500D03*
X17428500D03*
X17809500Y6314000D03*
X17936500D03*
X18063500D03*
X18190500D03*
Y6738000D03*
X18063500D03*
X17936500D03*
X17809500D03*
Y15316000D03*
X17936500D03*
X18063500D03*
X18190500D03*
Y15740000D03*
X18063500D03*
X17936500D03*
X17809500D03*
X18432500Y6314000D03*
X18559500D03*
X18686500D03*
Y6738000D03*
X18559500D03*
X18432500D03*
Y15316000D03*
X18559500D03*
X18686500D03*
Y15740000D03*
X18559500D03*
X18432500D03*
X18813500Y6314000D03*
X18940500D03*
X19067500D03*
X19194500D03*
Y6738000D03*
X19067500D03*
X18940500D03*
X18813500D03*
Y15316000D03*
X18940500D03*
X19067500D03*
X19194500D03*
Y15740000D03*
X19067500D03*
X18940500D03*
X18813500D03*
X19321500Y6314000D03*
X19448500D03*
X19575500D03*
X19702500D03*
Y6738000D03*
X19575500D03*
X19448500D03*
X19321500D03*
Y15316000D03*
X19448500D03*
X19575500D03*
X19702500D03*
Y15740000D03*
X19575500D03*
X19448500D03*
X19321500D03*
X19829500Y6314000D03*
X19956500D03*
X20083500D03*
X20210500D03*
Y6738000D03*
X20083500D03*
X19956500D03*
X19829500D03*
Y15316000D03*
X19956500D03*
X20083500D03*
X20210500D03*
Y15740000D03*
X20083500D03*
X19956500D03*
X19829500D03*
X20337500Y6314000D03*
X20464500D03*
X20591500D03*
X20718500D03*
Y6738000D03*
X20591500D03*
X20464500D03*
X20337500D03*
Y15316000D03*
X20464500D03*
X20591500D03*
X20718500D03*
Y15740000D03*
X20591500D03*
X20464500D03*
X20337500D03*
X20845500Y6314000D03*
X20972500D03*
X21099500D03*
X21226500D03*
Y6738000D03*
X21099500D03*
X20972500D03*
X20845500D03*
Y15316000D03*
X20972500D03*
X21099500D03*
X21226500D03*
Y15740000D03*
X21099500D03*
X20972500D03*
X20845500D03*
X21353500Y6314000D03*
X21480500D03*
X21607500D03*
X21734500D03*
Y6738000D03*
X21607500D03*
X21480500D03*
X21353500D03*
Y15316000D03*
X21480500D03*
X21607500D03*
X21734500D03*
Y15740000D03*
X21607500D03*
X21480500D03*
X21353500D03*
X21861500Y6314000D03*
X21988500D03*
X22115500D03*
X22242500D03*
Y6738000D03*
X22115500D03*
X21988500D03*
X21861500D03*
Y15316000D03*
X21988500D03*
X22115500D03*
X22242500D03*
Y15740000D03*
X22115500D03*
X21988500D03*
X21861500D03*
X22369500Y6314000D03*
X22496500D03*
X22623500D03*
X22750500D03*
Y6738000D03*
X22623500D03*
X22496500D03*
X22369500D03*
Y15316000D03*
X22496500D03*
X22623500D03*
X22750500D03*
Y15740000D03*
X22623500D03*
X22496500D03*
X22369500D03*
X22877500Y6314000D03*
X23004500D03*
X23131500D03*
X23258500D03*
Y6738000D03*
X23131500D03*
X23004500D03*
X22877500D03*
Y15316000D03*
X23004500D03*
X23131500D03*
X23258500D03*
Y15740000D03*
X23131500D03*
X23004500D03*
X22877500D03*
X23385500Y6314000D03*
Y6738000D03*
Y15316000D03*
Y15740000D03*
G54D14*
X8815000Y4617000D03*
Y5347000D03*
X8975000Y4617000D03*
Y5347000D03*
X9715000Y4617000D03*
Y5347000D03*
X9875000Y4617000D03*
Y5347000D03*
X11322000Y4617000D03*
Y5347000D03*
X11482000Y4617000D03*
Y5347000D03*
X12222000Y4617000D03*
Y5347000D03*
X12382000Y4617000D03*
Y5347000D03*
X12526000Y8468000D03*
X12686000D03*
X12526000Y9155000D03*
X12686000D03*
X12526000Y11502000D03*
X12686000D03*
X12526000Y12189000D03*
X12686000D03*
X12526000Y16072000D03*
X12686000D03*
X12526000Y16761000D03*
X12686000D03*
X13585000Y8468000D03*
X13425000D03*
X13585000Y9155000D03*
X13425000D03*
X13585000Y11502000D03*
X13425000D03*
X13586000Y12189000D03*
X13426000D03*
X13596000Y16078000D03*
X13436000D03*
X13595000Y16761000D03*
X13435000D03*
X13922000Y4617000D03*
X14082000D03*
X13922000Y5347000D03*
X14082000D03*
X14822000Y4617000D03*
Y5347000D03*
X14982000Y4617000D03*
Y5347000D03*
X16422000Y4617000D03*
X16582000D03*
X16422000Y5347000D03*
X16582000D03*
X17482000Y4617000D03*
X17322000D03*
X17482000Y5347000D03*
X17322000D03*
X18139000Y8468000D03*
X18299000D03*
X18138000Y9155000D03*
X18298000D03*
X18138000Y11502000D03*
X18298000D03*
X18138000Y12189000D03*
X18298000D03*
X18160000Y16078000D03*
Y16761000D03*
X18320000Y16078000D03*
Y16761000D03*
X19027000Y4617000D03*
X19187000D03*
X19027000Y5347000D03*
X19187000D03*
X19199000Y8468000D03*
X19039000D03*
X19199000Y9155000D03*
X19039000D03*
X19199000Y11502000D03*
X19039000D03*
X19199000Y12189000D03*
X19039000D03*
X19209000Y16078000D03*
X19049000D03*
X19209000Y16761000D03*
X19049000D03*
X20087000Y4617000D03*
X19927000D03*
X20087000Y5347000D03*
X19927000D03*
X21570000Y4617000D03*
X21730000D03*
X21570000Y5347000D03*
X21730000D03*
X22630000Y4617000D03*
X22470000D03*
X22630000Y5347000D03*
X22470000D03*
G54D15*
X8670000Y12854000D03*
D03*
X8720000D03*
D03*
X8770000D03*
D03*
X8820000D03*
D03*
Y13588000D03*
D03*
X8770000D03*
D03*
X8720000D03*
D03*
X8670000D03*
D03*
X8669000Y17359000D03*
D03*
X8719000D03*
D03*
X8769000D03*
D03*
X8819000D03*
D03*
Y18093000D03*
D03*
X8769000D03*
D03*
X8719000D03*
D03*
X8669000D03*
D03*
X8870000Y12854000D03*
D03*
X8920000D03*
D03*
X8970000D03*
D03*
X9020000D03*
D03*
X9070000D03*
D03*
X9120000D03*
D03*
X9170000D03*
D03*
X9220000D03*
D03*
X9270000D03*
D03*
X9320000D03*
D03*
Y13588000D03*
D03*
X9270000D03*
D03*
X9220000D03*
D03*
X9170000D03*
D03*
X9120000D03*
D03*
X9070000D03*
D03*
X9020000D03*
D03*
X8970000D03*
D03*
X8920000D03*
D03*
X8870000D03*
D03*
X8869000Y17359000D03*
D03*
X8919000D03*
D03*
X8969000D03*
D03*
X9019000D03*
D03*
X9069000D03*
D03*
X9119000D03*
D03*
X9169000D03*
D03*
X9219000D03*
D03*
X9269000D03*
D03*
X9319000D03*
D03*
Y18093000D03*
D03*
X9269000D03*
D03*
X9219000D03*
D03*
X9169000D03*
D03*
X9119000D03*
D03*
X9069000D03*
D03*
X9019000D03*
D03*
X8969000D03*
D03*
X8919000D03*
D03*
X8869000D03*
D03*
X9370000Y12854000D03*
D03*
X9420000D03*
D03*
X9470000D03*
D03*
X9520000D03*
D03*
X9570000D03*
D03*
X9620000D03*
D03*
X9670000D03*
D03*
X9720000D03*
D03*
X9770000D03*
D03*
X9820000D03*
D03*
Y13588000D03*
D03*
X9770000D03*
D03*
X9720000D03*
D03*
X9670000D03*
D03*
X9620000D03*
D03*
X9570000D03*
D03*
X9520000D03*
D03*
X9470000D03*
D03*
X9420000D03*
D03*
X9370000D03*
D03*
X9369000Y17359000D03*
D03*
X9419000D03*
D03*
X9469000D03*
D03*
X9519000D03*
D03*
X9569000D03*
D03*
X9619000D03*
D03*
X9669000D03*
D03*
X9719000D03*
D03*
X9769000D03*
D03*
X9819000D03*
D03*
Y18093000D03*
D03*
X9769000D03*
D03*
X9719000D03*
D03*
X9669000D03*
D03*
X9619000D03*
D03*
X9569000D03*
D03*
X9519000D03*
D03*
X9469000D03*
D03*
X9419000D03*
D03*
X9369000D03*
D03*
X9870000Y12854000D03*
D03*
X9920000D03*
D03*
X9970000D03*
D03*
X10020000D03*
D03*
Y13588000D03*
D03*
X9970000D03*
D03*
X9920000D03*
D03*
X9870000D03*
D03*
X9869000Y17359000D03*
D03*
X9919000D03*
D03*
X9969000D03*
D03*
X10019000D03*
D03*
Y18093000D03*
D03*
X9969000D03*
D03*
X9919000D03*
D03*
X9869000D03*
D03*
X11177000Y12854000D03*
D03*
X11227000D03*
D03*
X11277000D03*
D03*
Y13588000D03*
D03*
X11227000D03*
D03*
X11177000D03*
D03*
X11033000Y17360000D03*
D03*
X11083000D03*
D03*
X11133000D03*
D03*
X11183000D03*
D03*
X11233000D03*
D03*
X11283000D03*
D03*
Y18094000D03*
D03*
X11233000D03*
D03*
X11183000D03*
D03*
X11133000D03*
D03*
X11083000D03*
D03*
X11033000D03*
D03*
X11327000Y12854000D03*
D03*
X11377000D03*
D03*
X11427000D03*
D03*
X11477000D03*
D03*
X11527000D03*
D03*
X11577000D03*
D03*
X11627000D03*
D03*
X11677000D03*
D03*
X11727000D03*
D03*
X11777000D03*
D03*
Y13588000D03*
D03*
X11727000D03*
D03*
X11677000D03*
D03*
X11627000D03*
D03*
X11577000D03*
D03*
X11527000D03*
D03*
X11477000D03*
D03*
X11427000D03*
D03*
X11377000D03*
D03*
X11327000D03*
D03*
X11333000Y17360000D03*
D03*
X11383000D03*
D03*
X11433000D03*
D03*
X11483000D03*
D03*
X11533000D03*
D03*
X11583000D03*
D03*
X11633000D03*
D03*
X11683000D03*
D03*
X11733000D03*
D03*
X11783000D03*
D03*
Y18094000D03*
D03*
X11733000D03*
D03*
X11683000D03*
D03*
X11633000D03*
D03*
X11583000D03*
D03*
X11533000D03*
D03*
X11483000D03*
D03*
X11433000D03*
D03*
X11383000D03*
D03*
X11333000D03*
D03*
X11827000Y12854000D03*
D03*
X11877000D03*
D03*
X11927000D03*
D03*
X11977000D03*
D03*
X12027000D03*
D03*
X12077000D03*
D03*
X12127000D03*
D03*
X12177000D03*
D03*
X12227000D03*
D03*
X12277000D03*
D03*
Y13588000D03*
D03*
X12227000D03*
D03*
X12177000D03*
D03*
X12127000D03*
D03*
X12077000D03*
D03*
X12027000D03*
D03*
X11977000D03*
D03*
X11927000D03*
D03*
X11877000D03*
D03*
X11827000D03*
D03*
X11833000Y17360000D03*
D03*
X11883000D03*
D03*
X11933000D03*
D03*
X11983000D03*
D03*
X12033000D03*
D03*
X12083000D03*
D03*
X12133000D03*
D03*
X12183000D03*
D03*
X12233000D03*
D03*
X12283000D03*
D03*
Y18094000D03*
D03*
X12233000D03*
D03*
X12183000D03*
D03*
X12133000D03*
D03*
X12083000D03*
D03*
X12033000D03*
D03*
X11983000D03*
D03*
X11933000D03*
D03*
X11883000D03*
D03*
X11833000D03*
D03*
X12327000Y12854000D03*
D03*
X12377000D03*
D03*
X12427000D03*
D03*
X12477000D03*
D03*
X12527000D03*
D03*
Y13588000D03*
D03*
X12477000D03*
D03*
X12427000D03*
D03*
X12377000D03*
D03*
X12327000D03*
D03*
X12333000Y17360000D03*
D03*
X12383000D03*
D03*
Y18094000D03*
D03*
X12333000D03*
D03*
X13776000Y12854000D03*
D03*
Y13588000D03*
D03*
Y17359000D03*
D03*
Y18093000D03*
D03*
X13826000Y12854000D03*
D03*
X13876000D03*
D03*
X13926000D03*
D03*
X13976000D03*
D03*
X14026000D03*
D03*
X14076000D03*
D03*
X14126000D03*
D03*
X14176000D03*
D03*
X14226000D03*
D03*
X14276000D03*
D03*
Y13588000D03*
D03*
X14226000D03*
D03*
X14176000D03*
D03*
X14126000D03*
D03*
X14076000D03*
D03*
X14026000D03*
D03*
X13976000D03*
D03*
X13926000D03*
D03*
X13876000D03*
D03*
X13826000D03*
D03*
Y17359000D03*
D03*
X13876000D03*
D03*
X13926000D03*
D03*
X13976000D03*
D03*
X14026000D03*
D03*
X14076000D03*
D03*
X14126000D03*
D03*
X14176000D03*
D03*
X14226000D03*
D03*
X14276000D03*
D03*
Y18093000D03*
D03*
X14226000D03*
D03*
X14176000D03*
D03*
X14126000D03*
D03*
X14076000D03*
D03*
X14026000D03*
D03*
X13976000D03*
D03*
X13926000D03*
D03*
X13876000D03*
D03*
X13826000D03*
D03*
X14326000Y12854000D03*
D03*
X14376000D03*
D03*
X14426000D03*
D03*
X14476000D03*
D03*
X14526000D03*
D03*
X14576000D03*
D03*
X14626000D03*
D03*
X14676000D03*
D03*
X14726000D03*
D03*
X14776000D03*
D03*
Y13588000D03*
D03*
X14726000D03*
D03*
X14676000D03*
D03*
X14626000D03*
D03*
X14576000D03*
D03*
X14526000D03*
D03*
X14476000D03*
D03*
X14426000D03*
D03*
X14376000D03*
D03*
X14326000D03*
D03*
Y17359000D03*
D03*
X14376000D03*
D03*
X14426000D03*
D03*
X14476000D03*
D03*
X14526000D03*
D03*
X14576000D03*
D03*
X14626000D03*
D03*
X14676000D03*
D03*
X14726000D03*
D03*
X14776000D03*
D03*
Y18093000D03*
D03*
X14726000D03*
D03*
X14676000D03*
D03*
X14626000D03*
D03*
X14576000D03*
D03*
X14526000D03*
D03*
X14476000D03*
D03*
X14426000D03*
D03*
X14376000D03*
D03*
X14326000D03*
D03*
X14826000Y12854000D03*
D03*
X14876000D03*
D03*
X14926000D03*
D03*
X14976000D03*
D03*
X15026000D03*
D03*
X15076000D03*
D03*
X15126000D03*
D03*
Y13588000D03*
D03*
X15076000D03*
D03*
X15026000D03*
D03*
X14976000D03*
D03*
X14926000D03*
D03*
X14876000D03*
D03*
X14826000D03*
D03*
Y17359000D03*
D03*
X14876000D03*
D03*
X14926000D03*
D03*
X14976000D03*
D03*
X15026000D03*
D03*
X15076000D03*
D03*
X15126000D03*
D03*
Y18093000D03*
D03*
X15076000D03*
D03*
X15026000D03*
D03*
X14976000D03*
D03*
X14926000D03*
D03*
X14876000D03*
D03*
X14826000D03*
D03*
X16276000Y12854000D03*
D03*
Y13588000D03*
D03*
Y17359000D03*
D03*
Y18093000D03*
D03*
X16326000Y12854000D03*
D03*
X16376000D03*
D03*
X16426000D03*
D03*
X16476000D03*
D03*
X16526000D03*
D03*
X16576000D03*
D03*
X16626000D03*
D03*
X16676000D03*
D03*
X16726000D03*
D03*
X16776000D03*
D03*
Y13588000D03*
D03*
X16726000D03*
D03*
X16676000D03*
D03*
X16626000D03*
D03*
X16576000D03*
D03*
X16526000D03*
D03*
X16476000D03*
D03*
X16426000D03*
D03*
X16376000D03*
D03*
X16326000D03*
D03*
Y17359000D03*
D03*
X16376000D03*
D03*
X16426000D03*
D03*
X16476000D03*
D03*
X16526000D03*
D03*
X16576000D03*
D03*
X16626000D03*
D03*
X16676000D03*
D03*
X16726000D03*
D03*
X16776000D03*
D03*
Y18093000D03*
D03*
X16726000D03*
D03*
X16676000D03*
D03*
X16626000D03*
D03*
X16576000D03*
D03*
X16526000D03*
D03*
X16476000D03*
D03*
X16426000D03*
D03*
X16376000D03*
D03*
X16326000D03*
D03*
X16826000Y12854000D03*
D03*
X16876000D03*
D03*
X16926000D03*
D03*
X16976000D03*
D03*
X17026000D03*
D03*
X17076000D03*
D03*
X17126000D03*
D03*
X17176000D03*
D03*
X17226000D03*
D03*
X17276000D03*
D03*
Y13588000D03*
D03*
X17226000D03*
D03*
X17176000D03*
D03*
X17126000D03*
D03*
X17076000D03*
D03*
X17026000D03*
D03*
X16976000D03*
D03*
X16926000D03*
D03*
X16876000D03*
D03*
X16826000D03*
D03*
Y17359000D03*
D03*
X16876000D03*
D03*
X16926000D03*
D03*
X16976000D03*
D03*
X17026000D03*
D03*
X17076000D03*
D03*
X17126000D03*
D03*
X17176000D03*
D03*
X17226000D03*
D03*
X17276000D03*
D03*
Y18093000D03*
D03*
X17226000D03*
D03*
X17176000D03*
D03*
X17126000D03*
D03*
X17076000D03*
D03*
X17026000D03*
D03*
X16976000D03*
D03*
X16926000D03*
D03*
X16876000D03*
D03*
X16826000D03*
D03*
X17326000Y12854000D03*
D03*
X17376000D03*
D03*
X17426000D03*
D03*
X17476000D03*
D03*
X17526000D03*
D03*
X17576000D03*
D03*
X17626000D03*
D03*
Y13588000D03*
D03*
X17576000D03*
D03*
X17526000D03*
D03*
X17476000D03*
D03*
X17426000D03*
D03*
X17376000D03*
D03*
X17326000D03*
D03*
Y17359000D03*
D03*
X17376000D03*
D03*
X17426000D03*
D03*
X17476000D03*
D03*
X17526000D03*
D03*
X17576000D03*
D03*
X17626000D03*
D03*
Y18093000D03*
D03*
X17576000D03*
D03*
X17526000D03*
D03*
X17476000D03*
D03*
X17426000D03*
D03*
X17376000D03*
D03*
X17326000D03*
D03*
X18881000Y12854000D03*
D03*
X18931000D03*
D03*
X18981000D03*
D03*
X19031000D03*
D03*
X19081000D03*
D03*
X19131000D03*
D03*
X19181000D03*
D03*
X19231000D03*
D03*
Y13588000D03*
D03*
X19181000D03*
D03*
X19131000D03*
D03*
X19081000D03*
D03*
X19031000D03*
D03*
X18981000D03*
D03*
X18931000D03*
D03*
X18881000D03*
D03*
Y17359000D03*
D03*
X18931000D03*
D03*
X18981000D03*
D03*
X19031000D03*
D03*
X19081000D03*
D03*
X19131000D03*
D03*
X19181000D03*
D03*
X19231000D03*
D03*
Y18093000D03*
D03*
X19181000D03*
D03*
X19131000D03*
D03*
X19081000D03*
D03*
X19031000D03*
D03*
X18981000D03*
D03*
X18931000D03*
D03*
X18881000D03*
D03*
X19281000Y12854000D03*
D03*
X19331000D03*
D03*
X19381000D03*
D03*
X19431000D03*
D03*
X19481000D03*
D03*
X19531000D03*
D03*
X19581000D03*
D03*
X19631000D03*
D03*
X19681000D03*
D03*
X19731000D03*
D03*
Y13588000D03*
D03*
X19681000D03*
D03*
X19631000D03*
D03*
X19581000D03*
D03*
X19531000D03*
D03*
X19481000D03*
D03*
X19431000D03*
D03*
X19381000D03*
D03*
X19331000D03*
D03*
X19281000D03*
D03*
Y17359000D03*
D03*
X19331000D03*
D03*
X19381000D03*
D03*
X19431000D03*
D03*
X19481000D03*
D03*
X19531000D03*
D03*
X19581000D03*
D03*
X19631000D03*
D03*
X19681000D03*
D03*
X19731000D03*
D03*
Y18093000D03*
D03*
X19681000D03*
D03*
X19631000D03*
D03*
X19581000D03*
D03*
X19531000D03*
D03*
X19481000D03*
D03*
X19431000D03*
D03*
X19381000D03*
D03*
X19331000D03*
D03*
X19281000D03*
D03*
X19781000Y12854000D03*
D03*
X19831000D03*
D03*
X19881000D03*
D03*
X19931000D03*
D03*
X19981000D03*
D03*
X20031000D03*
D03*
X20081000D03*
D03*
X20131000D03*
D03*
X20181000D03*
D03*
X20231000D03*
D03*
Y13588000D03*
D03*
X20181000D03*
D03*
X20131000D03*
D03*
X20081000D03*
D03*
X20031000D03*
D03*
X19981000D03*
D03*
X19931000D03*
D03*
X19881000D03*
D03*
X19831000D03*
D03*
X19781000D03*
D03*
Y17359000D03*
D03*
X19831000D03*
D03*
X19881000D03*
D03*
X19931000D03*
D03*
X19981000D03*
D03*
X20031000D03*
D03*
X20081000D03*
D03*
X20131000D03*
D03*
X20181000D03*
D03*
X20231000D03*
D03*
Y18093000D03*
D03*
X20181000D03*
D03*
X20131000D03*
D03*
X20081000D03*
D03*
X20031000D03*
D03*
X19981000D03*
D03*
X19931000D03*
D03*
X19881000D03*
D03*
X19831000D03*
D03*
X19781000D03*
D03*
X21425000Y12854000D03*
D03*
X21475000D03*
D03*
X21525000D03*
D03*
X21575000D03*
D03*
X21625000D03*
D03*
X21675000D03*
D03*
X21725000D03*
D03*
Y13588000D03*
D03*
X21675000D03*
D03*
X21625000D03*
D03*
X21575000D03*
D03*
X21525000D03*
D03*
X21475000D03*
D03*
X21425000D03*
D03*
Y17359000D03*
D03*
X21475000D03*
D03*
X21525000D03*
D03*
X21575000D03*
D03*
X21625000D03*
D03*
X21675000D03*
D03*
X21725000D03*
D03*
Y18093000D03*
D03*
X21675000D03*
D03*
X21625000D03*
D03*
X21575000D03*
D03*
X21525000D03*
D03*
X21475000D03*
D03*
X21425000D03*
D03*
X21775000Y12854000D03*
D03*
X21825000D03*
D03*
X21875000D03*
D03*
X21925000D03*
D03*
X21975000D03*
D03*
X22025000D03*
D03*
X22075000D03*
D03*
X22125000D03*
D03*
X22175000D03*
D03*
X22225000D03*
D03*
Y13588000D03*
D03*
X22175000D03*
D03*
X22125000D03*
D03*
X22075000D03*
D03*
X22025000D03*
D03*
X21975000D03*
D03*
X21925000D03*
D03*
X21875000D03*
D03*
X21825000D03*
D03*
X21775000D03*
D03*
Y17359000D03*
D03*
X21825000D03*
D03*
X21875000D03*
D03*
X21925000D03*
D03*
X21975000D03*
D03*
X22025000D03*
D03*
X22075000D03*
D03*
X22125000D03*
D03*
X22175000D03*
D03*
X22225000D03*
D03*
Y18093000D03*
D03*
X22175000D03*
D03*
X22125000D03*
D03*
X22075000D03*
D03*
X22025000D03*
D03*
X21975000D03*
D03*
X21925000D03*
D03*
X21875000D03*
D03*
X21825000D03*
D03*
X21775000D03*
D03*
X22275000Y12854000D03*
D03*
X22325000D03*
D03*
X22375000D03*
D03*
X22425000D03*
D03*
X22475000D03*
D03*
X22525000D03*
D03*
X22575000D03*
D03*
X22625000D03*
D03*
X22675000D03*
D03*
X22725000D03*
D03*
Y13588000D03*
D03*
X22675000D03*
D03*
X22625000D03*
D03*
X22575000D03*
D03*
X22525000D03*
D03*
X22475000D03*
D03*
X22425000D03*
D03*
X22375000D03*
D03*
X22325000D03*
D03*
X22275000D03*
D03*
Y17359000D03*
D03*
X22325000D03*
D03*
X22375000D03*
D03*
X22425000D03*
D03*
X22475000D03*
D03*
X22525000D03*
D03*
X22575000D03*
D03*
X22625000D03*
D03*
X22675000D03*
D03*
X22725000D03*
D03*
Y18093000D03*
D03*
X22675000D03*
D03*
X22625000D03*
D03*
X22575000D03*
D03*
X22525000D03*
D03*
X22475000D03*
D03*
X22425000D03*
D03*
X22375000D03*
D03*
X22325000D03*
D03*
X22275000D03*
D03*
X22775000Y12854000D03*
D03*
Y13588000D03*
D03*
Y17359000D03*
D03*
Y18093000D03*
D03*
G54D16*
X9004000Y10554000D03*
Y10754000D03*
X22398000Y10564000D03*
Y10764000D03*
G54D17*
X11837000Y5000000D03*
X12037000D03*
X13254000Y8813000D03*
X13054000D03*
X13202000Y11848000D03*
X13002000D03*
X13132000Y16431000D03*
X12932000D03*
X19791000Y5004000D03*
X19591000D03*
G54D18*
X30918000Y13875000D03*
Y14535000D03*
G54D19*
G01X0Y1124000D02*
Y21300000D01*
X31753000D01*
Y1124000D01*
X0D01*
M02*
