G04 ================== begin FILE IDENTIFICATION RECORD ==================*
G04 Layout Name:  D:/Spira Heaven/0-My Works/Srtp/PCB/Expand/PCB/Expand.brd*
G04 Film Name:    BOTTOM*
G04 File Format:  Gerber RS274X*
G04 File Origin:  Cadence Allegro 16.6-S003*
G04 Origin Date:  Thu Jan 16 10:16:26 2014*
G04 *
G04 Layer:  VIA CLASS/BOTTOM*
G04 Layer:  PIN/BOTTOM*
G04 Layer:  ETCH/BOTTOM*
G04 Layer:  BOARD GEOMETRY/OUTLINE*
G04 *
G04 Offset:    (0.0000 0.0000)*
G04 Mirror:    No*
G04 Mode:      Positive*
G04 Rotation:  0*
G04 FullContactRelief:  No*
G04 UndefLineWidth:     0.2000*
G04 ================== end FILE IDENTIFICATION RECORD ====================*
%FSLAX25Y25*MOMM*%
%IR0*IPPOS*OFA0.00000B0.00000*MIA0B0*SFA1.00000B1.00000*%
%ADD12C,.5*%
%ADD11R,1.2X2.1*%
%ADD15R,2.1X1.2*%
%ADD16C,1.*%
%ADD17C,4.*%
%ADD13C,1.5*%
%ADD10C,6.*%
%ADD14C,1.8*%
%ADD18C,.3*%
%ADD19C,.25*%
%ADD20C,.8*%
%ADD21C,2.*%
%ADD22C,.2*%
G75*
%LPD*%
G75*
G36*
G01X2362000Y467990D02*
X2311000Y411000D01*
X2371000Y302250D01*
X2431000Y411000D01*
X2380000Y467990D01*
G03X2362000I-9000J-12000D01*
G37*
G36*
G01X2589040Y482050D02*
X2565000Y411000D01*
X2625510Y302280D01*
X2685000Y411000D01*
X2611110Y486410D01*
G03X2589040Y482050I-9112J-11912D01*
G37*
G36*
G01X2363380Y1084400D02*
X2319300Y1041000D01*
X2371000Y932250D01*
X2422700Y1041000D01*
X2378620Y1084400D01*
G03X2363380I-7620J-12920D01*
G37*
G36*
G01X2632620Y6986600D02*
X2676700Y7030000D01*
X2625000Y7138750D01*
X2573300Y7030000D01*
X2617380Y6986600D01*
G03X2632620I7620J12920D01*
G37*
G36*
G01X2626220Y7595180D02*
X2685000Y7660000D01*
X2625190Y7768750D01*
X2565000Y7660000D01*
X2606290Y7596500D01*
G03X2626220Y7595180I10705J10509D01*
G37*
G36*
G01X3124000Y467990D02*
X3073000Y411000D01*
X3133000Y302250D01*
X3193000Y411000D01*
X3142000Y467990D01*
G03X3124000I-9000J-12000D01*
G37*
G36*
G01X3378000D02*
X3327000Y411000D01*
X3387000Y302250D01*
X3447000Y411000D01*
X3396000Y467990D01*
G03X3378000I-9000J-12000D01*
G37*
G36*
G01X2855530Y477650D02*
X2819000Y411000D01*
X2879280Y302260D01*
X2939000Y411000D01*
X2876310Y479750D01*
G03X2855530Y477650I-9308J-11761D01*
G37*
G36*
G01X3411500Y1930000D02*
X3334000D01*
X3331790Y1837790D01*
X3424000Y1840000D01*
Y1917500D01*
G03X3411500Y1930000I-12500J0D01*
G37*
G36*
G01X3170000Y2270500D02*
Y2348000D01*
X3077790Y2350210D01*
X3080000Y2258000D01*
X3157500D01*
G03X3170000Y2270500I0J12500D01*
G37*
G36*
G01Y2524500D02*
Y2602000D01*
X3077790Y2604210D01*
X3080000Y2512000D01*
X3157500D01*
G03X3170000Y2524500I0J12500D01*
G37*
G36*
G01Y2016500D02*
Y2094000D01*
X3077790Y2096210D01*
X3080000Y2004000D01*
X3157500D01*
G03X3170000Y2016500I0J12500D01*
G37*
G36*
G01Y3032500D02*
Y3110000D01*
X3077790Y3112210D01*
X3080000Y3020000D01*
X3157500D01*
G03X3170000Y3032500I0J12500D01*
G37*
G36*
G01Y2778500D02*
Y2856000D01*
X3077790Y2858210D01*
X3080000Y2766000D01*
X3157500D01*
G03X3170000Y2778500I0J12500D01*
G37*
G36*
G01Y3286500D02*
Y3364000D01*
X3077790Y3366210D01*
X3080000Y3274000D01*
X3157500D01*
G03X3170000Y3286500I0J12500D01*
G37*
G36*
G01Y4048500D02*
Y4126000D01*
X3077790Y4128210D01*
X3080000Y4036000D01*
X3157500D01*
G03X3170000Y4048500I0J12500D01*
G37*
G36*
G01Y3794500D02*
Y3872000D01*
X3077790Y3874210D01*
X3080000Y3782000D01*
X3157500D01*
G03X3170000Y3794500I0J12500D01*
G37*
G36*
G01Y3540500D02*
Y3618000D01*
X3077790Y3620210D01*
X3080000Y3528000D01*
X3157500D01*
G03X3170000Y3540500I0J12500D01*
G37*
G36*
G01Y4302500D02*
Y4380000D01*
X3077790Y4382210D01*
X3080000Y4290000D01*
X3157500D01*
G03X3170000Y4302500I0J12500D01*
G37*
G36*
G01Y4810500D02*
Y4888000D01*
X3077790Y4890210D01*
X3080000Y4798000D01*
X3157500D01*
G03X3170000Y4810500I0J12500D01*
G37*
G36*
G01Y4556500D02*
Y4634000D01*
X3077790Y4636210D01*
X3080000Y4544000D01*
X3157500D01*
G03X3170000Y4556500I0J12500D01*
G37*
G36*
G01Y5064500D02*
Y5142000D01*
X3077790Y5144210D01*
X3080000Y5052000D01*
X3157500D01*
G03X3170000Y5064500I0J12500D01*
G37*
G36*
G01Y5318500D02*
Y5396000D01*
X3077790Y5398210D01*
X3080000Y5306000D01*
X3157500D01*
G03X3170000Y5318500I0J12500D01*
G37*
G36*
G01Y5572500D02*
Y5650000D01*
X3077790Y5652210D01*
X3080000Y5560000D01*
X3157500D01*
G03X3170000Y5572500I0J12500D01*
G37*
G36*
G01Y6083000D02*
Y6158000D01*
X3077350Y6160650D01*
X3080000Y6068000D01*
X3155000D01*
G03X3170000Y6083000I0J15000D01*
G37*
G36*
G01Y5826500D02*
Y5904000D01*
X3077790Y5906210D01*
X3080000Y5814000D01*
X3157500D01*
G03X3170000Y5826500I0J12500D01*
G37*
G36*
G01X2998570Y7033240D02*
X2939000Y7240000D01*
X2876350Y7137650D01*
X2819000Y7030000D01*
X2983910Y7015100D01*
G03X2998570Y7033240I-9J15001D01*
G37*
G36*
G01X3142000Y7603010D02*
X3193000Y7660000D01*
X3133000Y7768750D01*
X3073000Y7660000D01*
X3124000Y7603010D01*
G03X3142000I9000J12000D01*
G37*
G36*
G01X3395870Y7603900D02*
X3447000Y7660000D01*
X3387000Y7768750D01*
X3327000Y7660000D01*
X3378130Y7603900D01*
G03X3395870I8870J12100D01*
G37*
G36*
G01X2888000Y7603010D02*
X2939000Y7660000D01*
X2879000Y7768750D01*
X2819000Y7660000D01*
X2870000Y7603010D01*
G03X2888000I9000J12000D01*
G37*
G36*
G01X3886000Y467990D02*
X3835000Y411000D01*
X3895000Y302250D01*
X3955000Y411000D01*
X3904000Y467990D01*
G03X3886000I-9000J-12000D01*
G37*
G36*
G01X4140000D02*
X4089000Y411000D01*
X4149000Y302250D01*
X4209000Y411000D01*
X4158000Y467990D01*
G03X4140000I-9000J-12000D01*
G37*
G36*
G01X3632000D02*
X3581000Y411000D01*
X3641000Y302250D01*
X3701000Y411000D01*
X3650000Y467990D01*
G03X3632000I-9000J-12000D01*
G37*
G36*
G01X3650000Y7603010D02*
X3701000Y7660000D01*
X3641000Y7768750D01*
X3581000Y7660000D01*
X3632000Y7603010D01*
G03X3650000I9000J12000D01*
G37*
G36*
G01X4158000D02*
X4209000Y7660000D01*
X4149000Y7768750D01*
X4089000Y7660000D01*
X4140000Y7603010D01*
G03X4158000I9000J12000D01*
G37*
G36*
G01X3904000D02*
X3955000Y7660000D01*
X3895000Y7768750D01*
X3835000Y7660000D01*
X3886000Y7603010D01*
G03X3904000I9000J12000D01*
G37*
G36*
G01X4648000Y467990D02*
X4597000Y411000D01*
X4657000Y302250D01*
X4717000Y411000D01*
X4666000Y467990D01*
G03X4648000I-9000J-12000D01*
G37*
G36*
G01X4394000D02*
X4343000Y411000D01*
X4403000Y302250D01*
X4463000Y411000D01*
X4412000Y467990D01*
G03X4394000I-9000J-12000D01*
G37*
G36*
G01X4801380Y297960D02*
X4851010Y247820D01*
X4914750Y306000D01*
X4851010Y364180D01*
X4801380Y314040D01*
G03Y297960I12660J-8040D01*
G37*
G36*
G01X4412000Y7603010D02*
X4463000Y7660000D01*
X4403000Y7768750D01*
X4343000Y7660000D01*
X4394000Y7603010D01*
G03X4412000I9000J12000D01*
G37*
G36*
G01X4666000D02*
X4717000Y7660000D01*
X4657000Y7768750D01*
X4597000Y7660000D01*
X4648000Y7603010D01*
G03X4666000I9000J12000D01*
G37*
G36*
G01X4920000D02*
X4971000Y7660000D01*
X4911000Y7768750D01*
X4851000Y7660000D01*
X4902000Y7603010D01*
G03X4920000I9000J12000D01*
G37*
G36*
G01X5064250Y298610D02*
X5105010Y257080D01*
X5168750Y306000D01*
X5105010Y354920D01*
X5064250Y313390D01*
G03Y298610I13050J-7390D01*
G37*
G36*
G01X5411380Y454400D02*
X5367300Y411000D01*
X5419000Y302250D01*
X5470700Y411000D01*
X5426620Y454400D01*
G03X5411380I-7620J-12920D01*
G37*
G36*
G01X5428000Y7603010D02*
X5479000Y7660000D01*
X5419000Y7768750D01*
X5359000Y7660000D01*
X5410000Y7603010D01*
G03X5428000I9000J12000D01*
G37*
G36*
G01X5569600Y7757380D02*
X5613010Y7713300D01*
X5676750Y7765000D01*
X5613010Y7816700D01*
X5569600Y7772620D01*
G03Y7757380I12920J-7620D01*
G37*
G36*
G01X5174000Y7603010D02*
X5225000Y7660000D01*
X5165000Y7768750D01*
X5105000Y7660000D01*
X5156000Y7603010D01*
G03X5174000I9000J12000D01*
G37*
G36*
G01X5919380Y454400D02*
X5875300Y411000D01*
X5927000Y302250D01*
X5978700Y411000D01*
X5934620Y454400D01*
G03X5919380I-7620J-12920D01*
G37*
G36*
G01X6284110Y313600D02*
X6240990Y357400D01*
X6177250Y306000D01*
X6240990Y254600D01*
X6284110Y298400D01*
G03Y313600I-12930J7600D01*
G37*
G36*
G01X5783620Y314100D02*
X5732990Y365220D01*
X5669250Y306000D01*
X5732990Y246780D01*
X5783620Y297900D01*
G03Y314100I-12620J8100D01*
G37*
G36*
G01X6031910Y1055900D02*
X5867000Y1041000D01*
X5924350Y933350D01*
X5987000Y831000D01*
X6046570Y1037760D01*
G03X6031910Y1055900I-14669J3139D01*
G37*
G36*
G01X6285910D02*
X6121000Y1041000D01*
X6178350Y933350D01*
X6241000Y831000D01*
X6300570Y1037760D01*
G03X6285910Y1055900I-14669J3139D01*
G37*
G36*
G01X6499890Y6984510D02*
X6495000Y7240000D01*
X6433820Y7138560D01*
X6375000Y7030000D01*
X6479230Y6971210D01*
G03X6499890Y6984510I5670J13889D01*
G37*
G36*
G01X6300570Y7033240D02*
X6241000Y7240000D01*
X6178350Y7137650D01*
X6121000Y7030000D01*
X6285910Y7015100D01*
G03X6300570Y7033240I-9J15001D01*
G37*
G36*
G01X5934620Y7616600D02*
X5978700Y7660000D01*
X5927000Y7768750D01*
X5875300Y7660000D01*
X5919380Y7616600D01*
G03X5934620I7620J12920D01*
G37*
G36*
G01X6300160Y7704250D02*
X6236360Y7851640D01*
X6177820Y7766980D01*
X6142320Y7684600D01*
X6287460Y7684680D01*
G03X6300160Y7704250I-1561J14919D01*
G37*
G36*
G01X7061380Y314470D02*
X7003000Y373220D01*
X6939250Y306000D01*
X7003000Y238780D01*
X7061380Y297530D01*
G03Y314470I-12380J8470D01*
G37*
G36*
G01X6795460Y386320D02*
X6650320Y386400D01*
X6685820Y304020D01*
X6744360Y219360D01*
X6808160Y366750D01*
G03X6795460Y386320I-14261J4651D01*
G37*
G36*
G01X6541460D02*
X6396320Y386400D01*
X6431820Y304020D01*
X6490360Y219360D01*
X6554160Y366750D01*
G03X6541460Y386320I-14261J4651D01*
G37*
G36*
G01X6793910Y1055900D02*
X6629000Y1041000D01*
X6686350Y933350D01*
X6749000Y831000D01*
X6808570Y1037760D01*
G03X6793910Y1055900I-14669J3139D01*
G37*
G36*
G01X7256630Y1059000D02*
X7137000Y1041000D01*
X7195180Y932720D01*
X7257000Y831000D01*
X7272000Y1044000D01*
G03X7256630Y1059000I-15004J0D01*
G37*
G36*
G01X7206000Y6973010D02*
X7257000Y7030000D01*
X7197000Y7138750D01*
X7137000Y7030000D01*
X7188000Y6973010D01*
G03X7206000I9000J12000D01*
G37*
G36*
G01X6952000D02*
X7003000Y7030000D01*
X6943000Y7138750D01*
X6883000Y7030000D01*
X6934000Y6973010D01*
G03X6952000I9000J12000D01*
G37*
G36*
G01X6698000D02*
X6749000Y7030000D01*
X6689000Y7138750D01*
X6629000Y7030000D01*
X6680000Y6973010D01*
G03X6698000I9000J12000D01*
G37*
G36*
G01X6538400Y7772620D02*
X6494990Y7816700D01*
X6431250Y7765000D01*
X6494990Y7713300D01*
X6538400Y7757380D01*
G03Y7772620I-12920J7620D01*
G37*
G36*
G01X6698000Y7603010D02*
X6749000Y7660000D01*
X6689000Y7768750D01*
X6629000Y7660000D01*
X6680000Y7603010D01*
G03X6698000I9000J12000D01*
G37*
G36*
G01X7206000D02*
X7257000Y7660000D01*
X7197000Y7768750D01*
X7137000Y7660000D01*
X7188000Y7603010D01*
G03X7206000I9000J12000D01*
G37*
G36*
G01X6952000D02*
X7003000Y7660000D01*
X6943000Y7768750D01*
X6883000Y7660000D01*
X6934000Y7603010D01*
G03X6952000I9000J12000D01*
G37*
G36*
G01X7442000Y467990D02*
X7391000Y411000D01*
X7451000Y302250D01*
X7511000Y411000D01*
X7460000Y467990D01*
G03X7442000I-9000J-12000D01*
G37*
G36*
G01X7696000D02*
X7645000Y411000D01*
X7705000Y302250D01*
X7765000Y411000D01*
X7714000Y467990D01*
G03X7696000I-9000J-12000D01*
G37*
G36*
G01X7950000Y1097990D02*
X7899000Y1041000D01*
X7959000Y932250D01*
X8019000Y1041000D01*
X7968000Y1097990D01*
G03X7950000I-9000J-12000D01*
G37*
G36*
G01X7442000D02*
X7391000Y1041000D01*
X7451000Y932250D01*
X7511000Y1041000D01*
X7460000Y1097990D01*
G03X7442000I-9000J-12000D01*
G37*
G36*
G01X7950000Y467990D02*
X7899000Y411000D01*
X7959000Y302250D01*
X8019000Y411000D01*
X7968000Y467990D01*
G03X7950000I-9000J-12000D01*
G37*
G36*
G01X7696000Y1097990D02*
X7645000Y1041000D01*
X7705000Y932250D01*
X7765000Y1041000D01*
X7714000Y1097990D01*
G03X7696000I-9000J-12000D01*
G37*
G36*
G01X7968000Y6973010D02*
X8019000Y7030000D01*
X7959000Y7138750D01*
X7899000Y7030000D01*
X7950000Y6973010D01*
G03X7968000I9000J12000D01*
G37*
G36*
G01X7714000D02*
X7765000Y7030000D01*
X7705000Y7138750D01*
X7645000Y7030000D01*
X7696000Y6973010D01*
G03X7714000I9000J12000D01*
G37*
G36*
G01X7460000D02*
X7511000Y7030000D01*
X7451000Y7138750D01*
X7391000Y7030000D01*
X7442000Y6973010D01*
G03X7460000I9000J12000D01*
G37*
G36*
G01X7714000Y7603010D02*
X7765000Y7660000D01*
X7705000Y7768750D01*
X7645000Y7660000D01*
X7696000Y7603010D01*
G03X7714000I9000J12000D01*
G37*
G36*
G01X7968000D02*
X8019000Y7660000D01*
X7959000Y7768750D01*
X7899000Y7660000D01*
X7950000Y7603010D01*
G03X7968000I9000J12000D01*
G37*
G36*
G01X7460000D02*
X7511000Y7660000D01*
X7451000Y7768750D01*
X7391000Y7660000D01*
X7442000Y7603010D01*
G03X7460000I9000J12000D01*
G37*
G36*
G01X8458000Y467990D02*
X8407000Y411000D01*
X8467000Y302250D01*
X8527000Y411000D01*
X8476000Y467990D01*
G03X8458000I-9000J-12000D01*
G37*
G36*
G01X8204000D02*
X8153000Y411000D01*
X8213000Y302250D01*
X8273000Y411000D01*
X8222000Y467990D01*
G03X8204000I-9000J-12000D01*
G37*
G36*
G01Y1097990D02*
X8153000Y1041000D01*
X8213000Y932250D01*
X8273000Y1041000D01*
X8222000Y1097990D01*
G03X8204000I-9000J-12000D01*
G37*
G36*
G01X8458000D02*
X8407000Y1041000D01*
X8467000Y932250D01*
X8527000Y1041000D01*
X8476000Y1097990D01*
G03X8458000I-9000J-12000D01*
G37*
G36*
G01X7983000Y2927000D02*
X7923000D01*
X7920350Y2849350D01*
X7998000Y2852000D01*
Y2912000D01*
G03X7983000Y2927000I-15000J0D01*
G37*
G36*
G01X8476000Y6973010D02*
X8527000Y7030000D01*
X8467000Y7138750D01*
X8407000Y7030000D01*
X8458000Y6973010D01*
G03X8476000I9000J12000D01*
G37*
G36*
G01X8222000D02*
X8273000Y7030000D01*
X8213000Y7138750D01*
X8153000Y7030000D01*
X8204000Y6973010D01*
G03X8222000I9000J12000D01*
G37*
G36*
G01Y7603010D02*
X8273000Y7660000D01*
X8213000Y7768750D01*
X8153000Y7660000D01*
X8204000Y7603010D01*
G03X8222000I9000J12000D01*
G37*
G36*
G01X8476000D02*
X8527000Y7660000D01*
X8467000Y7768750D01*
X8407000Y7660000D01*
X8458000Y7603010D01*
G03X8476000I9000J12000D01*
G37*
G36*
G01X8712000Y467990D02*
X8661000Y411000D01*
X8721000Y302250D01*
X8781000Y411000D01*
X8730000Y467990D01*
G03X8712000I-9000J-12000D01*
G37*
G36*
G01X8966000D02*
X8915000Y411000D01*
X8975000Y302250D01*
X9035000Y411000D01*
X8984000Y467990D01*
G03X8966000I-9000J-12000D01*
G37*
G36*
G01X9220000D02*
X9169000Y411000D01*
X9229000Y302250D01*
X9289000Y411000D01*
X9238000Y467990D01*
G03X9220000I-9000J-12000D01*
G37*
G36*
G01X8712000Y1097990D02*
X8661000Y1041000D01*
X8721000Y932250D01*
X8781000Y1041000D01*
X8730000Y1097990D01*
G03X8712000I-9000J-12000D01*
G37*
G36*
G01X9220000D02*
X9169000Y1041000D01*
X9229000Y932250D01*
X9289000Y1041000D01*
X9238000Y1097990D01*
G03X9220000I-9000J-12000D01*
G37*
G36*
G01X8966000D02*
X8915000Y1041000D01*
X8975000Y932250D01*
X9035000Y1041000D01*
X8984000Y1097990D01*
G03X8966000I-9000J-12000D01*
G37*
G36*
G01X8730000Y7603010D02*
X8781000Y7660000D01*
X8721000Y7768750D01*
X8661000Y7660000D01*
X8712000Y7603010D01*
G03X8730000I9000J12000D01*
G37*
G36*
G01X8984000D02*
X9035000Y7660000D01*
X8975000Y7768750D01*
X8915000Y7660000D01*
X8966000Y7603010D01*
G03X8984000I9000J12000D01*
G37*
G36*
G01X9238000D02*
X9289000Y7660000D01*
X9229000Y7768750D01*
X9169000Y7660000D01*
X9220000Y7603010D01*
G03X9238000I9000J12000D01*
G37*
G36*
G01X9474000Y467990D02*
X9423000Y411000D01*
X9483000Y302250D01*
X9543000Y411000D01*
X9492000Y467990D01*
G03X9474000I-9000J-12000D01*
G37*
G36*
G01X9982000D02*
X9931000Y411000D01*
X9991000Y302250D01*
X10051000Y411000D01*
X10000000Y467990D01*
G03X9982000I-9000J-12000D01*
G37*
G36*
G01X9728000D02*
X9677000Y411000D01*
X9737000Y302250D01*
X9797000Y411000D01*
X9746000Y467990D01*
G03X9728000I-9000J-12000D01*
G37*
G36*
G01X9746000Y6973010D02*
X9797000Y7030000D01*
X9737000Y7138750D01*
X9677000Y7030000D01*
X9728000Y6973010D01*
G03X9746000I9000J12000D01*
G37*
G36*
G01X10000000D02*
X10051000Y7030000D01*
X9991000Y7138750D01*
X9931000Y7030000D01*
X9982000Y6973010D01*
G03X10000000I9000J12000D01*
G37*
G36*
G01X9746000Y7603010D02*
X9797000Y7660000D01*
X9737000Y7768750D01*
X9677000Y7660000D01*
X9728000Y7603010D01*
G03X9746000I9000J12000D01*
G37*
G36*
G01X9974000Y7584500D02*
X10049720Y7660000D01*
X9991570Y7768710D01*
X9931000Y7660000D01*
X9951780Y7589420D01*
G03X9974000Y7584500I13222J7080D01*
G37*
G36*
G01X9492000Y7603010D02*
X9543000Y7660000D01*
X9483000Y7768750D01*
X9423000Y7660000D01*
X9474000Y7603010D01*
G03X9492000I9000J12000D01*
G37*
G36*
G01X10744000Y467990D02*
X10693000Y411000D01*
X10753000Y302250D01*
X10813000Y411000D01*
X10762000Y467990D01*
G03X10744000I-9000J-12000D01*
G37*
G36*
G01X10236000D02*
X10185000Y411000D01*
X10245000Y302250D01*
X10305000Y411000D01*
X10254000Y467990D01*
G03X10236000I-9000J-12000D01*
G37*
G36*
G01X10490000D02*
X10439000Y411000D01*
X10499000Y302250D01*
X10559000Y411000D01*
X10508000Y467990D01*
G03X10490000I-9000J-12000D01*
G37*
G36*
G01X10633430Y1037760D02*
X10693000Y831000D01*
X10755650Y933350D01*
X10813000Y1041000D01*
X10648090Y1055900D01*
G03X10633430Y1037760I9J-15001D01*
G37*
G36*
G01X10394090Y7015100D02*
X10559000Y7030000D01*
X10501650Y7137650D01*
X10439000Y7240000D01*
X10379430Y7033240D01*
G03X10394090Y7015100I14669J-3139D01*
G37*
G36*
G01X10249580Y7005720D02*
X10276220Y7030010D01*
X10245000Y7138750D01*
X10213780Y7030010D01*
X10240420Y7005720D01*
G03X10249580I4580J14280D01*
G37*
G36*
G01X10762000Y7603010D02*
X10813000Y7660000D01*
X10753000Y7768750D01*
X10693000Y7660000D01*
X10744000Y7603010D01*
G03X10762000I9000J12000D01*
G37*
G36*
G01X10254000D02*
X10305000Y7660000D01*
X10245000Y7768750D01*
X10185000Y7660000D01*
X10236000Y7603010D01*
G03X10254000I9000J12000D01*
G37*
G36*
G01X10508000D02*
X10559000Y7660000D01*
X10499000Y7768750D01*
X10439000Y7660000D01*
X10490000Y7603010D01*
G03X10508000I9000J12000D01*
G37*
G36*
G01X10998000Y467990D02*
X10947000Y411000D01*
X11007000Y302250D01*
X11067000Y411000D01*
X11016000Y467990D01*
G03X10998000I-9000J-12000D01*
G37*
G36*
G01X11252000D02*
X11201000Y411000D01*
X11261000Y302250D01*
X11321000Y411000D01*
X11270000Y467990D01*
G03X11252000I-9000J-12000D01*
G37*
G36*
G01X11506000D02*
X11455000Y411000D01*
X11515000Y302250D01*
X11575000Y411000D01*
X11524000Y467990D01*
G03X11506000I-9000J-12000D01*
G37*
G36*
G01X11524000Y7603010D02*
X11575000Y7660000D01*
X11515000Y7768750D01*
X11455000Y7660000D01*
X11506000Y7603010D01*
G03X11524000I9000J12000D01*
G37*
G36*
G01X11270000D02*
X11321000Y7660000D01*
X11261000Y7768750D01*
X11201000Y7660000D01*
X11252000Y7603010D01*
G03X11270000I9000J12000D01*
G37*
G36*
G01X11016000D02*
X11067000Y7660000D01*
X11007000Y7768750D01*
X10947000Y7660000D01*
X10998000Y7603010D01*
G03X11016000I9000J12000D01*
G37*
G36*
G01X12059000Y467990D02*
X12008000Y411000D01*
X12068000Y302250D01*
X12128000Y411000D01*
X12077000Y467990D01*
G03X12059000I-9000J-12000D01*
G37*
G36*
G01X11805000D02*
X11754000Y411000D01*
X11814000Y302250D01*
X11874000Y411000D01*
X11823000Y467990D01*
G03X11805000I-9000J-12000D01*
G37*
G36*
G01X12313000D02*
X12262000Y411000D01*
X12322000Y302250D01*
X12382000Y411000D01*
X12331000Y467990D01*
G03X12313000I-9000J-12000D01*
G37*
G36*
G01X11823000Y7602010D02*
X11874000Y7659000D01*
X11814000Y7767750D01*
X11754000Y7659000D01*
X11805000Y7602010D01*
G03X11823000I9000J12000D01*
G37*
G36*
G01X12077000D02*
X12128000Y7659000D01*
X12068000Y7767750D01*
X12008000Y7659000D01*
X12059000Y7602010D01*
G03X12077000I9000J12000D01*
G37*
G36*
G01X12331000D02*
X12382000Y7659000D01*
X12322000Y7767750D01*
X12262000Y7659000D01*
X12313000Y7602010D01*
G03X12331000I9000J12000D01*
G37*
G36*
G01X12821000Y467990D02*
X12770000Y411000D01*
X12830000Y302250D01*
X12890000Y411000D01*
X12839000Y467990D01*
G03X12821000I-9000J-12000D01*
G37*
G36*
G01X12567000D02*
X12516000Y411000D01*
X12576000Y302250D01*
X12636000Y411000D01*
X12585000Y467990D01*
G03X12567000I-9000J-12000D01*
G37*
G36*
G01X12839000Y7602010D02*
X12890000Y7659000D01*
X12830000Y7767750D01*
X12770000Y7659000D01*
X12821000Y7602010D01*
G03X12839000I9000J12000D01*
G37*
G36*
G01X12585000D02*
X12636000Y7659000D01*
X12576000Y7767750D01*
X12516000Y7659000D01*
X12567000Y7602010D01*
G03X12585000I9000J12000D01*
G37*
G36*
G01X13093000D02*
X13144000Y7659000D01*
X13084000Y7767750D01*
X13024000Y7659000D01*
X13075000Y7602010D01*
G03X13093000I9000J12000D01*
G37*
G36*
G01X13345620Y6985600D02*
X13389700Y7029000D01*
X13338000Y7137750D01*
X13286300Y7029000D01*
X13330380Y6985600D01*
G03X13345620I7620J12920D01*
G37*
G36*
G01X13347000Y7602010D02*
X13398000Y7659000D01*
X13338000Y7767750D01*
X13278000Y7659000D01*
X13329000Y7602010D01*
G03X13347000I9000J12000D01*
G37*
G54D10*
X1232000Y-139000D03*
Y4061000D03*
X1227000Y5924000D03*
Y8174000D03*
X2741000Y-274000D03*
Y8275000D03*
X14642000Y-273000D03*
X14644000Y8275000D03*
G54D20*
G01X13084000Y306000D02*
X13338000D01*
G01D02*
X13592000D01*
G01X13846000D02*
X13592000D01*
G01X14100000D02*
X13846000D01*
G01X13825000Y574000D02*
X13936490Y462510D01*
Y441490D01*
X13846000Y351000D01*
Y306000D01*
G54D11*
X1609000D03*
X1863000D03*
Y936000D03*
X1609000D03*
Y7135000D03*
X1863000D03*
Y7765000D03*
X1609000D03*
X2117000Y306000D03*
X2371000D03*
X2625000D03*
Y936000D03*
X2371000D03*
X2117000D03*
Y7135000D03*
X2371000D03*
X2625000D03*
Y7765000D03*
X2371000D03*
X2117000D03*
X2879000Y306000D03*
X3133000D03*
X3387000D03*
Y936000D03*
X3133000D03*
X2879000D03*
Y7135000D03*
X3133000D03*
X3387000D03*
Y7765000D03*
X3133000D03*
X2879000D03*
X3641000Y306000D03*
X3895000D03*
X4149000D03*
Y936000D03*
X3895000D03*
X3641000D03*
Y7135000D03*
X3895000D03*
X4149000D03*
Y7765000D03*
X3895000D03*
X3641000D03*
X4403000Y306000D03*
X4657000D03*
X4911000D03*
Y936000D03*
X4657000D03*
X4403000D03*
Y7135000D03*
X4657000D03*
X4911000D03*
Y7765000D03*
X4657000D03*
X4403000D03*
X5165000Y306000D03*
X5419000D03*
X5673000D03*
Y936000D03*
X5419000D03*
X5165000D03*
Y7135000D03*
X5419000D03*
X5673000D03*
Y7765000D03*
X5419000D03*
X5165000D03*
X5927000Y306000D03*
X6181000D03*
X6435000D03*
Y936000D03*
X6181000D03*
X5927000D03*
Y7135000D03*
X6181000D03*
X6435000D03*
Y7765000D03*
X6181000D03*
X5927000D03*
X6689000Y306000D03*
X6943000D03*
X7197000D03*
Y936000D03*
X6943000D03*
X6689000D03*
Y7135000D03*
X6943000D03*
X7197000D03*
Y7765000D03*
X6943000D03*
X6689000D03*
X7451000Y306000D03*
X7705000D03*
X7959000D03*
Y936000D03*
X7705000D03*
X7451000D03*
Y7135000D03*
X7705000D03*
X7959000D03*
Y7765000D03*
X7705000D03*
X7451000D03*
X8213000Y306000D03*
X8467000D03*
Y936000D03*
X8213000D03*
Y7135000D03*
X8467000D03*
Y7765000D03*
X8213000D03*
X8721000Y306000D03*
X8975000D03*
X9229000D03*
Y936000D03*
X8975000D03*
X8721000D03*
Y7135000D03*
X8975000D03*
X9229000D03*
Y7765000D03*
X8975000D03*
X8721000D03*
X9483000Y306000D03*
X9737000D03*
X9991000D03*
Y936000D03*
X9737000D03*
X9483000D03*
Y7135000D03*
X9737000D03*
X9991000D03*
Y7765000D03*
X9737000D03*
X9483000D03*
X10245000Y306000D03*
X10499000D03*
X10753000D03*
Y936000D03*
X10499000D03*
X10245000D03*
Y7135000D03*
X10499000D03*
X10753000D03*
Y7765000D03*
X10499000D03*
X10245000D03*
X11007000Y306000D03*
X11261000D03*
X11515000D03*
Y936000D03*
X11261000D03*
X11007000D03*
Y7135000D03*
X11261000D03*
X11515000D03*
Y7765000D03*
X11261000D03*
X11007000D03*
X11814000Y306000D03*
X12068000D03*
X12322000D03*
Y936000D03*
X12068000D03*
X11814000D03*
Y7134000D03*
X12068000D03*
X12322000D03*
Y7764000D03*
X12068000D03*
X11814000D03*
X12576000Y306000D03*
X12830000D03*
X13084000D03*
Y936000D03*
X12830000D03*
X12576000D03*
Y7134000D03*
X12830000D03*
X13084000D03*
Y7764000D03*
X12830000D03*
X12576000D03*
X13338000Y306000D03*
X13592000D03*
X13846000D03*
Y936000D03*
X13592000D03*
X13338000D03*
Y7134000D03*
X13592000D03*
X13846000D03*
Y7764000D03*
X13592000D03*
X13338000D03*
X14100000Y306000D03*
Y936000D03*
Y7134000D03*
Y7764000D03*
G54D21*
G01X13121000Y1146000D02*
Y4506000D01*
X12675000Y4952000D01*
G54D12*
X2371000Y520000D03*
X2602000Y489000D03*
X2617000Y7582000D03*
X3133000Y477000D03*
X3387000Y485000D03*
X2867000Y495000D03*
X3133000Y7593000D03*
X3387000Y7616000D03*
X2879000Y7605000D03*
X3895000Y484000D03*
X4149000Y476000D03*
X3641000Y484000D03*
Y7606000D03*
X4149000Y7602000D03*
X3895000Y7599000D03*
X4798000Y383000D03*
X4657000Y481000D03*
X4403000Y488000D03*
Y7601000D03*
X4657000Y7605000D03*
X5037000Y346300D03*
X5484500Y1820500D03*
X5611500Y1817500D03*
X5357500D03*
X5618000Y3204000D03*
X5648000Y2958000D03*
X5445000Y3975000D03*
X5512000Y3726000D03*
X5588000Y3487000D03*
X5497000Y4214000D03*
X5489000Y4483000D03*
X5493000Y4725000D03*
X5478000Y4978000D03*
X5467000Y5255000D03*
X5459000Y5497000D03*
X5440000Y5762000D03*
X5444000Y5996000D03*
X5230500Y6188500D03*
X5484500Y6194500D03*
X5611500Y6191500D03*
X5357500Y6183500D03*
X5419000Y7602000D03*
X4911000Y7606000D03*
X5560000Y7635000D03*
X5165000Y7598000D03*
X6284180Y319000D03*
X5771000Y306000D03*
X5865500Y1810500D03*
X5738500Y1817500D03*
X6246500Y1812500D03*
X6119500Y1803500D03*
X5992500Y1805500D03*
X5720000Y2454000D03*
X5777000Y2201000D03*
X6116000Y2099000D03*
X5682000Y2708000D03*
X5889000Y5859000D03*
X5738500Y6184500D03*
X6246500Y6197500D03*
X6119500Y6198500D03*
X5865500Y6183500D03*
X5992500Y6197500D03*
X6298000Y7574000D03*
X7049000Y306000D03*
X6696000Y601000D03*
X6440000Y586000D03*
X7074000Y580000D03*
X6904000Y569000D03*
X6625000Y1819000D03*
X7008500Y1811500D03*
X6754500Y1801500D03*
X6500500Y1812500D03*
X6881500Y1809500D03*
X7135500Y1806500D03*
X6754500Y6213500D03*
X6500500Y6201500D03*
X7008500Y6204500D03*
X7135500Y6219500D03*
X6627500Y6214500D03*
X6881500Y6210500D03*
X6551590Y7640410D03*
X6711000Y7574000D03*
X6943000Y7571000D03*
X6446000Y7548000D03*
X7298000Y452000D03*
X7517000Y463000D03*
X7705000Y492000D03*
X7770500Y1812500D03*
X7262500Y1800500D03*
X7389500Y1806500D03*
X7897500Y1821500D03*
X7516500Y1808500D03*
X7262500Y6207500D03*
X7770500Y6191500D03*
X7897500Y6186500D03*
X7516500Y6181500D03*
X7389500Y6189500D03*
X7705000Y7579000D03*
X7197000Y7587000D03*
X7451000Y7584000D03*
X7959000Y483000D03*
X8467000Y497000D03*
X8213000Y502000D03*
X8405500Y1836500D03*
X8532500Y1814500D03*
X8151500Y1809500D03*
X8024500Y1811500D03*
X8659500Y1836500D03*
X8278500Y1822500D03*
X8151500Y6190500D03*
X8024500Y6177500D03*
X8405500Y6189500D03*
X8532500Y6188500D03*
X8278500Y6199500D03*
X8659500Y6179500D03*
X7959000Y7591000D03*
X8213000Y7585000D03*
X8467000Y7577000D03*
X8721000Y485000D03*
X8975000Y493000D03*
X9229000Y478000D03*
X8786500Y1831500D03*
X9167500Y1816500D03*
X9421500Y1814500D03*
X9294500Y1829500D03*
X9040500Y1812500D03*
X8786500Y6173500D03*
X9167500Y6196500D03*
X9294500Y6189500D03*
X9040500Y6185500D03*
X9421500Y6196500D03*
X8721000Y7587000D03*
X8975000Y7563000D03*
X9229000Y7566000D03*
X9483000Y475000D03*
X9991000Y470000D03*
X9737000Y466000D03*
X10056500Y1805500D03*
X9548500Y1810500D03*
X9802500Y1817500D03*
X9929500Y1819500D03*
X9675500Y1807500D03*
X9802500Y6197500D03*
X9548500Y6194500D03*
X10056500Y6205500D03*
X9929500Y6203500D03*
X9675500Y6191500D03*
X9737000Y7578000D03*
X9965000Y7576000D03*
X9483000Y7573000D03*
X10753000Y476000D03*
X10245000Y481000D03*
X10499000Y483000D03*
X10310500Y1809500D03*
X10818500Y1814500D03*
X10437500Y1807500D03*
X10691500Y1805500D03*
X10564500Y1803500D03*
X10691500Y6207500D03*
X10818500Y6214500D03*
X10310500Y6197500D03*
X10437500Y6200500D03*
X10564500Y6206500D03*
X10753000Y7578000D03*
X10245000Y7587000D03*
X10499000Y7574000D03*
X11007000Y472000D03*
X11261000Y475000D03*
X11515000Y472000D03*
X11072500Y1819500D03*
X10945500Y1813500D03*
Y6215500D03*
X11072500Y6210500D03*
X11515000Y7586000D03*
X11261000Y7597000D03*
X11007000Y7588000D03*
X12068000Y479000D03*
X11814000Y474000D03*
X12322000Y481000D03*
X11814000Y7585000D03*
X12068000Y7573000D03*
X12322000Y7592000D03*
X12830000Y493000D03*
X12576000Y471000D03*
X12786000Y2378000D03*
X12830000Y7595000D03*
X12576000Y7589000D03*
X13084000Y7593000D03*
X13755000Y3989000D03*
X13338000Y7581000D03*
G54D22*
G01X800000Y-600000D02*
Y8600000D01*
X15100000D01*
Y-600000D01*
X800000D01*
G54D13*
X2371000Y6896000D03*
Y7585000D03*
X7923000Y2852000D03*
X11326500Y2011500D03*
X11583000Y2846000D03*
X11302000Y5573000D03*
X12370500Y1843500D03*
X11938000Y2663000D03*
X12370500Y6120500D03*
X13121000Y1146000D03*
X12811000Y3945000D03*
X12675000Y4952000D03*
X13825000Y574000D03*
X14037000Y7453000D03*
G54D14*
X3334000Y1840000D03*
Y1586000D03*
X3080000D03*
Y1840000D03*
X3334000Y2602000D03*
Y2348000D03*
Y2094000D03*
X3080000D03*
Y2348000D03*
Y2602000D03*
X3334000Y3364000D03*
Y3110000D03*
Y2856000D03*
X3080000D03*
Y3110000D03*
Y3364000D03*
X3334000Y4126000D03*
Y3872000D03*
Y3618000D03*
X3080000D03*
Y3872000D03*
Y4126000D03*
X3334000Y4888000D03*
Y4634000D03*
Y4380000D03*
X3080000D03*
Y4634000D03*
Y4888000D03*
X3334000Y5650000D03*
Y5396000D03*
Y5142000D03*
X3080000D03*
Y5396000D03*
Y5650000D03*
X3334000Y6412000D03*
Y6158000D03*
Y5904000D03*
X3080000D03*
Y6158000D03*
Y6412000D03*
G54D15*
X11308000Y3354000D03*
Y3100000D03*
Y2846000D03*
Y4116000D03*
Y3862000D03*
Y3608000D03*
Y4878000D03*
Y4624000D03*
Y4370000D03*
Y5132000D03*
X11938000Y2846000D03*
Y3100000D03*
Y3354000D03*
Y3608000D03*
Y3862000D03*
Y4116000D03*
Y4370000D03*
Y4624000D03*
Y4878000D03*
Y5132000D03*
G54D16*
G01X2117000Y306000D02*
X1863000D01*
G01X1609000D02*
X1863000D01*
G01Y936000D02*
X2117000D01*
G01X1609000D02*
X1863000D01*
G01Y7135000D02*
X2117000D01*
G01X1609000D02*
X1863000D01*
G01Y7765000D02*
X2117000D01*
G01X1609000D02*
X1863000D01*
G01X2117000Y306000D02*
Y170520D01*
X2156520Y131000D01*
X13044480D01*
X13084000Y170520D01*
Y306000D01*
G01Y936000D02*
Y800520D01*
X12984960Y701480D01*
X2183820D01*
X2117000Y768300D01*
Y936000D01*
G01X2371000Y7135000D02*
X2117000D01*
G01X13592000Y7134000D02*
Y7269480D01*
X13494480Y7367000D01*
X2467520D01*
X2371000Y7270480D01*
Y7135000D01*
G01Y6896000D02*
Y7135000D01*
G01Y7765000D02*
X2117000D01*
G01X2371000Y7585000D02*
Y7765000D01*
G01X11326500Y2011500D02*
X12097020D01*
X12265020Y1843500D01*
X12370500D01*
G01X11308000Y3100000D02*
Y2846000D01*
G01Y3354000D02*
Y3608000D01*
G01Y3100000D02*
Y3354000D01*
G01X11583000Y2846000D02*
X11308000D01*
G01Y4116000D02*
Y4370000D01*
G01Y3862000D02*
Y4116000D01*
G01Y3608000D02*
Y3862000D01*
G01Y4624000D02*
Y4878000D01*
G01Y4370000D02*
Y4624000D01*
G01Y5132000D02*
Y4878000D01*
G01X11302000Y5573000D02*
X11823000D01*
X12370500Y6120500D01*
G01X11308000Y5132000D02*
X11263000D01*
X11172510Y5222490D01*
Y5443510D01*
X11302000Y5573000D01*
G01X12370500Y1843500D02*
Y3504500D01*
X12811000Y3945000D01*
G01X11938000Y2663000D02*
Y2846000D01*
G01Y3354000D02*
Y3608000D01*
G01Y3100000D02*
Y3354000D01*
G01Y2846000D02*
Y3100000D01*
G01Y4116000D02*
Y4370000D01*
G01Y3862000D02*
Y4116000D01*
G01Y3608000D02*
Y3862000D01*
G01Y4624000D02*
Y4878000D01*
G01Y4370000D02*
Y4624000D01*
G01Y5132000D02*
Y4878000D01*
G01Y5132000D02*
X12622000D01*
X13561000Y6071000D01*
G01X13084000Y936000D02*
Y981000D01*
X13174490Y1071490D01*
X13247510D01*
X13338000Y981000D01*
Y936000D01*
G01X13084000D02*
X13121000Y973000D01*
Y1146000D01*
G01X13755000Y3989000D02*
X12786000Y3020000D01*
Y2378000D01*
G01X13592000Y936000D02*
X13338000D01*
G01X13846000D02*
X13592000D01*
G01X14100000D02*
X13846000D01*
G01X13561000Y6071000D02*
Y6461480D01*
X13640520Y6541000D01*
X13871000D01*
G01X14100000Y7134000D02*
Y6770000D01*
X13871000Y6541000D01*
G01X14100000Y7134000D02*
X13846000D01*
G01X13592000D02*
X13846000D01*
G01X13592000Y7764000D02*
X13846000D01*
G01X14100000D02*
Y7809000D01*
X14009510Y7899490D01*
X13936490D01*
X13846000Y7809000D01*
Y7764000D01*
G01X14037000Y7453000D02*
Y7663480D01*
X13936480Y7764000D01*
X13846000D01*
X13936000Y4653000D03*
Y5253000D03*
X14186000Y4653000D03*
X14436000D03*
Y5253000D03*
X14186000D03*
G54D17*
X13561000Y6071000D03*
X13871000Y6541000D03*
X14181000Y6071000D03*
G54D18*
G01X2371000Y306000D02*
Y520000D01*
G01X2625000Y306000D02*
X2602000Y329000D01*
Y489000D01*
G01X2625000Y936000D02*
Y981000D01*
X3051000Y1407000D01*
X3488280D01*
X3833300Y1752020D01*
X5384630D01*
X5453110Y1820500D01*
X5484500D01*
G01X2371000Y936000D02*
Y1071480D01*
X2756520Y1457000D01*
X3457400D01*
X3817900Y1817500D01*
X5357500D01*
G01X2625000Y7135000D02*
Y6999520D01*
X3087520Y6537000D01*
X3385790D01*
X3734290Y6188500D01*
X5230500D01*
G01X2625000Y7765000D02*
X2617000Y7757000D01*
Y7582000D01*
G01X3133000Y306000D02*
Y477000D01*
G01X3387000Y306000D02*
Y485000D01*
G01X2879000Y306000D02*
X2867000Y318000D01*
Y495000D01*
G01X3387000Y936000D02*
Y981000D01*
X4008020Y1602020D01*
X5446790D01*
X5498830Y1654060D01*
X5709060D01*
X5865500Y1810500D01*
G01X3133000Y936000D02*
Y981000D01*
X3459000Y1307000D01*
X3529720D01*
X3874740Y1652020D01*
X5426070D01*
X5478110Y1704060D01*
X5625060D01*
X5738500Y1817500D01*
G01X2879000Y936000D02*
Y981000D01*
X3255000Y1357000D01*
X3509000D01*
X3854020Y1702020D01*
X5405350D01*
X5457390Y1754060D01*
X5548060D01*
X5611500Y1817500D01*
G01X3080000Y6158000D02*
X3205000Y6033000D01*
X3385790D01*
X3426790Y6074000D01*
X5674000D01*
X5889000Y5859000D01*
G01X3133000Y7135000D02*
Y7090000D01*
X3919020Y6303980D01*
X5278350D01*
X5333350Y6248980D01*
X5430020D01*
X5484500Y6194500D01*
G01X3387000Y7135000D02*
Y7090000D01*
X4123020Y6353980D01*
X5299070D01*
X5354070Y6298980D01*
X5504020D01*
X5611500Y6191500D01*
G01X2879000Y7135000D02*
X3760020Y6253980D01*
X5257630D01*
X5328110Y6183500D01*
X5357500D01*
G01X3133000Y7765000D02*
Y7593000D01*
G01X3387000Y7765000D02*
Y7616000D01*
G01X2879000Y7765000D02*
Y7605000D01*
G01X3895000Y306000D02*
Y484000D01*
G01X3641000Y306000D02*
Y484000D01*
G01X4149000Y936000D02*
Y981000D01*
X4620020Y1452020D01*
X5508950D01*
X5560970Y1504040D01*
X5938040D01*
X6246500Y1812500D01*
G01X3895000Y936000D02*
Y981000D01*
X4416020Y1502020D01*
X5488230D01*
X5540250Y1554040D01*
X5870040D01*
X6119500Y1803500D01*
G01X3641000Y936000D02*
Y981000D01*
X4212020Y1552020D01*
X5467510D01*
X5519550Y1604060D01*
X5791060D01*
X5992500Y1805500D01*
G01X3641000Y7135000D02*
Y7090000D01*
X4327020Y6403980D01*
X5319790D01*
X5374790Y6348980D01*
X5574020D01*
X5738500Y6184500D01*
G01X3895000Y7135000D02*
Y7090000D01*
X4531020Y6453980D01*
X5340510D01*
X5395510Y6398980D01*
X5632860D01*
X5848340Y6183500D01*
X5865500D01*
G01X4149000Y7135000D02*
Y7090000D01*
X4735020Y6503980D01*
X5361230D01*
X5416230Y6448980D01*
X5653580D01*
X5853580Y6248980D01*
X5941020D01*
X5992500Y6197500D01*
G01X3641000Y7765000D02*
Y7606000D01*
G01X3895000Y7765000D02*
Y7599000D01*
G01X4657000Y306000D02*
Y481000D01*
G01X4403000Y306000D02*
Y488000D01*
G01X4149000Y306000D02*
Y476000D01*
G01X4911000Y306000D02*
X4814040D01*
X4798000Y322040D01*
Y383000D01*
G01X4657000Y936000D02*
Y981000D01*
X5028020Y1352020D01*
X5550390D01*
X5602370Y1404000D01*
X6008960D01*
X6351980Y1747020D01*
X6527630D01*
X6599610Y1819000D01*
X6625000D01*
G01X4403000Y936000D02*
Y981000D01*
X4824020Y1402020D01*
X5529670D01*
X5581670Y1454020D01*
X5980630D01*
X6339110Y1812500D01*
X6500500D01*
G01X4657000Y7135000D02*
Y7090000D01*
X5143020Y6603980D01*
X5402670D01*
X5457650Y6549000D01*
X5695000D01*
X5895020Y6348980D01*
X6061630D01*
X6213110Y6197500D01*
X6246500D01*
G01X4403000Y7135000D02*
Y7090000D01*
X4939020Y6553980D01*
X5381950D01*
X5436930Y6499000D01*
X5674280D01*
X5874300Y6298980D01*
X6019020D01*
X6119500Y6198500D01*
G01X4403000Y7765000D02*
Y7601000D01*
G01X4657000Y7765000D02*
Y7605000D01*
G01X4149000Y7765000D02*
Y7602000D01*
G01X5165000Y306000D02*
X5077300D01*
X5037000Y346300D01*
G01X5419000Y306000D02*
Y441480D01*
X5563520Y586000D01*
X6440000D01*
G01X5419000Y936000D02*
Y981000D01*
X5683000Y1245000D01*
X6062120D01*
X6414140Y1597020D01*
X6589790D01*
X6646290Y1653520D01*
X6786360D01*
X6876860Y1744020D01*
X6941020D01*
X7008500Y1811500D01*
G01X4911000Y936000D02*
Y981000D01*
X5232020Y1302020D01*
X5571110D01*
X5623070Y1353980D01*
X6029660D01*
X6372700Y1697020D01*
X6548350D01*
X6604850Y1753520D01*
X6706520D01*
X6754500Y1801500D01*
G01X5165000Y936000D02*
Y981000D01*
X5436020Y1252020D01*
X5591830D01*
X5643790Y1303980D01*
X6050380D01*
X6393420Y1647020D01*
X6569070D01*
X6625570Y1703520D01*
X6765630D01*
X6871610Y1809500D01*
X6881500D01*
G01X5419000Y7135000D02*
Y7090000D01*
X6010020Y6498980D01*
X6123790D01*
X6259790Y6362980D01*
X6605020D01*
X6754500Y6213500D01*
G01X4911000Y7135000D02*
Y7090000D01*
X5347020Y6653980D01*
X5448580D01*
X5503560Y6599000D01*
X5715720D01*
X5915740Y6398980D01*
X6082350D01*
X6218350Y6262980D01*
X6439020D01*
X6500500Y6201500D01*
G01X5165000Y7135000D02*
Y7090000D01*
X5600000Y6655000D01*
X5730440D01*
X5936460Y6448980D01*
X6103070D01*
X6239070Y6312980D01*
X6529020D01*
X6627500Y6214500D01*
G01X5419000Y7765000D02*
Y7602000D01*
G01X4911000Y7765000D02*
Y7606000D01*
G01X5673000Y7765000D02*
X5582520D01*
X5560000Y7742480D01*
Y7635000D01*
G01X5165000Y7765000D02*
Y7598000D01*
G01X5927000Y306000D02*
Y441480D01*
X5931520Y446000D01*
X6541000D01*
X6696000Y601000D01*
G01X6181000Y306000D02*
X6271180D01*
X6284180Y319000D01*
G01X5673000Y306000D02*
X5771000D01*
G01X5927000Y936000D02*
X6488020Y1497020D01*
X6631230D01*
X6687730Y1553520D01*
X6827800D01*
X6918300Y1644020D01*
X7106020D01*
X7262500Y1800500D01*
G01X6181000Y936000D02*
X6736000Y1491000D01*
X6836000D01*
X6922830Y1577830D01*
X7160830D01*
X7389500Y1806500D01*
G01X5673000Y936000D02*
Y981000D01*
X5887000Y1195000D01*
X6082840D01*
X6434860Y1547020D01*
X6610510D01*
X6667010Y1603520D01*
X6807080D01*
X6897580Y1694020D01*
X7023020D01*
X7135500Y1806500D01*
G01X5673000Y7135000D02*
Y7090000D01*
X6350020Y6412980D01*
X6679020D01*
X6881500Y6210500D01*
G01X5927000Y7135000D02*
Y7090000D01*
X6554020Y6462980D01*
X6750020D01*
X7008500Y6204500D01*
G01X6181000Y7135000D02*
X7020360Y6295640D01*
X7059360D01*
X7135500Y6219500D01*
G01X5927000Y7765000D02*
Y7629520D01*
X5982520Y7574000D01*
X6298000D01*
G01X6181000Y7765000D02*
X6220500D01*
X6437500Y7548000D01*
X6446000D01*
G01X6943000Y306000D02*
X7049000D01*
G01X6689000D02*
X6728500D01*
X6868500Y446000D01*
X6940000D01*
X7074000Y580000D01*
G01X6435000Y306000D02*
X6474500D01*
X6614500Y446000D01*
X6781000D01*
X6904000Y569000D01*
G01X6689000Y936000D02*
X7496020Y1743020D01*
X7543630D01*
X7613110Y1812500D01*
X7770500D01*
G01X6943000Y936000D02*
Y981000D01*
X7690720Y1728720D01*
X7804720D01*
X7897500Y1821500D01*
G01X6435000Y936000D02*
Y981000D01*
X6981830Y1527830D01*
X7203440D01*
X7484110Y1808500D01*
X7516500D01*
G01X6435000Y7135000D02*
Y7035000D01*
X7262500Y6207500D01*
G01X6943000Y7135000D02*
Y6755000D01*
X7516500Y6181500D01*
G01X6689000Y7135000D02*
Y6890000D01*
X7389500Y6189500D01*
G01X6435000Y7765000D02*
X6525480D01*
X6551590Y7738890D01*
Y7640410D01*
G01X6689000Y7765000D02*
Y7596000D01*
X6711000Y7574000D01*
G01X6943000Y7765000D02*
Y7571000D01*
G01X7197000Y306000D02*
Y351000D01*
X7298000Y452000D01*
G01X7451000Y306000D02*
Y457960D01*
X7456040Y463000D01*
X7517000D01*
G01X7705000Y306000D02*
Y492000D01*
G01X7451000Y936000D02*
Y1109000D01*
X8151500Y1809500D01*
G01X7197000Y936000D02*
Y984000D01*
X8024500Y1811500D01*
G01X7705000Y936000D02*
Y1249000D01*
X8278500Y1822500D01*
G01X7923000Y2852000D02*
X8007490Y2936490D01*
X11172510D01*
X11263000Y2846000D01*
X11308000D01*
G01X7197000Y7135000D02*
Y6765000D01*
X7770500Y6191500D01*
G01X7705000Y7135000D02*
Y6497000D01*
X8024500Y6177500D01*
G01X7451000Y7135000D02*
Y6633000D01*
X7897500Y6186500D01*
G01X7705000Y7765000D02*
Y7579000D01*
G01X7197000Y7765000D02*
Y7587000D01*
G01X7451000Y7765000D02*
Y7584000D01*
G01X7959000Y306000D02*
Y483000D01*
G01X8467000Y306000D02*
Y497000D01*
G01X8213000Y306000D02*
Y502000D01*
G01X7959000Y936000D02*
Y1390000D01*
X8405500Y1836500D01*
G01X8213000Y936000D02*
Y1495000D01*
X8532500Y1814500D01*
G01X8467000Y936000D02*
Y1644000D01*
X8659500Y1836500D01*
G01X7959000Y7135000D02*
Y6383000D01*
X8151500Y6190500D01*
G01X8467000Y7135000D02*
Y6251000D01*
X8405500Y6189500D01*
G01X8721000Y7135000D02*
Y7090000D01*
X8532500Y6901500D01*
Y6188500D01*
G01X8213000Y7135000D02*
Y6265000D01*
X8278500Y6199500D01*
G01X8975000Y7135000D02*
Y7090000D01*
X8659500Y6774500D01*
Y6179500D01*
G01X7959000Y7765000D02*
Y7591000D01*
G01X8213000Y7765000D02*
Y7585000D01*
G01X8467000Y7765000D02*
Y7577000D01*
G01X8721000Y306000D02*
Y485000D01*
G01X8975000Y306000D02*
Y493000D01*
G01X9229000Y306000D02*
Y478000D01*
G01X8721000Y936000D02*
Y1766000D01*
X8786500Y1831500D01*
G01X9229000Y936000D02*
Y1755000D01*
X9167500Y1816500D01*
G01X9483000Y936000D02*
Y981000D01*
X9294500Y1169500D01*
Y1829500D01*
G01X8975000Y936000D02*
Y1747000D01*
X9040500Y1812500D01*
G01X9737000Y936000D02*
Y981000D01*
X9421500Y1296500D01*
Y1814500D01*
G01X9229000Y7135000D02*
Y7090000D01*
X8786500Y6647500D01*
Y6173500D01*
G01X9737000Y7135000D02*
Y6766000D01*
X9167500Y6196500D01*
G01X9991000Y7135000D02*
Y6886000D01*
X9294500Y6189500D01*
G01X9483000Y7135000D02*
Y7090000D01*
X9040500Y6647500D01*
Y6185500D01*
G01X10245000Y7135000D02*
Y7020000D01*
X9421500Y6196500D01*
G01X8721000Y7765000D02*
Y7587000D01*
G01X8975000Y7765000D02*
Y7563000D01*
G01X9229000Y7765000D02*
Y7566000D01*
G01X9483000Y306000D02*
Y475000D01*
G01X9991000Y306000D02*
Y470000D01*
G01X9737000Y306000D02*
Y466000D01*
G01X9991000Y936000D02*
Y981000D01*
X9548500Y1423500D01*
Y1810500D01*
G01X10245000Y936000D02*
Y981000D01*
X9675500Y1550500D01*
Y1807500D01*
G01X11007000Y936000D02*
Y981000D01*
X10182500Y1805500D01*
X10056500D01*
G01X10499000Y936000D02*
Y981000D01*
X9802500Y1677500D01*
Y1817500D01*
G01X10753000Y936000D02*
X9929500Y1759500D01*
Y1819500D01*
G01X11007000Y7135000D02*
Y7090000D01*
X10756000Y6839000D01*
X10480120D01*
X10393120Y6752000D01*
X10357000D01*
X9802500Y6197500D01*
G01X10499000Y7135000D02*
X9558500Y6194500D01*
X9548500D01*
G01X11515000Y7135000D02*
Y7090000D01*
X11164000Y6739000D01*
X10590000D01*
X10056500Y6205500D01*
G01X11261000Y7135000D02*
Y7090000D01*
X10960000Y6789000D01*
X10515000D01*
X9929500Y6203500D01*
G01X10753000Y7135000D02*
Y7090000D01*
X10552000Y6889000D01*
X10459400D01*
X10402400Y6832000D01*
X10316000D01*
X9675500Y6191500D01*
G01X9737000Y7765000D02*
Y7578000D01*
G01X9991000Y7765000D02*
X9965000Y7739000D01*
Y7576000D01*
G01X9483000Y7765000D02*
Y7573000D01*
G01X10753000Y306000D02*
Y476000D01*
G01X10245000Y306000D02*
Y481000D01*
G01X10499000Y306000D02*
Y483000D01*
G01X11261000Y936000D02*
Y981000D01*
X11057000Y1185000D01*
X10935000D01*
X10310500Y1809500D01*
G01X12322000Y936000D02*
Y981000D01*
X11911500Y1391500D01*
X11241500D01*
X10818500Y1814500D01*
G01X11515000Y936000D02*
Y981000D01*
X11261000Y1235000D01*
X11010000D01*
X10437500Y1807500D01*
G01X12068000Y936000D02*
Y981000D01*
X11714000Y1335000D01*
X11162000D01*
X10691500Y1805500D01*
G01X11814000Y936000D02*
Y981000D01*
X11510000Y1285000D01*
X11083000D01*
X10564500Y1803500D01*
G01X12576000Y7134000D02*
Y7089000D01*
X12012500Y6525500D01*
X11009500D01*
X10691500Y6207500D01*
G01X12830000Y7134000D02*
Y7089000D01*
X12216500Y6475500D01*
X11079500D01*
X10818500Y6214500D01*
G01X11814000Y7134000D02*
Y7089000D01*
X11414000Y6689000D01*
X10802000D01*
X10310500Y6197500D01*
G01X12068000Y7134000D02*
Y7089000D01*
X11618000Y6639000D01*
X10876000D01*
X10437500Y6200500D01*
G01X12322000Y7134000D02*
Y7089000D01*
X11815000Y6582000D01*
X10940000D01*
X10564500Y6206500D01*
G01X10753000Y7765000D02*
Y7578000D01*
G01X10245000Y7765000D02*
Y7587000D01*
G01X10499000Y7765000D02*
Y7574000D01*
G01X11007000Y306000D02*
Y472000D01*
G01X11261000Y306000D02*
Y475000D01*
G01X11515000Y306000D02*
Y472000D01*
G01X12830000Y936000D02*
Y981000D01*
X11991500Y1819500D01*
X11072500D01*
G01X12576000Y936000D02*
Y981000D01*
X12105000Y1452000D01*
X11307000D01*
X10945500Y1813500D01*
G01X13084000Y7134000D02*
Y7089000D01*
X12407000Y6412000D01*
X11142000D01*
X10945500Y6215500D01*
G01X13338000Y7134000D02*
Y6998520D01*
X12682980Y6343500D01*
X11205500D01*
X11072500Y6210500D01*
G01X11515000Y7765000D02*
Y7586000D01*
G01X11261000Y7765000D02*
Y7597000D01*
G01X11007000Y7765000D02*
Y7588000D01*
G01X12068000Y306000D02*
Y479000D01*
G01X11814000Y306000D02*
Y474000D01*
G01X12322000Y306000D02*
Y481000D01*
G01X11814000Y7764000D02*
Y7585000D01*
G01X12068000Y7764000D02*
Y7573000D01*
G01X12322000Y7764000D02*
Y7592000D01*
G01X12830000Y306000D02*
Y493000D01*
G01X12576000Y306000D02*
Y471000D01*
G01X12830000Y7764000D02*
Y7595000D01*
G01X12576000Y7764000D02*
Y7589000D01*
G01X13084000Y7764000D02*
Y7593000D01*
G01X13338000Y7764000D02*
Y7581000D01*
G54D19*
G01X3334000Y1840000D02*
X3593000Y2099000D01*
X6116000D01*
G01X3080000Y2348000D02*
X3202500Y2225500D01*
X3384750D01*
X3613250Y2454000D01*
X5720000D01*
G01X3080000Y2602000D02*
X3202500Y2479500D01*
X3384750D01*
X3613250Y2708000D01*
X5682000D01*
G01X3080000Y2094000D02*
X3202500Y1971500D01*
X3384750D01*
X3614250Y2201000D01*
X5777000D01*
G01X3080000Y3110000D02*
X3202500Y2987500D01*
X3384750D01*
X3601250Y3204000D01*
X5618000D01*
G01X3080000Y2856000D02*
X3202500Y2733500D01*
X3384750D01*
X3609250Y2958000D01*
X5648000D01*
G01X3080000Y3364000D02*
X3202500Y3241500D01*
X3384750D01*
X3630250Y3487000D01*
X5588000D01*
G01X3080000Y4126000D02*
X3202500Y4003500D01*
X3384750D01*
X3595250Y4214000D01*
X5497000D01*
G01X3080000Y3872000D02*
X3202500Y3749500D01*
X3384750D01*
X3610250Y3975000D01*
X5445000D01*
G01X3080000Y3618000D02*
X3202500Y3495500D01*
X3384750D01*
X3615250Y3726000D01*
X5512000D01*
G01X3080000Y4380000D02*
X3202500Y4257500D01*
X3384750D01*
X3610250Y4483000D01*
X5489000D01*
G01X3080000Y4888000D02*
X3202500Y4765500D01*
X3384750D01*
X3597250Y4978000D01*
X5478000D01*
G01X3080000Y4634000D02*
X3202500Y4511500D01*
X3384750D01*
X3598250Y4725000D01*
X5493000D01*
G01X3080000Y5142000D02*
X3202500Y5019500D01*
X3384750D01*
X3620250Y5255000D01*
X5467000D01*
G01X3080000Y5396000D02*
X3202500Y5273500D01*
X3384750D01*
X3608250Y5497000D01*
X5459000D01*
G01X3080000Y5650000D02*
X3202500Y5527500D01*
X3384750D01*
X3619250Y5762000D01*
X5440000D01*
G01X3080000Y5904000D02*
X3202500Y5781500D01*
X3384750D01*
X3599250Y5996000D01*
X5444000D01*
M02*
