G04 ================== begin FILE IDENTIFICATION RECORD ==================*
G04 Layout Name:  D:/Spira Heaven/0-My Works/Srtp/PCB/Expand/PCB/Expand.brd*
G04 Film Name:    DRILL*
G04 File Format:  Gerber RS274X*
G04 File Origin:  Cadence Allegro 16.6-S003*
G04 Origin Date:  Thu Jan 16 10:16:26 2014*
G04 *
G04 Layer:  MANUFACTURING/PHOTOPLOT_OUTLINE*
G04 Layer:  MANUFACTURING/NCDRILL_LEGEND*
G04 Layer:  MANUFACTURING/NCDRILL_FIGURE*
G04 Layer:  MANUFACTURING/NCLEGEND-1-2*
G04 Layer:  BOARD GEOMETRY/OUTLINE*
G04 *
G04 Offset:    (0.0000 0.0000)*
G04 Mirror:    No*
G04 Mode:      Positive*
G04 Rotation:  0*
G04 FullContactRelief:  No*
G04 UndefLineWidth:     0.2000*
G04 ================== end FILE IDENTIFICATION RECORD ====================*
%FSLAX25Y25*MOMM*%
%IR0*IPPOS*OFA0.00000B0.00000*MIA0B0*SFA1.00000B1.00000*%
%AMMACRO12*
1,1,.2,.65,0.0*
20,1,.2,.65,0.0,.640125,-.112871,0.0*
1,1,.2,.640125,-.112871*
20,1,.2,.640125,-.112871,.6108,-.222313,0.0*
1,1,.2,.6108,-.222313*
20,1,.2,.6108,-.222313,.562917,-.325,0.0*
1,1,.2,.562917,-.325*
20,1,.2,.562917,-.325,.497929,-.417812,0.0*
1,1,.2,.497929,-.417812*
20,1,.2,.497929,-.417812,.417812,-.497929,0.0*
1,1,.2,.417812,-.497929*
20,1,.2,.417812,-.497929,.325,-.562917,0.0*
1,1,.2,.325,-.562917*
20,1,.2,.325,-.562917,.222313,-.6108,0.0*
1,1,.2,.222313,-.6108*
20,1,.2,.222313,-.6108,.112871,-.640125,0.0*
1,1,.2,.112871,-.640125*
20,1,.2,.112871,-.640125,0.0,-.65,0.0*
1,1,.2,0.0,-.65*
20,1,.2,0.0,-.65,-.112871,-.640125,0.0*
1,1,.2,-.112871,-.640125*
20,1,.2,-.112871,-.640125,-.222313,-.6108,0.0*
1,1,.2,-.222313,-.6108*
20,1,.2,-.222313,-.6108,-.325,-.562917,0.0*
1,1,.2,-.325,-.562917*
20,1,.2,-.325,-.562917,-.417812,-.497929,0.0*
1,1,.2,-.417812,-.497929*
20,1,.2,-.417812,-.497929,-.497929,-.417812,0.0*
1,1,.2,-.497929,-.417812*
20,1,.2,-.497929,-.417812,-.562917,-.325,0.0*
1,1,.2,-.562917,-.325*
20,1,.2,-.562917,-.325,-.6108,-.222313,0.0*
1,1,.2,-.6108,-.222313*
20,1,.2,-.6108,-.222313,-.640125,-.112871,0.0*
1,1,.2,-.640125,-.112871*
20,1,.2,-.640125,-.112871,-.65,0.0,0.0*
1,1,.2,-.65,0.0*
20,1,.2,-.65,0.0,-.640125,.112871,0.0*
1,1,.2,-.640125,.112871*
20,1,.2,-.640125,.112871,-.6108,.222313,0.0*
1,1,.2,-.6108,.222313*
20,1,.2,-.6108,.222313,-.562917,.325,0.0*
1,1,.2,-.562917,.325*
20,1,.2,-.562917,.325,-.497929,.417812,0.0*
1,1,.2,-.497929,.417812*
20,1,.2,-.497929,.417812,-.417812,.497929,0.0*
1,1,.2,-.417812,.497929*
20,1,.2,-.417812,.497929,-.325,.562917,0.0*
1,1,.2,-.325,.562917*
20,1,.2,-.325,.562917,-.222313,.6108,0.0*
1,1,.2,-.222313,.6108*
20,1,.2,-.222313,.6108,-.112871,.640125,0.0*
1,1,.2,-.112871,.640125*
20,1,.2,-.112871,.640125,0.0,.65,0.0*
1,1,.2,0.0,.65*
20,1,.2,0.0,.65,.112871,.640125,0.0*
1,1,.2,.112871,.640125*
20,1,.2,.112871,.640125,.222313,.6108,0.0*
1,1,.2,.222313,.6108*
20,1,.2,.222313,.6108,.325,.562917,0.0*
1,1,.2,.325,.562917*
20,1,.2,.325,.562917,.417812,.497929,0.0*
1,1,.2,.417812,.497929*
20,1,.2,.417812,.497929,.497929,.417812,0.0*
1,1,.2,.497929,.417812*
20,1,.2,.497929,.417812,.562917,.325,0.0*
1,1,.2,.562917,.325*
20,1,.2,.562917,.325,.6108,.222313,0.0*
1,1,.2,.6108,.222313*
20,1,.2,.6108,.222313,.640125,.112871,0.0*
1,1,.2,.640125,.112871*
20,1,.2,.640125,.112871,.65,0.0,0.0*
1,1,.2,.65,0.0*
%
%ADD12MACRO12*%
%AMMACRO13*
1,1,.2,.7,0.0*
20,1,.2,.7,0.0,.689365,-.121554,0.0*
1,1,.2,.689365,-.121554*
20,1,.2,.689365,-.121554,.657785,-.239414,0.0*
1,1,.2,.657785,-.239414*
20,1,.2,.657785,-.239414,.606218,-.35,0.0*
1,1,.2,.606218,-.35*
20,1,.2,.606218,-.35,.536231,-.449951,0.0*
1,1,.2,.536231,-.449951*
20,1,.2,.536231,-.449951,.449951,-.536231,0.0*
1,1,.2,.449951,-.536231*
20,1,.2,.449951,-.536231,.35,-.606218,0.0*
1,1,.2,.35,-.606218*
20,1,.2,.35,-.606218,.239414,-.657785,0.0*
1,1,.2,.239414,-.657785*
20,1,.2,.239414,-.657785,.121554,-.689365,0.0*
1,1,.2,.121554,-.689365*
20,1,.2,.121554,-.689365,0.0,-.7,0.0*
1,1,.2,0.0,-.7*
20,1,.2,0.0,-.7,-.121554,-.689365,0.0*
1,1,.2,-.121554,-.689365*
20,1,.2,-.121554,-.689365,-.239414,-.657785,0.0*
1,1,.2,-.239414,-.657785*
20,1,.2,-.239414,-.657785,-.35,-.606218,0.0*
1,1,.2,-.35,-.606218*
20,1,.2,-.35,-.606218,-.449951,-.536231,0.0*
1,1,.2,-.449951,-.536231*
20,1,.2,-.449951,-.536231,-.536231,-.449951,0.0*
1,1,.2,-.536231,-.449951*
20,1,.2,-.536231,-.449951,-.606218,-.35,0.0*
1,1,.2,-.606218,-.35*
20,1,.2,-.606218,-.35,-.657785,-.239414,0.0*
1,1,.2,-.657785,-.239414*
20,1,.2,-.657785,-.239414,-.689365,-.121554,0.0*
1,1,.2,-.689365,-.121554*
20,1,.2,-.689365,-.121554,-.7,0.0,0.0*
1,1,.2,-.7,0.0*
20,1,.2,-.7,0.0,-.689365,.121554,0.0*
1,1,.2,-.689365,.121554*
20,1,.2,-.689365,.121554,-.657785,.239414,0.0*
1,1,.2,-.657785,.239414*
20,1,.2,-.657785,.239414,-.606218,.35,0.0*
1,1,.2,-.606218,.35*
20,1,.2,-.606218,.35,-.536231,.449951,0.0*
1,1,.2,-.536231,.449951*
20,1,.2,-.536231,.449951,-.449951,.536231,0.0*
1,1,.2,-.449951,.536231*
20,1,.2,-.449951,.536231,-.35,.606218,0.0*
1,1,.2,-.35,.606218*
20,1,.2,-.35,.606218,-.239414,.657785,0.0*
1,1,.2,-.239414,.657785*
20,1,.2,-.239414,.657785,-.121554,.689365,0.0*
1,1,.2,-.121554,.689365*
20,1,.2,-.121554,.689365,0.0,.7,0.0*
1,1,.2,0.0,.7*
20,1,.2,0.0,.7,.121554,.689365,0.0*
1,1,.2,.121554,.689365*
20,1,.2,.121554,.689365,.239414,.657785,0.0*
1,1,.2,.239414,.657785*
20,1,.2,.239414,.657785,.35,.606218,0.0*
1,1,.2,.35,.606218*
20,1,.2,.35,.606218,.449951,.536231,0.0*
1,1,.2,.449951,.536231*
20,1,.2,.449951,.536231,.536231,.449951,0.0*
1,1,.2,.536231,.449951*
20,1,.2,.536231,.449951,.606218,.35,0.0*
1,1,.2,.606218,.35*
20,1,.2,.606218,.35,.657785,.239414,0.0*
1,1,.2,.657785,.239414*
20,1,.2,.657785,.239414,.689365,.121554,0.0*
1,1,.2,.689365,.121554*
20,1,.2,.689365,.121554,.7,0.0,0.0*
1,1,.2,.7,0.0*
%
%ADD13MACRO13*%
%AMMACRO10*
1,1,.2,1.6,0.0*
20,1,.2,1.6,0.0,1.575692,-.277837,0.0*
1,1,.2,1.575692,-.277837*
20,1,.2,1.575692,-.277837,1.503508,-.547232,0.0*
1,1,.2,1.503508,-.547232*
20,1,.2,1.503508,-.547232,1.385641,-.8,0.0*
1,1,.2,1.385641,-.8*
20,1,.2,1.385641,-.8,1.225671,-1.02846,0.0*
1,1,.2,1.225671,-1.02846*
20,1,.2,1.225671,-1.02846,1.02846,-1.225671,0.0*
1,1,.2,1.02846,-1.225671*
20,1,.2,1.02846,-1.225671,.8,-1.385641,0.0*
1,1,.2,.8,-1.385641*
20,1,.2,.8,-1.385641,.547232,-1.503508,0.0*
1,1,.2,.547232,-1.503508*
20,1,.2,.547232,-1.503508,.277837,-1.575692,0.0*
1,1,.2,.277837,-1.575692*
20,1,.2,.277837,-1.575692,0.0,-1.6,0.0*
1,1,.2,0.0,-1.6*
20,1,.2,0.0,-1.6,-.277837,-1.575692,0.0*
1,1,.2,-.277837,-1.575692*
20,1,.2,-.277837,-1.575692,-.547232,-1.503508,0.0*
1,1,.2,-.547232,-1.503508*
20,1,.2,-.547232,-1.503508,-.8,-1.385641,0.0*
1,1,.2,-.8,-1.385641*
20,1,.2,-.8,-1.385641,-1.02846,-1.225671,0.0*
1,1,.2,-1.02846,-1.225671*
20,1,.2,-1.02846,-1.225671,-1.225671,-1.02846,0.0*
1,1,.2,-1.225671,-1.02846*
20,1,.2,-1.225671,-1.02846,-1.385641,-.8,0.0*
1,1,.2,-1.385641,-.8*
20,1,.2,-1.385641,-.8,-1.503508,-.547232,0.0*
1,1,.2,-1.503508,-.547232*
20,1,.2,-1.503508,-.547232,-1.575692,-.277837,0.0*
1,1,.2,-1.575692,-.277837*
20,1,.2,-1.575692,-.277837,-1.6,0.0,0.0*
1,1,.2,-1.6,0.0*
20,1,.2,-1.6,0.0,-1.575692,.277837,0.0*
1,1,.2,-1.575692,.277837*
20,1,.2,-1.575692,.277837,-1.503508,.547232,0.0*
1,1,.2,-1.503508,.547232*
20,1,.2,-1.503508,.547232,-1.385641,.8,0.0*
1,1,.2,-1.385641,.8*
20,1,.2,-1.385641,.8,-1.225671,1.02846,0.0*
1,1,.2,-1.225671,1.02846*
20,1,.2,-1.225671,1.02846,-1.02846,1.225671,0.0*
1,1,.2,-1.02846,1.225671*
20,1,.2,-1.02846,1.225671,-.8,1.385641,0.0*
1,1,.2,-.8,1.385641*
20,1,.2,-.8,1.385641,-.547232,1.503508,0.0*
1,1,.2,-.547232,1.503508*
20,1,.2,-.547232,1.503508,-.277837,1.575692,0.0*
1,1,.2,-.277837,1.575692*
20,1,.2,-.277837,1.575692,0.0,1.6,0.0*
1,1,.2,0.0,1.6*
20,1,.2,0.0,1.6,.277837,1.575692,0.0*
1,1,.2,.277837,1.575692*
20,1,.2,.277837,1.575692,.547232,1.503508,0.0*
1,1,.2,.547232,1.503508*
20,1,.2,.547232,1.503508,.8,1.385641,0.0*
1,1,.2,.8,1.385641*
20,1,.2,.8,1.385641,1.02846,1.225671,0.0*
1,1,.2,1.02846,1.225671*
20,1,.2,1.02846,1.225671,1.225671,1.02846,0.0*
1,1,.2,1.225671,1.02846*
20,1,.2,1.225671,1.02846,1.385641,.8,0.0*
1,1,.2,1.385641,.8*
20,1,.2,1.385641,.8,1.503508,.547232,0.0*
1,1,.2,1.503508,.547232*
20,1,.2,1.503508,.547232,1.575692,.277837,0.0*
1,1,.2,1.575692,.277837*
20,1,.2,1.575692,.277837,1.6,0.0,0.0*
1,1,.2,1.6,0.0*
%
%ADD10MACRO10*%
%AMMACRO11*
1,1,.2,.15,0.0*
20,1,.2,.15,0.0,.147721,-.026047,0.0*
1,1,.2,.147721,-.026047*
20,1,.2,.147721,-.026047,.140954,-.051303,0.0*
1,1,.2,.140954,-.051303*
20,1,.2,.140954,-.051303,.129904,-.075,0.0*
1,1,.2,.129904,-.075*
20,1,.2,.129904,-.075,.114907,-.096418,0.0*
1,1,.2,.114907,-.096418*
20,1,.2,.114907,-.096418,.096418,-.114907,0.0*
1,1,.2,.096418,-.114907*
20,1,.2,.096418,-.114907,.075,-.129904,0.0*
1,1,.2,.075,-.129904*
20,1,.2,.075,-.129904,.051303,-.140954,0.0*
1,1,.2,.051303,-.140954*
20,1,.2,.051303,-.140954,.026047,-.147721,0.0*
1,1,.2,.026047,-.147721*
20,1,.2,.026047,-.147721,0.0,-.15,0.0*
1,1,.2,0.0,-.15*
20,1,.2,0.0,-.15,-.026047,-.147721,0.0*
1,1,.2,-.026047,-.147721*
20,1,.2,-.026047,-.147721,-.051303,-.140954,0.0*
1,1,.2,-.051303,-.140954*
20,1,.2,-.051303,-.140954,-.075,-.129904,0.0*
1,1,.2,-.075,-.129904*
20,1,.2,-.075,-.129904,-.096418,-.114907,0.0*
1,1,.2,-.096418,-.114907*
20,1,.2,-.096418,-.114907,-.114907,-.096418,0.0*
1,1,.2,-.114907,-.096418*
20,1,.2,-.114907,-.096418,-.129904,-.075,0.0*
1,1,.2,-.129904,-.075*
20,1,.2,-.129904,-.075,-.140954,-.051303,0.0*
1,1,.2,-.140954,-.051303*
20,1,.2,-.140954,-.051303,-.147721,-.026047,0.0*
1,1,.2,-.147721,-.026047*
20,1,.2,-.147721,-.026047,-.15,0.0,0.0*
1,1,.2,-.15,0.0*
20,1,.2,-.15,0.0,-.147721,.026047,0.0*
1,1,.2,-.147721,.026047*
20,1,.2,-.147721,.026047,-.140954,.051303,0.0*
1,1,.2,-.140954,.051303*
20,1,.2,-.140954,.051303,-.129904,.075,0.0*
1,1,.2,-.129904,.075*
20,1,.2,-.129904,.075,-.114907,.096418,0.0*
1,1,.2,-.114907,.096418*
20,1,.2,-.114907,.096418,-.096418,.114907,0.0*
1,1,.2,-.096418,.114907*
20,1,.2,-.096418,.114907,-.075,.129904,0.0*
1,1,.2,-.075,.129904*
20,1,.2,-.075,.129904,-.051303,.140954,0.0*
1,1,.2,-.051303,.140954*
20,1,.2,-.051303,.140954,-.026047,.147721,0.0*
1,1,.2,-.026047,.147721*
20,1,.2,-.026047,.147721,0.0,.15,0.0*
1,1,.2,0.0,.15*
20,1,.2,0.0,.15,.026047,.147721,0.0*
1,1,.2,.026047,.147721*
20,1,.2,.026047,.147721,.051303,.140954,0.0*
1,1,.2,.051303,.140954*
20,1,.2,.051303,.140954,.075,.129904,0.0*
1,1,.2,.075,.129904*
20,1,.2,.075,.129904,.096418,.114907,0.0*
1,1,.2,.096418,.114907*
20,1,.2,.096418,.114907,.114907,.096418,0.0*
1,1,.2,.114907,.096418*
20,1,.2,.114907,.096418,.129904,.075,0.0*
1,1,.2,.129904,.075*
20,1,.2,.129904,.075,.140954,.051303,0.0*
1,1,.2,.140954,.051303*
20,1,.2,.140954,.051303,.147721,.026047,0.0*
1,1,.2,.147721,.026047*
20,1,.2,.147721,.026047,.15,0.0,0.0*
1,1,.2,.15,0.0*
%
%ADD11MACRO11*%
%AMMACRO15*
1,1,.2,1.75,0.0*
20,1,.2,1.75,0.0,1.723414,-.303884,0.0*
1,1,.2,1.723414,-.303884*
20,1,.2,1.723414,-.303884,1.644462,-.598535,0.0*
1,1,.2,1.644462,-.598535*
20,1,.2,1.644462,-.598535,1.515544,-.875,0.0*
1,1,.2,1.515544,-.875*
20,1,.2,1.515544,-.875,1.340578,-1.124878,0.0*
1,1,.2,1.340578,-1.124878*
20,1,.2,1.340578,-1.124878,1.124878,-1.340578,0.0*
1,1,.2,1.124878,-1.340578*
20,1,.2,1.124878,-1.340578,.875,-1.515544,0.0*
1,1,.2,.875,-1.515544*
20,1,.2,.875,-1.515544,.598535,-1.644462,0.0*
1,1,.2,.598535,-1.644462*
20,1,.2,.598535,-1.644462,.303884,-1.723414,0.0*
1,1,.2,.303884,-1.723414*
20,1,.2,.303884,-1.723414,0.0,-1.75,0.0*
1,1,.2,0.0,-1.75*
20,1,.2,0.0,-1.75,-.303884,-1.723414,0.0*
1,1,.2,-.303884,-1.723414*
20,1,.2,-.303884,-1.723414,-.598535,-1.644462,0.0*
1,1,.2,-.598535,-1.644462*
20,1,.2,-.598535,-1.644462,-.875,-1.515544,0.0*
1,1,.2,-.875,-1.515544*
20,1,.2,-.875,-1.515544,-1.124878,-1.340578,0.0*
1,1,.2,-1.124878,-1.340578*
20,1,.2,-1.124878,-1.340578,-1.340578,-1.124878,0.0*
1,1,.2,-1.340578,-1.124878*
20,1,.2,-1.340578,-1.124878,-1.515544,-.875,0.0*
1,1,.2,-1.515544,-.875*
20,1,.2,-1.515544,-.875,-1.644462,-.598535,0.0*
1,1,.2,-1.644462,-.598535*
20,1,.2,-1.644462,-.598535,-1.723414,-.303884,0.0*
1,1,.2,-1.723414,-.303884*
20,1,.2,-1.723414,-.303884,-1.75,0.0,0.0*
1,1,.2,-1.75,0.0*
20,1,.2,-1.75,0.0,-1.723414,.303884,0.0*
1,1,.2,-1.723414,.303884*
20,1,.2,-1.723414,.303884,-1.644462,.598535,0.0*
1,1,.2,-1.644462,.598535*
20,1,.2,-1.644462,.598535,-1.515544,.875,0.0*
1,1,.2,-1.515544,.875*
20,1,.2,-1.515544,.875,-1.340578,1.124878,0.0*
1,1,.2,-1.340578,1.124878*
20,1,.2,-1.340578,1.124878,-1.124878,1.340578,0.0*
1,1,.2,-1.124878,1.340578*
20,1,.2,-1.124878,1.340578,-.875,1.515544,0.0*
1,1,.2,-.875,1.515544*
20,1,.2,-.875,1.515544,-.598535,1.644462,0.0*
1,1,.2,-.598535,1.644462*
20,1,.2,-.598535,1.644462,-.303884,1.723414,0.0*
1,1,.2,-.303884,1.723414*
20,1,.2,-.303884,1.723414,0.0,1.75,0.0*
1,1,.2,0.0,1.75*
20,1,.2,0.0,1.75,.303884,1.723414,0.0*
1,1,.2,.303884,1.723414*
20,1,.2,.303884,1.723414,.598535,1.644462,0.0*
1,1,.2,.598535,1.644462*
20,1,.2,.598535,1.644462,.875,1.515544,0.0*
1,1,.2,.875,1.515544*
20,1,.2,.875,1.515544,1.124878,1.340578,0.0*
1,1,.2,1.124878,1.340578*
20,1,.2,1.124878,1.340578,1.340578,1.124878,0.0*
1,1,.2,1.340578,1.124878*
20,1,.2,1.340578,1.124878,1.515544,.875,0.0*
1,1,.2,1.515544,.875*
20,1,.2,1.515544,.875,1.644462,.598535,0.0*
1,1,.2,1.644462,.598535*
20,1,.2,1.644462,.598535,1.723414,.303884,0.0*
1,1,.2,1.723414,.303884*
20,1,.2,1.723414,.303884,1.75,0.0,0.0*
1,1,.2,1.75,0.0*
%
%ADD15MACRO15*%
%AMMACRO14*
1,1,.2,.4,0.0*
20,1,.2,.4,0.0,.393923,-.069459,0.0*
1,1,.2,.393923,-.069459*
20,1,.2,.393923,-.069459,.375877,-.136808,0.0*
1,1,.2,.375877,-.136808*
20,1,.2,.375877,-.136808,.34641,-.2,0.0*
1,1,.2,.34641,-.2*
20,1,.2,.34641,-.2,.306418,-.257115,0.0*
1,1,.2,.306418,-.257115*
20,1,.2,.306418,-.257115,.257115,-.306418,0.0*
1,1,.2,.257115,-.306418*
20,1,.2,.257115,-.306418,.2,-.34641,0.0*
1,1,.2,.2,-.34641*
20,1,.2,.2,-.34641,.136808,-.375877,0.0*
1,1,.2,.136808,-.375877*
20,1,.2,.136808,-.375877,.069459,-.393923,0.0*
1,1,.2,.069459,-.393923*
20,1,.2,.069459,-.393923,0.0,-.4,0.0*
1,1,.2,0.0,-.4*
20,1,.2,0.0,-.4,-.069459,-.393923,0.0*
1,1,.2,-.069459,-.393923*
20,1,.2,-.069459,-.393923,-.136808,-.375877,0.0*
1,1,.2,-.136808,-.375877*
20,1,.2,-.136808,-.375877,-.2,-.34641,0.0*
1,1,.2,-.2,-.34641*
20,1,.2,-.2,-.34641,-.257115,-.306418,0.0*
1,1,.2,-.257115,-.306418*
20,1,.2,-.257115,-.306418,-.306418,-.257115,0.0*
1,1,.2,-.306418,-.257115*
20,1,.2,-.306418,-.257115,-.34641,-.2,0.0*
1,1,.2,-.34641,-.2*
20,1,.2,-.34641,-.2,-.375877,-.136808,0.0*
1,1,.2,-.375877,-.136808*
20,1,.2,-.375877,-.136808,-.393923,-.069459,0.0*
1,1,.2,-.393923,-.069459*
20,1,.2,-.393923,-.069459,-.4,0.0,0.0*
1,1,.2,-.4,0.0*
20,1,.2,-.4,0.0,-.393923,.069459,0.0*
1,1,.2,-.393923,.069459*
20,1,.2,-.393923,.069459,-.375877,.136808,0.0*
1,1,.2,-.375877,.136808*
20,1,.2,-.375877,.136808,-.34641,.2,0.0*
1,1,.2,-.34641,.2*
20,1,.2,-.34641,.2,-.306418,.257115,0.0*
1,1,.2,-.306418,.257115*
20,1,.2,-.306418,.257115,-.257115,.306418,0.0*
1,1,.2,-.257115,.306418*
20,1,.2,-.257115,.306418,-.2,.34641,0.0*
1,1,.2,-.2,.34641*
20,1,.2,-.2,.34641,-.136808,.375877,0.0*
1,1,.2,-.136808,.375877*
20,1,.2,-.136808,.375877,-.069459,.393923,0.0*
1,1,.2,-.069459,.393923*
20,1,.2,-.069459,.393923,0.0,.4,0.0*
1,1,.2,0.0,.4*
20,1,.2,0.0,.4,.069459,.393923,0.0*
1,1,.2,.069459,.393923*
20,1,.2,.069459,.393923,.136808,.375877,0.0*
1,1,.2,.136808,.375877*
20,1,.2,.136808,.375877,.2,.34641,0.0*
1,1,.2,.2,.34641*
20,1,.2,.2,.34641,.257115,.306418,0.0*
1,1,.2,.257115,.306418*
20,1,.2,.257115,.306418,.306418,.257115,0.0*
1,1,.2,.306418,.257115*
20,1,.2,.306418,.257115,.34641,.2,0.0*
1,1,.2,.34641,.2*
20,1,.2,.34641,.2,.375877,.136808,0.0*
1,1,.2,.375877,.136808*
20,1,.2,.375877,.136808,.393923,.069459,0.0*
1,1,.2,.393923,.069459*
20,1,.2,.393923,.069459,.4,0.0,0.0*
1,1,.2,.4,0.0*
%
%ADD14MACRO14*%
%ADD16C,.2*%
G75*
%LPD*%
G75*
G54D10*
X1232000Y-139000D03*
Y4061000D03*
X1227000Y5924000D03*
Y8174000D03*
X2741000Y-274000D03*
Y8275000D03*
X14642000Y-273000D03*
X14644000Y8275000D03*
X18943730Y1539690D03*
G54D11*
X2371000Y520000D03*
X2602000Y489000D03*
X2617000Y7582000D03*
X3133000Y477000D03*
X3387000Y485000D03*
X2867000Y495000D03*
X3133000Y7593000D03*
X3387000Y7616000D03*
X2879000Y7605000D03*
X3895000Y484000D03*
X4149000Y476000D03*
X3641000Y484000D03*
Y7606000D03*
X4149000Y7602000D03*
X3895000Y7599000D03*
X4798000Y383000D03*
X4657000Y481000D03*
X4403000Y488000D03*
Y7601000D03*
X4657000Y7605000D03*
X5037000Y346300D03*
X5484500Y1820500D03*
X5611500Y1817500D03*
X5357500D03*
X5618000Y3204000D03*
X5648000Y2958000D03*
X5445000Y3975000D03*
X5512000Y3726000D03*
X5588000Y3487000D03*
X5497000Y4214000D03*
X5489000Y4483000D03*
X5493000Y4725000D03*
X5478000Y4978000D03*
X5467000Y5255000D03*
X5459000Y5497000D03*
X5440000Y5762000D03*
X5444000Y5996000D03*
X5230500Y6188500D03*
X5484500Y6194500D03*
X5611500Y6191500D03*
X5357500Y6183500D03*
X5419000Y7602000D03*
X4911000Y7606000D03*
X5560000Y7635000D03*
X5165000Y7598000D03*
X6284180Y319000D03*
X5771000Y306000D03*
X5865500Y1810500D03*
X5738500Y1817500D03*
X6246500Y1812500D03*
X6119500Y1803500D03*
X5992500Y1805500D03*
X5720000Y2454000D03*
X5777000Y2201000D03*
X6116000Y2099000D03*
X5682000Y2708000D03*
X5889000Y5859000D03*
X5738500Y6184500D03*
X6246500Y6197500D03*
X6119500Y6198500D03*
X5865500Y6183500D03*
X5992500Y6197500D03*
X6298000Y7574000D03*
X7049000Y306000D03*
X6696000Y601000D03*
X6440000Y586000D03*
X7074000Y580000D03*
X6904000Y569000D03*
X6625000Y1819000D03*
X7008500Y1811500D03*
X6754500Y1801500D03*
X6500500Y1812500D03*
X6881500Y1809500D03*
X7135500Y1806500D03*
X6754500Y6213500D03*
X6500500Y6201500D03*
X7008500Y6204500D03*
X7135500Y6219500D03*
X6627500Y6214500D03*
X6881500Y6210500D03*
X6551590Y7640410D03*
X6711000Y7574000D03*
X6943000Y7571000D03*
X6446000Y7548000D03*
X7298000Y452000D03*
X7517000Y463000D03*
X7705000Y492000D03*
X7770500Y1812500D03*
X7262500Y1800500D03*
X7389500Y1806500D03*
X7897500Y1821500D03*
X7516500Y1808500D03*
X7262500Y6207500D03*
X7770500Y6191500D03*
X7897500Y6186500D03*
X7516500Y6181500D03*
X7389500Y6189500D03*
X7705000Y7579000D03*
X7197000Y7587000D03*
X7451000Y7584000D03*
X7959000Y483000D03*
X8467000Y497000D03*
X8213000Y502000D03*
X8405500Y1836500D03*
X8532500Y1814500D03*
X8151500Y1809500D03*
X8024500Y1811500D03*
X8659500Y1836500D03*
X8278500Y1822500D03*
X8151500Y6190500D03*
X8024500Y6177500D03*
X8405500Y6189500D03*
X8532500Y6188500D03*
X8278500Y6199500D03*
X8659500Y6179500D03*
X7959000Y7591000D03*
X8213000Y7585000D03*
X8467000Y7577000D03*
X8721000Y485000D03*
X8975000Y493000D03*
X9229000Y478000D03*
X8786500Y1831500D03*
X9167500Y1816500D03*
X9421500Y1814500D03*
X9294500Y1829500D03*
X9040500Y1812500D03*
X8786500Y6173500D03*
X9167500Y6196500D03*
X9294500Y6189500D03*
X9040500Y6185500D03*
X9421500Y6196500D03*
X8721000Y7587000D03*
X8975000Y7563000D03*
X9229000Y7566000D03*
X9483000Y475000D03*
X9991000Y470000D03*
X9737000Y466000D03*
X10056500Y1805500D03*
X9548500Y1810500D03*
X9802500Y1817500D03*
X9929500Y1819500D03*
X9675500Y1807500D03*
X9802500Y6197500D03*
X9548500Y6194500D03*
X10056500Y6205500D03*
X9929500Y6203500D03*
X9675500Y6191500D03*
X9737000Y7578000D03*
X9965000Y7576000D03*
X9483000Y7573000D03*
X10753000Y476000D03*
X10245000Y481000D03*
X10499000Y483000D03*
X10310500Y1809500D03*
X10818500Y1814500D03*
X10437500Y1807500D03*
X10691500Y1805500D03*
X10564500Y1803500D03*
X10691500Y6207500D03*
X10818500Y6214500D03*
X10310500Y6197500D03*
X10437500Y6200500D03*
X10564500Y6206500D03*
X10753000Y7578000D03*
X10245000Y7587000D03*
X10499000Y7574000D03*
X11007000Y472000D03*
X11261000Y475000D03*
X11515000Y472000D03*
X11072500Y1819500D03*
X10945500Y1813500D03*
Y6215500D03*
X11072500Y6210500D03*
X11515000Y7586000D03*
X11261000Y7597000D03*
X11007000Y7588000D03*
X12068000Y479000D03*
X11814000Y474000D03*
X12322000Y481000D03*
X11814000Y7585000D03*
X12068000Y7573000D03*
X12322000Y7592000D03*
X12830000Y493000D03*
X12576000Y471000D03*
X12786000Y2378000D03*
X12830000Y7595000D03*
X12576000Y7589000D03*
X13084000Y7593000D03*
X13755000Y3989000D03*
X13338000Y7581000D03*
X18943730Y4394650D03*
G54D12*
X2371000Y6896000D03*
Y7585000D03*
X7923000Y2852000D03*
X11326500Y2011500D03*
X11583000Y2846000D03*
X11302000Y5573000D03*
X12370500Y1843500D03*
X11938000Y2663000D03*
X12370500Y6120500D03*
X13121000Y1146000D03*
X12811000Y3945000D03*
X12675000Y4952000D03*
X13825000Y574000D03*
X14037000Y7453000D03*
X18943730Y2967170D03*
G54D13*
X3334000Y1840000D03*
Y1586000D03*
X3080000D03*
Y1840000D03*
X3334000Y2602000D03*
Y2348000D03*
Y2094000D03*
X3080000D03*
Y2348000D03*
Y2602000D03*
X3334000Y3364000D03*
Y3110000D03*
Y2856000D03*
X3080000D03*
Y3110000D03*
Y3364000D03*
X3334000Y4126000D03*
Y3872000D03*
Y3618000D03*
X3080000D03*
Y3872000D03*
Y4126000D03*
X3334000Y4888000D03*
Y4634000D03*
Y4380000D03*
X3080000D03*
Y4634000D03*
Y4888000D03*
X3334000Y5650000D03*
Y5396000D03*
Y5142000D03*
X3080000D03*
Y5396000D03*
Y5650000D03*
X3334000Y6412000D03*
Y6158000D03*
Y5904000D03*
X3080000D03*
Y6158000D03*
Y6412000D03*
X18943730Y2253430D03*
G54D14*
X13936000Y4653000D03*
Y5253000D03*
X14186000Y4653000D03*
X14436000D03*
Y5253000D03*
X14186000D03*
X18943730Y3680910D03*
G54D15*
X13561000Y6071000D03*
X13871000Y6541000D03*
X14181000Y6071000D03*
X18943730Y825950D03*
G54D16*
G01X800000Y-600000D02*
Y8600000D01*
X15100000D01*
Y-600000D01*
X800000D01*
G01X17802000Y469080D02*
Y6829000D01*
X30085440D01*
Y469080D01*
X17802000D01*
G01Y1182820D02*
X30085440D01*
G01X17802000Y2610300D02*
X30085440D01*
G01X17802000Y1896560D02*
X30085440D01*
G01X17802000Y3324040D02*
X30085440D01*
G01X17802000Y4037780D02*
X30085440D01*
G01X18081520Y4989010D02*
Y5306510D01*
X18231140D01*
G01X18176010Y5153060D02*
X18081520D01*
G01X18424050Y5306510D02*
X18518530D01*
G01X18471290D02*
Y4989010D01*
G01X18424050D02*
X18518530D01*
G01X18809870Y5147760D02*
X18888620D01*
Y5052510D01*
X18864990Y5020750D01*
X18837430Y4999590D01*
X18798060Y4989010D01*
X18758690Y4999590D01*
X18731130Y5020750D01*
X18707510Y5052510D01*
X18691760Y5089550D01*
X18683880Y5131880D01*
Y5168930D01*
X18691760Y5200670D01*
X18707510Y5237720D01*
X18731130Y5269470D01*
X18754750Y5290630D01*
X18786250Y5306510D01*
X18813810D01*
X18845300Y5295930D01*
X18868930Y5274760D01*
G01X19014600Y5306510D02*
Y5078970D01*
X19030340Y5031330D01*
X19061840Y4999590D01*
X19101210Y4989010D01*
X19140580Y4999590D01*
X19172080Y5031330D01*
X19187820Y5078970D01*
Y5306510D01*
G01X19337430Y4989010D02*
Y5306510D01*
X19435850D01*
X19467350Y5290630D01*
X19487040Y5269470D01*
X19494910Y5227130D01*
X19487040Y5184800D01*
X19463410Y5158350D01*
X19435850Y5142460D01*
X19337430D01*
G01X19435850D02*
X19494910Y4989010D01*
G01X19809870D02*
X19652390D01*
Y5306510D01*
X19809870D01*
G01X19746880Y5153060D02*
X19652390D01*
G01X17802000Y4751520D02*
X30085440D01*
G01X17802000Y5465260D02*
X30085440D01*
G01X17802000Y6179000D02*
X30085440D01*
G01X19593330Y5702750D02*
X19691760Y6020250D01*
X19790190Y5702750D01*
G01X19754750Y5813870D02*
X19628760D01*
G01X19927980Y6020250D02*
Y5702750D01*
X20085460D01*
G01X20242940Y6020250D02*
Y5702750D01*
X20400420D01*
G01X20864990Y6020250D02*
Y5792710D01*
X20880730Y5745070D01*
X20912230Y5713330D01*
X20951600Y5702750D01*
X20990970Y5713330D01*
X21022470Y5745070D01*
X21038210Y5792710D01*
Y6020250D01*
G01X21176010Y5702750D02*
Y6020250D01*
X21357110Y5702750D01*
Y6020250D01*
G01X21534280D02*
X21628760D01*
G01X21581520D02*
Y5702750D01*
G01X21534280D02*
X21628760D01*
G01X21896480Y6020250D02*
Y5702750D01*
G01X21805930Y6020250D02*
X21987030D01*
G01X22128760Y5745070D02*
X22160260Y5718620D01*
X22195690Y5702750D01*
X22227190D01*
X22258680Y5718620D01*
X22282310Y5745070D01*
X22294120Y5782130D01*
X22286250Y5819160D01*
X22266560Y5850910D01*
X22231120Y5872090D01*
X22183880Y5882670D01*
X22156320Y5903830D01*
X22144510Y5940870D01*
X22152390Y5977920D01*
X22172070Y6004370D01*
X22199630Y6020250D01*
X22227190D01*
X22254750Y6009670D01*
X22278370Y5983210D01*
G01X22742930Y5702750D02*
X22841360Y6020250D01*
X22939790Y5702750D01*
G01X22904350Y5813870D02*
X22778360D01*
G01X23077580Y5702750D02*
Y6020250D01*
X23176000D01*
X23207500Y6004370D01*
X23227190Y5983210D01*
X23235060Y5940870D01*
X23227190Y5898540D01*
X23203560Y5872090D01*
X23176000Y5856200D01*
X23077580D01*
G01X23176000D02*
X23235060Y5702750D01*
G01X23550020D02*
X23392540D01*
Y6020250D01*
X23550020D01*
G01X23487030Y5866800D02*
X23392540D01*
G01X24053960Y6020250D02*
X24148440D01*
G01X24101200D02*
Y5702750D01*
G01X24053960D02*
X24148440D01*
G01X24325610D02*
Y6020250D01*
X24506710Y5702750D01*
Y6020250D01*
G01X24943710Y5702750D02*
Y6020250D01*
X25046080Y5755670D01*
X25148450Y6020250D01*
Y5702750D01*
G01X25313800Y6020250D02*
X25408280D01*
G01X25361040D02*
Y5702750D01*
G01X25313800D02*
X25408280D01*
G01X25597260Y6020250D02*
Y5702750D01*
X25754740D01*
G01X25912220Y6020250D02*
Y5702750D01*
X26069700D01*
G01X26258680Y6020250D02*
X26353160D01*
G01X26305920D02*
Y5702750D01*
G01X26258680D02*
X26353160D01*
G01X26518510D02*
Y6020250D01*
X26620880Y5755670D01*
X26723250Y6020250D01*
Y5702750D01*
G01X27014580D02*
X26857100D01*
Y6020250D01*
X27014580D01*
G01X26951590Y5866800D02*
X26857100D01*
G01X27250800Y6020250D02*
Y5702750D01*
G01X27160250Y6020250D02*
X27341350D01*
G01X27644500Y5702750D02*
X27487020D01*
Y6020250D01*
X27644500D01*
G01X27581510Y5866800D02*
X27487020D01*
G01X27801980Y5702750D02*
Y6020250D01*
X27900400D01*
X27931900Y6004370D01*
X27951590Y5983210D01*
X27959460Y5940870D01*
X27951590Y5898540D01*
X27927960Y5872090D01*
X27900400Y5856200D01*
X27801980D01*
G01X27900400D02*
X27959460Y5702750D01*
G01X28113000Y5745070D02*
X28144500Y5718620D01*
X28179930Y5702750D01*
X28211430D01*
X28242920Y5718620D01*
X28266550Y5745070D01*
X28278360Y5782130D01*
X28270490Y5819160D01*
X28250800Y5850910D01*
X28215360Y5872090D01*
X28168120Y5882670D01*
X28140560Y5903830D01*
X28128750Y5940870D01*
X28136630Y5977920D01*
X28156310Y6004370D01*
X28183870Y6020250D01*
X28211430D01*
X28238990Y6009670D01*
X28262610Y5983210D01*
G01X19920110Y6352750D02*
Y6670250D01*
X19998840D01*
X20030340Y6654370D01*
X20053960Y6633210D01*
X20073650Y6601460D01*
X20089400Y6564410D01*
X20093330Y6511500D01*
X20089400Y6458580D01*
X20073650Y6421540D01*
X20053960Y6389780D01*
X20030340Y6368620D01*
X19998840Y6352750D01*
X19920110D01*
G01X20242940D02*
Y6670250D01*
X20341360D01*
X20372860Y6654370D01*
X20392550Y6633210D01*
X20400420Y6590870D01*
X20392550Y6548540D01*
X20368920Y6522090D01*
X20341360Y6506200D01*
X20242940D01*
G01X20341360D02*
X20400420Y6352750D01*
G01X20589400Y6670250D02*
X20683880D01*
G01X20636640D02*
Y6352750D01*
G01X20589400D02*
X20683880D01*
G01X20872860Y6670250D02*
Y6352750D01*
X21030340D01*
G01X21187820Y6670250D02*
Y6352750D01*
X21345300D01*
G01X21983090Y6643790D02*
X21959470Y6659670D01*
X21931920Y6670250D01*
X21900420D01*
X21864980Y6654370D01*
X21837430Y6627920D01*
X21817740Y6596160D01*
X21801990Y6543250D01*
X21798050Y6495620D01*
X21805930Y6448000D01*
X21817740Y6416250D01*
X21841360Y6384490D01*
X21868920Y6363330D01*
X21896480Y6352750D01*
X21924040D01*
X21951600Y6363330D01*
X21975220Y6379200D01*
X21994910Y6400360D01*
G01X22128760Y6352750D02*
Y6670250D01*
G01X22294120D02*
Y6352750D01*
G01Y6511500D02*
X22128760D01*
G01X22427970Y6352750D02*
X22526400Y6670250D01*
X22624830Y6352750D01*
G01X22589390Y6463870D02*
X22463400D01*
G01X22762620Y6352750D02*
Y6670250D01*
X22861040D01*
X22892540Y6654370D01*
X22912230Y6633210D01*
X22920100Y6590870D01*
X22912230Y6548540D01*
X22888600Y6522090D01*
X22861040Y6506200D01*
X22762620D01*
G01X22861040D02*
X22920100Y6352750D01*
G01X23156320Y6670250D02*
Y6352750D01*
G01X23065770Y6670250D02*
X23246870D01*
G01X23471280Y6342170D02*
X23463400Y6347460D01*
Y6358040D01*
X23471280Y6363330D01*
X23479160Y6358040D01*
Y6347460D01*
X23471280Y6342170D01*
G01Y6485030D02*
X23463400Y6490330D01*
Y6500910D01*
X23471280Y6506200D01*
X23479160Y6500910D01*
Y6490330D01*
X23471280Y6485030D01*
G01X24101200Y6670250D02*
Y6352750D01*
G01X24010650Y6670250D02*
X24191750D01*
G01X24416160Y6352750D02*
X24384660Y6358040D01*
X24357110Y6379200D01*
X24333480Y6410960D01*
X24317730Y6448000D01*
X24309860Y6490330D01*
Y6532670D01*
X24317730Y6575000D01*
X24333480Y6612040D01*
X24357110Y6643790D01*
X24384660Y6664960D01*
X24416160Y6670250D01*
X24447650Y6664960D01*
X24475210Y6643790D01*
X24498840Y6612040D01*
X24514590Y6575000D01*
X24522460Y6532670D01*
Y6490330D01*
X24514590Y6448000D01*
X24498840Y6410960D01*
X24475210Y6379200D01*
X24447650Y6358040D01*
X24416160Y6352750D01*
G01X24652380D02*
Y6670250D01*
X24746870D01*
X24778360Y6654370D01*
X24801990Y6617330D01*
X24809860Y6575000D01*
X24801990Y6532670D01*
X24782300Y6500910D01*
X24746870Y6485030D01*
X24652380D01*
G01X25361040Y6670250D02*
Y6352750D01*
G01X25305920Y6564410D02*
X25416160D01*
G01X25676000Y6352750D02*
X25652380Y6358040D01*
X25628760Y6379200D01*
X25613000Y6416250D01*
X25605130Y6458580D01*
X25613000Y6500910D01*
X25628760Y6537960D01*
X25652380Y6559120D01*
X25676000Y6564410D01*
X25699620Y6559120D01*
X25723240Y6537960D01*
X25738990Y6500910D01*
X25742930Y6458580D01*
X25738990Y6416250D01*
X25723240Y6379200D01*
X25699620Y6358040D01*
X25676000Y6352750D01*
G01X26337410Y6522090D02*
X26353160Y6537960D01*
X26364970Y6564410D01*
X26372850Y6601460D01*
X26364970Y6633210D01*
X26349230Y6654370D01*
X26321670Y6670250D01*
X26215370D01*
Y6352750D01*
X26345290D01*
X26372850Y6373910D01*
X26388600Y6405670D01*
X26396470Y6442710D01*
X26388600Y6479740D01*
X26364970Y6511500D01*
X26337410Y6522090D01*
X26215370D01*
G01X26620880Y6352750D02*
X26589380Y6358040D01*
X26561830Y6379200D01*
X26538200Y6410960D01*
X26522450Y6448000D01*
X26514580Y6490330D01*
Y6532670D01*
X26522450Y6575000D01*
X26538200Y6612040D01*
X26561830Y6643790D01*
X26589380Y6664960D01*
X26620880Y6670250D01*
X26652370Y6664960D01*
X26679930Y6643790D01*
X26703560Y6612040D01*
X26719310Y6575000D01*
X26727180Y6532670D01*
Y6490330D01*
X26719310Y6448000D01*
X26703560Y6410960D01*
X26679930Y6379200D01*
X26652370Y6358040D01*
X26620880Y6352750D01*
G01X26935840Y6670250D02*
Y6352750D01*
G01X26845290Y6670250D02*
X27026390D01*
G01X27250800D02*
Y6352750D01*
G01X27160250Y6670250D02*
X27341350D01*
G01X27565760Y6352750D02*
X27534260Y6358040D01*
X27506710Y6379200D01*
X27483080Y6410960D01*
X27467330Y6448000D01*
X27459460Y6490330D01*
Y6532670D01*
X27467330Y6575000D01*
X27483080Y6612040D01*
X27506710Y6643790D01*
X27534260Y6664960D01*
X27565760Y6670250D01*
X27597250Y6664960D01*
X27624810Y6643790D01*
X27648440Y6612040D01*
X27664190Y6575000D01*
X27672060Y6532670D01*
Y6490330D01*
X27664190Y6448000D01*
X27648440Y6410960D01*
X27624810Y6379200D01*
X27597250Y6358040D01*
X27565760Y6352750D01*
G01X27778350D02*
Y6670250D01*
X27880720Y6405670D01*
X27983090Y6670250D01*
Y6352750D01*
G01X20085460Y5465260D02*
Y469080D01*
G01X22085460Y730700D02*
X22109070Y693650D01*
X22140570Y672490D01*
X22176010Y667200D01*
X22207510Y672490D01*
X22239000Y698940D01*
X22258680Y730700D01*
X22262620Y762450D01*
X22254750Y799480D01*
X22227190Y825950D01*
X22199630Y836540D01*
X22164190D01*
G01X22199630D02*
X22223250Y852410D01*
X22242940Y878860D01*
X22250810Y910610D01*
X22242940Y942370D01*
X22223250Y968820D01*
X22187820Y984700D01*
X22152390Y979410D01*
X22116950Y958240D01*
G01X22487030Y656620D02*
X22479150Y661910D01*
Y672490D01*
X22487030Y677780D01*
X22494910Y672490D01*
Y661910D01*
X22487030Y656620D01*
G01X22715380Y714810D02*
X22738990Y688360D01*
X22766550Y672490D01*
X22801990Y667200D01*
X22837430Y677780D01*
X22864980Y698940D01*
X22884670Y735990D01*
X22888600Y778320D01*
X22880730Y820650D01*
X22861040Y847120D01*
X22833480Y868280D01*
X22805930Y873570D01*
X22778370Y868280D01*
X22742940Y847120D01*
X22754750Y984700D01*
X22861040D01*
G01X22085460Y1444440D02*
X22109070Y1407390D01*
X22140570Y1386230D01*
X22176010Y1380940D01*
X22207510Y1386230D01*
X22239000Y1412680D01*
X22258680Y1444440D01*
X22262620Y1476190D01*
X22254750Y1513220D01*
X22227190Y1539690D01*
X22199630Y1550280D01*
X22164190D01*
G01X22199630D02*
X22223250Y1566150D01*
X22242940Y1592600D01*
X22250810Y1624350D01*
X22242940Y1656110D01*
X22223250Y1682560D01*
X22187820Y1698440D01*
X22152390Y1693150D01*
X22116950Y1671980D01*
G01X22487030Y1370360D02*
X22479150Y1375650D01*
Y1386230D01*
X22487030Y1391520D01*
X22494910Y1386230D01*
Y1375650D01*
X22487030Y1370360D01*
G01X22727180Y1645520D02*
X22750810Y1677270D01*
X22778370Y1693150D01*
X22809870Y1698440D01*
X22849230Y1687860D01*
X22876800Y1661400D01*
X22884670Y1629650D01*
X22880730Y1597890D01*
X22864980Y1571440D01*
X22786240Y1518520D01*
X22750810Y1481480D01*
X22727180Y1428550D01*
X22719310Y1380940D01*
X22884670D01*
G01X22172070Y2094680D02*
Y2412180D01*
X22124830Y2348680D01*
G01Y2094680D02*
X22219310D01*
G01X22487030Y2084100D02*
X22479150Y2089390D01*
Y2099970D01*
X22487030Y2105260D01*
X22494910Y2099970D01*
Y2089390D01*
X22487030Y2084100D01*
G01X22849230Y2094680D02*
Y2412180D01*
X22703560Y2184640D01*
X22900420D01*
G01X22172070Y2808420D02*
Y3125920D01*
X22124830Y3062420D01*
G01Y2808420D02*
X22219310D01*
G01X22487030Y2797840D02*
X22479150Y2803130D01*
Y2813710D01*
X22487030Y2819000D01*
X22494910Y2813710D01*
Y2803130D01*
X22487030Y2797840D01*
G01X22715380Y2871920D02*
X22738990Y2834870D01*
X22770490Y2813710D01*
X22805930Y2808420D01*
X22837430Y2813710D01*
X22868920Y2840160D01*
X22888600Y2871920D01*
X22892540Y2903670D01*
X22884670Y2940700D01*
X22857110Y2967170D01*
X22829550Y2977760D01*
X22794110D01*
G01X22829550D02*
X22853170Y2993630D01*
X22872860Y3020080D01*
X22880730Y3051830D01*
X22872860Y3083590D01*
X22853170Y3110040D01*
X22817740Y3125920D01*
X22782310Y3120630D01*
X22746870Y3099460D01*
G01X22172070Y4553400D02*
X22140570Y4542820D01*
X22116950Y4516360D01*
X22101200Y4484610D01*
X22089390Y4442270D01*
X22085460Y4394650D01*
X22089390Y4347020D01*
X22101200Y4304690D01*
X22116950Y4272930D01*
X22140570Y4246480D01*
X22172070Y4235900D01*
X22203560Y4246480D01*
X22227190Y4272930D01*
X22242940Y4304690D01*
X22254750Y4347020D01*
X22258680Y4394650D01*
X22254750Y4442270D01*
X22242940Y4484610D01*
X22227190Y4516360D01*
X22203560Y4542820D01*
X22172070Y4553400D01*
G01X22487030Y4225320D02*
X22479150Y4230610D01*
Y4241190D01*
X22487030Y4246480D01*
X22494910Y4241190D01*
Y4230610D01*
X22487030Y4225320D01*
G01X22715380Y4299400D02*
X22738990Y4262350D01*
X22770490Y4241190D01*
X22805930Y4235900D01*
X22837430Y4241190D01*
X22868920Y4267640D01*
X22888600Y4299400D01*
X22892540Y4331150D01*
X22884670Y4368180D01*
X22857110Y4394650D01*
X22829550Y4405240D01*
X22794110D01*
G01X22829550D02*
X22853170Y4421110D01*
X22872860Y4447560D01*
X22880730Y4479310D01*
X22872860Y4511070D01*
X22853170Y4537520D01*
X22817740Y4553400D01*
X22782310Y4548110D01*
X22746870Y4526940D01*
G01X22172070Y3839660D02*
X22140570Y3829080D01*
X22116950Y3802620D01*
X22101200Y3770870D01*
X22089390Y3728530D01*
X22085460Y3680910D01*
X22089390Y3633280D01*
X22101200Y3590950D01*
X22116950Y3559190D01*
X22140570Y3532740D01*
X22172070Y3522160D01*
X22203560Y3532740D01*
X22227190Y3559190D01*
X22242940Y3590950D01*
X22254750Y3633280D01*
X22258680Y3680910D01*
X22254750Y3728530D01*
X22242940Y3770870D01*
X22227190Y3802620D01*
X22203560Y3829080D01*
X22172070Y3839660D01*
G01X22487030Y3511580D02*
X22479150Y3516870D01*
Y3527450D01*
X22487030Y3532740D01*
X22494910Y3527450D01*
Y3516870D01*
X22487030Y3511580D01*
G01X22801990Y3522160D02*
X22829550Y3527450D01*
X22861040Y3543320D01*
X22880730Y3569770D01*
X22888600Y3606830D01*
X22880730Y3643860D01*
X22857110Y3675610D01*
X22821670Y3691500D01*
X22782310D01*
X22758680Y3702080D01*
X22738990Y3728530D01*
X22731120Y3765570D01*
X22742940Y3802620D01*
X22770490Y3829080D01*
X22801990Y3839660D01*
X22833480Y3829080D01*
X22861040Y3802620D01*
X22872860Y3765570D01*
X22864980Y3728530D01*
X22845300Y3702080D01*
X22821670Y3691500D01*
X22782310D01*
X22746870Y3675610D01*
X22723250Y3643860D01*
X22715380Y3606830D01*
X22723250Y3569770D01*
X22742940Y3543320D01*
X22774430Y3527450D01*
X22801990Y3522160D01*
G01X21931910Y5031330D02*
X21963410Y5004880D01*
X21998840Y4989010D01*
X22030340D01*
X22061830Y5004880D01*
X22085460Y5031330D01*
X22097270Y5068390D01*
X22089400Y5105420D01*
X22069710Y5137170D01*
X22034270Y5158350D01*
X21987030Y5168930D01*
X21959470Y5190090D01*
X21947660Y5227130D01*
X21955540Y5264180D01*
X21975220Y5290630D01*
X22002780Y5306510D01*
X22030340D01*
X22057900Y5295930D01*
X22081520Y5269470D01*
G01X22282310Y5306510D02*
X22376790D01*
G01X22329550D02*
Y4989010D01*
G01X22282310D02*
X22376790D01*
G01X22569700Y5306510D02*
X22719320D01*
X22569700Y4989010D01*
X22719320D01*
G01X23038210D02*
X22880730D01*
Y5306510D01*
X23038210D01*
G01X22975220Y5153060D02*
X22880730D01*
G01X24888600Y5465260D02*
Y469080D01*
G01X25636630Y667200D02*
Y984700D01*
X25731120D01*
X25762610Y968820D01*
X25786240Y931780D01*
X25794110Y889450D01*
X25786240Y847120D01*
X25766550Y815360D01*
X25731120Y799480D01*
X25636630D01*
G01X25951590Y984700D02*
Y667200D01*
X26109070D01*
G01X26246860D02*
X26345290Y984700D01*
X26443720Y667200D01*
G01X26408280Y778320D02*
X26282290D01*
G01X26660250Y984700D02*
Y667200D01*
G01X26569700Y984700D02*
X26750800D01*
G01X27053950Y667200D02*
X26896470D01*
Y984700D01*
X27053950D01*
G01X26990960Y831250D02*
X26896470D01*
G01X27203560Y667200D02*
Y984700D01*
X27282290D01*
X27313790Y968820D01*
X27337410Y947660D01*
X27357100Y915910D01*
X27372850Y878860D01*
X27376780Y825950D01*
X27372850Y773030D01*
X27357100Y735990D01*
X27337410Y704230D01*
X27313790Y683070D01*
X27282290Y667200D01*
X27203560D01*
G01X25636630Y1380940D02*
Y1698440D01*
X25731120D01*
X25762610Y1682560D01*
X25786240Y1645520D01*
X25794110Y1603190D01*
X25786240Y1560860D01*
X25766550Y1529100D01*
X25731120Y1513220D01*
X25636630D01*
G01X25951590Y1698440D02*
Y1380940D01*
X26109070D01*
G01X26246860D02*
X26345290Y1698440D01*
X26443720Y1380940D01*
G01X26408280Y1492060D02*
X26282290D01*
G01X26660250Y1698440D02*
Y1380940D01*
G01X26569700Y1698440D02*
X26750800D01*
G01X27053950Y1380940D02*
X26896470D01*
Y1698440D01*
X27053950D01*
G01X26990960Y1544990D02*
X26896470D01*
G01X27203560Y1380940D02*
Y1698440D01*
X27282290D01*
X27313790Y1682560D01*
X27337410Y1661400D01*
X27357100Y1629650D01*
X27372850Y1592600D01*
X27376780Y1539690D01*
X27372850Y1486770D01*
X27357100Y1449730D01*
X27337410Y1417970D01*
X27313790Y1396810D01*
X27282290Y1380940D01*
X27203560D01*
G01X25636630Y2094680D02*
Y2412180D01*
X25731120D01*
X25762610Y2396300D01*
X25786240Y2359260D01*
X25794110Y2316930D01*
X25786240Y2274600D01*
X25766550Y2242840D01*
X25731120Y2226960D01*
X25636630D01*
G01X25951590Y2412180D02*
Y2094680D01*
X26109070D01*
G01X26246860D02*
X26345290Y2412180D01*
X26443720Y2094680D01*
G01X26408280Y2205800D02*
X26282290D01*
G01X26660250Y2412180D02*
Y2094680D01*
G01X26569700Y2412180D02*
X26750800D01*
G01X27053950Y2094680D02*
X26896470D01*
Y2412180D01*
X27053950D01*
G01X26990960Y2258730D02*
X26896470D01*
G01X27203560Y2094680D02*
Y2412180D01*
X27282290D01*
X27313790Y2396300D01*
X27337410Y2375140D01*
X27357100Y2343390D01*
X27372850Y2306340D01*
X27376780Y2253430D01*
X27372850Y2200510D01*
X27357100Y2163470D01*
X27337410Y2131710D01*
X27313790Y2110550D01*
X27282290Y2094680D01*
X27203560D01*
G01X25636630Y2808420D02*
Y3125920D01*
X25731120D01*
X25762610Y3110040D01*
X25786240Y3073000D01*
X25794110Y3030670D01*
X25786240Y2988340D01*
X25766550Y2956580D01*
X25731120Y2940700D01*
X25636630D01*
G01X25951590Y3125920D02*
Y2808420D01*
X26109070D01*
G01X26246860D02*
X26345290Y3125920D01*
X26443720Y2808420D01*
G01X26408280Y2919540D02*
X26282290D01*
G01X26660250Y3125920D02*
Y2808420D01*
G01X26569700Y3125920D02*
X26750800D01*
G01X27053950Y2808420D02*
X26896470D01*
Y3125920D01*
X27053950D01*
G01X26990960Y2972470D02*
X26896470D01*
G01X27203560Y2808420D02*
Y3125920D01*
X27282290D01*
X27313790Y3110040D01*
X27337410Y3088880D01*
X27357100Y3057130D01*
X27372850Y3020080D01*
X27376780Y2967170D01*
X27372850Y2914250D01*
X27357100Y2877210D01*
X27337410Y2845450D01*
X27313790Y2824290D01*
X27282290Y2808420D01*
X27203560D01*
G01X25636630Y4235900D02*
Y4553400D01*
X25731120D01*
X25762610Y4537520D01*
X25786240Y4500480D01*
X25794110Y4458150D01*
X25786240Y4415820D01*
X25766550Y4384060D01*
X25731120Y4368180D01*
X25636630D01*
G01X25951590Y4553400D02*
Y4235900D01*
X26109070D01*
G01X26246860D02*
X26345290Y4553400D01*
X26443720Y4235900D01*
G01X26408280Y4347020D02*
X26282290D01*
G01X26660250Y4553400D02*
Y4235900D01*
G01X26569700Y4553400D02*
X26750800D01*
G01X27053950Y4235900D02*
X26896470D01*
Y4553400D01*
X27053950D01*
G01X26990960Y4399950D02*
X26896470D01*
G01X27203560Y4235900D02*
Y4553400D01*
X27282290D01*
X27313790Y4537520D01*
X27337410Y4516360D01*
X27357100Y4484610D01*
X27372850Y4447560D01*
X27376780Y4394650D01*
X27372850Y4341730D01*
X27357100Y4304690D01*
X27337410Y4272930D01*
X27313790Y4251770D01*
X27282290Y4235900D01*
X27203560D01*
G01X25636630Y3522160D02*
Y3839660D01*
X25731120D01*
X25762610Y3823780D01*
X25786240Y3786740D01*
X25794110Y3744410D01*
X25786240Y3702080D01*
X25766550Y3670320D01*
X25731120Y3654440D01*
X25636630D01*
G01X25951590Y3839660D02*
Y3522160D01*
X26109070D01*
G01X26246860D02*
X26345290Y3839660D01*
X26443720Y3522160D01*
G01X26408280Y3633280D02*
X26282290D01*
G01X26660250Y3839660D02*
Y3522160D01*
G01X26569700Y3839660D02*
X26750800D01*
G01X27053950Y3522160D02*
X26896470D01*
Y3839660D01*
X27053950D01*
G01X26990960Y3686210D02*
X26896470D01*
G01X27203560Y3522160D02*
Y3839660D01*
X27282290D01*
X27313790Y3823780D01*
X27337410Y3802620D01*
X27357100Y3770870D01*
X27372850Y3733820D01*
X27376780Y3680910D01*
X27372850Y3627990D01*
X27357100Y3590950D01*
X27337410Y3559190D01*
X27313790Y3538030D01*
X27282290Y3522160D01*
X27203560D01*
G01X25636630Y4989010D02*
Y5306510D01*
X25731120D01*
X25762610Y5290630D01*
X25786240Y5253590D01*
X25794110Y5211260D01*
X25786240Y5168930D01*
X25766550Y5137170D01*
X25731120Y5121290D01*
X25636630D01*
G01X25951590Y5306510D02*
Y4989010D01*
X26109070D01*
G01X26246860D02*
X26345290Y5306510D01*
X26443720Y4989010D01*
G01X26408280Y5100130D02*
X26282290D01*
G01X26660250Y5306510D02*
Y4989010D01*
G01X26569700Y5306510D02*
X26750800D01*
G01X27053950Y4989010D02*
X26896470D01*
Y5306510D01*
X27053950D01*
G01X26990960Y5153060D02*
X26896470D01*
G01X27203560Y4989010D02*
Y5306510D01*
X27282290D01*
X27313790Y5290630D01*
X27337410Y5269470D01*
X27357100Y5237720D01*
X27372850Y5200670D01*
X27376780Y5147760D01*
X27372850Y5094840D01*
X27357100Y5057800D01*
X27337410Y5026040D01*
X27313790Y5004880D01*
X27282290Y4989010D01*
X27203560D01*
G01X28116940Y5465260D02*
Y469080D01*
G01X29014580Y730700D02*
X29038190Y693650D01*
X29069690Y672490D01*
X29105130Y667200D01*
X29136630Y672490D01*
X29168120Y698940D01*
X29187800Y730700D01*
X29191740Y762450D01*
X29183870Y799480D01*
X29156310Y825950D01*
X29128750Y836540D01*
X29093310D01*
G01X29128750D02*
X29152370Y852410D01*
X29172060Y878860D01*
X29179930Y910610D01*
X29172060Y942370D01*
X29152370Y968820D01*
X29116940Y984700D01*
X29081510Y979410D01*
X29046070Y958240D01*
G01X29101190Y1380940D02*
X29128750Y1386230D01*
X29160240Y1402100D01*
X29179930Y1428550D01*
X29187800Y1465610D01*
X29179930Y1502640D01*
X29156310Y1534390D01*
X29120870Y1550280D01*
X29081510D01*
X29057880Y1560860D01*
X29038190Y1587310D01*
X29030320Y1624350D01*
X29042140Y1661400D01*
X29069690Y1687860D01*
X29101190Y1698440D01*
X29132680Y1687860D01*
X29160240Y1661400D01*
X29172060Y1624350D01*
X29164180Y1587310D01*
X29144500Y1560860D01*
X29120870Y1550280D01*
X29081510D01*
X29046070Y1534390D01*
X29022450Y1502640D01*
X29014580Y1465610D01*
X29022450Y1428550D01*
X29042140Y1402100D01*
X29073630Y1386230D01*
X29101190Y1380940D01*
G01X28990950Y2094680D02*
Y2412180D01*
X28845280Y2184640D01*
X29042140D01*
G01X29258670Y2412180D02*
X29227170Y2401600D01*
X29203550Y2375140D01*
X29187800Y2343390D01*
X29175990Y2301050D01*
X29172060Y2253430D01*
X29175990Y2205800D01*
X29187800Y2163470D01*
X29203550Y2131710D01*
X29227170Y2105260D01*
X29258670Y2094680D01*
X29290160Y2105260D01*
X29313790Y2131710D01*
X29329540Y2163470D01*
X29341350Y2205800D01*
X29345280Y2253430D01*
X29341350Y2301050D01*
X29329540Y2343390D01*
X29313790Y2375140D01*
X29290160Y2401600D01*
X29258670Y2412180D01*
G01X28943710Y2808420D02*
Y3125920D01*
X28896470Y3062420D01*
G01Y2808420D02*
X28990950D01*
G01X29305910D02*
Y3125920D01*
X29160240Y2898380D01*
X29357100D01*
G01X28786230Y4235900D02*
Y4553400D01*
X28738990Y4489900D01*
G01Y4235900D02*
X28833470D01*
G01X29034260Y4272930D02*
X29061820Y4246480D01*
X29093310Y4235900D01*
X29124810Y4246480D01*
X29152370Y4278220D01*
X29172060Y4325860D01*
X29179930Y4373480D01*
Y4431690D01*
X29172060Y4479310D01*
X29152370Y4521650D01*
X29128750Y4542820D01*
X29101190Y4553400D01*
X29069690Y4542820D01*
X29046070Y4521650D01*
X29030320Y4489900D01*
X29022450Y4447560D01*
X29030320Y4410530D01*
X29050010Y4373480D01*
X29073630Y4352310D01*
X29101190Y4347020D01*
X29132680Y4357600D01*
X29156310Y4384060D01*
X29179930Y4431690D01*
G01X29416150Y4553400D02*
X29384650Y4542820D01*
X29361030Y4516360D01*
X29345280Y4484610D01*
X29333470Y4442270D01*
X29329540Y4394650D01*
X29333470Y4347020D01*
X29345280Y4304690D01*
X29361030Y4272930D01*
X29384650Y4246480D01*
X29416150Y4235900D01*
X29447640Y4246480D01*
X29471270Y4272930D01*
X29487020Y4304690D01*
X29498830Y4347020D01*
X29502760Y4394650D01*
X29498830Y4442270D01*
X29487020Y4484610D01*
X29471270Y4516360D01*
X29447640Y4542820D01*
X29416150Y4553400D01*
G01X29026380Y3654440D02*
X29053950Y3691500D01*
X29077570Y3712660D01*
X29109070Y3723240D01*
X29136630Y3712660D01*
X29156310Y3691500D01*
X29172060Y3659740D01*
X29176000Y3622700D01*
X29172060Y3590950D01*
X29156310Y3559190D01*
X29132680Y3532740D01*
X29105130Y3522160D01*
X29073630Y3532740D01*
X29046070Y3564480D01*
X29030320Y3612120D01*
X29026380Y3665030D01*
X29034260Y3733820D01*
X29046070Y3770870D01*
X29065750Y3807910D01*
X29093310Y3834370D01*
X29120870Y3839660D01*
X29148430Y3829080D01*
X29168120Y3802620D01*
G01X28786230Y4989010D02*
X28754730Y4994300D01*
X28727180Y5015460D01*
X28703550Y5047220D01*
X28687800Y5084260D01*
X28679930Y5126590D01*
Y5168930D01*
X28687800Y5211260D01*
X28703550Y5248300D01*
X28727180Y5280050D01*
X28754730Y5301220D01*
X28786230Y5306510D01*
X28817720Y5301220D01*
X28845280Y5280050D01*
X28868910Y5248300D01*
X28884660Y5211260D01*
X28892530Y5168930D01*
Y5126590D01*
X28884660Y5084260D01*
X28868910Y5047220D01*
X28845280Y5015460D01*
X28817720Y4994300D01*
X28786230Y4989010D01*
G01X28817720Y5073680D02*
X28864970Y4989010D01*
G01X29101190Y5306510D02*
Y4989010D01*
G01X29010640Y5306510D02*
X29191740D01*
G01X29416150Y4989010D02*
Y5131880D01*
X29337410Y5306510D01*
G01X29494890D02*
X29416150Y5131880D01*
G01X625000Y-956000D02*
Y8809000D01*
X31027000D01*
Y-956000D01*
X625000D01*
M02*
