G04 ================== begin FILE IDENTIFICATION RECORD ==================*
G04 Layout Name:  D:/Spira Heaven/0-My Works/Srtp/PCB/Expand/PCB/Expand.brd*
G04 Film Name:    SILKSCREEN_BOTTOM*
G04 File Format:  Gerber RS274X*
G04 File Origin:  Cadence Allegro 16.6-S003*
G04 Origin Date:  Thu Jan 16 10:16:26 2014*
G04 *
G04 Layer:  USER PART NUMBER/SILKSCREEN_BOTTOM*
G04 Layer:  TOLERANCE/SILKSCREEN_BOTTOM*
G04 Layer:  REF DES/SILKSCREEN_BOTTOM*
G04 Layer:  PACKAGE GEOMETRY/SILKSCREEN_BOTTOM*
G04 Layer:  DEVICE TYPE/SILKSCREEN_BOTTOM*
G04 Layer:  COMPONENT VALUE/SILKSCREEN_BOTTOM*
G04 Layer:  BOARD GEOMETRY/OUTLINE*
G04 Layer:  BOARD GEOMETRY/SOLDERMASK_BOTTOM*
G04 *
G04 Offset:    (0.0000 0.0000)*
G04 Mirror:    No*
G04 Mode:      Positive*
G04 Rotation:  0*
G04 FullContactRelief:  No*
G04 UndefLineWidth:     0.2000*
G04 ================== end FILE IDENTIFICATION RECORD ====================*
%FSLAX25Y25*MOMM*%
%IR0*IPPOS*OFA0.00000B0.00000*MIA0B0*SFA1.00000B1.00000*%
%ADD10C,.2*%
G75*
%LPD*%
G75*
G54D10*
G01X800000Y-600000D02*
Y8600000D01*
X15100000D01*
Y-600000D01*
X800000D01*
G01X1733920Y1124400D02*
X1725870Y1111700D01*
X1716230Y1103230D01*
X1704970Y1099000D01*
X1692100Y1103230D01*
X1682450Y1111700D01*
X1672800Y1124400D01*
X1669580Y1141330D01*
Y1226000D01*
G01X1572250Y1099000D02*
X1560990Y1101120D01*
X1548130Y1107460D01*
X1540080Y1118050D01*
X1536870Y1132870D01*
X1540080Y1147680D01*
X1549730Y1160380D01*
X1564210Y1166730D01*
X1580290D01*
X1589940Y1170970D01*
X1597990Y1181550D01*
X1601200Y1196370D01*
X1596370Y1211180D01*
X1585120Y1221770D01*
X1572250Y1226000D01*
X1559380Y1221770D01*
X1548130Y1211180D01*
X1543300Y1196370D01*
X1546520Y1181550D01*
X1554560Y1170970D01*
X1564210Y1166730D01*
X1580290D01*
X1594770Y1160380D01*
X1604420Y1147680D01*
X1607630Y1132870D01*
X1604420Y1118050D01*
X1596370Y1107460D01*
X1583510Y1101120D01*
X1572250Y1099000D01*
G01X11677000Y871000D02*
Y371000D01*
X1447000D01*
Y871000D01*
X11677000D01*
G01X1756920Y6876400D02*
X1748870Y6863700D01*
X1739230Y6855230D01*
X1727970Y6851000D01*
X1715100Y6855230D01*
X1705450Y6863700D01*
X1695800Y6876400D01*
X1692580Y6893330D01*
Y6978000D01*
G01X1575950Y6851000D02*
Y6978000D01*
X1635460Y6886980D01*
X1555040D01*
G01X11677000Y7700000D02*
Y7200000D01*
X1447000D01*
Y7700000D01*
X11677000D01*
G01X11677920Y2544400D02*
X11669870Y2531700D01*
X11660230Y2523230D01*
X11648970Y2519000D01*
X11636100Y2523230D01*
X11626450Y2531700D01*
X11616800Y2544400D01*
X11613580Y2561330D01*
Y2646000D01*
G01X11519470Y2519000D02*
X11516250Y2546510D01*
X11511420Y2569800D01*
X11504990Y2590970D01*
X11496950Y2614250D01*
X11484080Y2646000D01*
X11548420D01*
G01X11873000Y2709000D02*
X11373000D01*
Y5269000D01*
X11873000D01*
Y2709000D01*
G01X14237000Y871000D02*
Y371000D01*
X11677000D01*
Y871000D01*
X14237000D01*
G01Y7699000D02*
Y7199000D01*
X11677000D01*
Y7699000D01*
X14237000D01*
G01X13907920Y6872400D02*
X13899870Y6859700D01*
X13890230Y6851230D01*
X13878970Y6847000D01*
X13866100Y6851230D01*
X13856450Y6859700D01*
X13846800Y6872400D01*
X13843580Y6889330D01*
Y6974000D01*
G01X13781630Y6866050D02*
X13771990Y6855460D01*
X13760730Y6849120D01*
X13746250Y6847000D01*
X13731770Y6851230D01*
X13720520Y6859700D01*
X13712470Y6874510D01*
X13710870Y6891450D01*
X13714080Y6908380D01*
X13722130Y6918970D01*
X13733380Y6927430D01*
X13744640Y6929550D01*
X13755900Y6927430D01*
X13770370Y6918970D01*
X13765550Y6974000D01*
X13722130D01*
G01X14176920Y1116400D02*
X14168870Y1103700D01*
X14159230Y1095230D01*
X14147970Y1091000D01*
X14135100Y1095230D01*
X14125450Y1103700D01*
X14115800Y1116400D01*
X14112580Y1133330D01*
Y1218000D01*
G01X14042590Y1105810D02*
X14031330Y1095230D01*
X14018470Y1091000D01*
X14005600Y1095230D01*
X13994340Y1107930D01*
X13986300Y1126980D01*
X13983080Y1146030D01*
Y1169320D01*
X13986300Y1188370D01*
X13994340Y1205300D01*
X14003990Y1213770D01*
X14015250Y1218000D01*
X14028120Y1213770D01*
X14037770Y1205300D01*
X14044200Y1192600D01*
X14047420Y1175660D01*
X14044200Y1160850D01*
X14036160Y1146030D01*
X14026510Y1137560D01*
X14015250Y1135450D01*
X14002380Y1139680D01*
X13992730Y1150270D01*
X13983080Y1169320D01*
M02*
