G04 ================== begin FILE IDENTIFICATION RECORD ==================*
G04 Layout Name:  D:/Spira Heaven/0-My Works/Srtp/PCB/Expand/PCB/Expand.brd*
G04 Film Name:    SILKSCREEN_TOP*
G04 File Format:  Gerber RS274X*
G04 File Origin:  Cadence Allegro 16.6-S003*
G04 Origin Date:  Thu Jan 16 10:16:26 2014*
G04 *
G04 Layer:  USER PART NUMBER/SILKSCREEN_TOP*
G04 Layer:  TOLERANCE/SILKSCREEN_TOP*
G04 Layer:  REF DES/SILKSCREEN_TOP*
G04 Layer:  PACKAGE GEOMETRY/SILKSCREEN_TOP*
G04 Layer:  MANUFACTURING/PEN3*
G04 Layer:  DEVICE TYPE/SILKSCREEN_TOP*
G04 Layer:  COMPONENT VALUE/SILKSCREEN_TOP*
G04 Layer:  BOARD GEOMETRY/OUTLINE*
G04 Layer:  BOARD GEOMETRY/SILKSCREEN_TOP*
G04 *
G04 Offset:    (0.0000 0.0000)*
G04 Mirror:    No*
G04 Mode:      Positive*
G04 Rotation:  0*
G04 FullContactRelief:  No*
G04 UndefLineWidth:     0.2000*
G04 ================== end FILE IDENTIFICATION RECORD ====================*
%FSLAX25Y25*MOMM*%
%IR0*IPPOS*OFA0.00000B0.00000*MIA0B0*SFA1.00000B1.00000*%
%ADD10C,.254*%
%ADD11C,.1524*%
%ADD12C,.2*%
G75*
%LPD*%
G75*
G54D10*
G01X2477600Y1767480D02*
X2503000D01*
G01X2472520Y1762400D02*
X2503000D01*
G01X2599520D02*
X2721440D01*
G01X2472520Y1757320D02*
X2508080D01*
G01X2594440D02*
X2817960D01*
G01X2467440Y1752240D02*
X2508080D01*
G01X2589360D02*
X2843360D01*
G01X2467440Y1747160D02*
X2508080D01*
G01X2589360D02*
X2848440D01*
G01X2462360Y1742080D02*
X2508080D01*
G01X2589360D02*
X2853520D01*
G01X2462360Y1737000D02*
X2508080D01*
G01X2589360D02*
X2853520D01*
G01X2462360Y1731920D02*
X2503000D01*
G01X2594440D02*
X2853520D01*
G01X2462360Y1726840D02*
X2503000D01*
G01X2599520D02*
X2853520D01*
G01X2457280Y1721760D02*
X2503000D01*
G01X2619840D02*
X2853520D01*
G01X2457280Y1716680D02*
X2503000D01*
G01X2619840D02*
X2660480D01*
G01X2457280Y1711600D02*
X2503000D01*
G01X2543640D02*
X2574120D01*
G01X2614760D02*
X2660480D01*
G01X2457280Y1706520D02*
X2497920D01*
G01X2543640D02*
X2574120D01*
G01X2614760D02*
X2655400D01*
G01X2452200Y1701440D02*
X2497920D01*
G01X2538560D02*
X2579200D01*
G01X2614760D02*
X2655400D01*
G01X2452200Y1696360D02*
X2497920D01*
G01X2538560D02*
X2579200D01*
G01X2609680D02*
X2655400D01*
G01X2452200Y1691280D02*
X2492840D01*
G01X2533480D02*
X2579200D01*
G01X2609680D02*
X2650320D01*
G01X2452200Y1686200D02*
X2492840D01*
G01X2533480D02*
X2579200D01*
G01X2609680D02*
X2650320D01*
G01X2401400Y1681120D02*
X2406480D01*
G01X2452200D02*
X2492840D01*
G01X2533480D02*
X2574120D01*
G01X2604600D02*
X2645240D01*
G01X2386160Y1676040D02*
X2492840D01*
G01X2533480D02*
X2574120D01*
G01X2604600D02*
X2645240D01*
G01X2386160Y1670960D02*
X2574120D01*
G01X2604600D02*
X2645240D01*
G01X2381080Y1665880D02*
X2589360D01*
G01X2599520D02*
X2645240D01*
G01X2381080Y1660800D02*
X2640160D01*
G01X2381080Y1655720D02*
X2640160D01*
G01X2386160Y1650640D02*
X2640160D01*
G01X2391240Y1645560D02*
X2635080D01*
G01X2401400Y1640480D02*
X2635080D01*
G01X2436960Y1635400D02*
X2635080D01*
G01X2436960Y1630320D02*
X2482680D01*
G01X2513160D02*
X2635080D01*
G01X2436960Y1625240D02*
X2477600D01*
G01X2523320D02*
X2563960D01*
G01X2589360D02*
X2630000D01*
G01X2436960Y1620160D02*
X2477600D01*
G01X2518240D02*
X2563960D01*
G01X2589360D02*
X2630000D01*
G01X2431880Y1615080D02*
X2477600D01*
G01X2518240D02*
X2563960D01*
G01X2589360D02*
X2630000D01*
G01X2431880Y1610000D02*
X2477600D01*
G01X2518240D02*
X2558880D01*
G01X2584280D02*
X2630000D01*
G01X2431880Y1604920D02*
X2472520D01*
G01X2518240D02*
X2558880D01*
G01X2584280D02*
X2624920D01*
G01X2431880Y1599840D02*
X2472520D01*
G01X2513160D02*
X2558880D01*
G01X2584280D02*
X2624920D01*
G01X2426800Y1594760D02*
X2472520D01*
G01X2513160D02*
X2558880D01*
G01X2584280D02*
X2624920D01*
G01X2426800Y1589680D02*
X2472520D01*
G01X2513160D02*
X2558880D01*
G01X2579200D02*
X2624920D01*
G01X2426800Y1584600D02*
X2467440D01*
G01X2513160D02*
X2553800D01*
G01X2579200D02*
X2624920D01*
G01X2426800Y1579520D02*
X2467440D01*
G01X2513160D02*
X2553800D01*
G01X2579200D02*
X2619840D01*
G01X2426800Y1574440D02*
X2467440D01*
G01X2508080D02*
X2553800D01*
G01X2579200D02*
X2619840D01*
G01X2421720Y1569360D02*
X2467440D01*
G01X2508080D02*
X2553800D01*
G01X2574120D02*
X2619840D01*
G01X2421720Y1564280D02*
X2462360D01*
G01X2508080D02*
X2548720D01*
G01X2574120D02*
X2619840D01*
G01X2635080D02*
X2701120D01*
G01X2421720Y1559200D02*
X2462360D01*
G01X2508080D02*
X2548720D01*
G01X2574120D02*
X2614760D01*
G01X2635080D02*
X2685880D01*
G01X2421720Y1554120D02*
X2462360D01*
G01X2508080D02*
X2548720D01*
G01X2574120D02*
X2614760D01*
G01X2635080D02*
X2675720D01*
G01X2416640Y1549040D02*
X2462360D01*
G01X2503000D02*
X2548720D01*
G01X2574120D02*
X2614760D01*
G01X2635080D02*
X2675720D01*
G01X2416640Y1543960D02*
X2462360D01*
G01X2503000D02*
X2548720D01*
G01X2569040D02*
X2614760D01*
G01X2630000D02*
X2675720D01*
G01X2416640Y1538880D02*
X2457280D01*
G01X2503000D02*
X2543640D01*
G01X2569040D02*
X2614760D01*
G01X2630000D02*
X2670640D01*
G01X2416640Y1533800D02*
X2457280D01*
G01X2503000D02*
X2543640D01*
G01X2569040D02*
X2614760D01*
G01X2630000D02*
X2670640D01*
G01X2416640Y1528720D02*
X2457280D01*
G01X2503000D02*
X2543640D01*
G01X2569040D02*
X2609680D01*
G01X2630000D02*
X2670640D01*
G01X2411560Y1523640D02*
X2457280D01*
G01X2497920D02*
X2543640D01*
G01X2569040D02*
X2609680D01*
G01X2630000D02*
X2670640D01*
G01X2411560Y1518560D02*
X2452200D01*
G01X2497920D02*
X2543640D01*
G01X2563960D02*
X2609680D01*
G01X2630000D02*
X2670640D01*
G01X2411560Y1513480D02*
X2452200D01*
G01X2497920D02*
X2538560D01*
G01X2563960D02*
X2609680D01*
G01X2630000D02*
X2670640D01*
G01X2411560Y1508400D02*
X2452200D01*
G01X2497920D02*
X2538560D01*
G01X2563960D02*
X2609680D01*
G01X2630000D02*
X2670640D01*
G01X2411560Y1503320D02*
X2452200D01*
G01X2497920D02*
X2538560D01*
G01X2563960D02*
X2609680D01*
G01X2630000D02*
X2670640D01*
G01X2406480Y1498240D02*
X2452200D01*
G01X2492840D02*
X2538560D01*
G01X2563960D02*
X2604600D01*
G01X2630000D02*
X2670640D01*
G01X2406480Y1493160D02*
X2447120D01*
G01X2492840D02*
X2538560D01*
G01X2563960D02*
X2604600D01*
G01X2630000D02*
X2670640D01*
G01X2406480Y1488080D02*
X2447120D01*
G01X2492840D02*
X2533480D01*
G01X2563960D02*
X2604600D01*
G01X2630000D02*
X2670640D01*
G01X2406480Y1483000D02*
X2447120D01*
G01X2492840D02*
X2533480D01*
G01X2563960D02*
X2604600D01*
G01X2630000D02*
X2670640D01*
G01X2401400Y1477920D02*
X2447120D01*
G01X2487760D02*
X2533480D01*
G01X2558880D02*
X2604600D01*
G01X2630000D02*
X2675720D01*
G01X2401400Y1472840D02*
X2442040D01*
G01X2487760D02*
X2533480D01*
G01X2558880D02*
X2604600D01*
G01X2630000D02*
X2675720D01*
G01X2401400Y1467760D02*
X2442040D01*
G01X2487760D02*
X2528400D01*
G01X2558880D02*
X2604600D01*
G01X2630000D02*
X2675720D01*
G01X2401400Y1462680D02*
X2442040D01*
G01X2487760D02*
X2528400D01*
G01X2558880D02*
X2604600D01*
G01X2635080D02*
X2680800D01*
G01X2401400Y1457600D02*
X2442040D01*
G01X2487760D02*
X2528400D01*
G01X2558880D02*
X2604600D01*
G01X2635080D02*
X2680800D01*
G01X2401400Y1452520D02*
X2442040D01*
G01X2482680D02*
X2528400D01*
G01X2558880D02*
X2599520D01*
G01X2635080D02*
X2685880D01*
G01X2396320Y1447440D02*
X2436960D01*
G01X2482680D02*
X2528400D01*
G01X2558880D02*
X2599520D01*
G01X2635080D02*
X2690960D01*
G01X2396320Y1442360D02*
X2436960D01*
G01X2482680D02*
X2523320D01*
G01X2558880D02*
X2599520D01*
G01X2396320Y1437280D02*
X2436960D01*
G01X2482680D02*
X2523320D01*
G01X2558880D02*
X2599520D01*
G01X2396320Y1432200D02*
X2436960D01*
G01X2482680D02*
X2523320D01*
G01X2558880D02*
X2599520D01*
G01X2396320Y1427120D02*
X2436960D01*
G01X2477600D02*
X2523320D01*
G01X2558880D02*
X2599520D01*
G01X2396320Y1422040D02*
X2436960D01*
G01X2477600D02*
X2523320D01*
G01X2558880D02*
X2599520D01*
G01X2391240Y1416960D02*
X2431880D01*
G01X2477600D02*
X2518240D01*
G01X2558880D02*
X2599520D01*
G01X2391240Y1411880D02*
X2431880D01*
G01X2477600D02*
X2518240D01*
G01X2558880D02*
X2599520D01*
G01X2391240Y1406800D02*
X2431880D01*
G01X2477600D02*
X2518240D01*
G01X2558880D02*
X2599520D01*
G01X2391240Y1401720D02*
X2431880D01*
G01X2472520D02*
X2518240D01*
G01X2558880D02*
X2599520D01*
G01X2391240Y1396640D02*
X2431880D01*
G01X2472520D02*
X2518240D01*
G01X2558880D02*
X2599520D01*
G01X2391240Y1391560D02*
X2431880D01*
G01X2472520D02*
X2513160D01*
G01X2558880D02*
X2599520D01*
G01X2391240Y1386480D02*
X2431880D01*
G01X2472520D02*
X2513160D01*
G01X2558880D02*
X2599520D01*
G01X2391240Y1381400D02*
X2431880D01*
G01X2472520D02*
X2513160D01*
G01X2558880D02*
X2599520D01*
G01X2391240Y1376320D02*
X2431880D01*
G01X2467440D02*
X2513160D01*
G01X2558880D02*
X2599520D01*
G01X2391240Y1371240D02*
X2436960D01*
G01X2467440D02*
X2513160D01*
G01X2558880D02*
X2599520D01*
G01X2391240Y1366160D02*
X2436960D01*
G01X2467440D02*
X2508080D01*
G01X2558880D02*
X2599520D01*
G01X2391240Y1361080D02*
X2442040D01*
G01X2467440D02*
X2508080D01*
G01X2558880D02*
X2599520D01*
G01X2396320Y1356000D02*
X2442040D01*
G01X2467440D02*
X2508080D01*
G01X2558880D02*
X2599520D01*
G01X2396320Y1350920D02*
X2447120D01*
G01X2462360D02*
X2508080D01*
G01X2558880D02*
X2599520D01*
G01X2401400Y1345840D02*
X2452200D01*
G01X2462360D02*
X2508080D01*
G01X2558880D02*
X2599520D01*
G01X2401400Y1340760D02*
X2457280D01*
G01X2462360D02*
X2503000D01*
G01X2558880D02*
X2599520D01*
G01X2401400Y1335680D02*
X2503000D01*
G01X2558880D02*
X2604600D01*
G01X2406480Y1330600D02*
X2503000D01*
G01X2563960D02*
X2604600D01*
G01X2411560Y1325520D02*
X2503000D01*
G01X2563960D02*
X2604600D01*
G01X2411560Y1320440D02*
X2503000D01*
G01X2563960D02*
X2609680D01*
G01X2416640Y1315360D02*
X2497920D01*
G01X2563960D02*
X2609680D01*
G01X2421720Y1310280D02*
X2497920D01*
G01X2569040D02*
X2614760D01*
G01X2426800Y1305200D02*
X2497920D01*
G01X2569040D02*
X2614760D01*
G01X2431880Y1300120D02*
X2508080D01*
G01X2569040D02*
X2619840D01*
G01X2436960Y1295040D02*
X2513160D01*
G01X2574120D02*
X2630000D01*
G01X2442040Y1289960D02*
X2523320D01*
G01X2574120D02*
X2635080D01*
G01X2447120Y1284880D02*
X2533480D01*
G01X2579200D02*
X2650320D01*
G01X2452200Y1279800D02*
X2543640D01*
G01X2579200D02*
X2863680D01*
G01X2452200Y1274720D02*
X2548720D01*
G01X2584280D02*
X2858600D01*
G01X2452200Y1269640D02*
X2553800D01*
G01X2589360D02*
X2858600D01*
G01X2452200Y1264560D02*
X2558880D01*
G01X2594440D02*
X2848440D01*
G01X2447120Y1259480D02*
X2558880D01*
G01X2599520D02*
X2838280D01*
G01X2447120Y1254400D02*
X2558880D01*
G01X2604600D02*
X2823040D01*
G01X2447120Y1249320D02*
X2487760D01*
G01X2492840D02*
X2553800D01*
G01X2614760D02*
X2807800D01*
G01X2447120Y1244240D02*
X2487760D01*
G01X2503000D02*
X2553800D01*
G01X2624920D02*
X2787480D01*
G01X2447120Y1239160D02*
X2482680D01*
G01X2518240D02*
X2548720D01*
G01X2452200Y1234080D02*
X2482680D01*
G01X2452200Y1229000D02*
X2477600D01*
G01X2609680Y2448200D02*
X2843360D01*
G01X2563960Y2443120D02*
X2843360D01*
G01X2553800Y2438040D02*
X2848440D01*
G01X2548720Y2432960D02*
X2848440D01*
G01X2543640Y2427880D02*
X2848440D01*
G01X2543640Y2422800D02*
X2848440D01*
G01X2442040Y2417720D02*
X2457280D01*
G01X2543640D02*
X2843360D01*
G01X2436960Y2412640D02*
X2462360D01*
G01X2548720D02*
X2838280D01*
G01X2431880Y2407560D02*
X2467440D01*
G01X2548720D02*
X2640160D01*
G01X2431880Y2402480D02*
X2467440D01*
G01X2553800D02*
X2630000D01*
G01X2431880Y2397400D02*
X2472520D01*
G01X2589360D02*
X2635080D01*
G01X2431880Y2392320D02*
X2472520D01*
G01X2594440D02*
X2635080D01*
G01X2431880Y2387240D02*
X2472520D01*
G01X2594440D02*
X2635080D01*
G01X2431880Y2382160D02*
X2472520D01*
G01X2594440D02*
X2635080D01*
G01X2431880Y2377080D02*
X2472520D01*
G01X2594440D02*
X2640160D01*
G01X2431880Y2372000D02*
X2472520D01*
G01X2594440D02*
X2640160D01*
G01X2431880Y2366920D02*
X2472520D01*
G01X2599520D02*
X2640160D01*
G01X2431880Y2361840D02*
X2472520D01*
G01X2599520D02*
X2640160D01*
G01X2431880Y2356760D02*
X2472520D01*
G01X2599520D02*
X2640160D01*
G01X2431880Y2351680D02*
X2472520D01*
G01X2599520D02*
X2645240D01*
G01X2431880Y2346600D02*
X2472520D01*
G01X2599520D02*
X2645240D01*
G01X2431880Y2341520D02*
X2477600D01*
G01X2604600D02*
X2645240D01*
G01X2431880Y2336440D02*
X2477600D01*
G01X2604600D02*
X2645240D01*
G01X2431880Y2331360D02*
X2477600D01*
G01X2604600D02*
X2650320D01*
G01X2391240Y2326280D02*
X2477600D01*
G01X2604600D02*
X2650320D01*
G01X2381080Y2321200D02*
X2533480D01*
G01X2609680D02*
X2650320D01*
G01X2376000Y2316120D02*
X2538560D01*
G01X2609680D02*
X2650320D01*
G01X2376000Y2311040D02*
X2543640D01*
G01X2609680D02*
X2655400D01*
G01X2376000Y2305960D02*
X2548720D01*
G01X2609680D02*
X2655400D01*
G01X2376000Y2300880D02*
X2548720D01*
G01X2609680D02*
X2655400D01*
G01X2376000Y2295800D02*
X2548720D01*
G01X2614760D02*
X2655400D01*
G01X2381080Y2290720D02*
X2543640D01*
G01X2609680D02*
X2833200D01*
G01X2386160Y2285640D02*
X2543640D01*
G01X2574120D02*
X2838280D01*
G01X2436960Y2280560D02*
X2533480D01*
G01X2563960D02*
X2838280D01*
G01X2436960Y2275480D02*
X2477600D01*
G01X2563960D02*
X2843360D01*
G01X2436960Y2270400D02*
X2477600D01*
G01X2558880D02*
X2843360D01*
G01X2436960Y2265320D02*
X2477600D01*
G01X2558880D02*
X2843360D01*
G01X2436960Y2260240D02*
X2477600D01*
G01X2558880D02*
X2838280D01*
G01X2436960Y2255160D02*
X2482680D01*
G01X2563960D02*
X2833200D01*
G01X2436960Y2250080D02*
X2482680D01*
G01X2563960D02*
X2665560D01*
G01X2436960Y2245000D02*
X2482680D01*
G01X2574120D02*
X2599520D01*
G01X2442040Y2239920D02*
X2482680D01*
G01X2442040Y2234840D02*
X2482680D01*
G01X2442040Y2229760D02*
X2482680D01*
G01X2442040Y2224680D02*
X2482680D01*
G01X2614760D02*
X2635080D01*
G01X2442040Y2219600D02*
X2482680D01*
G01X2609680D02*
X2640160D01*
G01X2442040Y2214520D02*
X2482680D01*
G01X2503000D02*
X2543640D01*
G01X2604600D02*
X2645240D01*
G01X2442040Y2209440D02*
X2548720D01*
G01X2599520D02*
X2645240D01*
G01X2442040Y2204360D02*
X2548720D01*
G01X2599520D02*
X2645240D01*
G01X2442040Y2199280D02*
X2553800D01*
G01X2594440D02*
X2645240D01*
G01X2436960Y2194200D02*
X2553800D01*
G01X2594440D02*
X2640160D01*
G01X2421720Y2189120D02*
X2548720D01*
G01X2589360D02*
X2640160D01*
G01X2406480Y2184040D02*
X2548720D01*
G01X2584280D02*
X2635080D01*
G01X2391240Y2178960D02*
X2548720D01*
G01X2584280D02*
X2635080D01*
G01X2386160Y2173880D02*
X2543640D01*
G01X2579200D02*
X2630000D01*
G01X2381080Y2168800D02*
X2533480D01*
G01X2579200D02*
X2624920D01*
G01X2381080Y2163720D02*
X2513160D01*
G01X2533480D02*
X2645240D01*
G01X2376000Y2158640D02*
X2492840D01*
G01X2523320D02*
X2787480D01*
G01X2376000Y2153560D02*
X2487760D01*
G01X2518240D02*
X2828120D01*
G01X2381080Y2148480D02*
X2487760D01*
G01X2518240D02*
X2848440D01*
G01X2381080Y2143400D02*
X2431880D01*
G01X2447120D02*
X2487760D01*
G01X2518240D02*
X2853520D01*
G01X2386160Y2138320D02*
X2411560D01*
G01X2447120D02*
X2487760D01*
G01X2518240D02*
X2858600D01*
G01X2447120Y2133240D02*
X2487760D01*
G01X2523320D02*
X2858600D01*
G01X2447120Y2128160D02*
X2487760D01*
G01X2523320D02*
X2858600D01*
G01X2447120Y2123080D02*
X2487760D01*
G01X2533480D02*
X2853520D01*
G01X2447120Y2118000D02*
X2487760D01*
G01X2558880D02*
X2853520D01*
G01X2447120Y2112920D02*
X2487760D01*
G01X2558880D02*
X2599520D01*
G01X2447120Y2107840D02*
X2487760D01*
G01X2553800D02*
X2599520D01*
G01X2447120Y2102760D02*
X2487760D01*
G01X2553800D02*
X2599520D01*
G01X2447120Y2097680D02*
X2487760D01*
G01X2553800D02*
X2594440D01*
G01X2452200Y2092600D02*
X2487760D01*
G01X2553800D02*
X2594440D01*
G01X2452200Y2087520D02*
X2487760D01*
G01X2553800D02*
X2594440D01*
G01X2452200Y2082440D02*
X2487760D01*
G01X2553800D02*
X2594440D01*
G01X2452200Y2077360D02*
X2487760D01*
G01X2553800D02*
X2594440D01*
G01X2452200Y2072280D02*
X2487760D01*
G01X2553800D02*
X2594440D01*
G01X2457280Y2067200D02*
X2487760D01*
G01X2553800D02*
X2594440D01*
G01X2457280Y2062120D02*
X2482680D01*
G01X2553800D02*
X2594440D01*
G01X2553800Y2057040D02*
X2594440D01*
G01X2553800Y2051960D02*
X2594440D01*
G01X2553800Y2046880D02*
X2594440D01*
G01X2553800Y2041800D02*
X2599520D01*
G01X2553800Y2036720D02*
X2609680D01*
G01X2558880Y2031640D02*
X2619840D01*
G01X2558880Y2026560D02*
X2645240D01*
G01X2563960Y2021480D02*
X2848440D01*
G01X2569040Y2016400D02*
X2843360D01*
G01X2569040Y2011320D02*
X2843360D01*
G01X2574120Y2006240D02*
X2838280D01*
G01X2584280Y2001160D02*
X2828120D01*
G01X2589360Y1996080D02*
X2807800D01*
G01X2604600Y1991000D02*
X2782400D01*
G01X2619840Y1985920D02*
X2751920D01*
G01X2462360Y3205120D02*
X2482680D01*
G01X2457280Y3200040D02*
X2487760D01*
G01X2452200Y3194960D02*
X2492840D01*
G01X2452200Y3189880D02*
X2492840D01*
G01X2452200Y3184800D02*
X2492840D01*
G01X2447120Y3179720D02*
X2492840D01*
G01X2447120Y3174640D02*
X2492840D01*
G01X2447120Y3169560D02*
X2487760D01*
G01X2442040Y3164480D02*
X2487760D01*
G01X2442040Y3159400D02*
X2487760D01*
G01X2442040Y3154320D02*
X2487760D01*
G01X2442040Y3149240D02*
X2482680D01*
G01X2436960Y3144160D02*
X2482680D01*
G01X2436960Y3139080D02*
X2482680D01*
G01X2436960Y3134000D02*
X2482680D01*
G01X2431880Y3128920D02*
X2477600D01*
G01X2431880Y3123840D02*
X2477600D01*
G01X2431880Y3118760D02*
X2477600D01*
G01X2431880Y3113680D02*
X2472520D01*
G01X2426800Y3108600D02*
X2472520D01*
G01X2386160Y3103520D02*
X2472520D01*
G01X2624920D02*
X2848440D01*
G01X2381080Y3098440D02*
X2513160D01*
G01X2614760D02*
X2853520D01*
G01X2376000Y3093360D02*
X2563960D01*
G01X2609680D02*
X2853520D01*
G01X2376000Y3088280D02*
X2584280D01*
G01X2609680D02*
X2848440D01*
G01X2376000Y3083200D02*
X2594440D01*
G01X2609680D02*
X2848440D01*
G01X2376000Y3078120D02*
X2599520D01*
G01X2609680D02*
X2843360D01*
G01X2376000Y3073040D02*
X2599520D01*
G01X2609680D02*
X2772240D01*
G01X2381080Y3067960D02*
X2599520D01*
G01X2614760D02*
X2721440D01*
G01X2396320Y3062880D02*
X2599520D01*
G01X2619840D02*
X2660480D01*
G01X2416640Y3057800D02*
X2599520D01*
G01X2416640Y3052720D02*
X2457280D01*
G01X2482680D02*
X2599520D01*
G01X2411560Y3047640D02*
X2457280D01*
G01X2533480D02*
X2589360D01*
G01X2411560Y3042560D02*
X2457280D01*
G01X2411560Y3037480D02*
X2452200D01*
G01X2411560Y3032400D02*
X2452200D01*
G01X2406480Y3027320D02*
X2452200D01*
G01X2406480Y3022240D02*
X2452200D01*
G01X2406480Y3017160D02*
X2447120D01*
G01X2406480Y3012080D02*
X2447120D01*
G01X2406480Y3007000D02*
X2447120D01*
G01X2406480Y3001920D02*
X2447120D01*
G01X2497920D02*
X2508080D01*
G01X2401400Y2996840D02*
X2447120D01*
G01X2487760D02*
X2518240D01*
G01X2401400Y2991760D02*
X2442040D01*
G01X2487760D02*
X2518240D01*
G01X2401400Y2986680D02*
X2442040D01*
G01X2482680D02*
X2523320D01*
G01X2401400Y2981600D02*
X2442040D01*
G01X2482680D02*
X2523320D01*
G01X2635080D02*
X2873840D01*
G01X2401400Y2976520D02*
X2442040D01*
G01X2482680D02*
X2523320D01*
G01X2619840D02*
X2868760D01*
G01X2401400Y2971440D02*
X2442040D01*
G01X2482680D02*
X2523320D01*
G01X2609680D02*
X2868760D01*
G01X2401400Y2966360D02*
X2442040D01*
G01X2482680D02*
X2523320D01*
G01X2599520D02*
X2863680D01*
G01X2401400Y2961280D02*
X2442040D01*
G01X2482680D02*
X2523320D01*
G01X2594440D02*
X2802720D01*
G01X2401400Y2956200D02*
X2442040D01*
G01X2482680D02*
X2523320D01*
G01X2594440D02*
X2731600D01*
G01X2401400Y2951120D02*
X2442040D01*
G01X2482680D02*
X2523320D01*
G01X2594440D02*
X2701120D01*
G01X2401400Y2946040D02*
X2442040D01*
G01X2487760D02*
X2528400D01*
G01X2594440D02*
X2696040D01*
G01X2401400Y2940960D02*
X2447120D01*
G01X2487760D02*
X2528400D01*
G01X2553800D02*
X2584280D01*
G01X2594440D02*
X2696040D01*
G01X2406480Y2935880D02*
X2447120D01*
G01X2487760D02*
X2528400D01*
G01X2538560D02*
X2584280D01*
G01X2599520D02*
X2640160D01*
G01X2406480Y2930800D02*
X2452200D01*
G01X2487760D02*
X2589360D01*
G01X2604600D02*
X2624920D01*
G01X2406480Y2925720D02*
X2457280D01*
G01X2487760D02*
X2589360D01*
G01X2406480Y2920640D02*
X2589360D01*
G01X2411560Y2915560D02*
X2589360D01*
G01X2411560Y2910480D02*
X2584280D01*
G01X2416640Y2905400D02*
X2584280D01*
G01X2416640Y2900320D02*
X2574120D01*
G01X2421720Y2895240D02*
X2558880D01*
G01X2426800Y2890160D02*
X2548720D01*
G01X2436960Y2885080D02*
X2533480D01*
G01X2447120Y2880000D02*
X2533480D01*
G01X2492840Y2874920D02*
X2533480D01*
G01X2492840Y2869840D02*
X2533480D01*
G01X2492840Y2864760D02*
X2533480D01*
G01X2492840Y2859680D02*
X2533480D01*
G01X2492840Y2854600D02*
X2533480D01*
G01X2492840Y2849520D02*
X2533480D01*
G01X2492840Y2844440D02*
X2533480D01*
G01X2497920Y2839360D02*
X2538560D01*
G01X2497920Y2834280D02*
X2538560D01*
G01X2497920Y2829200D02*
X2538560D01*
G01X2584280D02*
X2614760D01*
G01X2497920Y2824120D02*
X2538560D01*
G01X2569040D02*
X2619840D01*
G01X2497920Y2819040D02*
X2538560D01*
G01X2553800D02*
X2624920D01*
G01X2497920Y2813960D02*
X2624920D01*
G01X2497920Y2808880D02*
X2624920D01*
G01X2482680Y2803800D02*
X2624920D01*
G01X2447120Y2798720D02*
X2619840D01*
G01X2401400Y2793640D02*
X2614760D01*
G01X2391240Y2788560D02*
X2599520D01*
G01X2386160Y2783480D02*
X2589360D01*
G01X2386160Y2778400D02*
X2574120D01*
G01X2386160Y2773320D02*
X2558880D01*
G01X2386160Y2768240D02*
X2543640D01*
G01X2386160Y2763160D02*
X2543640D01*
G01X2386160Y2758080D02*
X2543640D01*
G01X2391240Y2753000D02*
X2477600D01*
G01X2503000D02*
X2543640D01*
G01X2503000Y2747920D02*
X2543640D01*
G01X2503000Y2742840D02*
X2543640D01*
G01X2503000Y2737760D02*
X2543640D01*
G01X2508080Y2732680D02*
X2548720D01*
G01X2508080Y2727600D02*
X2548720D01*
G01X2508080Y2722520D02*
X2548720D01*
G01X2508080Y2717440D02*
X2548720D01*
G01X2508080Y2712360D02*
X2548720D01*
G01X2508080Y2707280D02*
X2548720D01*
G01X2508080Y2702200D02*
X2548720D01*
G01X2508080Y2697120D02*
X2548720D01*
G01X2508080Y2692040D02*
X2548720D01*
G01X2508080Y2686960D02*
X2548720D01*
G01X2513160Y2681880D02*
X2553800D01*
G01X2513160Y2676800D02*
X2553800D01*
G01X2513160Y2671720D02*
X2553800D01*
G01X2513160Y2666640D02*
X2548720D01*
G01X2518240Y2661560D02*
X2548720D01*
G01X2528400Y2656480D02*
X2543640D01*
G01X2721440Y1716680D02*
X2848440D01*
G01X2721440Y1711600D02*
X2762080D01*
G01X2721440Y1706520D02*
X2762080D01*
G01X2721440Y1701440D02*
X2762080D01*
G01X2726520Y1696360D02*
X2762080D01*
G01X2726520Y1691280D02*
X2762080D01*
G01X2726520Y1686200D02*
X2762080D01*
G01X2726520Y1681120D02*
X2767160D01*
G01X2726520Y1676040D02*
X2767160D01*
G01X2726520Y1670960D02*
X2767160D01*
G01X2726520Y1665880D02*
X2767160D01*
G01X2726520Y1660800D02*
X2767160D01*
G01X2726520Y1655720D02*
X2767160D01*
G01X2726520Y1650640D02*
X2767160D01*
G01X2726520Y1645560D02*
X2767160D01*
G01X2726520Y1640480D02*
X2767160D01*
G01X2731600Y1635400D02*
X2767160D01*
G01X2731600Y1630320D02*
X2767160D01*
G01X2731600Y1625240D02*
X2767160D01*
G01X2726520Y1620160D02*
X2767160D01*
G01X2701120Y1615080D02*
X2782400D01*
G01X2685880Y1610000D02*
X2797640D01*
G01X2660480Y1604920D02*
X2807800D01*
G01X2650320Y1599840D02*
X2812880D01*
G01X2645240Y1594760D02*
X2817960D01*
G01X2645240Y1589680D02*
X2823040D01*
G01X2640160Y1584600D02*
X2828120D01*
G01X2640160Y1579520D02*
X2833200D01*
G01X2640160Y1574440D02*
X2736680D01*
G01X2751920D02*
X2833200D01*
G01X2640160Y1569360D02*
X2716360D01*
G01X2777320D02*
X2838280D01*
G01X2787480Y1564280D02*
X2843360D01*
G01X2792560Y1559200D02*
X2843360D01*
G01X2797640Y1554120D02*
X2843360D01*
G01X2802720Y1549040D02*
X2848440D01*
G01X2802720Y1543960D02*
X2848440D01*
G01X2807800Y1538880D02*
X2848440D01*
G01X2807800Y1533800D02*
X2848440D01*
G01X2807800Y1528720D02*
X2848440D01*
G01X2812880Y1523640D02*
X2853520D01*
G01X2812880Y1518560D02*
X2853520D01*
G01X2812880Y1513480D02*
X2853520D01*
G01X2812880Y1508400D02*
X2853520D01*
G01X2812880Y1503320D02*
X2853520D01*
G01X2812880Y1498240D02*
X2853520D01*
G01X2807800Y1493160D02*
X2853520D01*
G01X2807800Y1488080D02*
X2853520D01*
G01X2807800Y1483000D02*
X2853520D01*
G01X2807800Y1477920D02*
X2848440D01*
G01X2807800Y1472840D02*
X2848440D01*
G01X2807800Y1467760D02*
X2848440D01*
G01X2802720Y1462680D02*
X2848440D01*
G01X2802720Y1457600D02*
X2848440D01*
G01X2797640Y1452520D02*
X2843360D01*
G01X2792560Y1447440D02*
X2843360D01*
G01X2640160Y1442360D02*
X2696040D01*
G01X2787480D02*
X2843360D01*
G01X2640160Y1437280D02*
X2706200D01*
G01X2782400D02*
X2838280D01*
G01X2645240Y1432200D02*
X2721440D01*
G01X2772240D02*
X2838280D01*
G01X2650320Y1427120D02*
X2833200D01*
G01X2650320Y1422040D02*
X2828120D01*
G01X2655400Y1416960D02*
X2828120D01*
G01X2660480Y1411880D02*
X2823040D01*
G01X2665560Y1406800D02*
X2817960D01*
G01X2675720Y1401720D02*
X2807800D01*
G01X2685880Y1396640D02*
X2802720D01*
G01X2696040Y1391560D02*
X2792560D01*
G01X2711280Y1386480D02*
X2777320D01*
G01X2711280Y1381400D02*
X2751920D01*
G01X2711280Y1376320D02*
X2751920D01*
G01X2711280Y1371240D02*
X2751920D01*
G01X2711280Y1366160D02*
X2751920D01*
G01X2711280Y1361080D02*
X2751920D01*
G01X2711280Y1356000D02*
X2751920D01*
G01X2716360Y1350920D02*
X2751920D01*
G01X2716360Y1345840D02*
X2757000D01*
G01X2716360Y1340760D02*
X2757000D01*
G01X2716360Y1335680D02*
X2757000D01*
G01X2716360Y1330600D02*
X2757000D01*
G01X2716360Y1325520D02*
X2757000D01*
G01X2716360Y1320440D02*
X2757000D01*
G01X2716360Y1315360D02*
X2757000D01*
G01X2721440Y1310280D02*
X2762080D01*
G01X2721440Y1305200D02*
X2762080D01*
G01X2828120D02*
X2858600D01*
G01X2721440Y1300120D02*
X2762080D01*
G01X2812880D02*
X2863680D01*
G01X2721440Y1295040D02*
X2762080D01*
G01X2797640D02*
X2863680D01*
G01X2721440Y1289960D02*
X2762080D01*
G01X2777320D02*
X2863680D01*
G01X2721440Y1284880D02*
X2863680D01*
G01X2640160Y1239160D02*
X2757000D01*
G01X2655400Y2509160D02*
X2670640D01*
G01X2650320Y2504080D02*
X2675720D01*
G01X2645240Y2499000D02*
X2680800D01*
G01X2645240Y2493920D02*
X2685880D01*
G01X2640160Y2488840D02*
X2690960D01*
G01X2640160Y2483760D02*
X2696040D01*
G01X2640160Y2478680D02*
X2701120D01*
G01X2645240Y2473600D02*
X2701120D01*
G01X2645240Y2468520D02*
X2706200D01*
G01X2650320Y2463440D02*
X2711280D01*
G01X2650320Y2458360D02*
X2711280D01*
G01X2655400Y2453280D02*
X2828120D01*
G01X2762080Y2407560D02*
X2807800D01*
G01X2757000Y2402480D02*
X2802720D01*
G01X2757000Y2397400D02*
X2802720D01*
G01X2757000Y2392320D02*
X2802720D01*
G01X2751920Y2387240D02*
X2797640D01*
G01X2751920Y2382160D02*
X2797640D01*
G01X2746840Y2377080D02*
X2792560D01*
G01X2746840Y2372000D02*
X2792560D01*
G01X2746840Y2366920D02*
X2792560D01*
G01X2741760Y2361840D02*
X2787480D01*
G01X2741760Y2356760D02*
X2787480D01*
G01X2741760Y2351680D02*
X2787480D01*
G01X2736680Y2346600D02*
X2782400D01*
G01X2736680Y2341520D02*
X2782400D01*
G01X2736680Y2336440D02*
X2782400D01*
G01X2731600Y2331360D02*
X2777320D01*
G01X2731600Y2326280D02*
X2777320D01*
G01X2731600Y2321200D02*
X2777320D01*
G01X2726520Y2316120D02*
X2772240D01*
G01X2726520Y2311040D02*
X2772240D01*
G01X2726520Y2305960D02*
X2772240D01*
G01X2721440Y2300880D02*
X2767160D01*
G01X2721440Y2295800D02*
X2817960D01*
G01X2767160Y2209440D02*
X2792560D01*
G01X2762080Y2204360D02*
X2797640D01*
G01X2757000Y2199280D02*
X2797640D01*
G01X2757000Y2194200D02*
X2797640D01*
G01X2757000Y2189120D02*
X2797640D01*
G01X2751920Y2184040D02*
X2797640D01*
G01X2751920Y2178960D02*
X2797640D01*
G01X2746840Y2173880D02*
X2792560D01*
G01X2746840Y2168800D02*
X2792560D01*
G01X2746840Y2163720D02*
X2792560D01*
G01X2706200Y2112920D02*
X2843360D01*
G01X2721440Y2107840D02*
X2767160D01*
G01X2721440Y2102760D02*
X2767160D01*
G01X2721440Y2097680D02*
X2762080D01*
G01X2716360Y2092600D02*
X2762080D01*
G01X2716360Y2087520D02*
X2762080D01*
G01X2711280Y2082440D02*
X2757000D01*
G01X2711280Y2077360D02*
X2757000D01*
G01X2711280Y2072280D02*
X2757000D01*
G01X2706200Y2067200D02*
X2751920D01*
G01X2706200Y2062120D02*
X2751920D01*
G01X2706200Y2057040D02*
X2746840D01*
G01X2701120Y2051960D02*
X2746840D01*
G01X2701120Y2046880D02*
X2746840D01*
G01X2701120Y2041800D02*
X2741760D01*
G01X2807800D02*
X2838280D01*
G01X2696040Y2036720D02*
X2741760D01*
G01X2777320D02*
X2843360D01*
G01X2696040Y2031640D02*
X2848440D01*
G01X2690960Y2026560D02*
X2848440D01*
G01X2660480Y1980840D02*
X2721440D01*
G01X2675720Y1975760D02*
X2721440D01*
G01X2675720Y1970680D02*
X2716360D01*
G01X2675720Y1965600D02*
X2716360D01*
G01X2675720Y1960520D02*
X2711280D01*
G01X2680800Y1955440D02*
X2711280D01*
G01X2680800Y1950360D02*
X2706200D01*
G01X2716360Y3210200D02*
X2736680D01*
G01X2706200Y3205120D02*
X2741760D01*
G01X2706200Y3200040D02*
X2746840D01*
G01X2701120Y3194960D02*
X2746840D01*
G01X2701120Y3189880D02*
X2746840D01*
G01X2701120Y3184800D02*
X2746840D01*
G01X2701120Y3179720D02*
X2746840D01*
G01X2696040Y3174640D02*
X2741760D01*
G01X2696040Y3169560D02*
X2741760D01*
G01X2696040Y3164480D02*
X2741760D01*
G01X2696040Y3159400D02*
X2741760D01*
G01X2690960Y3154320D02*
X2741760D01*
G01X2690960Y3149240D02*
X2736680D01*
G01X2690960Y3144160D02*
X2736680D01*
G01X2690960Y3139080D02*
X2736680D01*
G01X2690960Y3134000D02*
X2736680D01*
G01X2685880Y3128920D02*
X2736680D01*
G01X2685880Y3123840D02*
X2731600D01*
G01X2685880Y3118760D02*
X2731600D01*
G01X2751920D02*
X2833200D01*
G01X2680800Y3113680D02*
X2843360D01*
G01X2650320Y3108600D02*
X2848440D01*
G01X2675720Y3062880D02*
X2721440D01*
G01X2675720Y3057800D02*
X2721440D01*
G01X2670640Y3052720D02*
X2716360D01*
G01X2670640Y3047640D02*
X2716360D01*
G01X2670640Y3042560D02*
X2716360D01*
G01X2670640Y3037480D02*
X2716360D01*
G01X2670640Y3032400D02*
X2716360D01*
G01X2670640Y3027320D02*
X2711280D01*
G01X2665560Y3022240D02*
X2711280D01*
G01X2665560Y3017160D02*
X2711280D01*
G01X2665560Y3012080D02*
X2711280D01*
G01X2665560Y3007000D02*
X2711280D01*
G01X2797640D02*
X2838280D01*
G01X2665560Y3001920D02*
X2711280D01*
G01X2736680D02*
X2858600D01*
G01X2665560Y2996840D02*
X2863680D01*
G01X2660480Y2991760D02*
X2868760D01*
G01X2655400Y2986680D02*
X2868760D01*
G01X2655400Y2935880D02*
X2696040D01*
G01X2655400Y2930800D02*
X2696040D01*
G01X2655400Y2925720D02*
X2696040D01*
G01X2650320Y2920640D02*
X2696040D01*
G01X2650320Y2915560D02*
X2696040D01*
G01X2650320Y2910480D02*
X2690960D01*
G01X2650320Y2905400D02*
X2690960D01*
G01X2777320D02*
X2807800D01*
G01X2650320Y2900320D02*
X2690960D01*
G01X2762080D02*
X2817960D01*
G01X2650320Y2895240D02*
X2690960D01*
G01X2741760D02*
X2828120D01*
G01X2650320Y2890160D02*
X2690960D01*
G01X2731600D02*
X2833200D01*
G01X2650320Y2885080D02*
X2690960D01*
G01X2716360D02*
X2838280D01*
G01X2650320Y2880000D02*
X2838280D01*
G01X2650320Y2874920D02*
X2843360D01*
G01X2650320Y2869840D02*
X2843360D01*
G01X2650320Y2864760D02*
X2848440D01*
G01X2655400Y2859680D02*
X2772240D01*
G01X2802720D02*
X2848440D01*
G01X2655400Y2854600D02*
X2751920D01*
G01X2807800D02*
X2848440D01*
G01X2660480Y2849520D02*
X2736680D01*
G01X2807800D02*
X2848440D01*
G01X2665560Y2844440D02*
X2721440D01*
G01X2807800D02*
X2848440D01*
G01X2680800Y2839360D02*
X2701120D01*
G01X2807800D02*
X2848440D01*
G01X2807800Y2834280D02*
X2848440D01*
G01X2807800Y2829200D02*
X2848440D01*
G01X2807800Y2824120D02*
X2848440D01*
G01X2802720Y2819040D02*
X2848440D01*
G01X2802720Y2813960D02*
X2843360D01*
G01X2802720Y2808880D02*
X2843360D01*
G01X2797640Y2803800D02*
X2843360D01*
G01X2797640Y2798720D02*
X2843360D01*
G01X2792560Y2793640D02*
X2838280D01*
G01X2792560Y2788560D02*
X2838280D01*
G01X2711280Y2783480D02*
X2736680D01*
G01X2792560D02*
X2833200D01*
G01X2706200Y2778400D02*
X2741760D01*
G01X2787480D02*
X2833200D01*
G01X2706200Y2773320D02*
X2746840D01*
G01X2787480D02*
X2833200D01*
G01X2706200Y2768240D02*
X2746840D01*
G01X2782400D02*
X2828120D01*
G01X2706200Y2763160D02*
X2751920D01*
G01X2782400D02*
X2828120D01*
G01X2706200Y2758080D02*
X2751920D01*
G01X2782400D02*
X2828120D01*
G01X2706200Y2753000D02*
X2757000D01*
G01X2777320D02*
X2823040D01*
G01X2711280Y2747920D02*
X2757000D01*
G01X2777320D02*
X2823040D01*
G01X2711280Y2742840D02*
X2762080D01*
G01X2772240D02*
X2817960D01*
G01X2716360Y2737760D02*
X2762080D01*
G01X2772240D02*
X2817960D01*
G01X2716360Y2732680D02*
X2812880D01*
G01X2721440Y2727600D02*
X2812880D01*
G01X2721440Y2722520D02*
X2812880D01*
G01X2726520Y2717440D02*
X2807800D01*
G01X2726520Y2712360D02*
X2807800D01*
G01X2731600Y2707280D02*
X2802720D01*
G01X2736680Y2702200D02*
X2802720D01*
G01X2736680Y2697120D02*
X2797640D01*
G01X2741760Y2692040D02*
X2797640D01*
G01X2746840Y2686960D02*
X2797640D01*
G01X2751920Y2681880D02*
X2802720D01*
G01X2751920Y2676800D02*
X2807800D01*
G01X2757000Y2671720D02*
X2807800D01*
G01X2762080Y2666640D02*
X2807800D01*
G01X2767160Y2661560D02*
X2807800D01*
G01X2767160Y2656480D02*
X2807800D01*
G01X2772240Y2651400D02*
X2802720D01*
G01X2782400Y2646320D02*
X2797640D01*
G01X8100000Y3387840D02*
X8125400D01*
G01X8100000Y3382760D02*
X8130480D01*
G01X8100000Y3377680D02*
X8130480D01*
G01X8100000Y3372600D02*
X8130480D01*
G01X8105080Y3367520D02*
X8130480D01*
G01X8105080Y3362440D02*
X8130480D01*
G01X8105080Y3357360D02*
X8130480D01*
G01X8105080Y3352280D02*
X8130480D01*
G01X8105080Y3347200D02*
X8130480D01*
G01X8105080Y3342120D02*
X8130480D01*
G01X8105080Y3337040D02*
X8130480D01*
G01X8105080Y3331960D02*
X8130480D01*
G01X8105080Y3326880D02*
X8130480D01*
G01X8105080Y3321800D02*
X8130480D01*
G01X8105080Y3316720D02*
X8130480D01*
G01X8105080Y3311640D02*
X8130480D01*
G01X8105080Y3306560D02*
X8130480D01*
G01X8105080Y3301480D02*
X8130480D01*
G01X8105080Y3296400D02*
X8130480D01*
G01X8105080Y3291320D02*
X8130480D01*
G01X8105080Y3286240D02*
X8130480D01*
G01X8105080Y3281160D02*
X8130480D01*
G01X8105080Y3276080D02*
X8130480D01*
G01X8105080Y3271000D02*
X8130480D01*
G01X8105080Y3265920D02*
X8130480D01*
G01X8105080Y3260840D02*
X8130480D01*
G01X8105080Y3255760D02*
X8130480D01*
G01X8105080Y3250680D02*
X8130480D01*
G01X8105080Y3245600D02*
X8130480D01*
G01X8110160Y3240520D02*
X8130480D01*
G01X8110160Y3235440D02*
X8130480D01*
G01X8110160Y3230360D02*
X8130480D01*
G01X8110160Y3225280D02*
X8130480D01*
G01X8110160Y3220200D02*
X8130480D01*
G01X8110160Y3215120D02*
X8130480D01*
G01X8110160Y3210040D02*
X8130480D01*
G01X8110160Y3204960D02*
X8130480D01*
G01X8110160Y3199880D02*
X8130480D01*
G01X8110160Y3194800D02*
X8130480D01*
G01X8110160Y3189720D02*
X8130480D01*
G01X8110160Y3184640D02*
X8130480D01*
G01X8110160Y3179560D02*
X8130480D01*
G01X8110160Y3174480D02*
X8130480D01*
G01X8110160Y3169400D02*
X8130480D01*
G01X8110160Y3164320D02*
X8130480D01*
G01X8110160Y3159240D02*
X8130480D01*
G01X8110160Y3154160D02*
X8130480D01*
G01X8110160Y3149080D02*
X8130480D01*
G01X8110160Y3144000D02*
X8130480D01*
G01X8110160Y3138920D02*
X8130480D01*
G01X8110160Y3133840D02*
X8130480D01*
G01X8110160Y3128760D02*
X8130480D01*
G01X8110160Y3123680D02*
X8130480D01*
G01X8110160Y3118600D02*
X8130480D01*
G01X8110160Y3113520D02*
X8130480D01*
G01X8110160Y3108440D02*
X8130480D01*
G01X8110160Y3103360D02*
X8130480D01*
G01X8110160Y3098280D02*
X8130480D01*
G01X8110160Y3093200D02*
X8130480D01*
G01X8110160Y3088120D02*
X8130480D01*
G01X8110160Y3083040D02*
X8130480D01*
G01X8110160Y3077960D02*
X8130480D01*
G01X8110160Y3072880D02*
X8130480D01*
G01X8110160Y3067800D02*
X8130480D01*
G01X8110160Y3062720D02*
X8130480D01*
G01X8110160Y3057640D02*
X8130480D01*
G01X8110160Y3052560D02*
X8130480D01*
G01X8110160Y3047480D02*
X8130480D01*
G01X8110160Y3042400D02*
X8130480D01*
G01X8110160Y3037320D02*
X8130480D01*
G01X8110160Y3032240D02*
X8130480D01*
G01X8110160Y3027160D02*
X8130480D01*
G01X8110160Y3022080D02*
X8130480D01*
G01X8110160Y3017000D02*
X8130480D01*
G01X8110160Y3011920D02*
X8130480D01*
G01X8110160Y3006840D02*
X8130480D01*
G01X8110160Y3001760D02*
X8130480D01*
G01X8110160Y2996680D02*
X8130480D01*
G01X8110160Y2991600D02*
X8130480D01*
G01X8110160Y2986520D02*
X8130480D01*
G01X8110160Y2981440D02*
X8135560D01*
G01X8110160Y2976360D02*
X8135560D01*
G01X8110160Y2971280D02*
X8135560D01*
G01X8110160Y2966200D02*
X8135560D01*
G01X8110160Y2961120D02*
X8135560D01*
G01X8110160Y2956040D02*
X8135560D01*
G01X8110160Y2950960D02*
X8135560D01*
G01X8110160Y2945880D02*
X8135560D01*
G01X8110160Y2940800D02*
X8135560D01*
G01X8110160Y2935720D02*
X8135560D01*
G01X8110160Y2930640D02*
X8135560D01*
G01X8110160Y2925560D02*
X8135560D01*
G01X8110160Y2920480D02*
X8135560D01*
G01X8110160Y2915400D02*
X8135560D01*
G01X8110160Y2910320D02*
X8135560D01*
G01X8110160Y2905240D02*
X8135560D01*
G01X8110160Y2900160D02*
X8135560D01*
G01X8110160Y2895080D02*
X8135560D01*
G01X8110160Y2890000D02*
X8135560D01*
G01X8110160Y2884920D02*
X8135560D01*
G01X8110160Y2879840D02*
X8135560D01*
G01X8110160Y2874760D02*
X8135560D01*
G01X8110160Y2869680D02*
X8135560D01*
G01X8110160Y2864600D02*
X8135560D01*
G01X8110160Y2859520D02*
X8135560D01*
G01X8110160Y2854440D02*
X8135560D01*
G01X8110160Y2849360D02*
X8135560D01*
G01X8110160Y2844280D02*
X8135560D01*
G01X8110160Y2839200D02*
X8135560D01*
G01X8110160Y2834120D02*
X8135560D01*
G01X8110160Y2829040D02*
X8135560D01*
G01X8110160Y2823960D02*
X8135560D01*
G01X8110160Y2818880D02*
X8135560D01*
G01X8110160Y2813800D02*
X8135560D01*
G01X8110160Y2808720D02*
X8135560D01*
G01X8110160Y2803640D02*
X8135560D01*
G01X8110160Y2798560D02*
X8135560D01*
G01X8110160Y2793480D02*
X8135560D01*
G01X8110160Y2788400D02*
X11950640D01*
G01X8110160Y2783320D02*
X11950640D01*
G01X8110160Y2778240D02*
X11950640D01*
G01X8110160Y2773160D02*
X8115240D01*
G01X8120320D02*
X10040560D01*
G01X8110160Y2768080D02*
X8115240D01*
G01X8110160Y2763000D02*
X8115240D01*
G01X8100000Y4139680D02*
X8582600D01*
G01X8100000Y4134600D02*
X8592760D01*
G01X8100000Y4129520D02*
X8608000D01*
G01X8100000Y4124440D02*
X8618160D01*
G01X8100000Y4119360D02*
X8628320D01*
G01X8100000Y4114280D02*
X8653720D01*
G01X8100000Y4109200D02*
X8653720D01*
G01X8100000Y4104120D02*
X8663880D01*
G01X8100000Y4099040D02*
X8684200D01*
G01X8100000Y4093960D02*
X8694360D01*
G01X8100000Y4088880D02*
X8704520D01*
G01X8100000Y4083800D02*
X8724840D01*
G01X8100000Y4078720D02*
X8745160D01*
G01X8100000Y4073640D02*
X8780720D01*
G01X8100000Y4068560D02*
X8795960D01*
G01X8100000Y4063480D02*
X8811200D01*
G01X8100000Y4058400D02*
X8821360D01*
G01X8100000Y4053320D02*
X8826440D01*
G01X8100000Y4048240D02*
X8836600D01*
G01X8100000Y4043160D02*
X8846760D01*
G01X8100000Y4038080D02*
X8856920D01*
G01X8100000Y4033000D02*
X8867080D01*
G01X8100000Y4027920D02*
X8907720D01*
G01X8100000Y4022840D02*
X8912800D01*
G01X8100000Y4017760D02*
X8917880D01*
G01X8100000Y4012680D02*
X8922960D01*
G01X8100000Y4007600D02*
X8928040D01*
G01X8100000Y4002520D02*
X8938200D01*
G01X8100000Y3997440D02*
X8989000D01*
G01X8100000Y3992360D02*
X9049960D01*
G01X8100000Y3987280D02*
X8120320D01*
G01X8100000Y3982200D02*
X8120320D01*
G01X8100000Y3977120D02*
X8120320D01*
G01X8100000Y3972040D02*
X8120320D01*
G01X8100000Y3966960D02*
X8120320D01*
G01X8100000Y3961880D02*
X8120320D01*
G01X8100000Y3956800D02*
X8120320D01*
G01X8100000Y3951720D02*
X8120320D01*
G01X8100000Y3946640D02*
X8120320D01*
G01X8100000Y3941560D02*
X8120320D01*
G01X8100000Y3936480D02*
X8120320D01*
G01X8100000Y3931400D02*
X8120320D01*
G01X8100000Y3926320D02*
X8120320D01*
G01X8100000Y3921240D02*
X8120320D01*
G01X8100000Y3916160D02*
X8120320D01*
G01X8100000Y3911080D02*
X8120320D01*
G01X8100000Y3906000D02*
X8120320D01*
G01X8100000Y3900920D02*
X8120320D01*
G01X8100000Y3895840D02*
X8120320D01*
G01X8100000Y3890760D02*
X8120320D01*
G01X8100000Y3885680D02*
X8120320D01*
G01X8100000Y3880600D02*
X8120320D01*
G01X8100000Y3875520D02*
X8120320D01*
G01X8100000Y3870440D02*
X8120320D01*
G01X8100000Y3865360D02*
X8120320D01*
G01X8100000Y3860280D02*
X8120320D01*
G01X8100000Y3855200D02*
X8120320D01*
G01X8100000Y3850120D02*
X8120320D01*
G01X8100000Y3845040D02*
X8120320D01*
G01X8100000Y3839960D02*
X8120320D01*
G01X8100000Y3834880D02*
X8120320D01*
G01X8100000Y3829800D02*
X8120320D01*
G01X8100000Y3824720D02*
X8120320D01*
G01X8100000Y3819640D02*
X8120320D01*
G01X8100000Y3814560D02*
X8120320D01*
G01X8100000Y3809480D02*
X8120320D01*
G01X8100000Y3804400D02*
X8120320D01*
G01X8100000Y3799320D02*
X8120320D01*
G01X8100000Y3794240D02*
X8120320D01*
G01X8100000Y3789160D02*
X8120320D01*
G01X8100000Y3784080D02*
X8125400D01*
G01X8100000Y3779000D02*
X8125400D01*
G01X8100000Y3773920D02*
X8125400D01*
G01X8100000Y3768840D02*
X8125400D01*
G01X8100000Y3763760D02*
X8125400D01*
G01X8100000Y3758680D02*
X8125400D01*
G01X8100000Y3753600D02*
X8125400D01*
G01X8100000Y3748520D02*
X8125400D01*
G01X8100000Y3743440D02*
X8125400D01*
G01X8100000Y3738360D02*
X8125400D01*
G01X8100000Y3733280D02*
X8125400D01*
G01X8100000Y3728200D02*
X8125400D01*
G01X8100000Y3723120D02*
X8125400D01*
G01X8100000Y3718040D02*
X8125400D01*
G01X8100000Y3712960D02*
X8125400D01*
G01X8100000Y3707880D02*
X8125400D01*
G01X8100000Y3702800D02*
X8125400D01*
G01X8100000Y3697720D02*
X8125400D01*
G01X8100000Y3692640D02*
X8125400D01*
G01X8663880D02*
X9806880D01*
G01X8100000Y3687560D02*
X8125400D01*
G01X8653720D02*
X9811960D01*
G01X8100000Y3682480D02*
X8125400D01*
G01X8653720D02*
X9811960D01*
G01X8100000Y3677400D02*
X8125400D01*
G01X8648640D02*
X9776400D01*
G01X8100000Y3672320D02*
X8125400D01*
G01X8643560D02*
X9766240D01*
G01X8100000Y3667240D02*
X8125400D01*
G01X8638480D02*
X9766240D01*
G01X8100000Y3662160D02*
X8125400D01*
G01X8638480D02*
X9771320D01*
G01X8100000Y3657080D02*
X8125400D01*
G01X8633400D02*
X9776400D01*
G01X8100000Y3652000D02*
X8125400D01*
G01X8633400D02*
X9781480D01*
G01X8100000Y3646920D02*
X8125400D01*
G01X8633400D02*
X9786560D01*
G01X8100000Y3641840D02*
X8125400D01*
G01X8628320D02*
X9791640D01*
G01X8100000Y3636760D02*
X8125400D01*
G01X8628320D02*
X9796720D01*
G01X8100000Y3631680D02*
X8125400D01*
G01X8628320D02*
X9801800D01*
G01X8100000Y3626600D02*
X8125400D01*
G01X8623240D02*
X9806880D01*
G01X8100000Y3621520D02*
X8125400D01*
G01X8623240D02*
X9817040D01*
G01X8100000Y3616440D02*
X8125400D01*
G01X8623240D02*
X9817040D01*
G01X8100000Y3611360D02*
X8125400D01*
G01X8623240D02*
X9811960D01*
G01X8100000Y3606280D02*
X8125400D01*
G01X8618160D02*
X9811960D01*
G01X8100000Y3601200D02*
X8125400D01*
G01X8623240D02*
X9811960D01*
G01X8100000Y3596120D02*
X8125400D01*
G01X8618160D02*
X9811960D01*
G01X8100000Y3591040D02*
X8125400D01*
G01X8618160D02*
X9806880D01*
G01X8100000Y3585960D02*
X8125400D01*
G01X8618160D02*
X9806880D01*
G01X8100000Y3580880D02*
X8125400D01*
G01X8618160D02*
X9806880D01*
G01X8100000Y3575800D02*
X8125400D01*
G01X8618160D02*
X9806880D01*
G01X8100000Y3570720D02*
X8125400D01*
G01X8618160D02*
X9806880D01*
G01X8100000Y3565640D02*
X8125400D01*
G01X8623240D02*
X9801800D01*
G01X8100000Y3560560D02*
X8125400D01*
G01X8623240D02*
X8740080D01*
G01X8100000Y3555480D02*
X8125400D01*
G01X8623240D02*
X8740080D01*
G01X8100000Y3550400D02*
X8125400D01*
G01X8623240D02*
X8740080D01*
G01X8100000Y3545320D02*
X8125400D01*
G01X8628320D02*
X8740080D01*
G01X8100000Y3540240D02*
X8125400D01*
G01X8628320D02*
X8760400D01*
G01X8100000Y3535160D02*
X8125400D01*
G01X8628320D02*
X8760400D01*
G01X8100000Y3530080D02*
X8125400D01*
G01X8628320D02*
X8765480D01*
G01X8100000Y3525000D02*
X8125400D01*
G01X8628320D02*
X8770560D01*
G01X8100000Y3519920D02*
X8125400D01*
G01X8628320D02*
X8770560D01*
G01X8100000Y3514840D02*
X8125400D01*
G01X8628320D02*
X8775640D01*
G01X8100000Y3509760D02*
X8125400D01*
G01X8628320D02*
X8674040D01*
G01X8100000Y3504680D02*
X8125400D01*
G01X8638480D02*
X8668960D01*
G01X8100000Y3499600D02*
X8125400D01*
G01X8638480D02*
X8668960D01*
G01X8100000Y3494520D02*
X8125400D01*
G01X8643560D02*
X8679120D01*
G01X8100000Y3489440D02*
X8125400D01*
G01X8648640D02*
X8699440D01*
G01X8100000Y3484360D02*
X8125400D01*
G01X8648640D02*
X8699440D01*
G01X8100000Y3479280D02*
X8125400D01*
G01X8653720D02*
X8699440D01*
G01X8100000Y3474200D02*
X8125400D01*
G01X8653720D02*
X8704520D01*
G01X8100000Y3469120D02*
X8125400D01*
G01X8653720D02*
X8709600D01*
G01X8100000Y3464040D02*
X8125400D01*
G01X8653720D02*
X8714680D01*
G01X8100000Y3458960D02*
X8125400D01*
G01X8663880D02*
X8719760D01*
G01X8100000Y3453880D02*
X8125400D01*
G01X8100000Y3448800D02*
X8125400D01*
G01X8100000Y3443720D02*
X8125400D01*
G01X8100000Y3438640D02*
X8125400D01*
G01X8100000Y3433560D02*
X8125400D01*
G01X8100000Y3428480D02*
X8125400D01*
G01X8100000Y3423400D02*
X8125400D01*
G01X8100000Y3418320D02*
X8125400D01*
G01X8100000Y3413240D02*
X8125400D01*
G01X8100000Y3408160D02*
X8125400D01*
G01X8100000Y3403080D02*
X8125400D01*
G01X8100000Y3398000D02*
X8125400D01*
G01X8100000Y3392920D02*
X8125400D01*
G01X8100000Y4896600D02*
X8216840D01*
G01X8100000Y4891520D02*
X8216840D01*
G01X8100000Y4886440D02*
X8211760D01*
G01X8100000Y4881360D02*
X8211760D01*
G01X8100000Y4876280D02*
X8211760D01*
G01X8100000Y4871200D02*
X8206680D01*
G01X8100000Y4866120D02*
X8206680D01*
G01X8100000Y4861040D02*
X8206680D01*
G01X8100000Y4855960D02*
X8206680D01*
G01X8100000Y4850880D02*
X8201600D01*
G01X8100000Y4845800D02*
X8191440D01*
G01X8100000Y4840720D02*
X8186360D01*
G01X8100000Y4835640D02*
X8186360D01*
G01X8100000Y4830560D02*
X8181280D01*
G01X8100000Y4825480D02*
X8181280D01*
G01X8100000Y4820400D02*
X8181280D01*
G01X8100000Y4815320D02*
X8176200D01*
G01X8100000Y4810240D02*
X8176200D01*
G01X8100000Y4805160D02*
X8176200D01*
G01X8100000Y4800080D02*
X8171120D01*
G01X8100000Y4795000D02*
X8166040D01*
G01X8100000Y4789920D02*
X8160960D01*
G01X8100000Y4784840D02*
X8150800D01*
G01X8100000Y4779760D02*
X8140640D01*
G01X8100000Y4774680D02*
X8140640D01*
G01X8100000Y4769600D02*
X8135560D01*
G01X8100000Y4764520D02*
X8135560D01*
G01X8100000Y4759440D02*
X8135560D01*
G01X8100000Y4754360D02*
X8135560D01*
G01X8100000Y4749280D02*
X8130480D01*
G01X8100000Y4744200D02*
X8130480D01*
G01X8100000Y4739120D02*
X8130480D01*
G01X8100000Y4734040D02*
X8130480D01*
G01X8100000Y4728960D02*
X8130480D01*
G01X8100000Y4723880D02*
X8130480D01*
G01X8100000Y4718800D02*
X8130480D01*
G01X8100000Y4713720D02*
X8130480D01*
G01X8100000Y4708640D02*
X8130480D01*
G01X8100000Y4703560D02*
X8135560D01*
G01X8100000Y4698480D02*
X8135560D01*
G01X8100000Y4693400D02*
X8135560D01*
G01X8100000Y4688320D02*
X8135560D01*
G01X8100000Y4683240D02*
X8140640D01*
G01X8100000Y4678160D02*
X8135560D01*
G01X8100000Y4673080D02*
X8130480D01*
G01X8100000Y4668000D02*
X8130480D01*
G01X8100000Y4662920D02*
X8125400D01*
G01X8100000Y4657840D02*
X8130480D01*
G01X8100000Y4652760D02*
X8130480D01*
G01X8100000Y4647680D02*
X8130480D01*
G01X8100000Y4642600D02*
X8125400D01*
G01X8100000Y4637520D02*
X8125400D01*
G01X8100000Y4632440D02*
X8120320D01*
G01X8100000Y4627360D02*
X8125400D01*
G01X8100000Y4622280D02*
X8125400D01*
G01X8100000Y4617200D02*
X8130480D01*
G01X8100000Y4612120D02*
X8140640D01*
G01X8100000Y4607040D02*
X8160960D01*
G01X8100000Y4601960D02*
X8171120D01*
G01X8100000Y4596880D02*
X8176200D01*
G01X8186360D02*
X8196520D01*
G01X8100000Y4591800D02*
X8166040D01*
G01X8100000Y4586720D02*
X8150800D01*
G01X8100000Y4581640D02*
X8130480D01*
G01X8100000Y4576560D02*
X8125400D01*
G01X8100000Y4571480D02*
X8130480D01*
G01X8100000Y4566400D02*
X8140640D01*
G01X8100000Y4561320D02*
X8155880D01*
G01X8100000Y4556240D02*
X8155880D01*
G01X8100000Y4551160D02*
X8140640D01*
G01X8100000Y4546080D02*
X8140640D01*
G01X8100000Y4541000D02*
X8135560D01*
G01X8100000Y4535920D02*
X8135560D01*
G01X8100000Y4530840D02*
X8135560D01*
G01X8100000Y4525760D02*
X8135560D01*
G01X8100000Y4520680D02*
X8135560D01*
G01X8100000Y4515600D02*
X8135560D01*
G01X8100000Y4510520D02*
X8140640D01*
G01X8100000Y4505440D02*
X8140640D01*
G01X8100000Y4500360D02*
X8140640D01*
G01X8100000Y4495280D02*
X8145720D01*
G01X8100000Y4490200D02*
X8150800D01*
G01X8100000Y4485120D02*
X8150800D01*
G01X8100000Y4480040D02*
X8155880D01*
G01X8100000Y4474960D02*
X8155880D01*
G01X8100000Y4469880D02*
X8160960D01*
G01X8100000Y4464800D02*
X8166040D01*
G01X8100000Y4459720D02*
X8171120D01*
G01X8100000Y4454640D02*
X8171120D01*
G01X8100000Y4449560D02*
X8176200D01*
G01X8100000Y4444480D02*
X8176200D01*
G01X8100000Y4439400D02*
X8181280D01*
G01X8100000Y4434320D02*
X8181280D01*
G01X8100000Y4429240D02*
X8186360D01*
G01X8100000Y4424160D02*
X8186360D01*
G01X8100000Y4419080D02*
X8186360D01*
G01X8100000Y4414000D02*
X8191440D01*
G01X8100000Y4408920D02*
X8201600D01*
G01X8100000Y4403840D02*
X8206680D01*
G01X8100000Y4398760D02*
X8206680D01*
G01X8100000Y4393680D02*
X8211760D01*
G01X8100000Y4388600D02*
X8216840D01*
G01X8100000Y4383520D02*
X8221920D01*
G01X8100000Y4378440D02*
X8227000D01*
G01X8100000Y4373360D02*
X8232080D01*
G01X8100000Y4368280D02*
X8237160D01*
G01X8100000Y4363200D02*
X8237160D01*
G01X8100000Y4358120D02*
X8242240D01*
G01X8100000Y4353040D02*
X8247320D01*
G01X8100000Y4347960D02*
X8252400D01*
G01X8100000Y4342880D02*
X8262560D01*
G01X8100000Y4337800D02*
X8267640D01*
G01X8100000Y4332720D02*
X8272720D01*
G01X8100000Y4327640D02*
X8282880D01*
G01X8100000Y4322560D02*
X8308280D01*
G01X8100000Y4317480D02*
X8313360D01*
G01X8100000Y4312400D02*
X8313360D01*
G01X8100000Y4307320D02*
X8313360D01*
G01X8100000Y4302240D02*
X8313360D01*
G01X8100000Y4297160D02*
X8313360D01*
G01X8100000Y4292080D02*
X8323520D01*
G01X8100000Y4287000D02*
X8328600D01*
G01X8100000Y4281920D02*
X8338760D01*
G01X8100000Y4276840D02*
X8348920D01*
G01X8100000Y4271760D02*
X8354000D01*
G01X8100000Y4266680D02*
X8359080D01*
G01X8100000Y4261600D02*
X8364160D01*
G01X8100000Y4256520D02*
X8374320D01*
G01X8100000Y4251440D02*
X8379400D01*
G01X8100000Y4246360D02*
X8384480D01*
G01X8100000Y4241280D02*
X8394640D01*
G01X8100000Y4236200D02*
X8404800D01*
G01X8100000Y4231120D02*
X8420040D01*
G01X8100000Y4226040D02*
X8430200D01*
G01X8100000Y4220960D02*
X8445440D01*
G01X8100000Y4215880D02*
X8455600D01*
G01X8100000Y4210800D02*
X8460680D01*
G01X8100000Y4205720D02*
X8475920D01*
G01X8100000Y4200640D02*
X8481000D01*
G01X8100000Y4195560D02*
X8486080D01*
G01X8100000Y4190480D02*
X8496240D01*
G01X8100000Y4185400D02*
X8506400D01*
G01X8100000Y4180320D02*
X8516560D01*
G01X8100000Y4175240D02*
X8526720D01*
G01X8100000Y4170160D02*
X8541960D01*
G01X8100000Y4165080D02*
X8552120D01*
G01X8100000Y4160000D02*
X8557200D01*
G01X8100000Y4154920D02*
X8567360D01*
G01X8100000Y4149840D02*
X8572440D01*
G01X8100000Y4144760D02*
X8577520D01*
G01X8100000Y5206480D02*
X11950640D01*
G01X8100000Y5201400D02*
X11950640D01*
G01X8100000Y5196320D02*
X11950640D01*
G01X8100000Y5191240D02*
X9664640D01*
G01X8100000Y5186160D02*
X9659560D01*
G01X8100000Y5181080D02*
X9664640D01*
G01X8100000Y5176000D02*
X9669720D01*
G01X8100000Y5170920D02*
X9679880D01*
G01X8100000Y5165840D02*
X9684960D01*
G01X8100000Y5160760D02*
X9690040D01*
G01X8100000Y5155680D02*
X9695120D01*
G01X8100000Y5150600D02*
X9700200D01*
G01X8100000Y5145520D02*
X9705280D01*
G01X8100000Y5140440D02*
X9715440D01*
G01X8100000Y5135360D02*
X9725600D01*
G01X8100000Y5130280D02*
X9725600D01*
G01X8100000Y5125200D02*
X9730680D01*
G01X8100000Y5120120D02*
X9740840D01*
G01X8100000Y5115040D02*
X9740840D01*
G01X8100000Y5109960D02*
X9745920D01*
G01X8100000Y5104880D02*
X9751000D01*
G01X8100000Y5099800D02*
X9756080D01*
G01X8100000Y5094720D02*
X9761160D01*
G01X8100000Y5089640D02*
X9766240D01*
G01X8100000Y5084560D02*
X9771320D01*
G01X8100000Y5079480D02*
X9781480D01*
G01X8100000Y5074400D02*
X9380160D01*
G01X8100000Y5069320D02*
X9370000D01*
G01X8100000Y5064240D02*
X9370000D01*
G01X8100000Y5059160D02*
X9390320D01*
G01X8100000Y5054080D02*
X9405560D01*
G01X8100000Y5049000D02*
X9415720D01*
G01X8100000Y5043920D02*
X9420800D01*
G01X8100000Y5038840D02*
X9436040D01*
G01X8100000Y5033760D02*
X9451280D01*
G01X8100000Y5028680D02*
X9456360D01*
G01X8100000Y5023600D02*
X9466520D01*
G01X8100000Y5018520D02*
X9476680D01*
G01X8100000Y5013440D02*
X9486840D01*
G01X8100000Y5008360D02*
X9491920D01*
G01X8100000Y5003280D02*
X9497000D01*
G01X8100000Y4998200D02*
X8450520D01*
G01X8547040D02*
X9507160D01*
G01X8100000Y4993120D02*
X8440360D01*
G01X8567360D02*
X9512240D01*
G01X8100000Y4988040D02*
X8323520D01*
G01X8100000Y4982960D02*
X8313360D01*
G01X8100000Y4977880D02*
X8313360D01*
G01X8100000Y4972800D02*
X8313360D01*
G01X8100000Y4967720D02*
X8308280D01*
G01X8100000Y4962640D02*
X8303200D01*
G01X8100000Y4957560D02*
X8293040D01*
G01X8100000Y4952480D02*
X8282880D01*
G01X8100000Y4947400D02*
X8272720D01*
G01X8100000Y4942320D02*
X8267640D01*
G01X8100000Y4937240D02*
X8257480D01*
G01X8100000Y4932160D02*
X8247320D01*
G01X8100000Y4927080D02*
X8242240D01*
G01X8100000Y4922000D02*
X8237160D01*
G01X8100000Y4916920D02*
X8232080D01*
G01X8100000Y4911840D02*
X8227000D01*
G01X8100000Y4906760D02*
X8227000D01*
G01X8100000Y4901680D02*
X8221920D01*
G01X8740080Y3387840D02*
X8780720D01*
G01X8836600D02*
X8912800D01*
G01X9019480D02*
X9989760D01*
G01X8745160Y3382760D02*
X8785800D01*
G01X8841680D02*
X8917880D01*
G01X9024560D02*
X9227760D01*
G01X9237920D02*
X9989760D01*
G01X8750240Y3377680D02*
X8790880D01*
G01X8846760D02*
X8922960D01*
G01X9029640D02*
X9227760D01*
G01X9243000D02*
X9989760D01*
G01X8755320Y3372600D02*
X8795960D01*
G01X8851840D02*
X8922960D01*
G01X9034720D02*
X9232840D01*
G01X9237920D02*
X9994840D01*
G01X8760400Y3367520D02*
X8801040D01*
G01X8862000D02*
X8928040D01*
G01X9039800D02*
X9243000D01*
G01X9253160D02*
X9994840D01*
G01X8760400Y3362440D02*
X8806120D01*
G01X8862000D02*
X8938200D01*
G01X9049960D02*
X9243000D01*
G01X9263320D02*
X9999920D01*
G01X8775640Y3357360D02*
X8806120D01*
G01X8867080D02*
X8943280D01*
G01X9055040D02*
X9243000D01*
G01X9263320D02*
X9999920D01*
G01X8780720Y3352280D02*
X8811200D01*
G01X8877240D02*
X8948360D01*
G01X9065200D02*
X9253160D01*
G01X9268400D02*
X9999920D01*
G01X8785800Y3347200D02*
X8816280D01*
G01X8882320D02*
X8958520D01*
G01X9075360D02*
X9263320D01*
G01X9273480D02*
X9999920D01*
G01X8790880Y3342120D02*
X8821360D01*
G01X8887400D02*
X8963600D01*
G01X9080440D02*
X9263320D01*
G01X9283640D02*
X9999920D01*
G01X8801040Y3337040D02*
X8821360D01*
G01X8892480D02*
X8963600D01*
G01X9085520D02*
X10005000D01*
G01X8806120Y3331960D02*
X8826440D01*
G01X8902640D02*
X8973760D01*
G01X9095680D02*
X9751000D01*
G01X8816280Y3326880D02*
X8841680D01*
G01X8912800D02*
X8989000D01*
G01X9110920D02*
X9288720D01*
G01X9314120D02*
X9751000D01*
G01X8826440Y3321800D02*
X8841680D01*
G01X8917880D02*
X8994080D01*
G01X9121080D02*
X9293800D01*
G01X9319200D02*
X9756080D01*
G01X8826440Y3316720D02*
X8846760D01*
G01X8922960D02*
X8999160D01*
G01X9126160D02*
X9303960D01*
G01X9329360D02*
X9761160D01*
G01X8831520Y3311640D02*
X8851840D01*
G01X8928040D02*
X9004240D01*
G01X9131240D02*
X9309040D01*
G01X9329360D02*
X9761160D01*
G01X8846760Y3306560D02*
X8851840D01*
G01X8933120D02*
X9009320D01*
G01X9136320D02*
X9314120D01*
G01X9329360D02*
X9761160D01*
G01X8943280Y3301480D02*
X9014400D01*
G01X9146480D02*
X9766240D01*
G01X8953440Y3296400D02*
X9019480D01*
G01X9151560D02*
X9334440D01*
G01X9344600D02*
X9766240D01*
G01X8958520Y3291320D02*
X9024560D01*
G01X9161720D02*
X9334440D01*
G01X9354760D02*
X9766240D01*
G01X8973760Y3286240D02*
X9029640D01*
G01X9166800D02*
X9339520D01*
G01X9364920D02*
X9766240D01*
G01X8983920Y3281160D02*
X9039800D01*
G01X9176960D02*
X9349680D01*
G01X9380160D02*
X9776400D01*
G01X8983920Y3276080D02*
X9055040D01*
G01X9182040D02*
X9349680D01*
G01X9385240D02*
X9644320D01*
G01X8989000Y3271000D02*
X9060120D01*
G01X9187120D02*
X9354760D01*
G01X9385240D02*
X9644320D01*
G01X8999160Y3265920D02*
X9065200D01*
G01X9197280D02*
X9359840D01*
G01X9390320D02*
X9659560D01*
G01X8999160Y3260840D02*
X9070280D01*
G01X9207440D02*
X9370000D01*
G01X9395400D02*
X9659560D01*
G01X9004240Y3255760D02*
X9075360D01*
G01X9207440D02*
X9375080D01*
G01X9400480D02*
X9659560D01*
G01X9019480Y3250680D02*
X9080440D01*
G01X9217600D02*
X9380160D01*
G01X9405560D02*
X9664640D01*
G01X9029640Y3245600D02*
X9085520D01*
G01X9227760D02*
X9385240D01*
G01X9415720D02*
X9664640D01*
G01X9039800Y3240520D02*
X9095680D01*
G01X9237920D02*
X9390320D01*
G01X9055040Y3235440D02*
X9100760D01*
G01X9248080D02*
X9405560D01*
G01X9060120Y3230360D02*
X9116000D01*
G01X9258240D02*
X9425880D01*
G01X9060120Y3225280D02*
X9126160D01*
G01X9258240D02*
X9425880D01*
G01X9070280Y3220200D02*
X9131240D01*
G01X9263320D02*
X9425880D01*
G01X9075360Y3215120D02*
X9136320D01*
G01X9273480D02*
X9425880D01*
G01X9085520Y3210040D02*
X9146480D01*
G01X9283640D02*
X9430960D01*
G01X9085520Y3204960D02*
X9156640D01*
G01X9288720D02*
X9436040D01*
G01X9090600Y3199880D02*
X9156640D01*
G01X9298880D02*
X9441120D01*
G01X9105840Y3194800D02*
X9166800D01*
G01X9309040D02*
X9446200D01*
G01X9110920Y3189720D02*
X9171880D01*
G01X9319200D02*
X9456360D01*
G01X9136320Y3184640D02*
X9176960D01*
G01X9334440D02*
X9461440D01*
G01X9146480Y3179560D02*
X9182040D01*
G01X9344600D02*
X9471600D01*
G01X9156640Y3174480D02*
X9202360D01*
G01X9354760D02*
X9486840D01*
G01X9166800Y3169400D02*
X9212520D01*
G01X9370000D02*
X9486840D01*
G01X9171880Y3164320D02*
X9217600D01*
G01X9375080D02*
X9491920D01*
G01X9182040Y3159240D02*
X9222680D01*
G01X9385240D02*
X9497000D01*
G01X9197280Y3154160D02*
X9243000D01*
G01X9400480D02*
X9512240D01*
G01X9207440Y3149080D02*
X9248080D01*
G01X9405560D02*
X9512240D01*
G01X9212520Y3144000D02*
X9253160D01*
G01X9415720D02*
X9522400D01*
G01X9222680Y3138920D02*
X9268400D01*
G01X9420800D02*
X9527480D01*
G01X9227760Y3133840D02*
X9273480D01*
G01X9232840Y3128760D02*
X9278560D01*
G01X9237920Y3123680D02*
X9288720D01*
G01X9243000Y3118600D02*
X9298880D01*
G01X9248080Y3113520D02*
X9303960D01*
G01X9253160Y3108440D02*
X9309040D01*
G01X9253160Y3103360D02*
X9309040D01*
G01X9258240Y3098280D02*
X9314120D01*
G01X9263320Y3093200D02*
X9319200D01*
G01X9268400Y3088120D02*
X9324280D01*
G01X9283640Y3083040D02*
X9324280D01*
G01X9293800Y3077960D02*
X9329360D01*
G01X9298880Y3072880D02*
X9324280D01*
G01X8922960Y4139680D02*
X9034720D01*
G01X8922960Y4134600D02*
X9034720D01*
G01X8917880Y4129520D02*
X9029640D01*
G01X8917880Y4124440D02*
X9024560D01*
G01X8917880Y4119360D02*
X9024560D01*
G01X8963600Y4114280D02*
X9014400D01*
G01X8973760Y4109200D02*
X9004240D01*
G01X8983920Y4104120D02*
X8999160D01*
G01X9410640Y3997440D02*
X9664640D01*
G01X9395400Y3992360D02*
X9644320D01*
G01X9395400Y3987280D02*
X9491920D01*
G01X9390320Y3982200D02*
X9491920D01*
G01X9364920Y3977120D02*
X9486840D01*
G01X9344600Y3972040D02*
X9446200D01*
G01X9334440Y3966960D02*
X9436040D01*
G01X9329360Y3961880D02*
X9441120D01*
G01X9309040Y3956800D02*
X9842440D01*
G01X9288720Y3951720D02*
X9837360D01*
G01X9278560Y3946640D02*
X9842440D01*
G01X9202360Y3941560D02*
X9847520D01*
G01X9176960Y3936480D02*
X9324280D01*
G01X9364920D02*
X9852600D01*
G01X9166800Y3931400D02*
X9852600D01*
G01X9151560Y3926320D02*
X9852600D01*
G01X9126160Y3921240D02*
X9298880D01*
G01X9303960D02*
X9867840D01*
G01X9116000Y3916160D02*
X9298880D01*
G01X9303960D02*
X9888160D01*
G01X9105840Y3911080D02*
X9903400D01*
G01X9090600Y3906000D02*
X9938960D01*
G01X9080440Y3900920D02*
X9933880D01*
G01X9065200Y3895840D02*
X9745920D01*
G01X9044880Y3890760D02*
X9730680D01*
G01X9024560Y3885680D02*
X9730680D01*
G01X9004240Y3880600D02*
X9730680D01*
G01X8999160Y3875520D02*
X9730680D01*
G01X8994080Y3870440D02*
X9730680D01*
G01X8983920Y3865360D02*
X9745920D01*
G01X8973760Y3860280D02*
X9745920D01*
G01X8958520Y3855200D02*
X9751000D01*
G01X8953440Y3850120D02*
X9751000D01*
G01X8943280Y3845040D02*
X9751000D01*
G01X8933120Y3839960D02*
X9751000D01*
G01X8922960Y3834880D02*
X9751000D01*
G01X8917880Y3829800D02*
X9751000D01*
G01X8912800Y3824720D02*
X9751000D01*
G01X8912800Y3819640D02*
X9751000D01*
G01X8902640Y3814560D02*
X9751000D01*
G01X8897560Y3809480D02*
X9751000D01*
G01X8887400Y3804400D02*
X9751000D01*
G01X8877240Y3799320D02*
X9751000D01*
G01X8872160Y3794240D02*
X9751000D01*
G01X8862000Y3789160D02*
X9751000D01*
G01X8856920Y3784080D02*
X9751000D01*
G01X8841680Y3779000D02*
X9745920D01*
G01X8836600Y3773920D02*
X9745920D01*
G01X8831520Y3768840D02*
X9745920D01*
G01X8760400Y3763760D02*
X8765480D01*
G01X8770560D02*
X8775640D01*
G01X8826440D02*
X9745920D01*
G01X8755320Y3758680D02*
X8775640D01*
G01X8821360D02*
X9745920D01*
G01X8745160Y3753600D02*
X8775640D01*
G01X8816280D02*
X9751000D01*
G01X8740080Y3748520D02*
X8770560D01*
G01X8811200D02*
X9751000D01*
G01X8740080Y3743440D02*
X8770560D01*
G01X8811200D02*
X9751000D01*
G01X8729920Y3738360D02*
X8770560D01*
G01X8806120D02*
X9756080D01*
G01X8724840Y3733280D02*
X8775640D01*
G01X8795960D02*
X9756080D01*
G01X8719760Y3728200D02*
X8770560D01*
G01X8785800D02*
X9761160D01*
G01X8714680Y3723120D02*
X9766240D01*
G01X8704520Y3718040D02*
X9796720D01*
G01X8694360Y3712960D02*
X9796720D01*
G01X8684200Y3707880D02*
X9801800D01*
G01X8674040Y3702800D02*
X9801800D01*
G01X8668960Y3697720D02*
X9801800D01*
G01X8755320Y3560560D02*
X9801800D01*
G01X8765480Y3555480D02*
X9796720D01*
G01X8765480Y3550400D02*
X9796720D01*
G01X8770560Y3545320D02*
X9791640D01*
G01X8790880Y3540240D02*
X9786560D01*
G01X8795960Y3535160D02*
X9786560D01*
G01X8806120Y3530080D02*
X9781480D01*
G01X8811200Y3525000D02*
X9776400D01*
G01X8816280Y3519920D02*
X9771320D01*
G01X8821360Y3514840D02*
X9771320D01*
G01X8679120Y3509760D02*
X8775640D01*
G01X8826440D02*
X9766240D01*
G01X8699440Y3504680D02*
X8790880D01*
G01X8831520D02*
X9766240D01*
G01X8699440Y3499600D02*
X8790880D01*
G01X8836600D02*
X9959280D01*
G01X8714680Y3494520D02*
X8795960D01*
G01X8851840D02*
X9964360D01*
G01X8719760Y3489440D02*
X8806120D01*
G01X8862000D02*
X9964360D01*
G01X8724840Y3484360D02*
X8811200D01*
G01X8867080D02*
X9964360D01*
G01X8729920Y3479280D02*
X8816280D01*
G01X8872160D02*
X9964360D01*
G01X8735000Y3474200D02*
X8821360D01*
G01X8882320D02*
X9969440D01*
G01X8740080Y3469120D02*
X8826440D01*
G01X8887400D02*
X9969440D01*
G01X8740080Y3464040D02*
X8826440D01*
G01X8892480D02*
X9969440D01*
G01X8745160Y3458960D02*
X8826440D01*
G01X8902640D02*
X9969440D01*
G01X8674040Y3453880D02*
X8719760D01*
G01X8755320D02*
X8836600D01*
G01X8912800D02*
X9974520D01*
G01X8679120Y3448800D02*
X8719760D01*
G01X8760400D02*
X8841680D01*
G01X8912800D02*
X9979600D01*
G01X8684200Y3443720D02*
X8724840D01*
G01X8770560D02*
X8846760D01*
G01X8928040D02*
X9979600D01*
G01X8684200Y3438640D02*
X8729920D01*
G01X8775640D02*
X8851840D01*
G01X8943280D02*
X9979600D01*
G01X8689280Y3433560D02*
X8740080D01*
G01X8780720D02*
X8862000D01*
G01X8948360D02*
X9984680D01*
G01X8694360Y3428480D02*
X8740080D01*
G01X8780720D02*
X8872160D01*
G01X8948360D02*
X9984680D01*
G01X8704520Y3423400D02*
X8745160D01*
G01X8790880D02*
X8872160D01*
G01X8958520D02*
X9984680D01*
G01X8709600Y3418320D02*
X8755320D01*
G01X8801040D02*
X8877240D01*
G01X8973760D02*
X9984680D01*
G01X8714680Y3413240D02*
X8760400D01*
G01X8806120D02*
X8882320D01*
G01X8978840D02*
X9984680D01*
G01X8724840Y3408160D02*
X8765480D01*
G01X8811200D02*
X8887400D01*
G01X8989000D02*
X9989760D01*
G01X8729920Y3403080D02*
X8765480D01*
G01X8821360D02*
X8897560D01*
G01X8994080D02*
X9989760D01*
G01X8735000Y3398000D02*
X8770560D01*
G01X8826440D02*
X8902640D01*
G01X8999160D02*
X9989760D01*
G01X8740080Y3392920D02*
X8775640D01*
G01X8826440D02*
X8907720D01*
G01X9004240D02*
X9989760D01*
G01X9049960Y4896600D02*
X9116000D01*
G01X9420800D02*
X9644320D01*
G01X9055040Y4891520D02*
X9126160D01*
G01X9065200Y4886440D02*
X9131240D01*
G01X9075360Y4881360D02*
X9141400D01*
G01X9080440Y4876280D02*
X9151560D01*
G01X9085520Y4871200D02*
X9156640D01*
G01X9090600Y4866120D02*
X9166800D01*
G01X9100760Y4861040D02*
X9166800D01*
G01X9105840Y4855960D02*
X9176960D01*
G01X9116000Y4850880D02*
X9182040D01*
G01X9131240Y4845800D02*
X9192200D01*
G01X9141400Y4840720D02*
X9202360D01*
G01X9146480Y4835640D02*
X9212520D01*
G01X9161720Y4830560D02*
X9217600D01*
G01X9166800Y4825480D02*
X9227760D01*
G01X9171880Y4820400D02*
X9232840D01*
G01X9187120Y4815320D02*
X9243000D01*
G01X9192200Y4810240D02*
X9248080D01*
G01X9197280Y4805160D02*
X9253160D01*
G01X9207440Y4800080D02*
X9253160D01*
G01X9217600Y4795000D02*
X9263320D01*
G01X9227760Y4789920D02*
X9273480D01*
G01X9232840Y4784840D02*
X9278560D01*
G01X9237920Y4779760D02*
X9283640D01*
G01X9243000Y4774680D02*
X9288720D01*
G01X9248080Y4769600D02*
X9293800D01*
G01X9253160Y4764520D02*
X9298880D01*
G01X9258240Y4759440D02*
X9303960D01*
G01X9263320Y4754360D02*
X9309040D01*
G01X9268400Y4749280D02*
X9314120D01*
G01X9278560Y4744200D02*
X9319200D01*
G01X9288720Y4739120D02*
X9324280D01*
G01X9293800Y4734040D02*
X9334440D01*
G01X9070280Y4728960D02*
X9090600D01*
G01X9303960D02*
X9339520D01*
G01X9055040Y4723880D02*
X9090600D01*
G01X9309040D02*
X9339520D01*
G01X9039800Y4718800D02*
X9090600D01*
G01X9314120D02*
X9344600D01*
G01X9034720Y4713720D02*
X9090600D01*
G01X9319200D02*
X9349680D01*
G01X9034720Y4708640D02*
X9085520D01*
G01X9329360D02*
X9354760D01*
G01X9034720Y4703560D02*
X9085520D01*
G01X9334440D02*
X9359840D01*
G01X9034720Y4698480D02*
X9085520D01*
G01X9334440D02*
X9364920D01*
G01X9039800Y4693400D02*
X9090600D01*
G01X9339520D02*
X9370000D01*
G01X9039800Y4688320D02*
X9095680D01*
G01X9344600D02*
X9375080D01*
G01X9039800Y4683240D02*
X9100760D01*
G01X9349680D02*
X9380160D01*
G01X9039800Y4678160D02*
X9105840D01*
G01X9359840D02*
X9380160D01*
G01X9039800Y4673080D02*
X9110920D01*
G01X9364920D02*
X9385240D01*
G01X9039800Y4668000D02*
X9116000D01*
G01X9370000D02*
X9395400D01*
G01X9039800Y4662920D02*
X9121080D01*
G01X9375080D02*
X9395400D01*
G01X9039800Y4657840D02*
X9121080D01*
G01X9385240D02*
X9400480D01*
G01X9044880Y4652760D02*
X9121080D01*
G01X9385240D02*
X9405560D01*
G01X9044880Y4647680D02*
X9126160D01*
G01X9390320D02*
X9415720D01*
G01X9044880Y4642600D02*
X9126160D01*
G01X9405560D02*
X9410640D01*
G01X9049960Y4637520D02*
X9126160D01*
G01X9055040Y4632440D02*
X9131240D01*
G01X9420800D02*
X9425880D01*
G01X9065200Y4627360D02*
X9131240D01*
G01X9070280Y4622280D02*
X9131240D01*
G01X9166800D02*
X9237920D01*
G01X9080440Y4617200D02*
X9131240D01*
G01X9166800D02*
X9243000D01*
G01X9085520Y4612120D02*
X9131240D01*
G01X9161720D02*
X9248080D01*
G01X9085520Y4607040D02*
X9131240D01*
G01X9156640D02*
X9253160D01*
G01X9085520Y4601960D02*
X9131240D01*
G01X9151560D02*
X9253160D01*
G01X9085520Y4596880D02*
X9131240D01*
G01X9151560D02*
X9253160D01*
G01X9085520Y4591800D02*
X9131240D01*
G01X9146480D02*
X9253160D01*
G01X9090600Y4586720D02*
X9131240D01*
G01X9136320D02*
X9253160D01*
G01X9090600Y4581640D02*
X9253160D01*
G01X9090600Y4576560D02*
X9253160D01*
G01X9090600Y4571480D02*
X9253160D01*
G01X9090600Y4566400D02*
X9161720D01*
G01X9166800D02*
X9248080D01*
G01X9085520Y4561320D02*
X9151560D01*
G01X9166800D02*
X9243000D01*
G01X9085520Y4556240D02*
X9146480D01*
G01X9166800D02*
X9237920D01*
G01X9075360Y4551160D02*
X9136320D01*
G01X9166800D02*
X9227760D01*
G01X9070280Y4546080D02*
X9136320D01*
G01X9166800D02*
X9222680D01*
G01X9060120Y4541000D02*
X9131240D01*
G01X9161720D02*
X9217600D01*
G01X8973760Y4535920D02*
X8999160D01*
G01X9039800D02*
X9131240D01*
G01X9161720D02*
X9212520D01*
G01X8968680Y4530840D02*
X8999160D01*
G01X9024560D02*
X9131240D01*
G01X9156640D02*
X9207440D01*
G01X8968680Y4525760D02*
X9004240D01*
G01X9014400D02*
X9131240D01*
G01X9156640D02*
X9202360D01*
G01X8963600Y4520680D02*
X9131240D01*
G01X9156640D02*
X9207440D01*
G01X8963600Y4515600D02*
X9131240D01*
G01X9151560D02*
X9237920D01*
G01X8963600Y4510520D02*
X9131240D01*
G01X9141400D02*
X9237920D01*
G01X8963600Y4505440D02*
X9131240D01*
G01X9136320D02*
X9243000D01*
G01X8963600Y4500360D02*
X9085520D01*
G01X9090600D02*
X9131240D01*
G01X9136320D02*
X9243000D01*
G01X8963600Y4495280D02*
X9085520D01*
G01X9090600D02*
X9248080D01*
G01X8963600Y4490200D02*
X9080440D01*
G01X9085520D02*
X9253160D01*
G01X8963600Y4485120D02*
X9075360D01*
G01X9085520D02*
X9253160D01*
G01X8968680Y4480040D02*
X9075360D01*
G01X9085520D02*
X9253160D01*
G01X8968680Y4474960D02*
X9253160D01*
G01X8968680Y4469880D02*
X9253160D01*
G01X8973760Y4464800D02*
X9253160D01*
G01X8978840Y4459720D02*
X9049960D01*
G01X9070280D02*
X9253160D01*
G01X8978840Y4454640D02*
X9044880D01*
G01X9075360D02*
X9243000D01*
G01X8983920Y4449560D02*
X9044880D01*
G01X9075360D02*
X9237920D01*
G01X8983920Y4444480D02*
X9039800D01*
G01X9080440D02*
X9212520D01*
G01X8983920Y4439400D02*
X9039800D01*
G01X9080440D02*
X9212520D01*
G01X8989000Y4434320D02*
X9039800D01*
G01X9080440D02*
X9212520D01*
G01X8989000Y4429240D02*
X9039800D01*
G01X9075360D02*
X9207440D01*
G01X9390320D02*
X9395400D01*
G01X8994080Y4424160D02*
X9039800D01*
G01X9070280D02*
X9207440D01*
G01X9385240D02*
X9400480D01*
G01X8999160Y4419080D02*
X9039800D01*
G01X9065200D02*
X9212520D01*
G01X9385240D02*
X9400480D01*
G01X9004240Y4414000D02*
X9034720D01*
G01X9055040D02*
X9217600D01*
G01X9385240D02*
X9400480D01*
G01X9049960Y4408920D02*
X9222680D01*
G01X9385240D02*
X9400480D01*
G01X9044880Y4403840D02*
X9227760D01*
G01X9385240D02*
X9400480D01*
G01X9044880Y4398760D02*
X9227760D01*
G01X9385240D02*
X9400480D01*
G01X9039800Y4393680D02*
X9232840D01*
G01X9385240D02*
X9405560D01*
G01X9039800Y4388600D02*
X9232840D01*
G01X9385240D02*
X9405560D01*
G01X9034720Y4383520D02*
X9232840D01*
G01X9380160D02*
X9405560D01*
G01X9029640Y4378440D02*
X9232840D01*
G01X9380160D02*
X9410640D01*
G01X9029640Y4373360D02*
X9232840D01*
G01X9380160D02*
X9410640D01*
G01X9024560Y4368280D02*
X9161720D01*
G01X9166800D02*
X9227760D01*
G01X9380160D02*
X9410640D01*
G01X9024560Y4363200D02*
X9156640D01*
G01X9166800D02*
X9227760D01*
G01X9380160D02*
X9410640D01*
G01X9019480Y4358120D02*
X9156640D01*
G01X9166800D02*
X9222680D01*
G01X9380160D02*
X9410640D01*
G01X9019480Y4353040D02*
X9151560D01*
G01X9166800D02*
X9222680D01*
G01X9380160D02*
X9410640D01*
G01X9019480Y4347960D02*
X9151560D01*
G01X9166800D02*
X9217600D01*
G01X9375080D02*
X9410640D01*
G01X9019480Y4342880D02*
X9146480D01*
G01X9166800D02*
X9217600D01*
G01X9375080D02*
X9410640D01*
G01X9019480Y4337800D02*
X9146480D01*
G01X9166800D02*
X9217600D01*
G01X9370000D02*
X9410640D01*
G01X9019480Y4332720D02*
X9141400D01*
G01X9166800D02*
X9212520D01*
G01X9370000D02*
X9410640D01*
G01X9019480Y4327640D02*
X9136320D01*
G01X9166800D02*
X9212520D01*
G01X9364920D02*
X9410640D01*
G01X9019480Y4322560D02*
X9070280D01*
G01X9080440D02*
X9136320D01*
G01X9166800D02*
X9212520D01*
G01X9359840D02*
X9410640D01*
G01X9019480Y4317480D02*
X9070280D01*
G01X9080440D02*
X9131240D01*
G01X9166800D02*
X9212520D01*
G01X9359840D02*
X9415720D01*
G01X9019480Y4312400D02*
X9060120D01*
G01X9075360D02*
X9131240D01*
G01X9166800D02*
X9212520D01*
G01X9354760D02*
X9415720D01*
G01X9019480Y4307320D02*
X9049960D01*
G01X9075360D02*
X9126160D01*
G01X9166800D02*
X9212520D01*
G01X9354760D02*
X9415720D01*
G01X9019480Y4302240D02*
X9044880D01*
G01X9070280D02*
X9121080D01*
G01X9161720D02*
X9212520D01*
G01X9349680D02*
X9415720D01*
G01X9029640Y4297160D02*
X9039800D01*
G01X9065200D02*
X9121080D01*
G01X9161720D02*
X9212520D01*
G01X9339520D02*
X9415720D01*
G01X9060120Y4292080D02*
X9116000D01*
G01X9161720D02*
X9212520D01*
G01X9334440D02*
X9415720D01*
G01X9060120Y4287000D02*
X9110920D01*
G01X9166800D02*
X9217600D01*
G01X9324280D02*
X9420800D01*
G01X9055040Y4281920D02*
X9105840D01*
G01X9166800D02*
X9222680D01*
G01X9314120D02*
X9420800D01*
G01X9049960Y4276840D02*
X9100760D01*
G01X9166800D02*
X9222680D01*
G01X9309040D02*
X9425880D01*
G01X9044880Y4271760D02*
X9100760D01*
G01X9166800D02*
X9227760D01*
G01X9298880D02*
X9425880D01*
G01X9039800Y4266680D02*
X9095680D01*
G01X9166800D02*
X9237920D01*
G01X9288720D02*
X9425880D01*
G01X9039800Y4261600D02*
X9095680D01*
G01X9166800D02*
X9273480D01*
G01X9283640D02*
X9425880D01*
G01X9039800Y4256520D02*
X9095680D01*
G01X9166800D02*
X9425880D01*
G01X9029640Y4251440D02*
X9090600D01*
G01X9166800D02*
X9425880D01*
G01X9024560Y4246360D02*
X9085520D01*
G01X9166800D02*
X9425880D01*
G01X9024560Y4241280D02*
X9085520D01*
G01X9166800D02*
X9425880D01*
G01X9019480Y4236200D02*
X9085520D01*
G01X9166800D02*
X9420800D01*
G01X9019480Y4231120D02*
X9085520D01*
G01X9166800D02*
X9420800D01*
G01X9014400Y4226040D02*
X9085520D01*
G01X9171880D02*
X9420800D01*
G01X9009320Y4220960D02*
X9080440D01*
G01X9171880D02*
X9415720D01*
G01X9009320Y4215880D02*
X9080440D01*
G01X9171880D02*
X9420800D01*
G01X9004240Y4210800D02*
X9080440D01*
G01X9171880D02*
X9420800D01*
G01X8999160Y4205720D02*
X9070280D01*
G01X9176960D02*
X9420800D01*
G01X8994080Y4200640D02*
X9065200D01*
G01X9176960D02*
X9420800D01*
G01X8989000Y4195560D02*
X9065200D01*
G01X9182040D02*
X9420800D01*
G01X8983920Y4190480D02*
X9060120D01*
G01X9187120D02*
X9420800D01*
G01X8973760Y4185400D02*
X9060120D01*
G01X9192200D02*
X9415720D01*
G01X8968680Y4180320D02*
X9060120D01*
G01X9197280D02*
X9410640D01*
G01X8963600Y4175240D02*
X9055040D01*
G01X9202360D02*
X9405560D01*
G01X8938200Y4170160D02*
X8953440D01*
G01X8958520D02*
X9055040D01*
G01X9207440D02*
X9400480D01*
G01X8933120Y4165080D02*
X9049960D01*
G01X9212520D02*
X9237920D01*
G01X9248080D02*
X9339520D01*
G01X9349680D02*
X9364920D01*
G01X8928040Y4160000D02*
X9044880D01*
G01X8928040Y4154920D02*
X9039800D01*
G01X8922960Y4149840D02*
X9039800D01*
G01X8922960Y4144760D02*
X9039800D01*
G01X9415720Y5074400D02*
X9781480D01*
G01X8679120Y4988040D02*
X9527480D01*
G01X8689280Y4982960D02*
X9537640D01*
G01X8699440Y4977880D02*
X8740080D01*
G01X8760400D02*
X9547800D01*
G01X8806120Y4972800D02*
X8978840D01*
G01X9009320D02*
X9552880D01*
G01X8826440Y4967720D02*
X8912800D01*
G01X9182040D02*
X9557960D01*
G01X8841680Y4962640D02*
X8907720D01*
G01X9197280D02*
X9568120D01*
G01X8867080Y4957560D02*
X8907720D01*
G01X9232840D02*
X9568120D01*
G01X8882320Y4952480D02*
X8943280D01*
G01X9253160D02*
X9578280D01*
G01X8907720Y4947400D02*
X8973760D01*
G01X9273480D02*
X9583360D01*
G01X8907720Y4942320D02*
X8983920D01*
G01X9283640D02*
X9588440D01*
G01X8933120Y4937240D02*
X8994080D01*
G01X9324280D02*
X9593520D01*
G01X8963600Y4932160D02*
X9019480D01*
G01X9339520D02*
X9598600D01*
G01X8968680Y4927080D02*
X9034720D01*
G01X9344600D02*
X9608760D01*
G01X8973760Y4922000D02*
X9039800D01*
G01X9349680D02*
X9613840D01*
G01X8989000Y4916920D02*
X9049960D01*
G01X9364920D02*
X9618920D01*
G01X8999160Y4911840D02*
X9070280D01*
G01X9375080D02*
X9624000D01*
G01X9004240Y4906760D02*
X9080440D01*
G01X9380160D02*
X9634160D01*
G01X9034720Y4901680D02*
X9090600D01*
G01X9405560D02*
X9639240D01*
G01X10086280Y3387840D02*
X10162480D01*
G01X10091360Y3382760D02*
X10162480D01*
G01X10096440Y3377680D02*
X10167560D01*
G01X10096440Y3372600D02*
X10172640D01*
G01X10096440Y3367520D02*
X10172640D01*
G01X10096440Y3362440D02*
X10177720D01*
G01X10101520Y3357360D02*
X10177720D01*
G01X10106600Y3352280D02*
X10177720D01*
G01X10106600Y3347200D02*
X10182800D01*
G01X10111680Y3342120D02*
X10187880D01*
G01X10111680Y3337040D02*
X10192960D01*
G01X9756080Y3331960D02*
X10005000D01*
G01X10111680D02*
X10192960D01*
G01X9771320Y3326880D02*
X10005000D01*
G01X10116760D02*
X10198040D01*
G01X9776400Y3321800D02*
X10005000D01*
G01X10121840D02*
X10198040D01*
G01X9776400Y3316720D02*
X10010080D01*
G01X10126920D02*
X10198040D01*
G01X9776400Y3311640D02*
X10010080D01*
G01X10126920D02*
X10198040D01*
G01X9781480Y3306560D02*
X10010080D01*
G01X10132000D02*
X10203120D01*
G01X9781480Y3301480D02*
X10015160D01*
G01X10132000D02*
X10203120D01*
G01X9786560Y3296400D02*
X10015160D01*
G01X10142160D02*
X10208200D01*
G01X9791640Y3291320D02*
X10020240D01*
G01X10142160D02*
X10208200D01*
G01X9791640Y3286240D02*
X10020240D01*
G01X10147240D02*
X10213280D01*
G01X9796720Y3281160D02*
X10020240D01*
G01X10147240D02*
X10218360D01*
G01X9659560Y3276080D02*
X9776400D01*
G01X9796720D02*
X10025320D01*
G01X10152320D02*
X10223440D01*
G01X9659560Y3271000D02*
X9776400D01*
G01X9796720D02*
X10025320D01*
G01X10152320D02*
X10228520D01*
G01X9669720Y3265920D02*
X9776400D01*
G01X9796720D02*
X10025320D01*
G01X10157400D02*
X10228520D01*
G01X9674800Y3260840D02*
X9776400D01*
G01X9801800D02*
X10025320D01*
G01X10162480D02*
X10233600D01*
G01X9679880Y3255760D02*
X9781480D01*
G01X9806880D02*
X10025320D01*
G01X10162480D02*
X10238680D01*
G01X9679880Y3250680D02*
X9781480D01*
G01X9811960D02*
X10025320D01*
G01X10167560D02*
X10243760D01*
G01X9674800Y3245600D02*
X9786560D01*
G01X9817040D02*
X10030400D01*
G01X10172640D02*
X10243760D01*
G01X9425880Y3240520D02*
X9679880D01*
G01X9684960D02*
X9791640D01*
G01X9817040D02*
X10030400D01*
G01X9425880Y3235440D02*
X9791640D01*
G01X9827200D02*
X10035480D01*
G01X9446200Y3230360D02*
X9796720D01*
G01X9832280D02*
X10035480D01*
G01X9451280Y3225280D02*
X9796720D01*
G01X9832280D02*
X10035480D01*
G01X9456360Y3220200D02*
X9695120D01*
G01X9700200D02*
X9801800D01*
G01X9837360D02*
X10035480D01*
G01X9466520Y3215120D02*
X9690040D01*
G01X9705280D02*
X9806880D01*
G01X9837360D02*
X10035480D01*
G01X9471600Y3210040D02*
X9690040D01*
G01X9710360D02*
X9811960D01*
G01X9847520D02*
X10035480D01*
G01X9476680Y3204960D02*
X9690040D01*
G01X9710360D02*
X9811960D01*
G01X9847520D02*
X10035480D01*
G01X9481760Y3199880D02*
X9695120D01*
G01X9710360D02*
X9817040D01*
G01X9847520D02*
X10040560D01*
G01X9486840Y3194800D02*
X9695120D01*
G01X9715440D02*
X9817040D01*
G01X9852600D02*
X10040560D01*
G01X9497000Y3189720D02*
X9705280D01*
G01X9725600D02*
X9827200D01*
G01X9852600D02*
X10045640D01*
G01X9502080Y3184640D02*
X9710360D01*
G01X9730680D02*
X9832280D01*
G01X9852600D02*
X10050720D01*
G01X9512240Y3179560D02*
X9715440D01*
G01X9735760D02*
X9832280D01*
G01X9857680D02*
X10050720D01*
G01X9522400Y3174480D02*
X9725600D01*
G01X9740840D02*
X9837360D01*
G01X9862760D02*
X10055800D01*
G01X9522400Y3169400D02*
X9725600D01*
G01X9740840D02*
X9842440D01*
G01X9862760D02*
X10055800D01*
G01X9527480Y3164320D02*
X9730680D01*
G01X9740840D02*
X9842440D01*
G01X9867840D02*
X10060880D01*
G01X9537640Y3159240D02*
X9730680D01*
G01X9745920D02*
X9847520D01*
G01X9872920D02*
X10065960D01*
G01X9547800Y3154160D02*
X9740840D01*
G01X9756080D02*
X9847520D01*
G01X9883080D02*
X10071040D01*
G01X9552880Y3149080D02*
X9745920D01*
G01X9761160D02*
X9852600D01*
G01X9883080D02*
X10071040D01*
G01X9563040Y3144000D02*
X9745920D01*
G01X9761160D02*
X9852600D01*
G01X9888160D02*
X10076120D01*
G01X9573200Y3138920D02*
X9745920D01*
G01X9766240D02*
X9857680D01*
G01X9888160D02*
X10076120D01*
G01X9425880Y3133840D02*
X9532560D01*
G01X9578280D02*
X9745920D01*
G01X9771320D02*
X9862760D01*
G01X9893240D02*
X10081200D01*
G01X9436040Y3128760D02*
X9547800D01*
G01X9593520D02*
X9756080D01*
G01X9776400D02*
X9862760D01*
G01X9898320D02*
X10086280D01*
G01X9446200Y3123680D02*
X9563040D01*
G01X9598600D02*
X9766240D01*
G01X9786560D02*
X9872920D01*
G01X9898320D02*
X10086280D01*
G01X9451280Y3118600D02*
X9568120D01*
G01X9598600D02*
X9766240D01*
G01X9791640D02*
X9883080D01*
G01X9898320D02*
X10091360D01*
G01X9456360Y3113520D02*
X9568120D01*
G01X9603680D02*
X9766240D01*
G01X9791640D02*
X9883080D01*
G01X9903400D02*
X10091360D01*
G01X9461440Y3108440D02*
X9578280D01*
G01X9613840D02*
X9776400D01*
G01X9791640D02*
X9883080D01*
G01X9903400D02*
X10091360D01*
G01X9466520Y3103360D02*
X9583360D01*
G01X9624000D02*
X9776400D01*
G01X9796720D02*
X9888160D01*
G01X9908480D02*
X10096440D01*
G01X9471600Y3098280D02*
X9588440D01*
G01X9624000D02*
X9781480D01*
G01X9796720D02*
X9888160D01*
G01X9913560D02*
X10096440D01*
G01X9476680Y3093200D02*
X9588440D01*
G01X9629080D02*
X9781480D01*
G01X9796720D02*
X9893240D01*
G01X9918640D02*
X10096440D01*
G01X9486840Y3088120D02*
X9598600D01*
G01X9634160D02*
X9791640D01*
G01X9806880D02*
X9898320D01*
G01X9923720D02*
X10101520D01*
G01X9497000Y3083040D02*
X9603680D01*
G01X9639240D02*
X9796720D01*
G01X9811960D02*
X9898320D01*
G01X9923720D02*
X10106600D01*
G01X9502080Y3077960D02*
X9608760D01*
G01X9644320D02*
X9796720D01*
G01X9817040D02*
X9898320D01*
G01X9928800D02*
X10111680D01*
G01X9512240Y3072880D02*
X9618920D01*
G01X9659560D02*
X9806880D01*
G01X9832280D02*
X9903400D01*
G01X9933880D02*
X10111680D01*
G01X9527480Y3067800D02*
X9624000D01*
G01X9679880D02*
X9811960D01*
G01X9837360D02*
X9913560D01*
G01X9938960D02*
X10121840D01*
G01X9547800Y3062720D02*
X9629080D01*
G01X9684960D02*
X9811960D01*
G01X9842440D02*
X9918640D01*
G01X9938960D02*
X10121840D01*
G01X9557960Y3057640D02*
X9634160D01*
G01X9684960D02*
X9817040D01*
G01X9847520D02*
X9923720D01*
G01X9938960D02*
X10126920D01*
G01X9557960Y3052560D02*
X9573200D01*
G01X9598600D02*
X9639240D01*
G01X9690040D02*
X9832280D01*
G01X9847520D02*
X9933880D01*
G01X9944040D02*
X10132000D01*
G01X9603680Y3047480D02*
X9644320D01*
G01X9695120D02*
X9832280D01*
G01X9852600D02*
X9938960D01*
G01X9949120D02*
X10132000D01*
G01X9613840Y3042400D02*
X9644320D01*
G01X9705280D02*
X9842440D01*
G01X9852600D02*
X9938960D01*
G01X9949120D02*
X10137080D01*
G01X9629080Y3037320D02*
X9644320D01*
G01X9720520D02*
X9852600D01*
G01X9862760D02*
X9938960D01*
G01X9964360D02*
X10142160D01*
G01X9644320Y3032240D02*
X9654480D01*
G01X9725600D02*
X9852600D01*
G01X9867840D02*
X9938960D01*
G01X9969440D02*
X10142160D01*
G01X9649400Y3027160D02*
X9654480D01*
G01X9735760D02*
X9852600D01*
G01X9872920D02*
X9949120D01*
G01X9974520D02*
X10147240D01*
G01X9745920Y3022080D02*
X9862760D01*
G01X9883080D02*
X9949120D01*
G01X9984680D02*
X10152320D01*
G01X9751000Y3017000D02*
X9862760D01*
G01X9883080D02*
X9954200D01*
G01X9989760D02*
X10157400D01*
G01X9761160Y3011920D02*
X9867840D01*
G01X9888160D02*
X9954200D01*
G01X9989760D02*
X10157400D01*
G01X9776400Y3006840D02*
X9867840D01*
G01X9888160D02*
X9964360D01*
G01X9994840D02*
X10162480D01*
G01X9786560Y3001760D02*
X9888160D01*
G01X9893240D02*
X9969440D01*
G01X9999920D02*
X10162480D01*
G01X9791640Y2996680D02*
X9888160D01*
G01X9898320D02*
X9969440D01*
G01X9999920D02*
X10172640D01*
G01X9801800Y2991600D02*
X9888160D01*
G01X9898320D02*
X9974520D01*
G01X10005000D02*
X10172640D01*
G01X9817040Y2986520D02*
X9979600D01*
G01X10010080D02*
X10177720D01*
G01X9837360Y2981440D02*
X9903400D01*
G01X9938960D02*
X9989760D01*
G01X10025320D02*
X10192960D01*
G01X9847520Y2976360D02*
X9908480D01*
G01X9938960D02*
X9994840D01*
G01X10030400D02*
X10192960D01*
G01X9852600Y2971280D02*
X9913560D01*
G01X9944040D02*
X9999920D01*
G01X10035480D02*
X10192960D01*
G01X9852600Y2966200D02*
X9913560D01*
G01X9954200D02*
X10005000D01*
G01X10040560D02*
X10198040D01*
G01X9857680Y2961120D02*
X9918640D01*
G01X9959280D02*
X10005000D01*
G01X10045640D02*
X10198040D01*
G01X9867840Y2956040D02*
X9918640D01*
G01X9964360D02*
X10010080D01*
G01X10055800D02*
X10198040D01*
G01X9872920Y2950960D02*
X9923720D01*
G01X9969440D02*
X10015160D01*
G01X10055800D02*
X10203120D01*
G01X9883080Y2945880D02*
X9933880D01*
G01X9979600D02*
X10020240D01*
G01X10060880D02*
X10208200D01*
G01X9893240Y2940800D02*
X9933880D01*
G01X9984680D02*
X10025320D01*
G01X10065960D02*
X10208200D01*
G01X9913560Y2935720D02*
X9933880D01*
G01X9989760D02*
X10025320D01*
G01X10091360D02*
X10213280D01*
G01X9923720Y2930640D02*
X9933880D01*
G01X9999920D02*
X10035480D01*
G01X10096440D02*
X10223440D01*
G01X9923720Y2925560D02*
X9933880D01*
G01X10005000D02*
X10040560D01*
G01X10101520D02*
X10233600D01*
G01X10010080Y2920480D02*
X10045640D01*
G01X10111680D02*
X10238680D01*
G01X10025320Y2915400D02*
X10050720D01*
G01X10111680D02*
X10243760D01*
G01X10025320Y2910320D02*
X10055800D01*
G01X10116760D02*
X10243760D01*
G01X10030400Y2905240D02*
X10060880D01*
G01X10126920D02*
X10248840D01*
G01X10040560Y2900160D02*
X10060880D01*
G01X10137080D02*
X10248840D01*
G01X10050720Y2895080D02*
X10071040D01*
G01X10147240D02*
X10259000D01*
G01X10065960Y2890000D02*
X10071040D01*
G01X10162480D02*
X10264080D01*
G01X10040560Y2793480D02*
X11950640D01*
G01X9557960Y4139680D02*
X9583360D01*
G01X9644320D02*
X9679880D01*
G01X9745920D02*
X9786560D01*
G01X9847520D02*
X9883080D01*
G01X9908480D02*
X9974520D01*
G01X9563040Y4134600D02*
X9583360D01*
G01X9644320D02*
X9679880D01*
G01X9745920D02*
X9781480D01*
G01X9847520D02*
X9883080D01*
G01X9918640D02*
X9974520D01*
G01X9563040Y4129520D02*
X9583360D01*
G01X9644320D02*
X9679880D01*
G01X9735760D02*
X9781480D01*
G01X9847520D02*
X9883080D01*
G01X9568120Y4124440D02*
X9583360D01*
G01X9649400D02*
X9684960D01*
G01X9705280D02*
X9720520D01*
G01X9725600D02*
X9776400D01*
G01X9847520D02*
X9883080D01*
G01X9573200Y4119360D02*
X9583360D01*
G01X9654480D02*
X9684960D01*
G01X9705280D02*
X9771320D01*
G01X9847520D02*
X9888160D01*
G01X9654480Y4114280D02*
X9684960D01*
G01X9710360D02*
X9766240D01*
G01X9852600D02*
X9888160D01*
G01X9659560Y4109200D02*
X9679880D01*
G01X9715440D02*
X9766240D01*
G01X9852600D02*
X9888160D01*
G01X9659560Y4104120D02*
X9679880D01*
G01X9720520D02*
X9756080D01*
G01X9852600D02*
X9888160D01*
G01X9664640Y4099040D02*
X9674800D01*
G01X9730680D02*
X9745920D01*
G01X9852600D02*
X9888160D01*
G01X9664640Y4093960D02*
X9674800D01*
G01X9852600D02*
X9888160D01*
G01X9852600Y4088880D02*
X9888160D01*
G01X9852600Y4083800D02*
X9888160D01*
G01X9852600Y4078720D02*
X9888160D01*
G01X9852600Y4073640D02*
X9888160D01*
G01X9852600Y4068560D02*
X9893240D01*
G01X10172640D02*
X10259000D01*
G01X9852600Y4063480D02*
X9893240D01*
G01X10142160D02*
X10284400D01*
G01X9852600Y4058400D02*
X9893240D01*
G01X10106600D02*
X10477440D01*
G01X9852600Y4053320D02*
X9893240D01*
G01X10091360D02*
X10477440D01*
G01X9857680Y4048240D02*
X9898320D01*
G01X10071040D02*
X10497760D01*
G01X9857680Y4043160D02*
X9898320D01*
G01X10005000D02*
X10513000D01*
G01X9857680Y4038080D02*
X9898320D01*
G01X9974520D02*
X10833040D01*
G01X9862760Y4033000D02*
X9898320D01*
G01X9964360D02*
X10848280D01*
G01X9639240Y4027920D02*
X9735760D01*
G01X9888160D02*
X11950640D01*
G01X9608760Y4022840D02*
X9756080D01*
G01X9872920D02*
X11950640D01*
G01X9598600Y4017760D02*
X9771320D01*
G01X9857680D02*
X11950640D01*
G01X9461440Y4012680D02*
X9486840D01*
G01X9593520D02*
X9725600D01*
G01X9735760D02*
X11950640D01*
G01X9446200Y4007600D02*
X9491920D01*
G01X9512240D02*
X9700200D01*
G01X9740840D02*
X11950640D01*
G01X9425880Y4002520D02*
X9700200D01*
G01X9740840D02*
X11950640D01*
G01X9690040Y3997440D02*
X10513000D01*
G01X9690040Y3992360D02*
X10513000D01*
G01X9497000Y3987280D02*
X9537640D01*
G01X9568120D02*
X9624000D01*
G01X9695120D02*
X10507920D01*
G01X9497000Y3982200D02*
X9557960D01*
G01X9563040D02*
X9613840D01*
G01X9690040D02*
X10507920D01*
G01X9497000Y3977120D02*
X9598600D01*
G01X9684960D02*
X9842440D01*
G01X9857680D02*
X9872920D01*
G01X9878000D02*
X10502840D01*
G01X9502080Y3972040D02*
X9578280D01*
G01X9659560D02*
X9842440D01*
G01X9893240D02*
X10497760D01*
G01X9502080Y3966960D02*
X9578280D01*
G01X9654480D02*
X9842440D01*
G01X9908480D02*
X10497760D01*
G01X9461440Y3961880D02*
X9578280D01*
G01X9644320D02*
X9842440D01*
G01X9928800D02*
X10492680D01*
G01X9938960Y3956800D02*
X10487600D01*
G01X9949120Y3951720D02*
X10482520D01*
G01X9949120Y3946640D02*
X10477440D01*
G01X9938960Y3941560D02*
X10015160D01*
G01X10060880D02*
X10472360D01*
G01X9938960Y3936480D02*
X10010080D01*
G01X10071040D02*
X10472360D01*
G01X9944040Y3931400D02*
X10005000D01*
G01X10076120D02*
X10472360D01*
G01X9949120Y3926320D02*
X9994840D01*
G01X10081200D02*
X10472360D01*
G01X9949120Y3921240D02*
X9979600D01*
G01X10081200D02*
X10472360D01*
G01X9954200Y3916160D02*
X9969440D01*
G01X10086280D02*
X10472360D01*
G01X10086280Y3911080D02*
X10472360D01*
G01X10086280Y3906000D02*
X10472360D01*
G01X10086280Y3900920D02*
X10472360D01*
G01X9766240Y3895840D02*
X9913560D01*
G01X10086280D02*
X10472360D01*
G01X9796720Y3890760D02*
X9893240D01*
G01X10081200D02*
X10472360D01*
G01X9801800Y3885680D02*
X9872920D01*
G01X10076120D02*
X10472360D01*
G01X9806880Y3880600D02*
X9852600D01*
G01X10060880D02*
X10472360D01*
G01X9806880Y3875520D02*
X9827200D01*
G01X9984680D02*
X9989760D01*
G01X10055800D02*
X10477440D01*
G01X9806880Y3870440D02*
X9822120D01*
G01X9974520D02*
X9984680D01*
G01X10050720D02*
X10477440D01*
G01X9806880Y3865360D02*
X9827200D01*
G01X9964360D02*
X9979600D01*
G01X10040560D02*
X10360600D01*
G01X9806880Y3860280D02*
X9847520D01*
G01X9959280D02*
X9974520D01*
G01X10035480D02*
X10355520D01*
G01X9806880Y3855200D02*
X9959280D01*
G01X10020240D02*
X10345360D01*
G01X9801800Y3850120D02*
X9954200D01*
G01X10015160D02*
X10345360D01*
G01X9801800Y3845040D02*
X9944040D01*
G01X10010080D02*
X10340280D01*
G01X9801800Y3839960D02*
X9944040D01*
G01X10010080D02*
X10335200D01*
G01X9801800Y3834880D02*
X9944040D01*
G01X10010080D02*
X10335200D01*
G01X9801800Y3829800D02*
X9979600D01*
G01X10010080D02*
X10330120D01*
G01X9801800Y3824720D02*
X9974520D01*
G01X10010080D02*
X10330120D01*
G01X9801800Y3819640D02*
X9847520D01*
G01X9878000D02*
X9974520D01*
G01X10010080D02*
X10325040D01*
G01X9801800Y3814560D02*
X9842440D01*
G01X9883080D02*
X9969440D01*
G01X10010080D02*
X10325040D01*
G01X9801800Y3809480D02*
X9842440D01*
G01X9888160D02*
X9969440D01*
G01X10010080D02*
X10253920D01*
G01X9801800Y3804400D02*
X9832280D01*
G01X9888160D02*
X9969440D01*
G01X10010080D02*
X10248840D01*
G01X9796720Y3799320D02*
X9832280D01*
G01X9888160D02*
X9964360D01*
G01X10010080D02*
X10248840D01*
G01X9796720Y3794240D02*
X9832280D01*
G01X9888160D02*
X9964360D01*
G01X10010080D02*
X10243760D01*
G01X9796720Y3789160D02*
X9842440D01*
G01X9888160D02*
X9959280D01*
G01X10010080D02*
X10243760D01*
G01X9791640Y3784080D02*
X9847520D01*
G01X9888160D02*
X9959280D01*
G01X9974520D02*
X9979600D01*
G01X10010080D02*
X10238680D01*
G01X9791640Y3779000D02*
X9847520D01*
G01X9883080D02*
X9959280D01*
G01X9974520D02*
X9979600D01*
G01X10010080D02*
X10238680D01*
G01X9791640Y3773920D02*
X9847520D01*
G01X9883080D02*
X9954200D01*
G01X9974520D02*
X9979600D01*
G01X10015160D02*
X10025320D01*
G01X10045640D02*
X10238680D01*
G01X9791640Y3768840D02*
X9847520D01*
G01X9883080D02*
X9954200D01*
G01X9969440D02*
X9979600D01*
G01X10055800D02*
X10233600D01*
G01X9791640Y3763760D02*
X9847520D01*
G01X9883080D02*
X9954200D01*
G01X9974520D02*
X9979600D01*
G01X10055800D02*
X10228520D01*
G01X9791640Y3758680D02*
X9827200D01*
G01X9837360D02*
X9842440D01*
G01X9883080D02*
X9954200D01*
G01X10055800D02*
X10228520D01*
G01X9791640Y3753600D02*
X9822120D01*
G01X9837360D02*
X9842440D01*
G01X9878000D02*
X9949120D01*
G01X10050720D02*
X10223440D01*
G01X9791640Y3748520D02*
X9822120D01*
G01X9837360D02*
X9842440D01*
G01X9878000D02*
X9944040D01*
G01X10045640D02*
X10223440D01*
G01X9791640Y3743440D02*
X9817040D01*
G01X9878000D02*
X9938960D01*
G01X10035480D02*
X10223440D01*
G01X9878000Y3738360D02*
X9933880D01*
G01X10025320D02*
X10223440D01*
G01X9872920Y3733280D02*
X9908480D01*
G01X10020240D02*
X10223440D01*
G01X9781480Y3728200D02*
X9786560D01*
G01X9872920D02*
X9903400D01*
G01X10015160D02*
X10228520D01*
G01X9776400Y3723120D02*
X9791640D01*
G01X9872920D02*
X9898320D01*
G01X9974520D02*
X9979600D01*
G01X10015160D02*
X10228520D01*
G01X9867840Y3718040D02*
X9888160D01*
G01X9974520D02*
X9979600D01*
G01X10015160D02*
X10233600D01*
G01X9867840Y3712960D02*
X9878000D01*
G01X10015160D02*
X10233600D01*
G01X10015160Y3707880D02*
X10238680D01*
G01X9933880Y3702800D02*
X9938960D01*
G01X10015160D02*
X10238680D01*
G01X10015160Y3697720D02*
X10238680D01*
G01X10015160Y3692640D02*
X10238680D01*
G01X10015160Y3687560D02*
X10238680D01*
G01X10015160Y3682480D02*
X10243760D01*
G01X10015160Y3677400D02*
X10243760D01*
G01X10015160Y3672320D02*
X10020240D01*
G01X10040560D02*
X10243760D01*
G01X10065960Y3667240D02*
X10243760D01*
G01X9949120Y3662160D02*
X9969440D01*
G01X10076120D02*
X10243760D01*
G01X9938960Y3657080D02*
X9979600D01*
G01X10015160D02*
X10020240D01*
G01X10081200D02*
X10248840D01*
G01X9938960Y3652000D02*
X9979600D01*
G01X10015160D02*
X10025320D01*
G01X10081200D02*
X10248840D01*
G01X9938960Y3646920D02*
X9979600D01*
G01X10015160D02*
X10025320D01*
G01X10081200D02*
X10248840D01*
G01X9938960Y3641840D02*
X9979600D01*
G01X10020240D02*
X10025320D01*
G01X10086280D02*
X10248840D01*
G01X9938960Y3636760D02*
X9979600D01*
G01X10020240D02*
X10030400D01*
G01X10086280D02*
X10248840D01*
G01X9938960Y3631680D02*
X9979600D01*
G01X10020240D02*
X10035480D01*
G01X10086280D02*
X10248840D01*
G01X9944040Y3626600D02*
X9984680D01*
G01X10020240D02*
X10035480D01*
G01X10086280D02*
X10248840D01*
G01X9944040Y3621520D02*
X9984680D01*
G01X10020240D02*
X10040560D01*
G01X10071040D02*
X10248840D01*
G01X9852600Y3616440D02*
X9857680D01*
G01X9944040D02*
X9984680D01*
G01X10020240D02*
X10045640D01*
G01X10071040D02*
X10248840D01*
G01X9852600Y3611360D02*
X9857680D01*
G01X9944040D02*
X9984680D01*
G01X10020240D02*
X10055800D01*
G01X10065960D02*
X10253920D01*
G01X9852600Y3606280D02*
X9862760D01*
G01X9949120D02*
X9984680D01*
G01X10020240D02*
X10253920D01*
G01X9852600Y3601200D02*
X9867840D01*
G01X9878000D02*
X9888160D01*
G01X9949120D02*
X9984680D01*
G01X10025320D02*
X10253920D01*
G01X9847520Y3596120D02*
X9898320D01*
G01X9949120D02*
X9984680D01*
G01X10025320D02*
X10253920D01*
G01X9847520Y3591040D02*
X9908480D01*
G01X9923720D02*
X9984680D01*
G01X10020240D02*
X10259000D01*
G01X9842440Y3585960D02*
X9984680D01*
G01X10020240D02*
X10259000D01*
G01X9842440Y3580880D02*
X9984680D01*
G01X10020240D02*
X10259000D01*
G01X9842440Y3575800D02*
X9984680D01*
G01X10025320D02*
X10259000D01*
G01X9837360Y3570720D02*
X9984680D01*
G01X10025320D02*
X10259000D01*
G01X9837360Y3565640D02*
X9959280D01*
G01X9979600D02*
X9989760D01*
G01X10025320D02*
X10259000D01*
G01X9832280Y3560560D02*
X9954200D01*
G01X10025320D02*
X10259000D01*
G01X9832280Y3555480D02*
X9949120D01*
G01X10025320D02*
X10259000D01*
G01X9827200Y3550400D02*
X9944040D01*
G01X10025320D02*
X10259000D01*
G01X9822120Y3545320D02*
X9944040D01*
G01X10025320D02*
X10259000D01*
G01X9822120Y3540240D02*
X9944040D01*
G01X10025320D02*
X10259000D01*
G01X9822120Y3535160D02*
X9944040D01*
G01X10025320D02*
X10259000D01*
G01X9817040Y3530080D02*
X9944040D01*
G01X10025320D02*
X10259000D01*
G01X9806880Y3525000D02*
X9944040D01*
G01X10025320D02*
X10101520D01*
G01X10121840D02*
X10259000D01*
G01X9801800Y3519920D02*
X9949120D01*
G01X10025320D02*
X10101520D01*
G01X10121840D02*
X10259000D01*
G01X9801800Y3514840D02*
X9949120D01*
G01X10025320D02*
X10096440D01*
G01X10121840D02*
X10253920D01*
G01X9796720Y3509760D02*
X9949120D01*
G01X10025320D02*
X10101520D01*
G01X10126920D02*
X10253920D01*
G01X9776400Y3504680D02*
X9954200D01*
G01X10025320D02*
X10106600D01*
G01X10142160D02*
X10253920D01*
G01X10025320Y3499600D02*
X10106600D01*
G01X10142160D02*
X10253920D01*
G01X10025320Y3494520D02*
X10111680D01*
G01X10147240D02*
X10253920D01*
G01X10025320Y3489440D02*
X10111680D01*
G01X10157400D02*
X10259000D01*
G01X10025320Y3484360D02*
X10116760D01*
G01X10157400D02*
X10259000D01*
G01X10025320Y3479280D02*
X10116760D01*
G01X10162480D02*
X10264080D01*
G01X10030400Y3474200D02*
X10121840D01*
G01X10167560D02*
X10269160D01*
G01X10035480Y3469120D02*
X10126920D01*
G01X10167560D02*
X10274240D01*
G01X10035480Y3464040D02*
X10126920D01*
G01X10172640D02*
X10274240D01*
G01X10040560Y3458960D02*
X10132000D01*
G01X10040560Y3453880D02*
X10132000D01*
G01X10045640Y3448800D02*
X10137080D01*
G01X10045640Y3443720D02*
X10137080D01*
G01X10050720Y3438640D02*
X10142160D01*
G01X10055800Y3433560D02*
X10142160D01*
G01X10055800Y3428480D02*
X10142160D01*
G01X10055800Y3423400D02*
X10142160D01*
G01X10060880Y3418320D02*
X10147240D01*
G01X10065960Y3413240D02*
X10147240D01*
G01X10071040Y3408160D02*
X10152320D01*
G01X10076120Y3403080D02*
X10152320D01*
G01X10076120Y3398000D02*
X10157400D01*
G01X10081200Y3392920D02*
X10157400D01*
G01X9735760Y4896600D02*
X9928800D01*
G01X9425880Y4891520D02*
X9654480D01*
G01X9740840D02*
X9933880D01*
G01X10132000D02*
X10137080D01*
G01X9430960Y4886440D02*
X9654480D01*
G01X9745920D02*
X9933880D01*
G01X9441120Y4881360D02*
X9659560D01*
G01X9745920D02*
X9938960D01*
G01X9446200Y4876280D02*
X9664640D01*
G01X9745920D02*
X9938960D01*
G01X9451280Y4871200D02*
X9669720D01*
G01X9751000D02*
X9944040D01*
G01X9456360Y4866120D02*
X9674800D01*
G01X9756080D02*
X9944040D01*
G01X9466520Y4861040D02*
X9679880D01*
G01X9761160D02*
X9944040D01*
G01X9471600Y4855960D02*
X9684960D01*
G01X9766240D02*
X9949120D01*
G01X9481760Y4850880D02*
X9684960D01*
G01X9766240D02*
X9949120D01*
G01X9491920Y4845800D02*
X9690040D01*
G01X9776400D02*
X9954200D01*
G01X9502080Y4840720D02*
X9695120D01*
G01X9781480D02*
X9954200D01*
G01X10167560D02*
X10177720D01*
G01X9507160Y4835640D02*
X9700200D01*
G01X9786560D02*
X9959280D01*
G01X10167560D02*
X10177720D01*
G01X9512240Y4830560D02*
X9705280D01*
G01X9791640D02*
X9964360D01*
G01X10167560D02*
X10177720D01*
G01X9517320Y4825480D02*
X9710360D01*
G01X9796720D02*
X9964360D01*
G01X10172640D02*
X10177720D01*
G01X9522400Y4820400D02*
X9720520D01*
G01X9796720D02*
X9969440D01*
G01X9537640Y4815320D02*
X9725600D01*
G01X9801800D02*
X9969440D01*
G01X9542720Y4810240D02*
X9730680D01*
G01X9806880D02*
X9974520D01*
G01X9542720Y4805160D02*
X9735760D01*
G01X9811960D02*
X9979600D01*
G01X9552880Y4800080D02*
X9740840D01*
G01X9822120D02*
X9984680D01*
G01X9563040Y4795000D02*
X9740840D01*
G01X9827200D02*
X9984680D01*
G01X9568120Y4789920D02*
X9745920D01*
G01X9832280D02*
X9989760D01*
G01X9573200Y4784840D02*
X9751000D01*
G01X9837360D02*
X9989760D01*
G01X9583360Y4779760D02*
X9756080D01*
G01X9842440D02*
X9994840D01*
G01X9588440Y4774680D02*
X9761160D01*
G01X9847520D02*
X9994840D01*
G01X9593520Y4769600D02*
X9766240D01*
G01X9852600D02*
X9999920D01*
G01X9598600Y4764520D02*
X9766240D01*
G01X9852600D02*
X9999920D01*
G01X9598600Y4759440D02*
X9766240D01*
G01X9852600D02*
X9999920D01*
G01X9603680Y4754360D02*
X9771320D01*
G01X9852600D02*
X9999920D01*
G01X9608760Y4749280D02*
X9776400D01*
G01X9852600D02*
X9999920D01*
G01X9613840Y4744200D02*
X9776400D01*
G01X9862760D02*
X10005000D01*
G01X9629080Y4739120D02*
X9781480D01*
G01X9867840D02*
X10005000D01*
G01X9639240Y4734040D02*
X9786560D01*
G01X9872920D02*
X10005000D01*
G01X9649400Y4728960D02*
X9791640D01*
G01X9883080D02*
X10010080D01*
G01X9654480Y4723880D02*
X9796720D01*
G01X9888160D02*
X10010080D01*
G01X9659560Y4718800D02*
X9796720D01*
G01X9888160D02*
X10010080D01*
G01X9664640Y4713720D02*
X9801800D01*
G01X9893240D02*
X10015160D01*
G01X9669720Y4708640D02*
X9806880D01*
G01X9898320D02*
X10020240D01*
G01X9674800Y4703560D02*
X9811960D01*
G01X9903400D02*
X10020240D01*
G01X9679880Y4698480D02*
X9811960D01*
G01X9903400D02*
X10020240D01*
G01X9684960Y4693400D02*
X9817040D01*
G01X9903400D02*
X10020240D01*
G01X9695120Y4688320D02*
X9822120D01*
G01X9908480D02*
X10025320D01*
G01X9700200Y4683240D02*
X9827200D01*
G01X9913560D02*
X10025320D01*
G01X9705280Y4678160D02*
X9832280D01*
G01X9918640D02*
X10025320D01*
G01X9710360Y4673080D02*
X9832280D01*
G01X9923720D02*
X10025320D01*
G01X9715440Y4668000D02*
X9832280D01*
G01X9923720D02*
X10025320D01*
G01X9720520Y4662920D02*
X9837360D01*
G01X9923720D02*
X10025320D01*
G01X9725600Y4657840D02*
X9837360D01*
G01X9928800D02*
X10025320D01*
G01X9730680Y4652760D02*
X9842440D01*
G01X9933880D02*
X10030400D01*
G01X9735760Y4647680D02*
X9847520D01*
G01X9938960D02*
X10030400D01*
G01X9745920Y4642600D02*
X9847520D01*
G01X9938960D02*
X10035480D01*
G01X9751000Y4637520D02*
X9852600D01*
G01X9938960D02*
X10035480D01*
G01X9756080Y4632440D02*
X9852600D01*
G01X9944040D02*
X10035480D01*
G01X9766240Y4627360D02*
X9852600D01*
G01X9949120D02*
X10035480D01*
G01X9766240Y4622280D02*
X9857680D01*
G01X9949120D02*
X10040560D01*
G01X9776400Y4617200D02*
X9857680D01*
G01X9954200D02*
X10040560D01*
G01X9776400Y4612120D02*
X9862760D01*
G01X9954200D02*
X10040560D01*
G01X9781480Y4607040D02*
X9862760D01*
G01X9954200D02*
X10040560D01*
G01X9786560Y4601960D02*
X9867840D01*
G01X9959280D02*
X10040560D01*
G01X9791640Y4596880D02*
X9867840D01*
G01X9959280D02*
X10040560D01*
G01X9796720Y4591800D02*
X9872920D01*
G01X9964360D02*
X10045640D01*
G01X9801800Y4586720D02*
X9878000D01*
G01X9969440D02*
X10045640D01*
G01X9806880Y4581640D02*
X9878000D01*
G01X9974520D02*
X10045640D01*
G01X9811960Y4576560D02*
X9883080D01*
G01X9974520D02*
X10050720D01*
G01X9817040Y4571480D02*
X9883080D01*
G01X9979600D02*
X10050720D01*
G01X9827200Y4566400D02*
X9883080D01*
G01X9984680D02*
X10050720D01*
G01X9832280Y4561320D02*
X9888160D01*
G01X9989760D02*
X10050720D01*
G01X9837360Y4556240D02*
X9888160D01*
G01X9989760D02*
X10050720D01*
G01X9847520Y4551160D02*
X9893240D01*
G01X9994840D02*
X10050720D01*
G01X9852600Y4546080D02*
X9893240D01*
G01X9999920D02*
X10055800D01*
G01X9852600Y4541000D02*
X9893240D01*
G01X9999920D02*
X10055800D01*
G01X9852600Y4535920D02*
X9898320D01*
G01X10005000D02*
X10055800D01*
G01X9857680Y4530840D02*
X9898320D01*
G01X10010080D02*
X10055800D01*
G01X9862760Y4525760D02*
X9898320D01*
G01X10010080D02*
X10055800D01*
G01X9872920Y4520680D02*
X9903400D01*
G01X10010080D02*
X10060880D01*
G01X9878000Y4515600D02*
X9903400D01*
G01X10015160D02*
X10060880D01*
G01X9883080Y4510520D02*
X9908480D01*
G01X10020240D02*
X10065960D01*
G01X9847520Y4505440D02*
X9872920D01*
G01X9883080D02*
X9913560D01*
G01X10025320D02*
X10065960D01*
G01X9776400Y4500360D02*
X9786560D01*
G01X9832280D02*
X9872920D01*
G01X9888160D02*
X9913560D01*
G01X10025320D02*
X10071040D01*
G01X9771320Y4495280D02*
X9786560D01*
G01X9817040D02*
X9872920D01*
G01X9893240D02*
X9918640D01*
G01X10025320D02*
X10071040D01*
G01X9771320Y4490200D02*
X9791640D01*
G01X9806880D02*
X9872920D01*
G01X9898320D02*
X9918640D01*
G01X10030400D02*
X10071040D01*
G01X9776400Y4485120D02*
X9872920D01*
G01X9903400D02*
X9918640D01*
G01X10035480D02*
X10076120D01*
G01X9776400Y4480040D02*
X9862760D01*
G01X9867840D02*
X9893240D01*
G01X9908480D02*
X9918640D01*
G01X10040560D02*
X10076120D01*
G01X9776400Y4474960D02*
X9852600D01*
G01X9867840D02*
X9898320D01*
G01X9918640D02*
X9933880D01*
G01X10040560D02*
X10076120D01*
G01X9781480Y4469880D02*
X9852600D01*
G01X9872920D02*
X9903400D01*
G01X10045640D02*
X10076120D01*
G01X9786560Y4464800D02*
X9852600D01*
G01X9878000D02*
X9908480D01*
G01X10055800D02*
X10086280D01*
G01X9791640Y4459720D02*
X9842440D01*
G01X9872920D02*
X9908480D01*
G01X10055800D02*
X10086280D01*
G01X9796720Y4454640D02*
X9847520D01*
G01X9872920D02*
X9908480D01*
G01X10060880D02*
X10091360D01*
G01X9720520Y4449560D02*
X9735760D01*
G01X9801800D02*
X9822120D01*
G01X9827200D02*
X9847520D01*
G01X9867840D02*
X9908480D01*
G01X10060880D02*
X10091360D01*
G01X9715440Y4444480D02*
X9735760D01*
G01X9786560D02*
X9801800D01*
G01X9822120D02*
X9842440D01*
G01X9867840D02*
X9908480D01*
G01X10065960D02*
X10096440D01*
G01X9715440Y4439400D02*
X9740840D01*
G01X9786560D02*
X9837360D01*
G01X9867840D02*
X9908480D01*
G01X10065960D02*
X10096440D01*
G01X9715440Y4434320D02*
X9745920D01*
G01X9786560D02*
X9837360D01*
G01X9862760D02*
X9908480D01*
G01X10076120D02*
X10096440D01*
G01X9715440Y4429240D02*
X9756080D01*
G01X9786560D02*
X9832280D01*
G01X9857680D02*
X9908480D01*
G01X10086280D02*
X10091360D01*
G01X9715440Y4424160D02*
X9761160D01*
G01X9786560D02*
X9832280D01*
G01X9852600D02*
X9903400D01*
G01X10096440D02*
X10106600D01*
G01X9618920Y4419080D02*
X9664640D01*
G01X9715440D02*
X9766240D01*
G01X9786560D02*
X9832280D01*
G01X9852600D02*
X9903400D01*
G01X10101520D02*
X10106600D01*
G01X9603680Y4414000D02*
X9669720D01*
G01X9720520D02*
X9766240D01*
G01X9786560D02*
X9832280D01*
G01X9847520D02*
X9898320D01*
G01X9593520Y4408920D02*
X9669720D01*
G01X9720520D02*
X9766240D01*
G01X9786560D02*
X9827200D01*
G01X9842440D02*
X9888160D01*
G01X9588440Y4403840D02*
X9674800D01*
G01X9725600D02*
X9766240D01*
G01X9791640D02*
X9827200D01*
G01X9832280D02*
X9898320D01*
G01X9583360Y4398760D02*
X9654480D01*
G01X9659560D02*
X9679880D01*
G01X9725600D02*
X9766240D01*
G01X9791640D02*
X9913560D01*
G01X9573200Y4393680D02*
X9649400D01*
G01X9664640D02*
X9679880D01*
G01X9730680D02*
X9766240D01*
G01X9791640D02*
X9938960D01*
G01X9573200Y4388600D02*
X9639240D01*
G01X9669720D02*
X9684960D01*
G01X9735760D02*
X9766240D01*
G01X9796720D02*
X9822120D01*
G01X9827200D02*
X9944040D01*
G01X9578280Y4383520D02*
X9629080D01*
G01X9669720D02*
X9684960D01*
G01X9740840D02*
X9766240D01*
G01X9796720D02*
X9954200D01*
G01X9598600Y4378440D02*
X9613840D01*
G01X9664640D02*
X9690040D01*
G01X9756080D02*
X9766240D01*
G01X9771320D02*
X9964360D01*
G01X9664640Y4373360D02*
X9715440D01*
G01X9766240D02*
X9883080D01*
G01X9908480D02*
X9969440D01*
G01X9568120Y4368280D02*
X9578280D01*
G01X9664640D02*
X9715440D01*
G01X9751000D02*
X9878000D01*
G01X9893240D02*
X9974520D01*
G01X9568120Y4363200D02*
X9583360D01*
G01X9664640D02*
X9715440D01*
G01X9740840D02*
X9878000D01*
G01X9888160D02*
X9979600D01*
G01X9568120Y4358120D02*
X9588440D01*
G01X9659560D02*
X9715440D01*
G01X9735760D02*
X9837360D01*
G01X9847520D02*
X9883080D01*
G01X9888160D02*
X9979600D01*
G01X9568120Y4353040D02*
X9588440D01*
G01X9659560D02*
X9715440D01*
G01X9725600D02*
X9827200D01*
G01X9847520D02*
X9888160D01*
G01X9893240D02*
X9979600D01*
G01X9568120Y4347960D02*
X9588440D01*
G01X9659560D02*
X9684960D01*
G01X9690040D02*
X9715440D01*
G01X9720520D02*
X9817040D01*
G01X9847520D02*
X9888160D01*
G01X9913560D02*
X9979600D01*
G01X9568120Y4342880D02*
X9593520D01*
G01X9659560D02*
X9684960D01*
G01X9690040D02*
X9806880D01*
G01X9847520D02*
X9883080D01*
G01X9563040Y4337800D02*
X9593520D01*
G01X9659560D02*
X9684960D01*
G01X9690040D02*
X9796720D01*
G01X9847520D02*
X9883080D01*
G01X9563040Y4332720D02*
X9593520D01*
G01X9659560D02*
X9684960D01*
G01X9690040D02*
X9806880D01*
G01X9847520D02*
X9883080D01*
G01X9563040Y4327640D02*
X9598600D01*
G01X9659560D02*
X9684960D01*
G01X9690040D02*
X9811960D01*
G01X9847520D02*
X9883080D01*
G01X9563040Y4322560D02*
X9598600D01*
G01X9603680D02*
X9618920D01*
G01X9659560D02*
X9684960D01*
G01X9690040D02*
X9766240D01*
G01X9771320D02*
X9811960D01*
G01X9847520D02*
X9883080D01*
G01X9563040Y4317480D02*
X9593520D01*
G01X9598600D02*
X9639240D01*
G01X9659560D02*
X9684960D01*
G01X9690040D02*
X9756080D01*
G01X9771320D02*
X9811960D01*
G01X9847520D02*
X9878000D01*
G01X9563040Y4312400D02*
X9593520D01*
G01X9598600D02*
X9639240D01*
G01X9659560D02*
X9679880D01*
G01X9690040D02*
X9745920D01*
G01X9766240D02*
X9811960D01*
G01X9847520D02*
X9878000D01*
G01X9563040Y4307320D02*
X9593520D01*
G01X9598600D02*
X9639240D01*
G01X9659560D02*
X9679880D01*
G01X9690040D02*
X9720520D01*
G01X9725600D02*
X9740840D01*
G01X9766240D02*
X9811960D01*
G01X9847520D02*
X9878000D01*
G01X9557960Y4302240D02*
X9588440D01*
G01X9598600D02*
X9639240D01*
G01X9659560D02*
X9679880D01*
G01X9690040D02*
X9720520D01*
G01X9766240D02*
X9811960D01*
G01X9847520D02*
X9908480D01*
G01X9557960Y4297160D02*
X9588440D01*
G01X9603680D02*
X9639240D01*
G01X9659560D02*
X9679880D01*
G01X9690040D02*
X9720520D01*
G01X9766240D02*
X9811960D01*
G01X9847520D02*
X9923720D01*
G01X9557960Y4292080D02*
X9583360D01*
G01X9603680D02*
X9634160D01*
G01X9659560D02*
X9679880D01*
G01X9684960D02*
X9715440D01*
G01X9761160D02*
X9806880D01*
G01X9842440D02*
X9923720D01*
G01X9557960Y4287000D02*
X9583360D01*
G01X9603680D02*
X9629080D01*
G01X9659560D02*
X9679880D01*
G01X9684960D02*
X9715440D01*
G01X9761160D02*
X9801800D01*
G01X9837360D02*
X9923720D01*
G01X9557960Y4281920D02*
X9583360D01*
G01X9603680D02*
X9629080D01*
G01X9659560D02*
X9679880D01*
G01X9684960D02*
X9715440D01*
G01X9756080D02*
X9801800D01*
G01X9832280D02*
X9923720D01*
G01X9557960Y4276840D02*
X9583360D01*
G01X9603680D02*
X9629080D01*
G01X9659560D02*
X9674800D01*
G01X9684960D02*
X9715440D01*
G01X9756080D02*
X9801800D01*
G01X9822120D02*
X9913560D01*
G01X9557960Y4271760D02*
X9583360D01*
G01X9603680D02*
X9634160D01*
G01X9659560D02*
X9674800D01*
G01X9684960D02*
X9715440D01*
G01X9751000D02*
X9908480D01*
G01X9552880Y4266680D02*
X9578280D01*
G01X9603680D02*
X9634160D01*
G01X9654480D02*
X9674800D01*
G01X9684960D02*
X9715440D01*
G01X9745920D02*
X9898320D01*
G01X9552880Y4261600D02*
X9578280D01*
G01X9603680D02*
X9634160D01*
G01X9654480D02*
X9674800D01*
G01X9684960D02*
X9715440D01*
G01X9740840D02*
X9893240D01*
G01X9552880Y4256520D02*
X9578280D01*
G01X9603680D02*
X9634160D01*
G01X9654480D02*
X9674800D01*
G01X9684960D02*
X9710360D01*
G01X9740840D02*
X9883080D01*
G01X9552880Y4251440D02*
X9578280D01*
G01X9598600D02*
X9634160D01*
G01X9654480D02*
X9674800D01*
G01X9690040D02*
X9710360D01*
G01X9740840D02*
X9878000D01*
G01X9552880Y4246360D02*
X9578280D01*
G01X9598600D02*
X9634160D01*
G01X9654480D02*
X9674800D01*
G01X9690040D02*
X9710360D01*
G01X9740840D02*
X9801800D01*
G01X9811960D02*
X9878000D01*
G01X9552880Y4241280D02*
X9578280D01*
G01X9598600D02*
X9634160D01*
G01X9654480D02*
X9674800D01*
G01X9690040D02*
X9710360D01*
G01X9740840D02*
X9801800D01*
G01X9832280D02*
X9878000D01*
G01X9552880Y4236200D02*
X9578280D01*
G01X9593520D02*
X9634160D01*
G01X9654480D02*
X9674800D01*
G01X9695120D02*
X9710360D01*
G01X9740840D02*
X9801800D01*
G01X9842440D02*
X9878000D01*
G01X9552880Y4231120D02*
X9578280D01*
G01X9593520D02*
X9629080D01*
G01X9654480D02*
X9674800D01*
G01X9700200D02*
X9710360D01*
G01X9740840D02*
X9806880D01*
G01X9842440D02*
X9878000D01*
G01X9893240D02*
X9938960D01*
G01X9552880Y4226040D02*
X9578280D01*
G01X9593520D02*
X9624000D01*
G01X9654480D02*
X9674800D01*
G01X9740840D02*
X9766240D01*
G01X9771320D02*
X9806880D01*
G01X9842440D02*
X9944040D01*
G01X9552880Y4220960D02*
X9578280D01*
G01X9588440D02*
X9618920D01*
G01X9654480D02*
X9679880D01*
G01X9740840D02*
X9766240D01*
G01X9771320D02*
X9806880D01*
G01X9847520D02*
X9944040D01*
G01X9552880Y4215880D02*
X9578280D01*
G01X9588440D02*
X9613840D01*
G01X9654480D02*
X9679880D01*
G01X9751000D02*
X9761160D01*
G01X9766240D02*
X9806880D01*
G01X9842440D02*
X9944040D01*
G01X9552880Y4210800D02*
X9578280D01*
G01X9588440D02*
X9608760D01*
G01X9654480D02*
X9679880D01*
G01X9751000D02*
X9761160D01*
G01X9766240D02*
X9806880D01*
G01X9837360D02*
X9944040D01*
G01X9552880Y4205720D02*
X9578280D01*
G01X9588440D02*
X9603680D01*
G01X9659560D02*
X9679880D01*
G01X9740840D02*
X9761160D01*
G01X9766240D02*
X9806880D01*
G01X9817040D02*
X9938960D01*
G01X9552880Y4200640D02*
X9578280D01*
G01X9588440D02*
X9608760D01*
G01X9659560D02*
X9679880D01*
G01X9730680D02*
X9761160D01*
G01X9766240D02*
X9928800D01*
G01X9552880Y4195560D02*
X9578280D01*
G01X9588440D02*
X9613840D01*
G01X9659560D02*
X9679880D01*
G01X9705280D02*
X9715440D01*
G01X9720520D02*
X9761160D01*
G01X9766240D02*
X9918640D01*
G01X9552880Y4190480D02*
X9578280D01*
G01X9588440D02*
X9618920D01*
G01X9654480D02*
X9679880D01*
G01X9705280D02*
X9898320D01*
G01X9552880Y4185400D02*
X9573200D01*
G01X9588440D02*
X9624000D01*
G01X9654480D02*
X9679880D01*
G01X9705280D02*
X9756080D01*
G01X9761160D02*
X9883080D01*
G01X9933880D02*
X9938960D01*
G01X9552880Y4180320D02*
X9578280D01*
G01X9588440D02*
X9624000D01*
G01X9654480D02*
X9679880D01*
G01X9710360D02*
X9756080D01*
G01X9761160D02*
X9883080D01*
G01X9933880D02*
X9949120D01*
G01X9552880Y4175240D02*
X9578280D01*
G01X9593520D02*
X9629080D01*
G01X9654480D02*
X9679880D01*
G01X9715440D02*
X9756080D01*
G01X9761160D02*
X9791640D01*
G01X9801800D02*
X9883080D01*
G01X9933880D02*
X9954200D01*
G01X9552880Y4170160D02*
X9578280D01*
G01X9598600D02*
X9629080D01*
G01X9654480D02*
X9679880D01*
G01X9715440D02*
X9791640D01*
G01X9822120D02*
X9837360D01*
G01X9842440D02*
X9878000D01*
G01X9933880D02*
X9959280D01*
G01X9552880Y4165080D02*
X9578280D01*
G01X9598600D02*
X9629080D01*
G01X9659560D02*
X9679880D01*
G01X9720520D02*
X9791640D01*
G01X9847520D02*
X9878000D01*
G01X9928800D02*
X9964360D01*
G01X9552880Y4160000D02*
X9578280D01*
G01X9603680D02*
X9624000D01*
G01X9659560D02*
X9679880D01*
G01X9725600D02*
X9791640D01*
G01X9847520D02*
X9878000D01*
G01X9928800D02*
X9964360D01*
G01X9552880Y4154920D02*
X9578280D01*
G01X9634160D02*
X9679880D01*
G01X9730680D02*
X9791640D01*
G01X9847520D02*
X9878000D01*
G01X9923720D02*
X9969440D01*
G01X9552880Y4149840D02*
X9578280D01*
G01X9639240D02*
X9679880D01*
G01X9745920D02*
X9786560D01*
G01X9847520D02*
X9878000D01*
G01X9913560D02*
X9974520D01*
G01X9557960Y4144760D02*
X9583360D01*
G01X9639240D02*
X9679880D01*
G01X9745920D02*
X9786560D01*
G01X9847520D02*
X9883080D01*
G01X9908480D02*
X9974520D01*
G01X9674800Y5191240D02*
X11950640D01*
G01X9684960Y5186160D02*
X11950640D01*
G01X9690040Y5181080D02*
X11950640D01*
G01X9705280Y5176000D02*
X11950640D01*
G01X9715440Y5170920D02*
X11950640D01*
G01X9730680Y5165840D02*
X11950640D01*
G01X9740840Y5160760D02*
X11950640D01*
G01X9751000Y5155680D02*
X11950640D01*
G01X9761160Y5150600D02*
X11950640D01*
G01X9771320Y5145520D02*
X11950640D01*
G01X9791640Y5140440D02*
X11950640D01*
G01X9796720Y5135360D02*
X11950640D01*
G01X9806880Y5130280D02*
X11950640D01*
G01X9827200Y5125200D02*
X11950640D01*
G01X9837360Y5120120D02*
X11950640D01*
G01X9842440Y5115040D02*
X11950640D01*
G01X9852600Y5109960D02*
X11950640D01*
G01X9857680Y5104880D02*
X9933880D01*
G01X9944040D02*
X11950640D01*
G01X9862760Y5099800D02*
X9928800D01*
G01X9959280D02*
X11950640D01*
G01X9872920Y5094720D02*
X9933880D01*
G01X9964360D02*
X11950640D01*
G01X9893240Y5089640D02*
X9944040D01*
G01X9989760D02*
X11950640D01*
G01X9903400Y5084560D02*
X9949120D01*
G01X9999920D02*
X10060880D01*
G01X10071040D02*
X11950640D01*
G01X9918640Y5079480D02*
X9954200D01*
G01X10015160D02*
X10055800D01*
G01X10086280D02*
X11950640D01*
G01X9928800Y5074400D02*
X9964360D01*
G01X10025320D02*
X10060880D01*
G01X10106600D02*
X11950640D01*
G01X9425880Y5069320D02*
X9786560D01*
G01X9933880D02*
X9974520D01*
G01X10025320D02*
X10060880D01*
G01X10111680D02*
X11950640D01*
G01X9436040Y5064240D02*
X9791640D01*
G01X9938960D02*
X9979600D01*
G01X10030400D02*
X10060880D01*
G01X10111680D02*
X11950640D01*
G01X9451280Y5059160D02*
X9791640D01*
G01X9944040D02*
X9984680D01*
G01X10045640D02*
X10065960D01*
G01X10121840D02*
X11950640D01*
G01X9471600Y5054080D02*
X9796720D01*
G01X9954200D02*
X9989760D01*
G01X10060880D02*
X10065960D01*
G01X10137080D02*
X11950640D01*
G01X9481760Y5049000D02*
X9801800D01*
G01X9959280D02*
X9994840D01*
G01X10060880D02*
X10071040D01*
G01X10142160D02*
X11950640D01*
G01X9502080Y5043920D02*
X9806880D01*
G01X9969440D02*
X9999920D01*
G01X10152320D02*
X11950640D01*
G01X9522400Y5038840D02*
X9811960D01*
G01X9989760D02*
X10005000D01*
G01X10167560D02*
X11950640D01*
G01X9532560Y5033760D02*
X9827200D01*
G01X9989760D02*
X10010080D01*
G01X9537640Y5028680D02*
X9827200D01*
G01X9994840D02*
X10020240D01*
G01X9547800Y5023600D02*
X9832280D01*
G01X9999920D02*
X10020240D01*
G01X9557960Y5018520D02*
X9832280D01*
G01X10010080D02*
X10025320D01*
G01X9563040Y5013440D02*
X9837360D01*
G01X10010080D02*
X10030400D01*
G01X9573200Y5008360D02*
X9842440D01*
G01X10015160D02*
X10030400D01*
G01X9583360Y5003280D02*
X9847520D01*
G01X10025320D02*
X10030400D01*
G01X9593520Y4998200D02*
X9847520D01*
G01X9598600Y4993120D02*
X9852600D01*
G01X9613840Y4988040D02*
X9857680D01*
G01X9618920Y4982960D02*
X9862760D01*
G01X9624000Y4977880D02*
X9867840D01*
G01X9634160Y4972800D02*
X9867840D01*
G01X9644320Y4967720D02*
X9878000D01*
G01X9644320Y4962640D02*
X9883080D01*
G01X9649400Y4957560D02*
X9883080D01*
G01X9659560Y4952480D02*
X9883080D01*
G01X9664640Y4947400D02*
X9888160D01*
G01X9669720Y4942320D02*
X9893240D01*
G01X9679880Y4937240D02*
X9898320D01*
G01X9690040Y4932160D02*
X9898320D01*
G01X9695120Y4927080D02*
X9903400D01*
G01X9695120Y4922000D02*
X9903400D01*
G01X9700200Y4916920D02*
X9908480D01*
G01X9705280Y4911840D02*
X9913560D01*
G01X9710360Y4906760D02*
X9918640D01*
G01X10116760D02*
X10121840D01*
G01X9725600Y4901680D02*
X9923720D01*
G01X10253920Y3387840D02*
X10462200D01*
G01X10553640D02*
X10558720D01*
G01X10614600D02*
X11793160D01*
G01X10259000Y3382760D02*
X10462200D01*
G01X10548560D02*
X10584120D01*
G01X10609520D02*
X11793160D01*
G01X10264080Y3377680D02*
X10462200D01*
G01X10543480D02*
X10584120D01*
G01X10609520D02*
X11732200D01*
G01X10269160Y3372600D02*
X10462200D01*
G01X10538400D02*
X10589200D01*
G01X10614600D02*
X11737280D01*
G01X10274240Y3367520D02*
X10467280D01*
G01X10538400D02*
X10594280D01*
G01X10614600D02*
X11737280D01*
G01X10279320Y3362440D02*
X10467280D01*
G01X10538400D02*
X10594280D01*
G01X10614600D02*
X11737280D01*
G01X10284400Y3357360D02*
X10472360D01*
G01X10543480D02*
X10599360D01*
G01X10624760D02*
X11737280D01*
G01X10289480Y3352280D02*
X10472360D01*
G01X10543480D02*
X10604440D01*
G01X10624760D02*
X11737280D01*
G01X10294560Y3347200D02*
X10472360D01*
G01X10543480D02*
X10609520D01*
G01X10634920D02*
X11788080D01*
G01X10299640Y3342120D02*
X10477440D01*
G01X10543480D02*
X10609520D01*
G01X10640000D02*
X11803320D01*
G01X10304720Y3337040D02*
X10477440D01*
G01X10543480D02*
X10614600D01*
G01X10650160D02*
X11813480D01*
G01X10309800Y3331960D02*
X10482520D01*
G01X10538400D02*
X10619680D01*
G01X10660320D02*
X11818560D01*
G01X10319960Y3326880D02*
X10492680D01*
G01X10528240D02*
X10624760D01*
G01X10665400D02*
X11823640D01*
G01X10325040Y3321800D02*
X10497760D01*
G01X10513000D02*
X10624760D01*
G01X10670480D02*
X11828720D01*
G01X10330120Y3316720D02*
X10629840D01*
G01X10675560D02*
X11843960D01*
G01X10335200Y3311640D02*
X10640000D01*
G01X10680640D02*
X11854120D01*
G01X10340280Y3306560D02*
X10411400D01*
G01X10416480D02*
X10640000D01*
G01X10685720D02*
X11854120D01*
G01X10345360Y3301480D02*
X10645080D01*
G01X10690800D02*
X11838880D01*
G01X10350440Y3296400D02*
X10650160D01*
G01X10700960D02*
X11828720D01*
G01X10355520Y3291320D02*
X10426640D01*
G01X10431720D02*
X10655240D01*
G01X10706040D02*
X11828720D01*
G01X10365680Y3286240D02*
X10660320D01*
G01X10711120D02*
X11828720D01*
G01X10370760Y3281160D02*
X10665400D01*
G01X10716200D02*
X11833800D01*
G01X10375840Y3276080D02*
X10670480D01*
G01X10716200D02*
X11838880D01*
G01X10380920Y3271000D02*
X10675560D01*
G01X10721280D02*
X11843960D01*
G01X10386000Y3265920D02*
X10680640D01*
G01X10731440D02*
X11854120D01*
G01X10391080Y3260840D02*
X10457120D01*
G01X10467280D02*
X10685720D01*
G01X10736520D02*
X11854120D01*
G01X10396160Y3255760D02*
X10457120D01*
G01X10472360D02*
X10690800D01*
G01X10741600D02*
X11859200D01*
G01X10401240Y3250680D02*
X10457120D01*
G01X10467280D02*
X10695880D01*
G01X10746680D02*
X11859200D01*
G01X10406320Y3245600D02*
X10700960D01*
G01X10756840D02*
X11864280D01*
G01X10182800Y3240520D02*
X10248840D01*
G01X10426640D02*
X10477440D01*
G01X10492680D02*
X10706040D01*
G01X10767000D02*
X11869360D01*
G01X10187880Y3235440D02*
X10253920D01*
G01X10436800D02*
X10711120D01*
G01X10777160D02*
X11869360D01*
G01X10198040Y3230360D02*
X10259000D01*
G01X10441880D02*
X10716200D01*
G01X10782240D02*
X11874440D01*
G01X10198040Y3225280D02*
X10259000D01*
G01X10446960D02*
X10513000D01*
G01X10523160D02*
X10721280D01*
G01X10787320D02*
X11879520D01*
G01X10198040Y3220200D02*
X10264080D01*
G01X10452040D02*
X10513000D01*
G01X10523160D02*
X10726360D01*
G01X10792400D02*
X11884600D01*
G01X10198040Y3215120D02*
X10269160D01*
G01X10452040D02*
X10513000D01*
G01X10523160D02*
X10731440D01*
G01X10797480D02*
X11884600D01*
G01X10198040Y3210040D02*
X10274240D01*
G01X10457120D02*
X10518080D01*
G01X10538400D02*
X10736520D01*
G01X10802560D02*
X11889680D01*
G01X10203120Y3204960D02*
X10279320D01*
G01X10462200D02*
X10523160D01*
G01X10538400D02*
X10746680D01*
G01X10807640D02*
X11889680D01*
G01X10208200Y3199880D02*
X10279320D01*
G01X10467280D02*
X10533320D01*
G01X10538400D02*
X10746680D01*
G01X10812720D02*
X11879520D01*
G01X10213280Y3194800D02*
X10284400D01*
G01X10477440D02*
X10751760D01*
G01X10822880D02*
X11823640D01*
G01X10218360Y3189720D02*
X10284400D01*
G01X10482520D02*
X10756840D01*
G01X10827960D02*
X11777920D01*
G01X10223440Y3184640D02*
X10289480D01*
G01X10487600D02*
X10761920D01*
G01X10833040D02*
X11777920D01*
G01X10233600Y3179560D02*
X10294560D01*
G01X10497760D02*
X10767000D01*
G01X10848280D02*
X11772840D01*
G01X10238680Y3174480D02*
X10294560D01*
G01X10507920D02*
X10777160D01*
G01X10858440D02*
X11772840D01*
G01X10243760Y3169400D02*
X10299640D01*
G01X10507920D02*
X10563800D01*
G01X10573960D02*
X10787320D01*
G01X10863520D02*
X11772840D01*
G01X10248840Y3164320D02*
X10304720D01*
G01X10513000D02*
X10792400D01*
G01X10868600D02*
X11767760D01*
G01X10248840Y3159240D02*
X10309800D01*
G01X10523160D02*
X10797480D01*
G01X10873680D02*
X11767760D01*
G01X10253920Y3154160D02*
X10319960D01*
G01X10533320D02*
X10802560D01*
G01X10883840D02*
X11767760D01*
G01X10259000Y3149080D02*
X10319960D01*
G01X10538400D02*
X10807640D01*
G01X10894000D02*
X11772840D01*
G01X10264080Y3144000D02*
X10330120D01*
G01X10543480D02*
X10812720D01*
G01X10904160D02*
X11772840D01*
G01X10269160Y3138920D02*
X10335200D01*
G01X10553640D02*
X10817800D01*
G01X10914320D02*
X11783000D01*
G01X10274240Y3133840D02*
X10335200D01*
G01X10558720D02*
X10822880D01*
G01X10919400D02*
X11783000D01*
G01X10284400Y3128760D02*
X10345360D01*
G01X10568880D02*
X10833040D01*
G01X10284400Y3123680D02*
X10350440D01*
G01X10579040D02*
X10848280D01*
G01X10289480Y3118600D02*
X10355520D01*
G01X10589200D02*
X10858440D01*
G01X10294560Y3113520D02*
X10355520D01*
G01X10594280D02*
X10863520D01*
G01X10299640Y3108440D02*
X10365680D01*
G01X10599360D02*
X10868600D01*
G01X10304720Y3103360D02*
X10370760D01*
G01X10604440D02*
X10878760D01*
G01X10304720Y3098280D02*
X10370760D01*
G01X10609520D02*
X10883840D01*
G01X10309800Y3093200D02*
X10370760D01*
G01X10619680D02*
X10888920D01*
G01X10314880Y3088120D02*
X10380920D01*
G01X10629840D02*
X10899080D01*
G01X10319960Y3083040D02*
X10386000D01*
G01X10634920D02*
X10904160D01*
G01X10325040Y3077960D02*
X10386000D01*
G01X10650160D02*
X10909240D01*
G01X10335200Y3072880D02*
X10396160D01*
G01X10665400D02*
X10919400D01*
G01X10345360Y3067800D02*
X10406320D01*
G01X10675560D02*
X10960040D01*
G01X10350440Y3062720D02*
X10406320D01*
G01X10690800D02*
X10965120D01*
G01X10355520Y3057640D02*
X10416480D01*
G01X10706040D02*
X10970200D01*
G01X10360600Y3052560D02*
X10421560D01*
G01X10711120D02*
X10985440D01*
G01X10360600Y3047480D02*
X10426640D01*
G01X10716200D02*
X10990520D01*
G01X10370760Y3042400D02*
X10431720D01*
G01X10751760D02*
X11000680D01*
G01X10380920Y3037320D02*
X10441880D01*
G01X10777160D02*
X11015920D01*
G01X10386000Y3032240D02*
X10452040D01*
G01X10787320D02*
X11036240D01*
G01X10391080Y3027160D02*
X10452040D01*
G01X10807640D02*
X11036240D01*
G01X10401240Y3022080D02*
X10457120D01*
G01X10853360D02*
X11056560D01*
G01X10406320Y3017000D02*
X10467280D01*
G01X10883840D02*
X11066720D01*
G01X10406320Y3011920D02*
X10467280D01*
G01X10904160D02*
X10980360D01*
G01X10416480Y3006840D02*
X10472360D01*
G01X10426640Y3001760D02*
X10482520D01*
G01X10431720Y2996680D02*
X10487600D01*
G01X10436800Y2991600D02*
X10492680D01*
G01X10446960Y2986520D02*
X10497760D01*
G01X10462200Y2981440D02*
X10523160D01*
G01X10472360Y2976360D02*
X10528240D01*
G01X10482520Y2971280D02*
X10538400D01*
G01X10492680Y2966200D02*
X10538400D01*
G01X10497760Y2961120D02*
X10548560D01*
G01X10507920Y2956040D02*
X10553640D01*
G01X10513000Y2950960D02*
X10558720D01*
G01X10523160Y2945880D02*
X10573960D01*
G01X10533320Y2940800D02*
X10573960D01*
G01X10589200Y2925560D02*
X10614600D01*
G01X10177720Y2884920D02*
X10264080D01*
G01X10187880Y2879840D02*
X10274240D01*
G01X10198040Y2874760D02*
X10284400D01*
G01X10203120Y2869680D02*
X10284400D01*
G01X10213280Y2864600D02*
X10289480D01*
G01X10218360Y2859520D02*
X10294560D01*
G01X10228520Y2854440D02*
X10299640D01*
G01X10253920Y2849360D02*
X10299640D01*
G01X10259000Y2844280D02*
X10304720D01*
G01X10269160Y2839200D02*
X10309800D01*
G01X10284400Y2834120D02*
X10314880D01*
G01X10294560Y2829040D02*
X10319960D01*
G01X10304720Y2823960D02*
X10335200D01*
G01X10309800Y2818880D02*
X10335200D01*
G01X10325040Y2813800D02*
X10330120D01*
G01X10391080Y4088880D02*
X10416480D01*
G01X10421560D02*
X10426640D01*
G01X10477440D02*
X10482520D01*
G01X10380920Y4083800D02*
X10411400D01*
G01X10472360D02*
X10487600D01*
G01X10370760Y4078720D02*
X10406320D01*
G01X10462200D02*
X10502840D01*
G01X10507920D02*
X10538400D01*
G01X10192960Y4073640D02*
X10243760D01*
G01X10340280D02*
X10401240D01*
G01X10457120D02*
X10604440D01*
G01X10319960Y4068560D02*
X10411400D01*
G01X10452040D02*
X10604440D01*
G01X10294560Y4063480D02*
X10482520D01*
G01X10507920D02*
X10609520D01*
G01X10538400Y4058400D02*
X10634920D01*
G01X10543480Y4053320D02*
X10680640D01*
G01X10685720D02*
X10695880D01*
G01X10538400Y4048240D02*
X10711120D01*
G01X10523160Y4043160D02*
X10731440D01*
G01X10761920D02*
X10817800D01*
G01X10919400Y4038080D02*
X11950640D01*
G01X10904160Y4033000D02*
X11950640D01*
G01X10528240Y3997440D02*
X11950640D01*
G01X10533320Y3992360D02*
X11950640D01*
G01X10533320Y3987280D02*
X10949880D01*
G01X10538400Y3982200D02*
X10960040D01*
G01X10538400Y3977120D02*
X10980360D01*
G01X10538400Y3972040D02*
X11021000D01*
G01X10538400Y3966960D02*
X11041320D01*
G01X10538400Y3961880D02*
X11046400D01*
G01X10538400Y3956800D02*
X11051480D01*
G01X10538400Y3951720D02*
X11056560D01*
G01X10538400Y3946640D02*
X10594280D01*
G01X10599360D02*
X11056560D01*
G01X10538400Y3941560D02*
X10563800D01*
G01X10624760D02*
X11066720D01*
G01X10538400Y3936480D02*
X10553640D01*
G01X10624760D02*
X11102280D01*
G01X10634920Y3931400D02*
X11097200D01*
G01X10640000Y3926320D02*
X11097200D01*
G01X10640000Y3921240D02*
X11097200D01*
G01X10640000Y3916160D02*
X11102280D01*
G01X10634920Y3911080D02*
X11117520D01*
G01X10634920Y3906000D02*
X11168320D01*
G01X10629840Y3900920D02*
X11173400D01*
G01X10629840Y3895840D02*
X11239440D01*
G01X10624760Y3890760D02*
X11249600D01*
G01X10624760Y3885680D02*
X11275000D01*
G01X10624760Y3880600D02*
X11315640D01*
G01X10619680Y3875520D02*
X11315640D01*
G01X10619680Y3870440D02*
X11310560D01*
G01X10406320Y3865360D02*
X10482520D01*
G01X10614600D02*
X11310560D01*
G01X10406320Y3860280D02*
X10482520D01*
G01X10609520D02*
X11315640D01*
G01X10411400Y3855200D02*
X10492680D01*
G01X10518080D02*
X10523160D01*
G01X10599360D02*
X11386760D01*
G01X10416480Y3850120D02*
X10518080D01*
G01X10599360D02*
X11402000D01*
G01X10416480Y3845040D02*
X10513000D01*
G01X10594280D02*
X11407080D01*
G01X10416480Y3839960D02*
X10507920D01*
G01X10589200D02*
X11407080D01*
G01X10416480Y3834880D02*
X10502840D01*
G01X10594280D02*
X11422320D01*
G01X10416480Y3829800D02*
X10502840D01*
G01X10604440D02*
X11442640D01*
G01X10416480Y3824720D02*
X10497760D01*
G01X10614600D02*
X11437560D01*
G01X10416480Y3819640D02*
X10487600D01*
G01X10624760D02*
X11432480D01*
G01X10416480Y3814560D02*
X10477440D01*
G01X10640000D02*
X11422320D01*
G01X10269160Y3809480D02*
X10319960D01*
G01X10416480D02*
X10467280D01*
G01X10640000D02*
X11422320D01*
G01X10269160Y3804400D02*
X10319960D01*
G01X10355520D02*
X10370760D01*
G01X10416480D02*
X10457120D01*
G01X10640000D02*
X11422320D01*
G01X10269160Y3799320D02*
X10314880D01*
G01X10350440D02*
X10370760D01*
G01X10416480D02*
X10452040D01*
G01X10640000D02*
X11432480D01*
G01X10269160Y3794240D02*
X10314880D01*
G01X10350440D02*
X10370760D01*
G01X10416480D02*
X10452040D01*
G01X10634920D02*
X11468040D01*
G01X10269160Y3789160D02*
X10309800D01*
G01X10345360D02*
X10375840D01*
G01X10416480D02*
X10446960D01*
G01X10634920D02*
X11473120D01*
G01X10269160Y3784080D02*
X10309800D01*
G01X10345360D02*
X10375840D01*
G01X10416480D02*
X10441880D01*
G01X10629840D02*
X11493440D01*
G01X10269160Y3779000D02*
X10309800D01*
G01X10340280D02*
X10375840D01*
G01X10416480D02*
X10441880D01*
G01X10624760D02*
X11513760D01*
G01X10269160Y3773920D02*
X10304720D01*
G01X10335200D02*
X10375840D01*
G01X10416480D02*
X10441880D01*
G01X10619680D02*
X11523920D01*
G01X10264080Y3768840D02*
X10304720D01*
G01X10330120D02*
X10375840D01*
G01X10416480D02*
X10421560D01*
G01X10436800D02*
X10441880D01*
G01X10604440D02*
X11534080D01*
G01X10264080Y3763760D02*
X10294560D01*
G01X10325040D02*
X10375840D01*
G01X10436800D02*
X10441880D01*
G01X10594280D02*
X11564560D01*
G01X10269160Y3758680D02*
X10294560D01*
G01X10319960D02*
X10375840D01*
G01X10436800D02*
X10441880D01*
G01X10589200D02*
X11569640D01*
G01X10269160Y3753600D02*
X10289480D01*
G01X10319960D02*
X10375840D01*
G01X10436800D02*
X10441880D01*
G01X10599360D02*
X11569640D01*
G01X10269160Y3748520D02*
X10289480D01*
G01X10314880D02*
X10380920D01*
G01X10436800D02*
X10441880D01*
G01X10640000D02*
X11574720D01*
G01X10269160Y3743440D02*
X10284400D01*
G01X10314880D02*
X10380920D01*
G01X10436800D02*
X10441880D01*
G01X10645080D02*
X11432480D01*
G01X10269160Y3738360D02*
X10284400D01*
G01X10304720D02*
X10380920D01*
G01X10436800D02*
X10441880D01*
G01X10655240D02*
X11595040D01*
G01X10269160Y3733280D02*
X10284400D01*
G01X10304720D02*
X10380920D01*
G01X10436800D02*
X10441880D01*
G01X10548560D02*
X10568880D01*
G01X10660320D02*
X11605200D01*
G01X10274240Y3728200D02*
X10284400D01*
G01X10304720D02*
X10375840D01*
G01X10436800D02*
X10446960D01*
G01X10538400D02*
X10568880D01*
G01X10685720D02*
X11635680D01*
G01X10304720Y3723120D02*
X10375840D01*
G01X10436800D02*
X10452040D01*
G01X10533320D02*
X10563800D01*
G01X10695880D02*
X11645840D01*
G01X10304720Y3718040D02*
X10375840D01*
G01X10436800D02*
X10452040D01*
G01X10523160D02*
X10553640D01*
G01X10700960D02*
X11650920D01*
G01X10299640Y3712960D02*
X10375840D01*
G01X10436800D02*
X10452040D01*
G01X10472360D02*
X10477440D01*
G01X10518080D02*
X10548560D01*
G01X10706040D02*
X11650920D01*
G01X10299640Y3707880D02*
X10330120D01*
G01X10340280D02*
X10375840D01*
G01X10436800D02*
X10472360D01*
G01X10513000D02*
X10538400D01*
G01X10706040D02*
X11605200D01*
G01X10299640Y3702800D02*
X10325040D01*
G01X10350440D02*
X10375840D01*
G01X10436800D02*
X10467280D01*
G01X10507920D02*
X10533320D01*
G01X10706040D02*
X11661080D01*
G01X10294560Y3697720D02*
X10325040D01*
G01X10355520D02*
X10375840D01*
G01X10436800D02*
X10462200D01*
G01X10502840D02*
X10523160D01*
G01X10706040D02*
X11656000D01*
G01X10294560Y3692640D02*
X10325040D01*
G01X10360600D02*
X10375840D01*
G01X10436800D02*
X10457120D01*
G01X10497760D02*
X10513000D01*
G01X10700960D02*
X11534080D01*
G01X10289480Y3687560D02*
X10325040D01*
G01X10360600D02*
X10375840D01*
G01X10436800D02*
X10452040D01*
G01X10492680D02*
X10502840D01*
G01X10700960D02*
X11539160D01*
G01X10289480Y3682480D02*
X10325040D01*
G01X10365680D02*
X10375840D01*
G01X10436800D02*
X10452040D01*
G01X10487600D02*
X10492680D01*
G01X10695880D02*
X11671240D01*
G01X10289480Y3677400D02*
X10325040D01*
G01X10370760D02*
X10375840D01*
G01X10431720D02*
X10446960D01*
G01X10680640D02*
X11686480D01*
G01X10289480Y3672320D02*
X10325040D01*
G01X10370760D02*
X10375840D01*
G01X10431720D02*
X10441880D01*
G01X10462200D02*
X10467280D01*
G01X10675560D02*
X11691560D01*
G01X10289480Y3667240D02*
X10325040D01*
G01X10431720D02*
X10436800D01*
G01X10457120D02*
X10462200D01*
G01X10660320D02*
X11691560D01*
G01X10289480Y3662160D02*
X10325040D01*
G01X10655240D02*
X11691560D01*
G01X10289480Y3657080D02*
X10330120D01*
G01X10650160D02*
X11696640D01*
G01X10289480Y3652000D02*
X10330120D01*
G01X10645080D02*
X11701720D01*
G01X10289480Y3646920D02*
X10330120D01*
G01X10640000D02*
X11716960D01*
G01X10289480Y3641840D02*
X10330120D01*
G01X10634920D02*
X11722040D01*
G01X10294560Y3636760D02*
X10325040D01*
G01X10629840D02*
X11727120D01*
G01X10294560Y3631680D02*
X10325040D01*
G01X10624760D02*
X11732200D01*
G01X10294560Y3626600D02*
X10325040D01*
G01X10624760D02*
X11762680D01*
G01X10294560Y3621520D02*
X10325040D01*
G01X10619680D02*
X11777920D01*
G01X10294560Y3616440D02*
X10325040D01*
G01X10614600D02*
X11783000D01*
G01X10294560Y3611360D02*
X10319960D01*
G01X10609520D02*
X11788080D01*
G01X10294560Y3606280D02*
X10319960D01*
G01X10604440D02*
X11788080D01*
G01X10294560Y3601200D02*
X10319960D01*
G01X10599360D02*
X11793160D01*
G01X10294560Y3596120D02*
X10319960D01*
G01X10594280D02*
X11793160D01*
G01X10294560Y3591040D02*
X10314880D01*
G01X10482520D02*
X10492680D01*
G01X10584120D02*
X11788080D01*
G01X10299640Y3585960D02*
X10314880D01*
G01X10477440D02*
X10492680D01*
G01X10594280D02*
X11788080D01*
G01X10299640Y3580880D02*
X10314880D01*
G01X10472360D02*
X10487600D01*
G01X10599360D02*
X11793160D01*
G01X10299640Y3575800D02*
X10309800D01*
G01X10467280D02*
X10482520D01*
G01X10604440D02*
X11798240D01*
G01X10299640Y3570720D02*
X10309800D01*
G01X10457120D02*
X10482520D01*
G01X10609520D02*
X11813480D01*
G01X10299640Y3565640D02*
X10309800D01*
G01X10452040D02*
X10477440D01*
G01X10614600D02*
X11808400D01*
G01X10299640Y3560560D02*
X10304720D01*
G01X10431720D02*
X10436800D01*
G01X10446960D02*
X10477440D01*
G01X10619680D02*
X11808400D01*
G01X10416480Y3555480D02*
X10477440D01*
G01X10563800D02*
X10568880D01*
G01X10624760D02*
X11803320D01*
G01X10421560Y3550400D02*
X10472360D01*
G01X10563800D02*
X10573960D01*
G01X10624760D02*
X11803320D01*
G01X10421560Y3545320D02*
X10472360D01*
G01X10558720D02*
X10573960D01*
G01X10624760D02*
X11793160D01*
G01X10421560Y3540240D02*
X10467280D01*
G01X10558720D02*
X10573960D01*
G01X10629840D02*
X11762680D01*
G01X10421560Y3535160D02*
X10467280D01*
G01X10553640D02*
X10573960D01*
G01X10629840D02*
X11757600D01*
G01X10421560Y3530080D02*
X10467280D01*
G01X10553640D02*
X10579040D01*
G01X10634920D02*
X11757600D01*
G01X10421560Y3525000D02*
X10462200D01*
G01X10553640D02*
X10579040D01*
G01X10634920D02*
X11757600D01*
G01X10426640Y3519920D02*
X10462200D01*
G01X10548560D02*
X10579040D01*
G01X10640000D02*
X11762680D01*
G01X10426640Y3514840D02*
X10462200D01*
G01X10548560D02*
X10584120D01*
G01X10640000D02*
X11762680D01*
G01X10304720Y3509760D02*
X10309800D01*
G01X10426640D02*
X10462200D01*
G01X10543480D02*
X10584120D01*
G01X10645080D02*
X11762680D01*
G01X10304720Y3504680D02*
X10319960D01*
G01X10426640D02*
X10457120D01*
G01X10538400D02*
X10584120D01*
G01X10650160D02*
X11757600D01*
G01X10304720Y3499600D02*
X10319960D01*
G01X10426640D02*
X10457120D01*
G01X10538400D02*
X10584120D01*
G01X10650160D02*
X11757600D01*
G01X10304720Y3494520D02*
X10325040D01*
G01X10426640D02*
X10457120D01*
G01X10538400D02*
X10579040D01*
G01X10650160D02*
X11757600D01*
G01X10304720Y3489440D02*
X10330120D01*
G01X10426640D02*
X10457120D01*
G01X10533320D02*
X10579040D01*
G01X10655240D02*
X11762680D01*
G01X10304720Y3484360D02*
X10335200D01*
G01X10421560D02*
X10457120D01*
G01X10538400D02*
X10579040D01*
G01X10655240D02*
X11762680D01*
G01X10309800Y3479280D02*
X10340280D01*
G01X10411400D02*
X10452040D01*
G01X10553640D02*
X10579040D01*
G01X10655240D02*
X11767760D01*
G01X10309800Y3474200D02*
X10340280D01*
G01X10375840D02*
X10452040D01*
G01X10563800D02*
X10573960D01*
G01X10660320D02*
X11772840D01*
G01X10309800Y3469120D02*
X10345360D01*
G01X10370760D02*
X10452040D01*
G01X10660320D02*
X11767760D01*
G01X10304720Y3464040D02*
X10452040D01*
G01X10660320D02*
X11772840D01*
G01X10182800Y3458960D02*
X10279320D01*
G01X10304720D02*
X10452040D01*
G01X10660320D02*
X11777920D01*
G01X10187880Y3453880D02*
X10289480D01*
G01X10304720D02*
X10452040D01*
G01X10660320D02*
X11783000D01*
G01X10192960Y3448800D02*
X10452040D01*
G01X10660320D02*
X11788080D01*
G01X10198040Y3443720D02*
X10452040D01*
G01X10660320D02*
X11783000D01*
G01X10198040Y3438640D02*
X10452040D01*
G01X10523160D02*
X10528240D01*
G01X10660320D02*
X11777920D01*
G01X10203120Y3433560D02*
X10452040D01*
G01X10523160D02*
X10533320D01*
G01X10660320D02*
X11767760D01*
G01X10208200Y3428480D02*
X10452040D01*
G01X10523160D02*
X10533320D01*
G01X10655240D02*
X11757600D01*
G01X10213280Y3423400D02*
X10452040D01*
G01X10523160D02*
X10538400D01*
G01X10655240D02*
X11757600D01*
G01X10218360Y3418320D02*
X10452040D01*
G01X10528240D02*
X10533320D01*
G01X10655240D02*
X11757600D01*
G01X10223440Y3413240D02*
X10452040D01*
G01X10650160D02*
X11762680D01*
G01X10233600Y3408160D02*
X10452040D01*
G01X10650160D02*
X11767760D01*
G01X10238680Y3403080D02*
X10452040D01*
G01X10629840D02*
X11777920D01*
G01X10243760Y3398000D02*
X10452040D01*
G01X10624760D02*
X11793160D01*
G01X10248840Y3392920D02*
X10457120D01*
G01X10619680D02*
X11793160D01*
G01X10584120Y4896600D02*
X10685720D01*
G01X10807640D02*
X11950640D01*
G01X10589200Y4891520D02*
X10695880D01*
G01X10807640D02*
X11950640D01*
G01X10609520Y4886440D02*
X10700960D01*
G01X10812720D02*
X11950640D01*
G01X10431720Y4881360D02*
X10436800D01*
G01X10619680D02*
X10706040D01*
G01X10817800D02*
X11950640D01*
G01X10431720Y4876280D02*
X10452040D01*
G01X10624760D02*
X10711120D01*
G01X10817800D02*
X11950640D01*
G01X10436800Y4871200D02*
X10452040D01*
G01X10624760D02*
X10711120D01*
G01X10822880D02*
X11950640D01*
G01X10446960Y4866120D02*
X10452040D01*
G01X10629840D02*
X10711120D01*
G01X10822880D02*
X10878760D01*
G01X10888920D02*
X11950640D01*
G01X10634920Y4861040D02*
X10711120D01*
G01X10827960D02*
X10878760D01*
G01X10888920D02*
X11950640D01*
G01X10457120Y4855960D02*
X10467280D01*
G01X10640000D02*
X10711120D01*
G01X10827960D02*
X10873680D01*
G01X10888920D02*
X11950640D01*
G01X10645080Y4850880D02*
X10721280D01*
G01X10838120D02*
X10873680D01*
G01X10894000D02*
X11950640D01*
G01X10650160Y4845800D02*
X10726360D01*
G01X10843200D02*
X10868600D01*
G01X10894000D02*
X11950640D01*
G01X10655240Y4840720D02*
X10741600D01*
G01X10848280D02*
X10853360D01*
G01X10899080D02*
X10960040D01*
G01X10670480Y4835640D02*
X10751760D01*
G01X10904160D02*
X10960040D01*
G01X10680640Y4830560D02*
X10761920D01*
G01X10904160D02*
X10970200D01*
G01X10680640Y4825480D02*
X10782240D01*
G01X10904160D02*
X10970200D01*
G01X10177720Y4820400D02*
X10192960D01*
G01X10518080D02*
X10523160D01*
G01X10680640D02*
X10792400D01*
G01X10904160D02*
X10975280D01*
G01X10182800Y4815320D02*
X10198040D01*
G01X10695880D02*
X10802560D01*
G01X10909240D02*
X10990520D01*
G01X10187880Y4810240D02*
X10198040D01*
G01X10533320D02*
X10538400D01*
G01X10700960D02*
X10812720D01*
G01X10909240D02*
X10995600D01*
G01X10187880Y4805160D02*
X10198040D01*
G01X10533320D02*
X10543480D01*
G01X10706040D02*
X10822880D01*
G01X10914320D02*
X11005760D01*
G01X10716200Y4800080D02*
X10822880D01*
G01X10924480D02*
X11010840D01*
G01X10726360Y4795000D02*
X10838120D01*
G01X10741600Y4789920D02*
X10848280D01*
G01X10203120Y4784840D02*
X10208200D01*
G01X10746680D02*
X10858440D01*
G01X10756840Y4779760D02*
X10868600D01*
G01X10767000Y4774680D02*
X10873680D01*
G01X10208200Y4769600D02*
X10228520D01*
G01X10584120D02*
X10594280D01*
G01X10772080D02*
X10883840D01*
G01X10213280Y4764520D02*
X10228520D01*
G01X10777160D02*
X10883840D01*
G01X10218360Y4759440D02*
X10228520D01*
G01X10787320D02*
X10894000D01*
G01X10218360Y4754360D02*
X10228520D01*
G01X10792400D02*
X10904160D01*
G01X10218360Y4749280D02*
X10233600D01*
G01X10797480D02*
X10909240D01*
G01X10802560Y4744200D02*
X10914320D01*
G01X10233600Y4739120D02*
X10243760D01*
G01X10812720D02*
X10924480D01*
G01X10233600Y4734040D02*
X10243760D01*
G01X10817800D02*
X10934640D01*
G01X10838120Y4728960D02*
X10949880D01*
G01X10843200Y4723880D02*
X10960040D01*
G01X10848280Y4718800D02*
X10960040D01*
G01X10858440Y4713720D02*
X10965120D01*
G01X10863520Y4708640D02*
X10970200D01*
G01X10873680Y4703560D02*
X10975280D01*
G01X10878760Y4698480D02*
X10980360D01*
G01X10883840Y4693400D02*
X10985440D01*
G01X10894000Y4688320D02*
X10995600D01*
G01X10899080Y4683240D02*
X11005760D01*
G01X10909240Y4678160D02*
X11010840D01*
G01X10914320Y4673080D02*
X11021000D01*
G01X10919400Y4668000D02*
X11026080D01*
G01X10924480Y4662920D02*
X11031160D01*
G01X10177720Y5033760D02*
X11950640D01*
G01X10182800Y5028680D02*
X11950640D01*
G01X10187880Y5023600D02*
X11950640D01*
G01X10198040Y5018520D02*
X11950640D01*
G01X10198040Y5013440D02*
X11950640D01*
G01X10203120Y5008360D02*
X11950640D01*
G01X10213280Y5003280D02*
X11950640D01*
G01X10223440Y4998200D02*
X11950640D01*
G01X10228520Y4993120D02*
X11950640D01*
G01X10259000Y4988040D02*
X11950640D01*
G01X10269160Y4982960D02*
X10370760D01*
G01X10380920D02*
X11950640D01*
G01X10279320Y4977880D02*
X10360600D01*
G01X10386000D02*
X11950640D01*
G01X10284400Y4972800D02*
X10360600D01*
G01X10391080D02*
X11950640D01*
G01X10294560Y4967720D02*
X10360600D01*
G01X10401240D02*
X10650160D01*
G01X10665400D02*
X10690800D01*
G01X10711120D02*
X11950640D01*
G01X10299640Y4962640D02*
X10355520D01*
G01X10406320D02*
X10650160D01*
G01X10711120D02*
X11950640D01*
G01X10309800Y4957560D02*
X10360600D01*
G01X10411400D02*
X10645080D01*
G01X10716200D02*
X11950640D01*
G01X10319960Y4952480D02*
X10365680D01*
G01X10431720D02*
X10645080D01*
G01X10721280D02*
X11950640D01*
G01X10330120Y4947400D02*
X10370760D01*
G01X10462200D02*
X10645080D01*
G01X10726360D02*
X11950640D01*
G01X10335200Y4942320D02*
X10370760D01*
G01X10477440D02*
X10645080D01*
G01X10741600D02*
X11950640D01*
G01X10350440Y4937240D02*
X10370760D01*
G01X10492680D02*
X10650160D01*
G01X10751760D02*
X11950640D01*
G01X10360600Y4932160D02*
X10380920D01*
G01X10507920D02*
X10650160D01*
G01X10756840D02*
X11950640D01*
G01X10365680Y4927080D02*
X10386000D01*
G01X10523160D02*
X10650160D01*
G01X10761920D02*
X11950640D01*
G01X10370760Y4922000D02*
X10386000D01*
G01X10533320D02*
X10655240D01*
G01X10782240D02*
X11950640D01*
G01X10370760Y4916920D02*
X10391080D01*
G01X10538400D02*
X10660320D01*
G01X10797480D02*
X11950640D01*
G01X10375840Y4911840D02*
X10396160D01*
G01X10553640D02*
X10660320D01*
G01X10797480D02*
X11950640D01*
G01X10218360Y4906760D02*
X10223440D01*
G01X10380920D02*
X10401240D01*
G01X10563800D02*
X10665400D01*
G01X10797480D02*
X11950640D01*
G01X10579040Y4901680D02*
X10680640D01*
G01X10802560D02*
X11950640D01*
G01X10939720Y3128760D02*
X11788080D01*
G01X10949880Y3123680D02*
X11793160D01*
G01X10954960Y3118600D02*
X11803320D01*
G01X10965120Y3113520D02*
X11803320D01*
G01X10970200Y3108440D02*
X11808400D01*
G01X10970200Y3103360D02*
X11808400D01*
G01X10975280Y3098280D02*
X11813480D01*
G01X10985440Y3093200D02*
X11813480D01*
G01X11000680Y3088120D02*
X11808400D01*
G01X11010840Y3083040D02*
X11777920D01*
G01X11021000Y3077960D02*
X11777920D01*
G01X11041320Y3072880D02*
X11777920D01*
G01X11051480Y3067800D02*
X11777920D01*
G01X11066720Y3062720D02*
X11772840D01*
G01X11076880Y3057640D02*
X11772840D01*
G01X11087040Y3052560D02*
X11772840D01*
G01X11097200Y3047480D02*
X11767760D01*
G01X11137840Y3042400D02*
X11757600D01*
G01X11158160Y3037320D02*
X11737280D01*
G01X11163240Y3032240D02*
X11706800D01*
G01X11173400Y3027160D02*
X11706800D01*
G01X11203880Y3022080D02*
X11706800D01*
G01X11224200Y3017000D02*
X11706800D01*
G01X11031160Y3011920D02*
X11081960D01*
G01X11229280D02*
X11706800D01*
G01X11325800Y3006840D02*
X11716960D01*
G01X11356280Y3001760D02*
X11716960D01*
G01X11366440Y2996680D02*
X11539160D01*
G01X11554400D02*
X11722040D01*
G01X11376600Y2991600D02*
X11534080D01*
G01X11559480D02*
X11650920D01*
G01X11681400D02*
X11711880D01*
G01X11478200Y2986520D02*
X11523920D01*
G01X11559480D02*
X11600120D01*
G01X11554400Y2981440D02*
X11559480D01*
G01X11142920Y4139680D02*
X11950640D01*
G01X11137840Y4134600D02*
X11950640D01*
G01X11137840Y4129520D02*
X11950640D01*
G01X11132760Y4124440D02*
X11950640D01*
G01X11122600Y4119360D02*
X11950640D01*
G01X11112440Y4114280D02*
X11950640D01*
G01X11107360Y4109200D02*
X11950640D01*
G01X11097200Y4104120D02*
X11950640D01*
G01X11092120Y4099040D02*
X11950640D01*
G01X11092120Y4093960D02*
X11950640D01*
G01X11071800Y4088880D02*
X11950640D01*
G01X11061640Y4083800D02*
X11950640D01*
G01X11051480Y4078720D02*
X11950640D01*
G01X11046400Y4073640D02*
X11950640D01*
G01X11041320Y4068560D02*
X11950640D01*
G01X11015920Y4063480D02*
X11026080D01*
G01X11031160D02*
X11950640D01*
G01X11005760Y4058400D02*
X11950640D01*
G01X10965120Y4053320D02*
X11950640D01*
G01X10954960Y4048240D02*
X11950640D01*
G01X10939720Y4043160D02*
X11950640D01*
G01X11158160Y3916160D02*
X11163240D01*
G01X11142920Y3911080D02*
X11168320D01*
G01X11208960Y3906000D02*
X11214040D01*
G01X11193720Y3900920D02*
X11234360D01*
G01X11351200Y3860280D02*
X11371520D01*
G01X11447720Y3799320D02*
X11457880D01*
G01X11437560Y3743440D02*
X11589960D01*
G01X11630600Y3707880D02*
X11661080D01*
G01X11544240Y3692640D02*
X11656000D01*
G01X11544240Y3687560D02*
X11656000D01*
G01X10975280Y4840720D02*
X11950640D01*
G01X10990520Y4835640D02*
X11950640D01*
G01X11000680Y4830560D02*
X11950640D01*
G01X11010840Y4825480D02*
X11950640D01*
G01X11021000Y4820400D02*
X11950640D01*
G01X11041320Y4815320D02*
X11950640D01*
G01X11046400Y4810240D02*
X11950640D01*
G01X11051480Y4805160D02*
X11950640D01*
G01X11056560Y4800080D02*
X11950640D01*
G01X10944800Y4795000D02*
X11026080D01*
G01X11071800D02*
X11950640D01*
G01X10949880Y4789920D02*
X11031160D01*
G01X11081960D02*
X11950640D01*
G01X10960040Y4784840D02*
X11036240D01*
G01X11087040D02*
X11950640D01*
G01X10965120Y4779760D02*
X11046400D01*
G01X11097200D02*
X11950640D01*
G01X10970200Y4774680D02*
X11051480D01*
G01X11112440D02*
X11950640D01*
G01X10975280Y4769600D02*
X11051480D01*
G01X11112440D02*
X11950640D01*
G01X10980360Y4764520D02*
X11056560D01*
G01X11117520D02*
X11950640D01*
G01X10990520Y4759440D02*
X11061640D01*
G01X11127680D02*
X11950640D01*
G01X10995600Y4754360D02*
X11066720D01*
G01X11132760D02*
X11950640D01*
G01X11000680Y4749280D02*
X11071800D01*
G01X11137840D02*
X11950640D01*
G01X11010840Y4744200D02*
X11076880D01*
G01X11137840D02*
X11950640D01*
G01X11026080Y4739120D02*
X11087040D01*
G01X11153080D02*
X11950640D01*
G01X11031160Y4734040D02*
X11097200D01*
G01X11163240D02*
X11950640D01*
G01X11046400Y4728960D02*
X11112440D01*
G01X11168320D02*
X11950640D01*
G01X11051480Y4723880D02*
X11117520D01*
G01X11173400D02*
X11950640D01*
G01X11051480Y4718800D02*
X11122600D01*
G01X11173400D02*
X11224200D01*
G01X11229280D02*
X11950640D01*
G01X11056560Y4713720D02*
X11122600D01*
G01X11178480D02*
X11224200D01*
G01X11229280D02*
X11950640D01*
G01X11066720Y4708640D02*
X11132760D01*
G01X11188640D02*
X11224200D01*
G01X11239440D02*
X11950640D01*
G01X11071800Y4703560D02*
X11132760D01*
G01X11193720D02*
X11224200D01*
G01X11249600D02*
X11950640D01*
G01X11076880Y4698480D02*
X11137840D01*
G01X11198800D02*
X11229280D01*
G01X11249600D02*
X11950640D01*
G01X11087040Y4693400D02*
X11137840D01*
G01X11203880D02*
X11239440D01*
G01X11249600D02*
X11950640D01*
G01X11097200Y4688320D02*
X11148000D01*
G01X11214040D02*
X11254680D01*
G01X11264840D02*
X11950640D01*
G01X11107360Y4683240D02*
X11158160D01*
G01X11224200D02*
X11254680D01*
G01X11275000D02*
X11950640D01*
G01X11112440Y4678160D02*
X11163240D01*
G01X11224200D02*
X11259760D01*
G01X11285160D02*
X11950640D01*
G01X11122600Y4673080D02*
X11168320D01*
G01X11229280D02*
X11264840D01*
G01X11290240D02*
X11950640D01*
G01X11127680Y4668000D02*
X11173400D01*
G01X11234360D02*
X11269920D01*
G01X11295320D02*
X11950640D01*
G01X11132760Y4662920D02*
X11173400D01*
G01X11234360D02*
X11269920D01*
G01X11300400D02*
X11950640D01*
G01X10934640Y4657840D02*
X11036240D01*
G01X11137840D02*
X11178480D01*
G01X11239440D02*
X11275000D01*
G01X11305480D02*
X11950640D01*
G01X10944800Y4652760D02*
X11046400D01*
G01X11137840D02*
X11183560D01*
G01X11244520D02*
X11275000D01*
G01X11310560D02*
X11950640D01*
G01X10949880Y4647680D02*
X11051480D01*
G01X11142920D02*
X11188640D01*
G01X11254680D02*
X11280080D01*
G01X11310560D02*
X11950640D01*
G01X10965120Y4642600D02*
X11056560D01*
G01X11158160D02*
X11198800D01*
G01X11275000D02*
X11285160D01*
G01X11325800D02*
X11950640D01*
G01X10970200Y4637520D02*
X11066720D01*
G01X11168320D02*
X11208960D01*
G01X11280080D02*
X11300400D01*
G01X11335960D02*
X11950640D01*
G01X10975280Y4632440D02*
X11071800D01*
G01X11168320D02*
X11219120D01*
G01X11280080D02*
X11305480D01*
G01X11341040D02*
X11950640D01*
G01X10985440Y4627360D02*
X11076880D01*
G01X11173400D02*
X11219120D01*
G01X11290240D02*
X11310560D01*
G01X11346120D02*
X11950640D01*
G01X11000680Y4622280D02*
X11081960D01*
G01X11183560D02*
X11224200D01*
G01X11295320D02*
X11315640D01*
G01X11351200D02*
X11950640D01*
G01X11005760Y4617200D02*
X11092120D01*
G01X11188640D02*
X11224200D01*
G01X11295320D02*
X11320720D01*
G01X11356280D02*
X11950640D01*
G01X11010840Y4612120D02*
X11097200D01*
G01X11193720D02*
X11229280D01*
G01X11295320D02*
X11320720D01*
G01X11366440D02*
X11950640D01*
G01X11015920Y4607040D02*
X11102280D01*
G01X11198800D02*
X11234360D01*
G01X11300400D02*
X11325800D01*
G01X11371520D02*
X11950640D01*
G01X11021000Y4601960D02*
X11112440D01*
G01X11203880D02*
X11234360D01*
G01X11310560D02*
X11325800D01*
G01X11376600D02*
X11950640D01*
G01X11026080Y4596880D02*
X11117520D01*
G01X11208960D02*
X11239440D01*
G01X11310560D02*
X11330880D01*
G01X11381680D02*
X11950640D01*
G01X11031160Y4591800D02*
X11117520D01*
G01X11219120D02*
X11244520D01*
G01X11310560D02*
X11330880D01*
G01X11386760D02*
X11950640D01*
G01X11046400Y4586720D02*
X11122600D01*
G01X11224200D02*
X11249600D01*
G01X11330880D02*
X11335960D01*
G01X11391840D02*
X11950640D01*
G01X11056560Y4581640D02*
X11127680D01*
G01X11224200D02*
X11259760D01*
G01X11330880D02*
X11351200D01*
G01X11396920D02*
X11950640D01*
G01X11061640Y4576560D02*
X11137840D01*
G01X11229280D02*
X11264840D01*
G01X11330880D02*
X11356280D01*
G01X11396920D02*
X11950640D01*
G01X11066720Y4571480D02*
X11137840D01*
G01X11239440D02*
X11269920D01*
G01X11341040D02*
X11361360D01*
G01X11402000D02*
X11950640D01*
G01X11076880Y4566400D02*
X11142920D01*
G01X11244520D02*
X11269920D01*
G01X11346120D02*
X11361360D01*
G01X11407080D02*
X11950640D01*
G01X11081960Y4561320D02*
X11148000D01*
G01X11249600D02*
X11275000D01*
G01X11346120D02*
X11371520D01*
G01X11412160D02*
X11950640D01*
G01X11087040Y4556240D02*
X11153080D01*
G01X11254680D02*
X11275000D01*
G01X11351200D02*
X11371520D01*
G01X11417240D02*
X11950640D01*
G01X11102280Y4551160D02*
X11163240D01*
G01X11269920D02*
X11290240D01*
G01X11366440D02*
X11371520D01*
G01X11427400D02*
X11950640D01*
G01X11107360Y4546080D02*
X11168320D01*
G01X11269920D02*
X11295320D01*
G01X11432480D02*
X11950640D01*
G01X11117520Y4541000D02*
X11168320D01*
G01X11275000D02*
X11295320D01*
G01X11432480D02*
X11950640D01*
G01X11127680Y4535920D02*
X11173400D01*
G01X11290240D02*
X11300400D01*
G01X11437560D02*
X11950640D01*
G01X11137840Y4530840D02*
X11183560D01*
G01X11295320D02*
X11310560D01*
G01X11442640D02*
X11950640D01*
G01X11137840Y4525760D02*
X11188640D01*
G01X11295320D02*
X11310560D01*
G01X11447720D02*
X11950640D01*
G01X11148000Y4520680D02*
X11198800D01*
G01X11452800D02*
X11950640D01*
G01X11158160Y4515600D02*
X11203880D01*
G01X11310560D02*
X11315640D01*
G01X11452800D02*
X11950640D01*
G01X11163240Y4510520D02*
X11208960D01*
G01X11310560D02*
X11315640D01*
G01X11457880D02*
X11950640D01*
G01X11168320Y4505440D02*
X11214040D01*
G01X11462960D02*
X11950640D01*
G01X11178480Y4500360D02*
X11219120D01*
G01X11468040D02*
X11950640D01*
G01X11188640Y4495280D02*
X11224200D01*
G01X11473120D02*
X11950640D01*
G01X11188640Y4490200D02*
X11224200D01*
G01X11330880D02*
X11335960D01*
G01X11478200D02*
X11950640D01*
G01X11203880Y4485120D02*
X11224200D01*
G01X11478200D02*
X11950640D01*
G01X11219120Y4480040D02*
X11234360D01*
G01X11483280D02*
X11950640D01*
G01X11224200Y4474960D02*
X11244520D01*
G01X11483280D02*
X11950640D01*
G01X11224200Y4469880D02*
X11249600D01*
G01X11483280D02*
X11950640D01*
G01X11229280Y4464800D02*
X11254680D01*
G01X11488360D02*
X11950640D01*
G01X11234360Y4459720D02*
X11259760D01*
G01X11488360D02*
X11950640D01*
G01X11239440Y4454640D02*
X11264840D01*
G01X11493440D02*
X11950640D01*
G01X11498520Y4449560D02*
X11950640D01*
G01X11498520Y4444480D02*
X11950640D01*
G01X11503600Y4439400D02*
X11950640D01*
G01X11503600Y4434320D02*
X11950640D01*
G01X11508680Y4429240D02*
X11950640D01*
G01X11508680Y4424160D02*
X11950640D01*
G01X11508680Y4419080D02*
X11950640D01*
G01X11513760Y4414000D02*
X11950640D01*
G01X11513760Y4408920D02*
X11950640D01*
G01X11513760Y4403840D02*
X11950640D01*
G01X11513760Y4398760D02*
X11950640D01*
G01X11518840Y4393680D02*
X11950640D01*
G01X11518840Y4388600D02*
X11950640D01*
G01X11518840Y4383520D02*
X11950640D01*
G01X11518840Y4378440D02*
X11950640D01*
G01X11518840Y4373360D02*
X11950640D01*
G01X11513760Y4368280D02*
X11950640D01*
G01X11513760Y4363200D02*
X11950640D01*
G01X11513760Y4358120D02*
X11950640D01*
G01X11508680Y4353040D02*
X11950640D01*
G01X11508680Y4347960D02*
X11950640D01*
G01X11503600Y4342880D02*
X11950640D01*
G01X11503600Y4337800D02*
X11950640D01*
G01X11498520Y4332720D02*
X11950640D01*
G01X11493440Y4327640D02*
X11950640D01*
G01X11493440Y4322560D02*
X11950640D01*
G01X11488360Y4317480D02*
X11950640D01*
G01X11483280Y4312400D02*
X11950640D01*
G01X11483280Y4307320D02*
X11950640D01*
G01X11478200Y4302240D02*
X11950640D01*
G01X11473120Y4297160D02*
X11950640D01*
G01X11462960Y4292080D02*
X11950640D01*
G01X11457880Y4287000D02*
X11950640D01*
G01X11452800Y4281920D02*
X11950640D01*
G01X11447720Y4276840D02*
X11950640D01*
G01X11437560Y4271760D02*
X11950640D01*
G01X11432480Y4266680D02*
X11950640D01*
G01X11422320Y4261600D02*
X11950640D01*
G01X11417240Y4256520D02*
X11950640D01*
G01X11402000Y4251440D02*
X11950640D01*
G01X11396920Y4246360D02*
X11950640D01*
G01X11391840Y4241280D02*
X11950640D01*
G01X11386760Y4236200D02*
X11950640D01*
G01X11371520Y4231120D02*
X11950640D01*
G01X11361360Y4226040D02*
X11950640D01*
G01X11356280Y4220960D02*
X11950640D01*
G01X11346120Y4215880D02*
X11950640D01*
G01X11335960Y4210800D02*
X11950640D01*
G01X11315640Y4205720D02*
X11950640D01*
G01X11300400Y4200640D02*
X11950640D01*
G01X11295320Y4195560D02*
X11950640D01*
G01X11285160Y4190480D02*
X11950640D01*
G01X11280080Y4185400D02*
X11950640D01*
G01X11203880Y4180320D02*
X11224200D01*
G01X11275000D02*
X11950640D01*
G01X11193720Y4175240D02*
X11224200D01*
G01X11264840D02*
X11950640D01*
G01X11188640Y4170160D02*
X11224200D01*
G01X11254680D02*
X11950640D01*
G01X11183560Y4165080D02*
X11224200D01*
G01X11244520D02*
X11950640D01*
G01X11173400Y4160000D02*
X11224200D01*
G01X11234360D02*
X11950640D01*
G01X11168320Y4154920D02*
X11950640D01*
G01X11158160Y4149840D02*
X11950640D01*
G01X11148000Y4144760D02*
X11950640D01*
G01X11930320Y3387840D02*
X11950640D01*
G01X11930320Y3382760D02*
X11950640D01*
G01X11777920Y3377680D02*
X11788080D01*
G01X11930320D02*
X11950640D01*
G01X11930320Y3372600D02*
X11950640D01*
G01X11930320Y3367520D02*
X11950640D01*
G01X11930320Y3362440D02*
X11950640D01*
G01X11930320Y3357360D02*
X11950640D01*
G01X11930320Y3352280D02*
X11950640D01*
G01X11930320Y3347200D02*
X11950640D01*
G01X11930320Y3342120D02*
X11950640D01*
G01X11930320Y3337040D02*
X11950640D01*
G01X11930320Y3331960D02*
X11950640D01*
G01X11930320Y3326880D02*
X11950640D01*
G01X11930320Y3321800D02*
X11950640D01*
G01X11930320Y3316720D02*
X11950640D01*
G01X11930320Y3311640D02*
X11950640D01*
G01X11930320Y3306560D02*
X11950640D01*
G01X11930320Y3301480D02*
X11950640D01*
G01X11930320Y3296400D02*
X11950640D01*
G01X11930320Y3291320D02*
X11950640D01*
G01X11930320Y3286240D02*
X11950640D01*
G01X11930320Y3281160D02*
X11950640D01*
G01X11930320Y3276080D02*
X11950640D01*
G01X11930320Y3271000D02*
X11950640D01*
G01X11930320Y3265920D02*
X11950640D01*
G01X11930320Y3260840D02*
X11950640D01*
G01X11930320Y3255760D02*
X11950640D01*
G01X11930320Y3250680D02*
X11950640D01*
G01X11930320Y3245600D02*
X11950640D01*
G01X11930320Y3240520D02*
X11950640D01*
G01X11930320Y3235440D02*
X11950640D01*
G01X11930320Y3230360D02*
X11950640D01*
G01X11930320Y3225280D02*
X11950640D01*
G01X11930320Y3220200D02*
X11950640D01*
G01X11930320Y3215120D02*
X11950640D01*
G01X11930320Y3210040D02*
X11950640D01*
G01X11930320Y3204960D02*
X11950640D01*
G01X11930320Y3199880D02*
X11950640D01*
G01X11930320Y3194800D02*
X11950640D01*
G01X11930320Y3189720D02*
X11950640D01*
G01X11930320Y3184640D02*
X11950640D01*
G01X11930320Y3179560D02*
X11950640D01*
G01X11930320Y3174480D02*
X11950640D01*
G01X11930320Y3169400D02*
X11950640D01*
G01X11930320Y3164320D02*
X11950640D01*
G01X11930320Y3159240D02*
X11950640D01*
G01X11930320Y3154160D02*
X11950640D01*
G01X11930320Y3149080D02*
X11950640D01*
G01X11930320Y3144000D02*
X11950640D01*
G01X11930320Y3138920D02*
X11950640D01*
G01X11930320Y3133840D02*
X11950640D01*
G01X11930320Y3128760D02*
X11950640D01*
G01X11930320Y3123680D02*
X11950640D01*
G01X11930320Y3118600D02*
X11950640D01*
G01X11930320Y3113520D02*
X11950640D01*
G01X11930320Y3108440D02*
X11950640D01*
G01X11930320Y3103360D02*
X11950640D01*
G01X11930320Y3098280D02*
X11950640D01*
G01X11930320Y3093200D02*
X11950640D01*
G01X11930320Y3088120D02*
X11950640D01*
G01X11788080Y3083040D02*
X11808400D01*
G01X11930320D02*
X11950640D01*
G01X11793160Y3077960D02*
X11803320D01*
G01X11930320D02*
X11950640D01*
G01X11930320Y3072880D02*
X11950640D01*
G01X11930320Y3067800D02*
X11950640D01*
G01X11930320Y3062720D02*
X11950640D01*
G01X11930320Y3057640D02*
X11950640D01*
G01X11930320Y3052560D02*
X11950640D01*
G01X11930320Y3047480D02*
X11950640D01*
G01X11930320Y3042400D02*
X11950640D01*
G01X11930320Y3037320D02*
X11950640D01*
G01X11930320Y3032240D02*
X11950640D01*
G01X11930320Y3027160D02*
X11950640D01*
G01X11930320Y3022080D02*
X11950640D01*
G01X11930320Y3017000D02*
X11950640D01*
G01X11930320Y3011920D02*
X11950640D01*
G01X11930320Y3006840D02*
X11950640D01*
G01X11930320Y3001760D02*
X11950640D01*
G01X11930320Y2996680D02*
X11950640D01*
G01X11930320Y2991600D02*
X11950640D01*
G01X11930320Y2986520D02*
X11950640D01*
G01X11930320Y2981440D02*
X11950640D01*
G01X11930320Y2976360D02*
X11950640D01*
G01X11930320Y2971280D02*
X11950640D01*
G01X11930320Y2966200D02*
X11950640D01*
G01X11930320Y2961120D02*
X11950640D01*
G01X11930320Y2956040D02*
X11950640D01*
G01X11930320Y2950960D02*
X11950640D01*
G01X11930320Y2945880D02*
X11950640D01*
G01X11930320Y2940800D02*
X11950640D01*
G01X11930320Y2935720D02*
X11950640D01*
G01X11930320Y2930640D02*
X11950640D01*
G01X11930320Y2925560D02*
X11950640D01*
G01X11930320Y2920480D02*
X11950640D01*
G01X11930320Y2915400D02*
X11950640D01*
G01X11930320Y2910320D02*
X11950640D01*
G01X11930320Y2905240D02*
X11950640D01*
G01X11930320Y2900160D02*
X11950640D01*
G01X11930320Y2895080D02*
X11950640D01*
G01X11930320Y2890000D02*
X11950640D01*
G01X11930320Y2884920D02*
X11950640D01*
G01X11930320Y2879840D02*
X11950640D01*
G01X11930320Y2874760D02*
X11950640D01*
G01X11930320Y2869680D02*
X11950640D01*
G01X11930320Y2864600D02*
X11950640D01*
G01X11930320Y2859520D02*
X11950640D01*
G01X11930320Y2854440D02*
X11950640D01*
G01X11930320Y2849360D02*
X11950640D01*
G01X11930320Y2844280D02*
X11950640D01*
G01X11930320Y2839200D02*
X11950640D01*
G01X11930320Y2834120D02*
X11950640D01*
G01X11930320Y2829040D02*
X11950640D01*
G01X11930320Y2823960D02*
X11950640D01*
G01X11930320Y2818880D02*
X11950640D01*
G01X11930320Y2813800D02*
X11950640D01*
G01X11930320Y2808720D02*
X11950640D01*
G01X11930320Y2803640D02*
X11950640D01*
G01X11930320Y2798560D02*
X11950640D01*
G01X11930320Y3987280D02*
X11950640D01*
G01X11930320Y3982200D02*
X11950640D01*
G01X11930320Y3977120D02*
X11950640D01*
G01X11930320Y3972040D02*
X11950640D01*
G01X11930320Y3966960D02*
X11950640D01*
G01X11930320Y3961880D02*
X11950640D01*
G01X11930320Y3956800D02*
X11950640D01*
G01X11930320Y3951720D02*
X11950640D01*
G01X11930320Y3946640D02*
X11950640D01*
G01X11930320Y3941560D02*
X11950640D01*
G01X11930320Y3936480D02*
X11950640D01*
G01X11930320Y3931400D02*
X11950640D01*
G01X11930320Y3926320D02*
X11950640D01*
G01X11930320Y3921240D02*
X11950640D01*
G01X11930320Y3916160D02*
X11950640D01*
G01X11930320Y3911080D02*
X11950640D01*
G01X11930320Y3906000D02*
X11950640D01*
G01X11930320Y3900920D02*
X11950640D01*
G01X11930320Y3895840D02*
X11950640D01*
G01X11930320Y3890760D02*
X11950640D01*
G01X11930320Y3885680D02*
X11950640D01*
G01X11930320Y3880600D02*
X11950640D01*
G01X11930320Y3875520D02*
X11950640D01*
G01X11930320Y3870440D02*
X11950640D01*
G01X11930320Y3865360D02*
X11950640D01*
G01X11930320Y3860280D02*
X11950640D01*
G01X11930320Y3855200D02*
X11950640D01*
G01X11930320Y3850120D02*
X11950640D01*
G01X11930320Y3845040D02*
X11950640D01*
G01X11930320Y3839960D02*
X11950640D01*
G01X11930320Y3834880D02*
X11950640D01*
G01X11930320Y3829800D02*
X11950640D01*
G01X11930320Y3824720D02*
X11950640D01*
G01X11930320Y3819640D02*
X11950640D01*
G01X11930320Y3814560D02*
X11950640D01*
G01X11930320Y3809480D02*
X11950640D01*
G01X11930320Y3804400D02*
X11950640D01*
G01X11930320Y3799320D02*
X11950640D01*
G01X11930320Y3794240D02*
X11950640D01*
G01X11930320Y3789160D02*
X11950640D01*
G01X11930320Y3784080D02*
X11950640D01*
G01X11930320Y3779000D02*
X11950640D01*
G01X11930320Y3773920D02*
X11950640D01*
G01X11930320Y3768840D02*
X11950640D01*
G01X11930320Y3763760D02*
X11950640D01*
G01X11930320Y3758680D02*
X11950640D01*
G01X11930320Y3753600D02*
X11950640D01*
G01X11930320Y3748520D02*
X11950640D01*
G01X11930320Y3743440D02*
X11950640D01*
G01X11930320Y3738360D02*
X11950640D01*
G01X11930320Y3733280D02*
X11950640D01*
G01X11930320Y3728200D02*
X11950640D01*
G01X11930320Y3723120D02*
X11950640D01*
G01X11930320Y3718040D02*
X11950640D01*
G01X11930320Y3712960D02*
X11950640D01*
G01X11930320Y3707880D02*
X11950640D01*
G01X11930320Y3702800D02*
X11950640D01*
G01X11930320Y3697720D02*
X11950640D01*
G01X11930320Y3692640D02*
X11950640D01*
G01X11930320Y3687560D02*
X11950640D01*
G01X11930320Y3682480D02*
X11950640D01*
G01X11930320Y3677400D02*
X11950640D01*
G01X11930320Y3672320D02*
X11950640D01*
G01X11930320Y3667240D02*
X11950640D01*
G01X11930320Y3662160D02*
X11950640D01*
G01X11930320Y3657080D02*
X11950640D01*
G01X11930320Y3652000D02*
X11950640D01*
G01X11930320Y3646920D02*
X11950640D01*
G01X11930320Y3641840D02*
X11950640D01*
G01X11930320Y3636760D02*
X11950640D01*
G01X11930320Y3631680D02*
X11950640D01*
G01X11930320Y3626600D02*
X11950640D01*
G01X11930320Y3621520D02*
X11950640D01*
G01X11930320Y3616440D02*
X11950640D01*
G01X11930320Y3611360D02*
X11950640D01*
G01X11930320Y3606280D02*
X11950640D01*
G01X11930320Y3601200D02*
X11950640D01*
G01X11930320Y3596120D02*
X11950640D01*
G01X11930320Y3591040D02*
X11950640D01*
G01X11930320Y3585960D02*
X11950640D01*
G01X11930320Y3580880D02*
X11950640D01*
G01X11930320Y3575800D02*
X11950640D01*
G01X11930320Y3570720D02*
X11950640D01*
G01X11930320Y3565640D02*
X11950640D01*
G01X11930320Y3560560D02*
X11950640D01*
G01X11930320Y3555480D02*
X11950640D01*
G01X11930320Y3550400D02*
X11950640D01*
G01X11930320Y3545320D02*
X11950640D01*
G01X11767760Y3540240D02*
X11772840D01*
G01X11930320D02*
X11950640D01*
G01X11930320Y3535160D02*
X11950640D01*
G01X11930320Y3530080D02*
X11950640D01*
G01X11930320Y3525000D02*
X11950640D01*
G01X11930320Y3519920D02*
X11950640D01*
G01X11930320Y3514840D02*
X11950640D01*
G01X11930320Y3509760D02*
X11950640D01*
G01X11930320Y3504680D02*
X11950640D01*
G01X11930320Y3499600D02*
X11950640D01*
G01X11930320Y3494520D02*
X11950640D01*
G01X11930320Y3489440D02*
X11950640D01*
G01X11798240Y3484360D02*
X11808400D01*
G01X11864280D02*
X11874440D01*
G01X11930320D02*
X11950640D01*
G01X11930320Y3479280D02*
X11950640D01*
G01X11930320Y3474200D02*
X11950640D01*
G01X11930320Y3469120D02*
X11950640D01*
G01X11930320Y3464040D02*
X11950640D01*
G01X11930320Y3458960D02*
X11950640D01*
G01X11930320Y3453880D02*
X11950640D01*
G01X11930320Y3448800D02*
X11950640D01*
G01X11930320Y3443720D02*
X11950640D01*
G01X11930320Y3438640D02*
X11950640D01*
G01X11864280Y3433560D02*
X11874440D01*
G01X11930320D02*
X11950640D01*
G01X11813480Y3428480D02*
X11823640D01*
G01X11864280D02*
X11874440D01*
G01X11930320D02*
X11950640D01*
G01X11813480Y3423400D02*
X11823640D01*
G01X11930320D02*
X11950640D01*
G01X11813480Y3418320D02*
X11823640D01*
G01X11930320D02*
X11950640D01*
G01X11930320Y3413240D02*
X11950640D01*
G01X11930320Y3408160D02*
X11950640D01*
G01X11930320Y3403080D02*
X11950640D01*
G01X11854120Y3398000D02*
X11864280D01*
G01X11930320D02*
X11950640D01*
G01X11930320Y3392920D02*
X11950640D01*
G54D11*
G01X13365580Y2571170D02*
X13291920D01*
G01X13365580Y2698170D02*
X13291920D01*
G01X13365580Y2825170D02*
X13291920D01*
G01X13365580Y2952170D02*
X13291920D01*
G01X13365580Y3079170D02*
X13291920D01*
G01X13365580Y3206170D02*
X13291920D01*
G01X13365580Y3333170D02*
X13291920D01*
G01X13365580Y2644830D02*
X13291920D01*
G01X13365580Y2771830D02*
X13291920D01*
G01X13365580Y2898830D02*
X13291920D01*
G01X13365580Y3025830D02*
X13291920D01*
G01X13365580Y3152830D02*
X13291920D01*
G01X13365580Y3279830D02*
X13291920D01*
G01X13365580Y3406830D02*
X13291920D01*
G54D12*
G01X800000Y-600000D02*
Y8600000D01*
X15100000D01*
Y-600000D01*
X800000D01*
G01X3073080Y1332400D02*
X3081130Y1319700D01*
X3090770Y1311230D01*
X3102030Y1307000D01*
X3114900Y1311230D01*
X3124550Y1319700D01*
X3134200Y1332400D01*
X3137420Y1349330D01*
Y1434000D01*
G01X3204190Y1359910D02*
X3215450Y1374730D01*
X3225100Y1383200D01*
X3237970Y1387430D01*
X3249230Y1383200D01*
X3257270Y1374730D01*
X3263700Y1362030D01*
X3265310Y1347220D01*
X3263700Y1334510D01*
X3257270Y1321810D01*
X3247620Y1311230D01*
X3236360Y1307000D01*
X3223490Y1311230D01*
X3212230Y1323930D01*
X3205800Y1342980D01*
X3204190Y1364150D01*
X3207410Y1391660D01*
X3212230Y1406490D01*
X3220270Y1421300D01*
X3231530Y1431880D01*
X3242790Y1434000D01*
X3254050Y1429770D01*
X3262090Y1419180D01*
G01X2957000Y1449000D02*
X3457000D01*
Y6549000D01*
X2957000D01*
Y1449000D01*
G01X11395000Y1242500D02*
Y1577500D01*
X5035000D01*
Y1242500D01*
X11395000D01*
G01Y6442500D02*
Y6777500D01*
X5035000D01*
Y6442500D01*
X11395000D01*
G01X7434080Y2553400D02*
X7442130Y2540700D01*
X7451770Y2532230D01*
X7463030Y2528000D01*
X7475900Y2532230D01*
X7485550Y2540700D01*
X7495200Y2553400D01*
X7498420Y2570330D01*
Y2655000D01*
G01X7565190Y2633830D02*
X7574840Y2646530D01*
X7586100Y2652880D01*
X7598970Y2655000D01*
X7615050Y2650770D01*
X7626310Y2640180D01*
X7629530Y2627490D01*
X7627920Y2614780D01*
X7621480Y2604200D01*
X7589320Y2583030D01*
X7574840Y2568220D01*
X7565190Y2547050D01*
X7561970Y2528000D01*
X7629530D01*
G01X7272000Y2689000D02*
X7592000D01*
Y5109000D01*
X7272000D01*
Y2689000D01*
G01X11467080Y1120400D02*
X11475130Y1107700D01*
X11484770Y1099230D01*
X11496030Y1095000D01*
X11508900Y1099230D01*
X11518550Y1107700D01*
X11528200Y1120400D01*
X11531420Y1137330D01*
Y1222000D01*
G01X11593370Y1120400D02*
X11603010Y1105580D01*
X11615880Y1097120D01*
X11630360Y1095000D01*
X11643230Y1097120D01*
X11656090Y1107700D01*
X11664130Y1120400D01*
X11665740Y1133100D01*
X11662530Y1147910D01*
X11651270Y1158500D01*
X11640010Y1162730D01*
X11625530D01*
G01X11640010D02*
X11649660Y1169080D01*
X11657700Y1179660D01*
X11660920Y1192370D01*
X11657700Y1205070D01*
X11649660Y1215650D01*
X11635180Y1222000D01*
X11620710Y1219880D01*
X11606230Y1211420D01*
G01X11479080Y6315400D02*
X11487130Y6302700D01*
X11496770Y6294230D01*
X11508030Y6290000D01*
X11520900Y6294230D01*
X11530550Y6302700D01*
X11540200Y6315400D01*
X11543420Y6332330D01*
Y6417000D01*
G01X11640750Y6290000D02*
Y6417000D01*
X11621450Y6391600D01*
G01Y6290000D02*
X11660050D01*
G01X13891000Y1850000D02*
X13011000D01*
Y2090000D01*
X13891000D01*
Y1850000D01*
G01X12967670Y1955830D02*
Y1975830D01*
G01X12946000Y1965000D02*
X12989340D01*
G01X12498330Y2473000D02*
Y2573000D01*
X12519170D01*
X12525830Y2568000D01*
X12530000Y2561330D01*
X12531670Y2548000D01*
X12530000Y2534670D01*
X12525000Y2526330D01*
X12519170Y2521330D01*
X12498330D01*
G01X12519170D02*
X12531670Y2473000D01*
G01X12595320D02*
Y2573000D01*
X12564490Y2501330D01*
X12606150D01*
G01X12502000Y2741000D02*
Y2861000D01*
X12602000D01*
Y2621000D01*
X12502000D01*
Y2741000D01*
G01X12728330Y2473000D02*
Y2573000D01*
X12749170D01*
X12755830Y2568000D01*
X12760000Y2561330D01*
X12761670Y2548000D01*
X12760000Y2534670D01*
X12755000Y2526330D01*
X12749170Y2521330D01*
X12728330D01*
G01X12749170D02*
X12761670Y2473000D01*
G01X12796990Y2493000D02*
X12801990Y2481330D01*
X12808650Y2474670D01*
X12816150Y2473000D01*
X12822820Y2474670D01*
X12829490Y2483000D01*
X12833650Y2493000D01*
X12834490Y2503000D01*
X12832820Y2514660D01*
X12826990Y2523000D01*
X12821150Y2526330D01*
X12813650D01*
G01X12821150D02*
X12826150Y2531330D01*
X12830320Y2539660D01*
X12831990Y2549670D01*
X12830320Y2559670D01*
X12826150Y2568000D01*
X12818650Y2573000D01*
X12811150Y2571330D01*
X12803650Y2564670D01*
G01X12736000Y2741000D02*
Y2861000D01*
X12836000D01*
Y2621000D01*
X12736000D01*
Y2741000D01*
G01X13542000Y3778000D02*
X13042000D01*
Y4038000D01*
X13542000D01*
Y3778000D01*
G01X13055280Y3532390D02*
X13148410Y3461610D01*
G01X13165340Y3497000D02*
X13038340D01*
G01X13055280Y3461610D02*
X13148410Y3532390D01*
G01X13101840Y3545260D02*
Y3448740D01*
G01X13286330Y3708670D02*
X13281330Y3713670D01*
X13275500Y3717000D01*
X13268830D01*
X13261330Y3712000D01*
X13255500Y3703670D01*
X13251330Y3693670D01*
X13248000Y3677000D01*
X13247170Y3662000D01*
X13248830Y3647000D01*
X13251330Y3637000D01*
X13256330Y3627000D01*
X13262170Y3620330D01*
X13268000Y3617000D01*
X13273830D01*
X13279670Y3620330D01*
X13284670Y3625330D01*
X13288830Y3632000D01*
G01X13333240Y3617000D02*
Y3717000D01*
X13323240Y3697000D01*
G01Y3617000D02*
X13343240D01*
G01X13896330Y3801000D02*
Y3901000D01*
X13917170D01*
X13923830Y3896000D01*
X13928000Y3889330D01*
X13929670Y3876000D01*
X13928000Y3862670D01*
X13923000Y3854330D01*
X13917170Y3849330D01*
X13896330D01*
G01X13917170D02*
X13929670Y3801000D01*
G01X13967490Y3884330D02*
X13972490Y3894330D01*
X13978320Y3899330D01*
X13984990Y3901000D01*
X13993320Y3897670D01*
X13999150Y3889330D01*
X14000820Y3879330D01*
X13999990Y3869330D01*
X13996650Y3861000D01*
X13979990Y3844330D01*
X13972490Y3832670D01*
X13967490Y3816000D01*
X13965820Y3801000D01*
X14000820D01*
G01X13950000Y3939000D02*
X13830000D01*
Y4039000D01*
X14070000D01*
Y3939000D01*
X13950000D01*
G01X13893500Y4786330D02*
X13900170Y4778000D01*
X13907670Y4773000D01*
X13914330D01*
X13921000Y4778000D01*
X13926000Y4786330D01*
X13928500Y4798000D01*
X13926830Y4809660D01*
X13922670Y4819670D01*
X13915170Y4826330D01*
X13905170Y4829670D01*
X13899330Y4836330D01*
X13896830Y4848000D01*
X13898500Y4859670D01*
X13902670Y4868000D01*
X13908500Y4873000D01*
X13914330D01*
X13920170Y4869670D01*
X13925170Y4861330D01*
G01X13951240Y4873000D02*
X13962910Y4773000D01*
X13976240Y4873000D01*
X13989570Y4773000D01*
X14001240Y4873000D01*
G01X14041480Y4773000D02*
Y4873000D01*
X14031480Y4853000D01*
G01Y4773000D02*
X14051480D01*
G01X13384000Y4755000D02*
Y5356000D01*
X13584000D01*
Y4755000D01*
X13384000D01*
G01X13872000Y4584000D02*
Y5318000D01*
X14519000D01*
Y4584000D01*
X13872000D01*
G01X13906330Y4187000D02*
Y4287000D01*
X13927170D01*
X13933830Y4282000D01*
X13938000Y4275330D01*
X13939670Y4262000D01*
X13938000Y4248670D01*
X13933000Y4240330D01*
X13927170Y4235330D01*
X13906330D01*
G01X13927170D02*
X13939670Y4187000D01*
G01X13993320D02*
Y4287000D01*
X13983320Y4267000D01*
G01Y4187000D02*
X14003320D01*
G01X13953000Y4332000D02*
X13833000D01*
Y4432000D01*
X14073000D01*
Y4332000D01*
X13953000D01*
G01X13430670Y4545000D02*
Y4645000D01*
X13447330D01*
X13454000Y4640000D01*
X13459000Y4633330D01*
X13463170Y4623330D01*
X13466500Y4611660D01*
X13467330Y4595000D01*
X13466500Y4578330D01*
X13463170Y4566670D01*
X13459000Y4556660D01*
X13454000Y4550000D01*
X13447330Y4545000D01*
X13430670D01*
G01X13514240D02*
Y4645000D01*
X13504240Y4625000D01*
G01Y4545000D02*
X13524240D01*
G01X13456830Y5473330D02*
X13476830D01*
G01X13466000Y5495000D02*
Y5451660D01*
G01X13495330Y5805000D02*
Y5661670D01*
X13502000Y5631660D01*
X13515330Y5611670D01*
X13532000Y5605000D01*
X13548670Y5611670D01*
X13562000Y5631660D01*
X13568670Y5661670D01*
Y5805000D01*
G01X13647200Y5605000D02*
Y5805000D01*
X13627200Y5765000D01*
G01Y5605000D02*
X13667200D01*
G01X14901000Y6551000D02*
Y5621000D01*
X13541000D01*
Y6551000D01*
X14901000D01*
G01X14020330Y2002670D02*
X14015330Y2007670D01*
X14009500Y2011000D01*
X14002830D01*
X13995330Y2006000D01*
X13989500Y1997670D01*
X13985330Y1987670D01*
X13982000Y1971000D01*
X13981170Y1956000D01*
X13982830Y1941000D01*
X13985330Y1931000D01*
X13990330Y1921000D01*
X13996170Y1914330D01*
X14002000Y1911000D01*
X14007830D01*
X14013670Y1914330D01*
X14018670Y1919330D01*
X14022830Y1926000D01*
G01X14051410Y1994330D02*
X14056410Y2004330D01*
X14062240Y2009330D01*
X14068910Y2011000D01*
X14077240Y2007670D01*
X14083070Y1999330D01*
X14084740Y1989330D01*
X14083910Y1979330D01*
X14080570Y1971000D01*
X14063910Y1954330D01*
X14056410Y1942670D01*
X14051410Y1926000D01*
X14049740Y1911000D01*
X14084740D01*
G01X14190840Y2339000D02*
Y2247980D01*
X14197270Y2228930D01*
X14210140Y2216230D01*
X14226230Y2212000D01*
X14242320Y2216230D01*
X14255190Y2228930D01*
X14261620Y2247980D01*
Y2339000D01*
G01X14325200Y2317830D02*
X14334860Y2330530D01*
X14346120Y2336880D01*
X14358990Y2339000D01*
X14375070Y2334770D01*
X14386340Y2324180D01*
X14389550Y2311490D01*
X14387940Y2298780D01*
X14381510Y2288200D01*
X14349340Y2267030D01*
X14334860Y2252220D01*
X14325200Y2231050D01*
X14321990Y2212000D01*
X14389550D01*
G01X14229830Y3985330D02*
X14249830D01*
G01X14239000Y4007000D02*
Y3963660D01*
G01X14333670Y3804000D02*
Y3904000D01*
X14350330D01*
X14357000Y3899000D01*
X14362000Y3892330D01*
X14366170Y3882330D01*
X14369500Y3870660D01*
X14370330Y3854000D01*
X14369500Y3837330D01*
X14366170Y3825670D01*
X14362000Y3815660D01*
X14357000Y3809000D01*
X14350330Y3804000D01*
X14333670D01*
G01X14432320D02*
Y3904000D01*
X14401490Y3832330D01*
X14443150D01*
G01X14384000Y3939000D02*
X14264000D01*
Y4039000D01*
X14504000D01*
Y3939000D01*
X14384000D01*
G01X14208830Y4382330D02*
X14228830D01*
G01X14218000Y4404000D02*
Y4360660D01*
G01X14328670Y4183000D02*
Y4283000D01*
X14345330D01*
X14352000Y4278000D01*
X14357000Y4271330D01*
X14361170Y4261330D01*
X14364500Y4249660D01*
X14365330Y4233000D01*
X14364500Y4216330D01*
X14361170Y4204670D01*
X14357000Y4194660D01*
X14352000Y4188000D01*
X14345330Y4183000D01*
X14328670D01*
G01X14398990Y4203000D02*
X14403990Y4191330D01*
X14410650Y4184670D01*
X14418150Y4183000D01*
X14424820Y4184670D01*
X14431490Y4193000D01*
X14435650Y4203000D01*
X14436490Y4213000D01*
X14434820Y4224660D01*
X14428990Y4233000D01*
X14423150Y4236330D01*
X14415650D01*
G01X14423150D02*
X14428150Y4241330D01*
X14432320Y4249660D01*
X14433990Y4259670D01*
X14432320Y4269670D01*
X14428150Y4278000D01*
X14420650Y4283000D01*
X14413150Y4281330D01*
X14405650Y4274670D01*
G01X14383000Y4332000D02*
X14263000D01*
Y4432000D01*
X14503000D01*
Y4332000D01*
X14383000D01*
M02*
