G04 ================== begin FILE IDENTIFICATION RECORD ==================*
G04 Layout Name:  D:/Spira Heaven/0-My Works/Srtp/PCB/Expand/PCB/Expand.brd*
G04 Film Name:    SOLDERMASK_TOP*
G04 File Format:  Gerber RS274X*
G04 File Origin:  Cadence Allegro 16.6-S003*
G04 Origin Date:  Thu Jan 16 10:16:26 2014*
G04 *
G04 Layer:  PIN/TOP*
G04 Layer:  PACKAGE GEOMETRY/SOLDERMASK_TOP*
G04 Layer:  BOARD GEOMETRY/OUTLINE*
G04 Layer:  BOARD GEOMETRY/SOLDERMASK_TOP*
G04 *
G04 Offset:    (0.0000 0.0000)*
G04 Mirror:    No*
G04 Mode:      Positive*
G04 Rotation:  0*
G04 FullContactRelief:  No*
G04 UndefLineWidth:     0.2000*
G04 ================== end FILE IDENTIFICATION RECORD ====================*
%FSLAX25Y25*MOMM*%
%IR0*IPPOS*OFA0.00000B0.00000*MIA0B0*SFA1.00000B1.00000*%
%ADD19R,.8X1.*%
%ADD15R,1.X.8*%
%ADD13R,3.5X.35*%
%ADD12R,.74X2.4*%
%ADD18R,10.414X10.414*%
%ADD16R,2.667X.7874*%
%ADD20R,2.X2.*%
%ADD14R,2.2X2.4*%
%ADD21C,1.*%
%ADD17R,1.6X2.6*%
%ADD22C,4.*%
%ADD10C,6.*%
%ADD11C,1.8*%
%ADD23C,.2*%
G75*
%LPD*%
G75*
G54D10*
X1232000Y-139000D03*
Y4061000D03*
X1227000Y5924000D03*
Y8174000D03*
X2741000Y-274000D03*
Y8275000D03*
X14642000Y-273000D03*
X14644000Y8275000D03*
G54D11*
X3334000Y1840000D03*
Y1586000D03*
X3080000D03*
Y1840000D03*
X3334000Y2602000D03*
Y2348000D03*
Y2094000D03*
X3080000D03*
Y2348000D03*
Y2602000D03*
X3334000Y3364000D03*
Y3110000D03*
Y2856000D03*
X3080000D03*
Y3110000D03*
Y3364000D03*
X3334000Y4126000D03*
Y3872000D03*
Y3618000D03*
X3080000D03*
Y3872000D03*
Y4126000D03*
X3334000Y4888000D03*
Y4634000D03*
Y4380000D03*
X3080000D03*
Y4634000D03*
Y4888000D03*
X3334000Y5650000D03*
Y5396000D03*
Y5142000D03*
X3080000D03*
Y5396000D03*
Y5650000D03*
X3334000Y6412000D03*
Y6158000D03*
Y5904000D03*
X3080000D03*
Y6158000D03*
Y6412000D03*
G54D20*
X13484000Y4855000D03*
Y5255000D03*
G54D21*
X13936000Y4653000D03*
Y5253000D03*
X14186000Y4653000D03*
X14436000D03*
Y5253000D03*
X14186000D03*
G54D12*
X5611500Y1190000D03*
X5484500D03*
X5357500D03*
X5230500D03*
X5103500D03*
Y1630000D03*
X5230500D03*
X5357500D03*
X5484500D03*
X5611500D03*
Y6390000D03*
X5484500D03*
X5357500D03*
X5230500D03*
X5103500D03*
Y6830000D03*
X5230500D03*
X5357500D03*
X5484500D03*
X5611500D03*
X6373500Y1190000D03*
X6246500D03*
X6119500D03*
X5992500D03*
X5865500D03*
X5738500D03*
Y1630000D03*
X5865500D03*
X5992500D03*
X6119500D03*
X6246500D03*
X6373500D03*
Y6390000D03*
X6246500D03*
X6119500D03*
X5992500D03*
X5865500D03*
X5738500D03*
Y6830000D03*
X5865500D03*
X5992500D03*
X6119500D03*
X6246500D03*
X6373500D03*
X7135500Y1190000D03*
X7008500D03*
X6881500D03*
X6754500D03*
X6627500D03*
X6500500D03*
Y1630000D03*
X6627500D03*
X6754500D03*
X6881500D03*
X7008500D03*
X7135500D03*
Y6390000D03*
X7008500D03*
X6881500D03*
X6754500D03*
X6627500D03*
X6500500D03*
Y6830000D03*
X6627500D03*
X6754500D03*
X6881500D03*
X7008500D03*
X7135500D03*
X7897500Y1190000D03*
X7770500D03*
X7643500D03*
X7516500D03*
X7389500D03*
X7262500D03*
Y1630000D03*
X7389500D03*
X7516500D03*
X7643500D03*
X7770500D03*
X7897500D03*
Y6390000D03*
X7770500D03*
X7643500D03*
X7516500D03*
X7389500D03*
X7262500D03*
Y6830000D03*
X7389500D03*
X7516500D03*
X7643500D03*
X7770500D03*
X7897500D03*
X8659500Y1190000D03*
X8532500D03*
X8405500D03*
X8278500D03*
X8151500D03*
X8024500D03*
Y1630000D03*
X8151500D03*
X8278500D03*
X8405500D03*
X8532500D03*
X8659500D03*
Y6390000D03*
X8532500D03*
X8405500D03*
X8278500D03*
X8151500D03*
X8024500D03*
Y6830000D03*
X8151500D03*
X8278500D03*
X8405500D03*
X8532500D03*
X8659500D03*
X9421500Y1190000D03*
X9294500D03*
X9167500D03*
X9040500D03*
X8913500D03*
X8786500D03*
Y1630000D03*
X8913500D03*
X9040500D03*
X9167500D03*
X9294500D03*
X9421500D03*
Y6390000D03*
X9294500D03*
X9167500D03*
X9040500D03*
X8913500D03*
X8786500D03*
Y6830000D03*
X8913500D03*
X9040500D03*
X9167500D03*
X9294500D03*
X9421500D03*
X10183500Y1190000D03*
X10056500D03*
X9929500D03*
X9802500D03*
X9675500D03*
X9548500D03*
Y1630000D03*
X9675500D03*
X9802500D03*
X9929500D03*
X10056500D03*
X10183500D03*
Y6390000D03*
X10056500D03*
X9929500D03*
X9802500D03*
X9675500D03*
X9548500D03*
Y6830000D03*
X9675500D03*
X9802500D03*
X9929500D03*
X10056500D03*
X10183500D03*
X10945500Y1190000D03*
X10818500D03*
X10691500D03*
X10564500D03*
X10437500D03*
X10310500D03*
Y1630000D03*
X10437500D03*
X10564500D03*
X10691500D03*
X10818500D03*
X10945500D03*
Y6390000D03*
X10818500D03*
X10691500D03*
X10564500D03*
X10437500D03*
X10310500D03*
Y6830000D03*
X10437500D03*
X10564500D03*
X10691500D03*
X10818500D03*
X10945500D03*
X11326500Y1190000D03*
X11199500D03*
X11072500D03*
Y1630000D03*
X11199500D03*
X11326500D03*
Y6390000D03*
X11199500D03*
X11072500D03*
Y6830000D03*
X11199500D03*
X11326500D03*
G54D22*
X13561000Y6071000D03*
X13871000Y6541000D03*
X14181000Y6071000D03*
G54D13*
X7432000Y2924000D03*
Y2974000D03*
Y3024000D03*
Y3074000D03*
Y3124000D03*
Y3174000D03*
Y3224000D03*
Y3274000D03*
Y3324000D03*
Y3374000D03*
Y3424000D03*
Y3474000D03*
Y3524000D03*
Y3574000D03*
Y3624000D03*
Y3674000D03*
Y3724000D03*
Y3774000D03*
Y3824000D03*
Y3874000D03*
Y3924000D03*
Y3974000D03*
Y4024000D03*
Y4074000D03*
Y4124000D03*
Y4174000D03*
Y4224000D03*
Y4274000D03*
Y4324000D03*
Y4374000D03*
Y4424000D03*
Y4474000D03*
Y4524000D03*
Y4574000D03*
Y4624000D03*
Y4674000D03*
Y4724000D03*
Y4774000D03*
Y4824000D03*
Y4874000D03*
G54D23*
G01X800000Y-600000D02*
Y8600000D01*
X15100000D01*
Y-600000D01*
X800000D01*
G54D14*
X13121000Y1970000D03*
X13781000D03*
G54D15*
X12552000Y2661000D03*
X12786000D03*
X12552000Y2821000D03*
X12786000D03*
G54D16*
X13123010Y2608000D03*
Y2735000D03*
Y2862000D03*
Y2989000D03*
Y3116000D03*
Y3243000D03*
Y3370000D03*
G54D17*
X13122000Y3908000D03*
X13462000D03*
G54D18*
X13947240Y2989000D03*
G54D19*
X13870000Y3989000D03*
X13873000Y4382000D03*
X14464000Y3989000D03*
X14304000D03*
X14030000D03*
X14033000Y4382000D03*
X14463000D03*
X14303000D03*
M02*
