G04 ================== begin FILE IDENTIFICATION RECORD ==================*
G04 Layout Name:  D:/Spira Heaven/0-My Works/Srtp/PCB/Expand/PCB/Expand.brd*
G04 Film Name:    TOP*
G04 File Format:  Gerber RS274X*
G04 File Origin:  Cadence Allegro 16.6-S003*
G04 Origin Date:  Thu Jan 16 10:16:26 2014*
G04 *
G04 Layer:  VIA CLASS/TOP*
G04 Layer:  PIN/TOP*
G04 Layer:  ETCH/TOP*
G04 Layer:  BOARD GEOMETRY/OUTLINE*
G04 *
G04 Offset:    (0.0000 0.0000)*
G04 Mirror:    No*
G04 Mode:      Positive*
G04 Rotation:  0*
G04 FullContactRelief:  No*
G04 UndefLineWidth:     0.2000*
G04 ================== end FILE IDENTIFICATION RECORD ====================*
%FSLAX25Y25*MOMM*%
%IR0*IPPOS*OFA0.00000B0.00000*MIA0B0*SFA1.00000B1.00000*%
%ADD21R,.8X1.*%
%ADD17R,1.X.8*%
%ADD15R,3.5X.35*%
%ADD14R,.74X2.4*%
%ADD11C,.5*%
%ADD20R,10.414X10.414*%
%ADD18R,2.667X.7874*%
%ADD22R,2.X2.*%
%ADD16R,2.2X2.4*%
%ADD23C,1.*%
%ADD19R,1.6X2.6*%
%ADD24C,4.*%
%ADD12C,1.5*%
%ADD10C,6.*%
%ADD13C,1.8*%
%ADD25C,.3*%
%ADD26C,.25*%
%ADD27C,.8*%
%ADD28C,2.*%
%ADD29C,.2*%
G75*
%LPD*%
G75*
G36*
G01X3155000Y1676000D02*
X3080000D01*
X3077350Y1583350D01*
X3170000Y1586000D01*
Y1661000D01*
G03X3155000Y1676000I-15000J0D01*
G37*
G36*
G01X3424000Y1511000D02*
Y1586000D01*
X3331350Y1588650D01*
X3334000Y1496000D01*
X3409000D01*
G03X3424000Y1511000I0J15000D01*
G37*
G36*
G01X3157500Y1930000D02*
X3080000D01*
X3077790Y1837790D01*
X3170000Y1840000D01*
Y1917500D01*
G03X3157500Y1930000I-12500J0D01*
G37*
G36*
G01X3452440Y2610840D02*
X3397630Y2665630D01*
X3330880Y2602000D01*
X3397630Y2538370D01*
X3452440Y2593160D01*
G03Y2610840I-8840J8840D01*
G37*
G36*
G01Y2356840D02*
X3397630Y2411630D01*
X3330880Y2348000D01*
X3397630Y2284370D01*
X3452440Y2339160D01*
G03Y2356840I-8840J8840D01*
G37*
G36*
G01Y2102840D02*
X3397630Y2157630D01*
X3330880Y2094000D01*
X3397630Y2030370D01*
X3452440Y2085160D01*
G03Y2102840I-8840J8840D01*
G37*
G36*
G01Y3118840D02*
X3397630Y3173630D01*
X3330880Y3110000D01*
X3397630Y3046370D01*
X3452440Y3101160D01*
G03Y3118840I-8840J8840D01*
G37*
G36*
G01Y3372840D02*
X3397630Y3427630D01*
X3330880Y3364000D01*
X3397630Y3300370D01*
X3452440Y3355160D01*
G03Y3372840I-8840J8840D01*
G37*
G36*
G01Y2864840D02*
X3397630Y2919630D01*
X3330880Y2856000D01*
X3397630Y2792370D01*
X3452440Y2847160D01*
G03Y2864840I-8840J8840D01*
G37*
G36*
G01Y3880840D02*
X3397630Y3935630D01*
X3330880Y3872000D01*
X3397630Y3808370D01*
X3452440Y3863160D01*
G03Y3880840I-8840J8840D01*
G37*
G36*
G01Y3626840D02*
X3397630Y3681630D01*
X3330880Y3618000D01*
X3397630Y3554370D01*
X3452440Y3609160D01*
G03Y3626840I-8840J8840D01*
G37*
G36*
G01Y4134840D02*
X3397630Y4189630D01*
X3330880Y4126000D01*
X3397630Y4062370D01*
X3452440Y4117160D01*
G03Y4134840I-8840J8840D01*
G37*
G36*
G01Y4388840D02*
X3397630Y4443630D01*
X3330880Y4380000D01*
X3397630Y4316370D01*
X3452440Y4371160D01*
G03Y4388840I-8840J8840D01*
G37*
G36*
G01Y4896840D02*
X3397630Y4951630D01*
X3330880Y4888000D01*
X3397630Y4824370D01*
X3452440Y4879160D01*
G03Y4896840I-8840J8840D01*
G37*
G36*
G01Y4642840D02*
X3397630Y4697630D01*
X3330880Y4634000D01*
X3397630Y4570370D01*
X3452440Y4625160D01*
G03Y4642840I-8840J8840D01*
G37*
G36*
G01Y5150840D02*
X3397630Y5205630D01*
X3330880Y5142000D01*
X3397630Y5078370D01*
X3452440Y5133160D01*
G03Y5150840I-8840J8840D01*
G37*
G36*
G01Y5658840D02*
X3397630Y5713630D01*
X3330880Y5650000D01*
X3397630Y5586370D01*
X3452440Y5641160D01*
G03Y5658840I-8840J8840D01*
G37*
G36*
G01Y5404840D02*
X3397630Y5459630D01*
X3330880Y5396000D01*
X3397630Y5332370D01*
X3452440Y5387160D01*
G03Y5404840I-8840J8840D01*
G37*
G36*
G01Y6166840D02*
X3397630Y6221630D01*
X3330880Y6158000D01*
X3397630Y6094370D01*
X3452440Y6149160D01*
G03Y6166840I-8840J8840D01*
G37*
G36*
G01Y5912840D02*
X3397630Y5967630D01*
X3330880Y5904000D01*
X3397630Y5840370D01*
X3452440Y5895160D01*
G03Y5912840I-8840J8840D01*
G37*
G36*
G01X5476840Y1784880D02*
X5447500Y1750000D01*
X5484500Y1626250D01*
X5521500Y1750000D01*
X5492160Y1784880D01*
G03X5476840I-7660J-12890D01*
G37*
G36*
G01X5603840D02*
X5574500Y1750000D01*
X5611500Y1626250D01*
X5648500Y1750000D01*
X5619160Y1784880D01*
G03X5603840I-7660J-12890D01*
G37*
G36*
G01X5349840D02*
X5320500Y1750000D01*
X5357500Y1626250D01*
X5394500Y1750000D01*
X5365160Y1784880D01*
G03X5349840I-7660J-12890D01*
G37*
G36*
G01X5238160Y6235120D02*
X5267500Y6270000D01*
X5230500Y6393750D01*
X5193500Y6270000D01*
X5222840Y6235120D01*
G03X5238160I7660J12890D01*
G37*
G36*
G01X5492160D02*
X5521500Y6270000D01*
X5484500Y6393750D01*
X5447500Y6270000D01*
X5476840Y6235120D01*
G03X5492160I7660J12890D01*
G37*
G36*
G01X5619160D02*
X5648500Y6270000D01*
X5611500Y6393750D01*
X5574500Y6270000D01*
X5603840Y6235120D01*
G03X5619160I7660J12890D01*
G37*
G36*
G01X5365160D02*
X5394500Y6270000D01*
X5357500Y6393750D01*
X5320500Y6270000D01*
X5349840Y6235120D01*
G03X5365160I7660J12890D01*
G37*
G36*
G01X5857840Y1784880D02*
X5828500Y1750000D01*
X5865500Y1626250D01*
X5902500Y1750000D01*
X5873160Y1784880D01*
G03X5857840I-7660J-12890D01*
G37*
G36*
G01X5730840D02*
X5701500Y1750000D01*
X5738500Y1626250D01*
X5775500Y1750000D01*
X5746160Y1784880D01*
G03X5730840I-7660J-12890D01*
G37*
G36*
G01X6238840D02*
X6209500Y1750000D01*
X6246500Y1626250D01*
X6283500Y1750000D01*
X6254160Y1784880D01*
G03X6238840I-7660J-12890D01*
G37*
G36*
G01X6111840D02*
X6082500Y1750000D01*
X6119500Y1626250D01*
X6156500Y1750000D01*
X6127160Y1784880D01*
G03X6111840I-7660J-12890D01*
G37*
G36*
G01X5984840D02*
X5955500Y1750000D01*
X5992500Y1626250D01*
X6029500Y1750000D01*
X6000160Y1784880D01*
G03X5984840I-7660J-12890D01*
G37*
G36*
G01X5746160Y6235120D02*
X5775500Y6270000D01*
X5738500Y6393750D01*
X5701500Y6270000D01*
X5730840Y6235120D01*
G03X5746160I7660J12890D01*
G37*
G36*
G01X6254160D02*
X6283500Y6270000D01*
X6246500Y6393750D01*
X6209500Y6270000D01*
X6238840Y6235120D01*
G03X6254160I7660J12890D01*
G37*
G36*
G01X6127160D02*
X6156500Y6270000D01*
X6119500Y6393750D01*
X6082500Y6270000D01*
X6111840Y6235120D01*
G03X6127160I7660J12890D01*
G37*
G36*
G01X5873160D02*
X5902500Y6270000D01*
X5865500Y6393750D01*
X5828500Y6270000D01*
X5857840Y6235120D01*
G03X5873160I7660J12890D01*
G37*
G36*
G01X6000160D02*
X6029500Y6270000D01*
X5992500Y6393750D01*
X5955500Y6270000D01*
X5984840Y6235120D01*
G03X6000160I7660J12890D01*
G37*
G36*
G01X6841000Y1055000D02*
X6918500Y1070000D01*
X6882700Y1193550D01*
X6844500Y1310000D01*
X6826000Y1070220D01*
G03X6841000Y1055000I15000J-218D01*
G37*
G36*
G01X6619840Y1784880D02*
X6590500Y1750000D01*
X6627500Y1626250D01*
X6664500Y1750000D01*
X6635160Y1784880D01*
G03X6619840I-7660J-12890D01*
G37*
G36*
G01X7000840D02*
X6971500Y1750000D01*
X7008500Y1626250D01*
X7045500Y1750000D01*
X7016160Y1784880D01*
G03X7000840I-7660J-12890D01*
G37*
G36*
G01X6746840D02*
X6717500Y1750000D01*
X6754500Y1626250D01*
X6791500Y1750000D01*
X6762160Y1784880D01*
G03X6746840I-7660J-12890D01*
G37*
G36*
G01X6492840D02*
X6463500Y1750000D01*
X6500500Y1626250D01*
X6537500Y1750000D01*
X6508160Y1784880D01*
G03X6492840I-7660J-12890D01*
G37*
G36*
G01X7077560Y1120290D02*
X7155460Y1120000D01*
X7138150Y1192650D01*
X7106670Y1249270D01*
X7065880Y1138350D01*
G03X7077560Y1120290I14621J-3351D01*
G37*
G36*
G01X6873840Y1784880D02*
X6844500Y1750000D01*
X6881500Y1626250D01*
X6918500Y1750000D01*
X6889160Y1784880D01*
G03X6873840I-7660J-12890D01*
G37*
G36*
G01X7127840D02*
X7098500Y1750000D01*
X7135500Y1626250D01*
X7172500Y1750000D01*
X7143160Y1784880D01*
G03X7127840I-7660J-12890D01*
G37*
G36*
G01X6762160Y6235120D02*
X6791500Y6270000D01*
X6754500Y6393750D01*
X6717500Y6270000D01*
X6746840Y6235120D01*
G03X6762160I7660J12890D01*
G37*
G36*
G01X6508160D02*
X6537500Y6270000D01*
X6500500Y6393750D01*
X6463500Y6270000D01*
X6492840Y6235120D01*
G03X6508160I7660J12890D01*
G37*
G36*
G01X7016160D02*
X7045500Y6270000D01*
X7008500Y6393750D01*
X6971500Y6270000D01*
X7000840Y6235120D01*
G03X7016160I7660J12890D01*
G37*
G36*
G01X7143160D02*
X7172500Y6270000D01*
X7135500Y6393750D01*
X7098500Y6270000D01*
X7127840Y6235120D01*
G03X7143160I7660J12890D01*
G37*
G36*
G01X6635160D02*
X6664500Y6270000D01*
X6627500Y6393750D01*
X6590500Y6270000D01*
X6619840Y6235120D01*
G03X6635160I7660J12890D01*
G37*
G36*
G01X6889160D02*
X6918500Y6270000D01*
X6881500Y6393750D01*
X6844500Y6270000D01*
X6873840Y6235120D01*
G03X6889160I7660J12890D01*
G37*
G36*
G01X7127840Y6984880D02*
X7098500Y6950000D01*
X7135500Y6826250D01*
X7172500Y6950000D01*
X7143160Y6984880D01*
G03X7127840I-7660J-12890D01*
G37*
G36*
G01X7857000Y1055000D02*
X7934500Y1070000D01*
X7898700Y1193550D01*
X7860500Y1310000D01*
X7842000Y1070220D01*
G03X7857000Y1055000I15000J-218D01*
G37*
G36*
G01X7349000D02*
X7426500Y1070000D01*
X7390700Y1193550D01*
X7352500Y1310000D01*
X7334000Y1070220D01*
G03X7349000Y1055000I15000J-218D01*
G37*
G36*
G01X7762840Y1784880D02*
X7733500Y1750000D01*
X7770500Y1626250D01*
X7807500Y1750000D01*
X7778160Y1784880D01*
G03X7762840I-7660J-12890D01*
G37*
G36*
G01X7254840D02*
X7225500Y1750000D01*
X7262500Y1626250D01*
X7299500Y1750000D01*
X7270160Y1784880D01*
G03X7254840I-7660J-12890D01*
G37*
G36*
G01X7381840D02*
X7352500Y1750000D01*
X7389500Y1626250D01*
X7426500Y1750000D01*
X7397160Y1784880D01*
G03X7381840I-7660J-12890D01*
G37*
G36*
G01X7889840D02*
X7860500Y1750000D01*
X7897500Y1626250D01*
X7934500Y1750000D01*
X7905160Y1784880D01*
G03X7889840I-7660J-12890D01*
G37*
G36*
G01X7508840D02*
X7479500Y1750000D01*
X7516500Y1626250D01*
X7553500Y1750000D01*
X7524160Y1784880D01*
G03X7508840I-7660J-12890D01*
G37*
G36*
G01X7825770Y2843160D02*
X7869970Y2798980D01*
X7926120Y2852000D01*
X7869970Y2905020D01*
X7825770Y2860840D01*
G03Y2843160I8840J-8840D01*
G37*
G36*
G01X7270160Y6235120D02*
X7299500Y6270000D01*
X7262500Y6393750D01*
X7225500Y6270000D01*
X7254840Y6235120D01*
G03X7270160I7660J12890D01*
G37*
G36*
G01X7778160D02*
X7807500Y6270000D01*
X7770500Y6393750D01*
X7733500Y6270000D01*
X7762840Y6235120D01*
G03X7778160I7660J12890D01*
G37*
G36*
G01X7905160D02*
X7934500Y6270000D01*
X7897500Y6393750D01*
X7860500Y6270000D01*
X7889840Y6235120D01*
G03X7905160I7660J12890D01*
G37*
G36*
G01X7524160D02*
X7553500Y6270000D01*
X7516500Y6393750D01*
X7479500Y6270000D01*
X7508840Y6235120D01*
G03X7524160I7660J12890D01*
G37*
G36*
G01X7397160D02*
X7426500Y6270000D01*
X7389500Y6393750D01*
X7352500Y6270000D01*
X7381840Y6235120D01*
G03X7397160I7660J12890D01*
G37*
G36*
G01X7381840Y6984880D02*
X7352500Y6950000D01*
X7389500Y6826250D01*
X7426500Y6950000D01*
X7397160Y6984880D01*
G03X7381840I-7660J-12890D01*
G37*
G36*
G01X7762840D02*
X7733500Y6950000D01*
X7770500Y6826250D01*
X7807500Y6950000D01*
X7778160Y6984880D01*
G03X7762840I-7660J-12890D01*
G37*
G36*
G01X7508840D02*
X7479500Y6950000D01*
X7516500Y6826250D01*
X7553500Y6950000D01*
X7524160Y6984880D01*
G03X7508840I-7660J-12890D01*
G37*
G36*
G01X7889840D02*
X7860500Y6950000D01*
X7897500Y6826250D01*
X7934500Y6950000D01*
X7905160Y6984880D01*
G03X7889840I-7660J-12890D01*
G37*
G36*
G01X8116410Y1045620D02*
X8188500Y1070000D01*
X8152530Y1193610D01*
X8114500Y1310000D01*
X8099500Y1060500D01*
G03X8116410Y1045620I15002J0D01*
G37*
G36*
G01X8413160Y1035120D02*
X8442500Y1070000D01*
X8405500Y1193750D01*
X8368500Y1070000D01*
X8397840Y1035120D01*
G03X8413160I7660J12890D01*
G37*
G36*
G01X8281090Y1050730D02*
X8304220Y1070010D01*
X8278500Y1193750D01*
X8252780Y1070010D01*
X8275910Y1050730D01*
G03X8281090I2590J14770D01*
G37*
G36*
G01X8667160Y1035120D02*
X8696500Y1070000D01*
X8659500Y1193750D01*
X8622500Y1070000D01*
X8651840Y1035120D01*
G03X8667160I7660J12890D01*
G37*
G36*
G01X8540160D02*
X8569500Y1070000D01*
X8532500Y1193750D01*
X8495500Y1070000D01*
X8524840Y1035120D01*
G03X8540160I7660J12890D01*
G37*
G36*
G01X8397840Y1784880D02*
X8368500Y1750000D01*
X8405500Y1626250D01*
X8442500Y1750000D01*
X8413160Y1784880D01*
G03X8397840I-7660J-12890D01*
G37*
G36*
G01X8524840D02*
X8495500Y1750000D01*
X8532500Y1626250D01*
X8569500Y1750000D01*
X8540160Y1784880D01*
G03X8524840I-7660J-12890D01*
G37*
G36*
G01X8143840D02*
X8114500Y1750000D01*
X8151500Y1626250D01*
X8188500Y1750000D01*
X8159160Y1784880D01*
G03X8143840I-7660J-12890D01*
G37*
G36*
G01X8016840D02*
X7987500Y1750000D01*
X8024500Y1626250D01*
X8061500Y1750000D01*
X8032160Y1784880D01*
G03X8016840I-7660J-12890D01*
G37*
G36*
G01X8651840D02*
X8622500Y1750000D01*
X8659500Y1626250D01*
X8696500Y1750000D01*
X8667160Y1784880D01*
G03X8651840I-7660J-12890D01*
G37*
G36*
G01X8270840D02*
X8241500Y1750000D01*
X8278500Y1626250D01*
X8315500Y1750000D01*
X8286160Y1784880D01*
G03X8270840I-7660J-12890D01*
G37*
G36*
G01X8159160Y6235120D02*
X8188500Y6270000D01*
X8151500Y6393750D01*
X8114500Y6270000D01*
X8143840Y6235120D01*
G03X8159160I7660J12890D01*
G37*
G36*
G01X8032160D02*
X8061500Y6270000D01*
X8024500Y6393750D01*
X7987500Y6270000D01*
X8016840Y6235120D01*
G03X8032160I7660J12890D01*
G37*
G36*
G01X8413160D02*
X8442500Y6270000D01*
X8405500Y6393750D01*
X8368500Y6270000D01*
X8397840Y6235120D01*
G03X8413160I7660J12890D01*
G37*
G36*
G01X8540160D02*
X8569500Y6270000D01*
X8532500Y6393750D01*
X8495500Y6270000D01*
X8524840Y6235120D01*
G03X8540160I7660J12890D01*
G37*
G36*
G01X8286160D02*
X8315500Y6270000D01*
X8278500Y6393750D01*
X8241500Y6270000D01*
X8270840Y6235120D01*
G03X8286160I7660J12890D01*
G37*
G36*
G01X8667160D02*
X8696500Y6270000D01*
X8659500Y6393750D01*
X8622500Y6270000D01*
X8651840Y6235120D01*
G03X8667160I7660J12890D01*
G37*
G36*
G01X8016840Y6984880D02*
X7987500Y6950000D01*
X8024500Y6826250D01*
X8061500Y6950000D01*
X8032160Y6984880D01*
G03X8016840I-7660J-12890D01*
G37*
G36*
G01X8524840D02*
X8495500Y6950000D01*
X8532500Y6826250D01*
X8569500Y6950000D01*
X8540160Y6984880D01*
G03X8524840I-7660J-12890D01*
G37*
G36*
G01X8143840D02*
X8114500Y6950000D01*
X8151500Y6826250D01*
X8188500Y6950000D01*
X8159160Y6984880D01*
G03X8143840I-7660J-12890D01*
G37*
G36*
G01X8270840D02*
X8241500Y6950000D01*
X8278500Y6826250D01*
X8315500Y6950000D01*
X8286160Y6984880D01*
G03X8270840I-7660J-12890D01*
G37*
G36*
G01X8397840D02*
X8368500Y6950000D01*
X8405500Y6826250D01*
X8442500Y6950000D01*
X8413160Y6984880D01*
G03X8397840I-7660J-12890D01*
G37*
G36*
G01X8651840D02*
X8622500Y6950000D01*
X8659500Y6826250D01*
X8696500Y6950000D01*
X8667160Y6984880D01*
G03X8651840I-7660J-12890D01*
G37*
G36*
G01X9302160Y1035120D02*
X9331500Y1070000D01*
X9294500Y1193750D01*
X9257500Y1070000D01*
X9286840Y1035120D01*
G03X9302160I7660J12890D01*
G37*
G36*
G01X8794160D02*
X8823500Y1070000D01*
X8786500Y1193750D01*
X8749500Y1070000D01*
X8778840Y1035120D01*
G03X8794160I7660J12890D01*
G37*
G36*
G01X9048160D02*
X9077500Y1070000D01*
X9040500Y1193750D01*
X9003500Y1070000D01*
X9032840Y1035120D01*
G03X9048160I7660J12890D01*
G37*
G36*
G01X9429160D02*
X9458500Y1070000D01*
X9421500Y1193750D01*
X9384500Y1070000D01*
X9413840Y1035120D01*
G03X9429160I7660J12890D01*
G37*
G36*
G01X9175160D02*
X9204500Y1070000D01*
X9167500Y1193750D01*
X9130500Y1070000D01*
X9159840Y1035120D01*
G03X9175160I7660J12890D01*
G37*
G36*
G01X8778840Y1784880D02*
X8749500Y1750000D01*
X8786500Y1626250D01*
X8823500Y1750000D01*
X8794160Y1784880D01*
G03X8778840I-7660J-12890D01*
G37*
G36*
G01X9159840D02*
X9130500Y1750000D01*
X9167500Y1626250D01*
X9204500Y1750000D01*
X9175160Y1784880D01*
G03X9159840I-7660J-12890D01*
G37*
G36*
G01X9413840D02*
X9384500Y1750000D01*
X9421500Y1626250D01*
X9458500Y1750000D01*
X9429160Y1784880D01*
G03X9413840I-7660J-12890D01*
G37*
G36*
G01X9286840D02*
X9257500Y1750000D01*
X9294500Y1626250D01*
X9331500Y1750000D01*
X9302160Y1784880D01*
G03X9286840I-7660J-12890D01*
G37*
G36*
G01X9032840D02*
X9003500Y1750000D01*
X9040500Y1626250D01*
X9077500Y1750000D01*
X9048160Y1784880D01*
G03X9032840I-7660J-12890D01*
G37*
G36*
G01X8794160Y6235120D02*
X8823500Y6270000D01*
X8786500Y6393750D01*
X8749500Y6270000D01*
X8778840Y6235120D01*
G03X8794160I7660J12890D01*
G37*
G36*
G01X9175160D02*
X9204500Y6270000D01*
X9167500Y6393750D01*
X9130500Y6270000D01*
X9159840Y6235120D01*
G03X9175160I7660J12890D01*
G37*
G36*
G01X9302160D02*
X9331500Y6270000D01*
X9294500Y6393750D01*
X9257500Y6270000D01*
X9286840Y6235120D01*
G03X9302160I7660J12890D01*
G37*
G36*
G01X9048160D02*
X9077500Y6270000D01*
X9040500Y6393750D01*
X9003500Y6270000D01*
X9032840Y6235120D01*
G03X9048160I7660J12890D01*
G37*
G36*
G01X9429160D02*
X9458500Y6270000D01*
X9421500Y6393750D01*
X9384500Y6270000D01*
X9413840Y6235120D01*
G03X9429160I7660J12890D01*
G37*
G36*
G01X9413840Y6984880D02*
X9384500Y6950000D01*
X9421500Y6826250D01*
X9458500Y6950000D01*
X9429160Y6984880D01*
G03X9413840I-7660J-12890D01*
G37*
G36*
G01X9288400Y6980170D02*
X9257500Y6950000D01*
X9294500Y6826250D01*
X9331500Y6950000D01*
X9300600Y6980170D01*
G03X9288400I-6100J-13710D01*
G37*
G36*
G01X9032840Y6984880D02*
X9003500Y6950000D01*
X9040500Y6826250D01*
X9077500Y6950000D01*
X9048160Y6984880D01*
G03X9032840I-7660J-12890D01*
G37*
G36*
G01X8778840D02*
X8749500Y6950000D01*
X8786500Y6826250D01*
X8823500Y6950000D01*
X8794160Y6984880D01*
G03X8778840I-7660J-12890D01*
G37*
G36*
G01X9937160Y1035120D02*
X9966500Y1070000D01*
X9929500Y1193750D01*
X9892500Y1070000D01*
X9921840Y1035120D01*
G03X9937160I7660J12890D01*
G37*
G36*
G01X9556160D02*
X9585500Y1070000D01*
X9548500Y1193750D01*
X9511500Y1070000D01*
X9540840Y1035120D01*
G03X9556160I7660J12890D01*
G37*
G36*
G01X9682490Y1037230D02*
X9712500Y1070000D01*
X9675500Y1193750D01*
X9638500Y1070000D01*
X9668510Y1037230D01*
G03X9682490I6990J13270D01*
G37*
G36*
G01X9810160Y1035120D02*
X9839500Y1070000D01*
X9802500Y1193750D01*
X9765500Y1070000D01*
X9794840Y1035120D01*
G03X9810160I7660J12890D01*
G37*
G36*
G01X10048840Y1784880D02*
X10019500Y1750000D01*
X10056500Y1626250D01*
X10093500Y1750000D01*
X10064160Y1784880D01*
G03X10048840I-7660J-12890D01*
G37*
G36*
G01X9540840D02*
X9511500Y1750000D01*
X9548500Y1626250D01*
X9585500Y1750000D01*
X9556160Y1784880D01*
G03X9540840I-7660J-12890D01*
G37*
G36*
G01X9794840D02*
X9765500Y1750000D01*
X9802500Y1626250D01*
X9839500Y1750000D01*
X9810160Y1784880D01*
G03X9794840I-7660J-12890D01*
G37*
G36*
G01X9921840D02*
X9892500Y1750000D01*
X9929500Y1626250D01*
X9966500Y1750000D01*
X9937160Y1784880D01*
G03X9921840I-7660J-12890D01*
G37*
G36*
G01X9667840D02*
X9638500Y1750000D01*
X9675500Y1626250D01*
X9712500Y1750000D01*
X9683160Y1784880D01*
G03X9667840I-7660J-12890D01*
G37*
G36*
G01X9810160Y6235120D02*
X9839500Y6270000D01*
X9802500Y6393750D01*
X9765500Y6270000D01*
X9794840Y6235120D01*
G03X9810160I7660J12890D01*
G37*
G36*
G01X9556160D02*
X9585500Y6270000D01*
X9548500Y6393750D01*
X9511500Y6270000D01*
X9540840Y6235120D01*
G03X9556160I7660J12890D01*
G37*
G36*
G01X10064160D02*
X10093500Y6270000D01*
X10056500Y6393750D01*
X10019500Y6270000D01*
X10048840Y6235120D01*
G03X10064160I7660J12890D01*
G37*
G36*
G01X9937160D02*
X9966500Y6270000D01*
X9929500Y6393750D01*
X9892500Y6270000D01*
X9921840Y6235120D01*
G03X9937160I7660J12890D01*
G37*
G36*
G01X9683160D02*
X9712500Y6270000D01*
X9675500Y6393750D01*
X9638500Y6270000D01*
X9667840Y6235120D01*
G03X9683160I7660J12890D01*
G37*
G36*
G01X9667840Y6984880D02*
X9638500Y6950000D01*
X9675500Y6826250D01*
X9712500Y6950000D01*
X9683160Y6984880D01*
G03X9667840I-7660J-12890D01*
G37*
G36*
G01X9794840D02*
X9765500Y6950000D01*
X9802500Y6826250D01*
X9839500Y6950000D01*
X9810160Y6984880D01*
G03X9794840I-7660J-12890D01*
G37*
G36*
G01X9540840D02*
X9511500Y6950000D01*
X9548500Y6826250D01*
X9585500Y6950000D01*
X9556160Y6984880D01*
G03X9540840I-7660J-12890D01*
G37*
G36*
G01X10362500Y1044840D02*
X10347500Y1310000D01*
X10309570Y1193630D01*
X10273500Y1070000D01*
X10342670Y1030640D01*
G03X10362500Y1044840I4831J14200D01*
G37*
G36*
G01X10445160Y1035120D02*
X10474500Y1070000D01*
X10437500Y1193750D01*
X10400500Y1070000D01*
X10429840Y1035120D01*
G03X10445160I7660J12890D01*
G37*
G36*
G01X10743500Y1055280D02*
X10728500Y1310000D01*
X10690510Y1193620D01*
X10654500Y1070000D01*
X10725570Y1040570D01*
G03X10743500Y1055280I2931J14710D01*
G37*
G36*
G01X10572160Y1035120D02*
X10601500Y1070000D01*
X10564500Y1193750D01*
X10527500Y1070000D01*
X10556840Y1035120D01*
G03X10572160I7660J12890D01*
G37*
G36*
G01X10953160D02*
X10982500Y1070000D01*
X10945500Y1193750D01*
X10908500Y1070000D01*
X10937840Y1035120D01*
G03X10953160I7660J12890D01*
G37*
G36*
G01X10826160D02*
X10855500Y1070000D01*
X10818500Y1193750D01*
X10781500Y1070000D01*
X10810840Y1035120D01*
G03X10826160I7660J12890D01*
G37*
G36*
G01X10302840Y1784880D02*
X10273500Y1750000D01*
X10310500Y1626250D01*
X10347500Y1750000D01*
X10318160Y1784880D01*
G03X10302840I-7660J-12890D01*
G37*
G36*
G01X10810840D02*
X10781500Y1750000D01*
X10818500Y1626250D01*
X10855500Y1750000D01*
X10826160Y1784880D01*
G03X10810840I-7660J-12890D01*
G37*
G36*
G01X10429840D02*
X10400500Y1750000D01*
X10437500Y1626250D01*
X10474500Y1750000D01*
X10445160Y1784880D01*
G03X10429840I-7660J-12890D01*
G37*
G36*
G01X10937840D02*
X10908500Y1750000D01*
X10945500Y1626250D01*
X10982500Y1750000D01*
X10953160Y1784880D01*
G03X10937840I-7660J-12890D01*
G37*
G36*
G01X10683840D02*
X10654500Y1750000D01*
X10691500Y1626250D01*
X10728500Y1750000D01*
X10699160Y1784880D01*
G03X10683840I-7660J-12890D01*
G37*
G36*
G01X10556840D02*
X10527500Y1750000D01*
X10564500Y1626250D01*
X10601500Y1750000D01*
X10572160Y1784880D01*
G03X10556840I-7660J-12890D01*
G37*
G36*
G01X10699160Y6235120D02*
X10728500Y6270000D01*
X10691500Y6393750D01*
X10654500Y6270000D01*
X10683840Y6235120D01*
G03X10699160I7660J12890D01*
G37*
G36*
G01X10953160D02*
X10982500Y6270000D01*
X10945500Y6393750D01*
X10908500Y6270000D01*
X10937840Y6235120D01*
G03X10953160I7660J12890D01*
G37*
G36*
G01X10826160D02*
X10855500Y6270000D01*
X10818500Y6393750D01*
X10781500Y6270000D01*
X10810840Y6235120D01*
G03X10826160I7660J12890D01*
G37*
G36*
G01X10318160D02*
X10347500Y6270000D01*
X10310500Y6393750D01*
X10273500Y6270000D01*
X10302840Y6235120D01*
G03X10318160I7660J12890D01*
G37*
G36*
G01X10445160D02*
X10474500Y6270000D01*
X10437500Y6393750D01*
X10400500Y6270000D01*
X10429840Y6235120D01*
G03X10445160I7660J12890D01*
G37*
G36*
G01X10572160D02*
X10601500Y6270000D01*
X10564500Y6393750D01*
X10527500Y6270000D01*
X10556840Y6235120D01*
G03X10572160I7660J12890D01*
G37*
G36*
G01X10302840Y6984880D02*
X10273500Y6950000D01*
X10310500Y6826250D01*
X10347500Y6950000D01*
X10318160Y6984880D01*
G03X10302840I-7660J-12890D01*
G37*
G36*
G01X10429840D02*
X10400500Y6950000D01*
X10437500Y6826250D01*
X10474500Y6950000D01*
X10445160Y6984880D01*
G03X10429840I-7660J-12890D01*
G37*
G36*
G01X10577050Y7005530D02*
X10527500Y6950000D01*
X10564010Y6826280D01*
X10601500Y6950000D01*
X10600130Y6998530D01*
G03X10577050Y7005530I-14130J-5039D01*
G37*
G36*
G01X11064840Y1784880D02*
X11035500Y1750000D01*
X11072500Y1626250D01*
X11109500Y1750000D01*
X11080160Y1784880D01*
G03X11064840I-7660J-12890D01*
G37*
G36*
G01X11080160Y6235120D02*
X11109500Y6270000D01*
X11072500Y6393750D01*
X11035500Y6270000D01*
X11064840Y6235120D01*
G03X11080160I7660J12890D01*
G37*
G36*
G01X11840770Y2654160D02*
X11884970Y2609980D01*
X11941120Y2663000D01*
X11884970Y2716020D01*
X11840770Y2671840D01*
G03Y2654160I8840J-8840D01*
G37*
G36*
G01X13782510Y3981500D02*
X13830000Y3939000D01*
X13873120Y3989000D01*
X13830000Y4039000D01*
X13782510Y3996500D01*
G03Y3981500I10000J-7500D01*
G37*
G54D10*
X1232000Y-139000D03*
Y4061000D03*
X1227000Y5924000D03*
Y8174000D03*
X2741000Y-274000D03*
Y8275000D03*
X14642000Y-273000D03*
X14644000Y8275000D03*
G54D20*
X13947240Y2989000D03*
G54D11*
X2371000Y520000D03*
X2602000Y489000D03*
X2617000Y7582000D03*
X3133000Y477000D03*
X3387000Y485000D03*
X2867000Y495000D03*
X3133000Y7593000D03*
X3387000Y7616000D03*
X2879000Y7605000D03*
X3895000Y484000D03*
X4149000Y476000D03*
X3641000Y484000D03*
Y7606000D03*
X4149000Y7602000D03*
X3895000Y7599000D03*
X4798000Y383000D03*
X4657000Y481000D03*
X4403000Y488000D03*
Y7601000D03*
X4657000Y7605000D03*
X5037000Y346300D03*
X5484500Y1820500D03*
X5611500Y1817500D03*
X5357500D03*
X5618000Y3204000D03*
X5648000Y2958000D03*
X5445000Y3975000D03*
X5512000Y3726000D03*
X5588000Y3487000D03*
X5497000Y4214000D03*
X5489000Y4483000D03*
X5493000Y4725000D03*
X5478000Y4978000D03*
X5467000Y5255000D03*
X5459000Y5497000D03*
X5440000Y5762000D03*
X5444000Y5996000D03*
X5230500Y6188500D03*
X5484500Y6194500D03*
X5611500Y6191500D03*
X5357500Y6183500D03*
X5419000Y7602000D03*
X4911000Y7606000D03*
X5560000Y7635000D03*
X5165000Y7598000D03*
X6284180Y319000D03*
X5771000Y306000D03*
X5865500Y1810500D03*
X5738500Y1817500D03*
X6246500Y1812500D03*
X6119500Y1803500D03*
X5992500Y1805500D03*
X5720000Y2454000D03*
X5777000Y2201000D03*
X6116000Y2099000D03*
X5682000Y2708000D03*
X5889000Y5859000D03*
X5738500Y6184500D03*
X6246500Y6197500D03*
X6119500Y6198500D03*
X5865500Y6183500D03*
X5992500Y6197500D03*
X6298000Y7574000D03*
X7049000Y306000D03*
X6696000Y601000D03*
X6440000Y586000D03*
X7074000Y580000D03*
X6904000Y569000D03*
X6625000Y1819000D03*
X7008500Y1811500D03*
X6754500Y1801500D03*
X6500500Y1812500D03*
X6881500Y1809500D03*
X7135500Y1806500D03*
X6754500Y6213500D03*
X6500500Y6201500D03*
X7008500Y6204500D03*
X7135500Y6219500D03*
X6627500Y6214500D03*
X6881500Y6210500D03*
X6551590Y7640410D03*
X6711000Y7574000D03*
X6943000Y7571000D03*
X6446000Y7548000D03*
X7298000Y452000D03*
X7517000Y463000D03*
X7705000Y492000D03*
X7770500Y1812500D03*
X7262500Y1800500D03*
X7389500Y1806500D03*
X7897500Y1821500D03*
X7516500Y1808500D03*
X7262500Y6207500D03*
X7770500Y6191500D03*
X7897500Y6186500D03*
X7516500Y6181500D03*
X7389500Y6189500D03*
X7705000Y7579000D03*
X7197000Y7587000D03*
X7451000Y7584000D03*
X7959000Y483000D03*
X8467000Y497000D03*
X8213000Y502000D03*
X8405500Y1836500D03*
X8532500Y1814500D03*
X8151500Y1809500D03*
X8024500Y1811500D03*
X8659500Y1836500D03*
X8278500Y1822500D03*
X8151500Y6190500D03*
X8024500Y6177500D03*
X8405500Y6189500D03*
X8532500Y6188500D03*
X8278500Y6199500D03*
X8659500Y6179500D03*
X7959000Y7591000D03*
X8213000Y7585000D03*
X8467000Y7577000D03*
X8721000Y485000D03*
X8975000Y493000D03*
X9229000Y478000D03*
X8786500Y1831500D03*
X9167500Y1816500D03*
X9421500Y1814500D03*
X9294500Y1829500D03*
X9040500Y1812500D03*
X8786500Y6173500D03*
X9167500Y6196500D03*
X9294500Y6189500D03*
X9040500Y6185500D03*
X9421500Y6196500D03*
X8721000Y7587000D03*
X8975000Y7563000D03*
X9229000Y7566000D03*
X9483000Y475000D03*
X9991000Y470000D03*
X9737000Y466000D03*
X10056500Y1805500D03*
X9548500Y1810500D03*
X9802500Y1817500D03*
X9929500Y1819500D03*
X9675500Y1807500D03*
X9802500Y6197500D03*
X9548500Y6194500D03*
X10056500Y6205500D03*
X9929500Y6203500D03*
X9675500Y6191500D03*
X9737000Y7578000D03*
X9965000Y7576000D03*
X9483000Y7573000D03*
X10753000Y476000D03*
X10245000Y481000D03*
X10499000Y483000D03*
X10310500Y1809500D03*
X10818500Y1814500D03*
X10437500Y1807500D03*
X10691500Y1805500D03*
X10564500Y1803500D03*
X10691500Y6207500D03*
X10818500Y6214500D03*
X10310500Y6197500D03*
X10437500Y6200500D03*
X10564500Y6206500D03*
X10753000Y7578000D03*
X10245000Y7587000D03*
X10499000Y7574000D03*
X11007000Y472000D03*
X11261000Y475000D03*
X11515000Y472000D03*
X11072500Y1819500D03*
X10945500Y1813500D03*
Y6215500D03*
X11072500Y6210500D03*
X11515000Y7586000D03*
X11261000Y7597000D03*
X11007000Y7588000D03*
X12068000Y479000D03*
X11814000Y474000D03*
X12322000Y481000D03*
X11814000Y7585000D03*
X12068000Y7573000D03*
X12322000Y7592000D03*
X12830000Y493000D03*
X12576000Y471000D03*
X12786000Y2378000D03*
X12830000Y7595000D03*
X12576000Y7589000D03*
X13084000Y7593000D03*
X13755000Y3989000D03*
X13338000Y7581000D03*
G54D12*
X2371000Y6896000D03*
Y7585000D03*
X7923000Y2852000D03*
X11326500Y2011500D03*
X11583000Y2846000D03*
X11302000Y5573000D03*
X12370500Y1843500D03*
X11938000Y2663000D03*
X12370500Y6120500D03*
X13121000Y1146000D03*
X12811000Y3945000D03*
X12675000Y4952000D03*
X13825000Y574000D03*
X14037000Y7453000D03*
G54D21*
X13870000Y3989000D03*
X13873000Y4382000D03*
X14464000Y3989000D03*
X14304000D03*
X14030000D03*
X14033000Y4382000D03*
X14463000D03*
X14303000D03*
G54D13*
X3334000Y1840000D03*
Y1586000D03*
X3080000D03*
Y1840000D03*
X3334000Y2602000D03*
Y2348000D03*
Y2094000D03*
X3080000D03*
Y2348000D03*
Y2602000D03*
X3334000Y3364000D03*
Y3110000D03*
Y2856000D03*
X3080000D03*
Y3110000D03*
Y3364000D03*
X3334000Y4126000D03*
Y3872000D03*
Y3618000D03*
X3080000D03*
Y3872000D03*
Y4126000D03*
X3334000Y4888000D03*
Y4634000D03*
Y4380000D03*
X3080000D03*
Y4634000D03*
Y4888000D03*
X3334000Y5650000D03*
Y5396000D03*
Y5142000D03*
X3080000D03*
Y5396000D03*
Y5650000D03*
X3334000Y6412000D03*
Y6158000D03*
Y5904000D03*
X3080000D03*
Y6158000D03*
Y6412000D03*
G54D22*
X13484000Y4855000D03*
Y5255000D03*
G54D23*
G01X3080000Y6412000D02*
X2404900D01*
X1958300Y7464000D01*
X2250000D01*
X2371000Y7585000D01*
G01Y6896000D02*
X2850000D01*
X3334000Y6412000D01*
G01X2371000Y7585000D02*
X2616000Y7830000D01*
X13660000D01*
X14037000Y7453000D01*
G01X5103500Y6638000D02*
X3560000D01*
X3334000Y6412000D01*
G01X5103500Y1399000D02*
Y1630000D01*
G01Y1190000D02*
Y1399000D01*
G01X6390000Y1406000D02*
X5248200D01*
X5241200Y1399000D01*
X5103500D01*
G01Y6390000D02*
Y6638000D01*
G01X6373500Y6602000D02*
X5198000D01*
X5162000Y6638000D01*
X5103500D01*
G01Y6830000D02*
Y6638000D01*
G01X6373500Y1401500D02*
X6390000D01*
Y1406000D01*
G01X6373500Y1630000D02*
Y1401500D01*
G01Y1190000D02*
Y1401500D01*
G01X7643500Y1406000D02*
X6390000D01*
G01X6373500Y6390000D02*
Y6602000D01*
G01Y6830000D02*
Y6602000D01*
G01D02*
X7643500D01*
G01Y1406000D02*
X8768000D01*
X8776300Y1397700D01*
X8913500D01*
G01X7643500Y1190000D02*
Y1406000D01*
G01Y1630000D02*
Y1406000D01*
G01Y6390000D02*
Y6602000D01*
G01Y6830000D02*
Y6602000D01*
G01D02*
X8913500D01*
G01Y1397700D02*
Y1190000D01*
G01X10183500Y1401000D02*
X9124000D01*
X9120700Y1397700D01*
X8913500D01*
G01Y1630000D02*
Y1397700D01*
G01Y6390000D02*
Y6602000D01*
G01D02*
X10183500D01*
G01X8913500Y6830000D02*
Y6602000D01*
G01X10183500Y1401000D02*
X11353800D01*
X11938000Y1985200D01*
Y2663000D01*
G01X10183500Y1630000D02*
Y1401000D01*
G01Y1190000D02*
Y1401000D01*
G01Y6390000D02*
Y6602000D01*
G01Y6830000D02*
Y6602000D01*
G01X12370500Y1843500D02*
X11717000Y1190000D01*
X11326500D01*
G01X11199500D02*
X11326500D01*
G01X11199500Y1630000D02*
X11326500D01*
G01Y2011500D02*
Y1630000D01*
G01X11583000Y2846000D02*
X11712000D01*
X12811000Y3945000D01*
G01X11302000Y5573000D02*
X12603300D01*
X13321300Y4855000D01*
X13484000D01*
G01X11326500Y6390000D02*
Y6830000D01*
G01X11199500Y6390000D02*
X11326500D01*
G01X12370500Y6120500D02*
X11445520D01*
X11326500Y6239520D01*
Y6390000D01*
G01X11199500D02*
Y6830000D01*
G01D02*
X11326500D01*
G01X12364000Y2706000D02*
Y2663000D01*
G01D02*
X11938000D01*
G01X12552000Y2661000D02*
X12366000D01*
X12364000Y2663000D01*
G01X13121000Y1146000D02*
Y1970000D01*
G01X13123010Y2608000D02*
X12839000D01*
X12786000Y2661000D01*
G01Y2378000D02*
X12866490Y2458490D01*
Y2590510D01*
X12796000Y2661000D01*
X12786000D01*
G01X13121000Y1970000D02*
Y2503920D01*
X13123010Y2505930D01*
Y2608000D01*
G01Y3243000D02*
X13462000D01*
G01X13123010Y2989000D02*
X13947240D01*
G01X13123010Y3370000D02*
Y3472070D01*
X13122000Y3473080D01*
Y3908000D01*
G01X13484000Y4855000D02*
Y4320000D01*
X13122000Y3958000D01*
G01D02*
Y3908000D01*
G01X12811000Y3945000D02*
X12885600Y4019600D01*
X13060400D01*
X13122000Y3958000D01*
G01X13781000Y1970000D02*
Y1980000D01*
X13947240Y2146240D01*
Y2989000D01*
G01D02*
X13693240Y3243000D01*
X13462000D01*
G01D02*
Y3908000D01*
G01X14464000Y3989000D02*
Y3979000D01*
X14534490Y3908510D01*
Y3576250D01*
X13947240Y2989000D01*
G01X13936000Y5253000D02*
X13803510Y5385490D01*
X13614490D01*
X13484000Y5255000D01*
G01X14304000Y3989000D02*
X14030000D01*
G01X14181000Y6071000D02*
X14343980Y5908020D01*
Y5410980D01*
X14186000Y5253000D01*
X13936000Y4653000D03*
Y5253000D03*
X14186000Y4653000D03*
X14436000D03*
Y5253000D03*
X14186000D03*
G54D14*
X5611500Y1190000D03*
X5484500D03*
X5357500D03*
X5230500D03*
X5103500D03*
Y1630000D03*
X5230500D03*
X5357500D03*
X5484500D03*
X5611500D03*
Y6390000D03*
X5484500D03*
X5357500D03*
X5230500D03*
X5103500D03*
Y6830000D03*
X5230500D03*
X5357500D03*
X5484500D03*
X5611500D03*
X6373500Y1190000D03*
X6246500D03*
X6119500D03*
X5992500D03*
X5865500D03*
X5738500D03*
Y1630000D03*
X5865500D03*
X5992500D03*
X6119500D03*
X6246500D03*
X6373500D03*
Y6390000D03*
X6246500D03*
X6119500D03*
X5992500D03*
X5865500D03*
X5738500D03*
Y6830000D03*
X5865500D03*
X5992500D03*
X6119500D03*
X6246500D03*
X6373500D03*
X7135500Y1190000D03*
X7008500D03*
X6881500D03*
X6754500D03*
X6627500D03*
X6500500D03*
Y1630000D03*
X6627500D03*
X6754500D03*
X6881500D03*
X7008500D03*
X7135500D03*
Y6390000D03*
X7008500D03*
X6881500D03*
X6754500D03*
X6627500D03*
X6500500D03*
Y6830000D03*
X6627500D03*
X6754500D03*
X6881500D03*
X7008500D03*
X7135500D03*
X7897500Y1190000D03*
X7770500D03*
X7643500D03*
X7516500D03*
X7389500D03*
X7262500D03*
Y1630000D03*
X7389500D03*
X7516500D03*
X7643500D03*
X7770500D03*
X7897500D03*
Y6390000D03*
X7770500D03*
X7643500D03*
X7516500D03*
X7389500D03*
X7262500D03*
Y6830000D03*
X7389500D03*
X7516500D03*
X7643500D03*
X7770500D03*
X7897500D03*
X8659500Y1190000D03*
X8532500D03*
X8405500D03*
X8278500D03*
X8151500D03*
X8024500D03*
Y1630000D03*
X8151500D03*
X8278500D03*
X8405500D03*
X8532500D03*
X8659500D03*
Y6390000D03*
X8532500D03*
X8405500D03*
X8278500D03*
X8151500D03*
X8024500D03*
Y6830000D03*
X8151500D03*
X8278500D03*
X8405500D03*
X8532500D03*
X8659500D03*
X9421500Y1190000D03*
X9294500D03*
X9167500D03*
X9040500D03*
X8913500D03*
X8786500D03*
Y1630000D03*
X8913500D03*
X9040500D03*
X9167500D03*
X9294500D03*
X9421500D03*
Y6390000D03*
X9294500D03*
X9167500D03*
X9040500D03*
X8913500D03*
X8786500D03*
Y6830000D03*
X8913500D03*
X9040500D03*
X9167500D03*
X9294500D03*
X9421500D03*
X10183500Y1190000D03*
X10056500D03*
X9929500D03*
X9802500D03*
X9675500D03*
X9548500D03*
Y1630000D03*
X9675500D03*
X9802500D03*
X9929500D03*
X10056500D03*
X10183500D03*
Y6390000D03*
X10056500D03*
X9929500D03*
X9802500D03*
X9675500D03*
X9548500D03*
Y6830000D03*
X9675500D03*
X9802500D03*
X9929500D03*
X10056500D03*
X10183500D03*
X10945500Y1190000D03*
X10818500D03*
X10691500D03*
X10564500D03*
X10437500D03*
X10310500D03*
Y1630000D03*
X10437500D03*
X10564500D03*
X10691500D03*
X10818500D03*
X10945500D03*
Y6390000D03*
X10818500D03*
X10691500D03*
X10564500D03*
X10437500D03*
X10310500D03*
Y6830000D03*
X10437500D03*
X10564500D03*
X10691500D03*
X10818500D03*
X10945500D03*
X11326500Y1190000D03*
X11199500D03*
X11072500D03*
Y1630000D03*
X11199500D03*
X11326500D03*
Y6390000D03*
X11199500D03*
X11072500D03*
Y6830000D03*
X11199500D03*
X11326500D03*
G54D24*
X13561000Y6071000D03*
X13871000Y6541000D03*
X14181000Y6071000D03*
G54D15*
X7432000Y2924000D03*
Y2974000D03*
Y3024000D03*
Y3074000D03*
Y3124000D03*
Y3174000D03*
Y3224000D03*
Y3274000D03*
Y3324000D03*
Y3374000D03*
Y3424000D03*
Y3474000D03*
Y3524000D03*
Y3574000D03*
Y3624000D03*
Y3674000D03*
Y3724000D03*
Y3774000D03*
Y3824000D03*
Y3874000D03*
Y3924000D03*
Y3974000D03*
Y4024000D03*
Y4074000D03*
Y4124000D03*
Y4174000D03*
Y4224000D03*
Y4274000D03*
Y4324000D03*
Y4374000D03*
Y4424000D03*
Y4474000D03*
Y4524000D03*
Y4574000D03*
Y4624000D03*
Y4674000D03*
Y4724000D03*
Y4774000D03*
Y4824000D03*
Y4874000D03*
G54D25*
G01X5357500Y1190000D02*
Y1107000D01*
X5235500Y985000D01*
X2836000D01*
X2371000Y520000D01*
G01X5484500Y1190000D02*
Y1107000D01*
X5312500Y935000D01*
X3048000D01*
X2602000Y489000D01*
G01X5230500Y6830000D02*
Y6913000D01*
X5158500Y6985000D01*
X3214000D01*
X2617000Y7582000D01*
G01X5738500Y1190000D02*
Y1107000D01*
X5466500Y835000D01*
X3491000D01*
X3133000Y477000D01*
G01X5865500Y1190000D02*
Y1107000D01*
X5543500Y785000D01*
X3687000D01*
X3387000Y485000D01*
G01X5611500Y1190000D02*
Y1107000D01*
X5389500Y885000D01*
X3257000D01*
X2867000Y495000D01*
G01X3080000Y1586000D02*
X3205000Y1711000D01*
X4978000D01*
X5052000Y1785000D01*
X5158500D01*
X5230500Y1713000D01*
Y1630000D01*
G01X3334000Y1586000D02*
X3885000Y1035000D01*
X5158500D01*
X5230500Y1107000D01*
Y1190000D01*
G01X5357500Y6830000D02*
Y6913000D01*
X5235500Y7035000D01*
X3449000D01*
X2879000Y7605000D01*
G01X5484500Y6830000D02*
Y6913000D01*
X5312500Y7085000D01*
X3641000D01*
X3133000Y7593000D01*
G01X5611500Y6830000D02*
Y6913000D01*
X5389500Y7135000D01*
X3868000D01*
X3387000Y7616000D01*
G01X6119500Y1190000D02*
Y1107000D01*
X5697500Y685000D01*
X4096000D01*
X3895000Y484000D01*
G01X6246500Y1190000D02*
Y1107000D01*
X5774500Y635000D01*
X4308000D01*
X4149000Y476000D01*
G01X5992500Y1190000D02*
Y1107000D01*
X5620500Y735000D01*
X3892000D01*
X3641000Y484000D01*
G01X5738500Y6830000D02*
Y6913000D01*
X5462500Y7189000D01*
X4058000D01*
X3641000Y7606000D01*
G01X5992500Y6830000D02*
Y6913000D01*
X5611500Y7294000D01*
X4457000D01*
X4149000Y7602000D01*
G01X5865500Y6830000D02*
Y6913000D01*
X5539500Y7239000D01*
X4255000D01*
X3895000Y7599000D01*
G01X6627500Y1190000D02*
Y1110500D01*
X6552000Y1035000D01*
X6495720D01*
X5995720Y535000D01*
X4711000D01*
X4657000Y481000D01*
G01X6500500Y1190000D02*
Y1110500D01*
X5975000Y585000D01*
X4500000D01*
X4403000Y488000D01*
G01X6754500Y1190000D02*
Y1110500D01*
X6679000Y1035000D01*
X6622720D01*
X6072720Y485000D01*
X4900000D01*
X4798000Y383000D01*
G01X6119500Y6830000D02*
Y6913000D01*
X5688500Y7344000D01*
X4660000D01*
X4403000Y7601000D01*
G01X6246500Y6830000D02*
Y6913000D01*
X5763500Y7396000D01*
X4866000D01*
X4657000Y7605000D01*
G01X6881500Y1190000D02*
Y1110500D01*
X6806000Y1035000D01*
X6749720D01*
X6149720Y435000D01*
X5125700D01*
X5037000Y346300D01*
G01X5484500Y1630000D02*
Y1820500D01*
G01X5611500Y1630000D02*
Y1817500D01*
G01X5357500Y1630000D02*
Y1817500D01*
G01X5230500Y6390000D02*
Y6188500D01*
G01X5484500Y6390000D02*
Y6194500D01*
G01X5611500Y6390000D02*
Y6191500D01*
G01X5357500Y6390000D02*
Y6183500D01*
G01X6754500Y6830000D02*
Y6909500D01*
X6679000Y6985000D01*
X6622720D01*
X6053720Y7554000D01*
X5467000D01*
X5419000Y7602000D01*
G01X6500500Y6830000D02*
Y6909500D01*
X5963000Y7447000D01*
X5070000D01*
X4911000Y7606000D01*
G01X6881500Y6830000D02*
Y6909500D01*
X6806000Y6985000D01*
X6749720D01*
X6099720Y7635000D01*
X5560000D01*
G01X6627500Y6830000D02*
Y6909500D01*
X6552000Y6985000D01*
X6495720D01*
X5977720Y7503000D01*
X5260000D01*
X5165000Y7598000D01*
G01X7389500Y1190000D02*
Y1110500D01*
X7314000Y1035000D01*
X7257720D01*
X6541720Y319000D01*
X6284180D01*
G01X7135500Y1190000D02*
X7080500Y1135000D01*
Y1055500D01*
X7060000Y1035000D01*
X7012610D01*
X6469130Y491520D01*
X6284520D01*
X6099000Y306000D01*
X5771000D01*
G01X5865500Y1630000D02*
Y1810500D01*
G01X5738500Y1630000D02*
Y1817500D01*
G01X6246500Y1630000D02*
Y1812500D01*
G01X6119500Y1630000D02*
Y1803500D01*
G01X5992500Y1630000D02*
Y1805500D01*
G01X5738500Y6390000D02*
Y6184500D01*
G01X6246500Y6390000D02*
Y6197500D01*
G01X6119500Y6390000D02*
Y6198500D01*
G01X5865500Y6390000D02*
Y6183500D01*
G01X5992500Y6390000D02*
Y6197500D01*
G01X7008500Y6830000D02*
Y6909500D01*
X6933000Y6985000D01*
X6887000D01*
X6298000Y7574000D01*
G01X7897500Y1190000D02*
Y1110500D01*
X7822000Y1035000D01*
X7778000D01*
X7049000Y306000D01*
G01X7262500Y1190000D02*
Y1110500D01*
X6753000Y601000D01*
X6696000D01*
G01X7008500Y1190000D02*
Y1107000D01*
X6487500Y586000D01*
X6440000D01*
G01X7770500Y1190000D02*
Y1107000D01*
X7243500Y580000D01*
X7074000D01*
G01X7516500Y1190000D02*
Y1107000D01*
X7394500Y985000D01*
X7320000D01*
X6904000Y569000D01*
G01X6627500Y1630000D02*
Y1816500D01*
X6625000Y1819000D01*
G01X7008500Y1630000D02*
Y1811500D01*
G01X6754500Y1630000D02*
Y1801500D01*
G01X6500500Y1630000D02*
Y1812500D01*
G01X6881500Y1630000D02*
Y1809500D01*
G01X7135500Y1630000D02*
Y1806500D01*
G01X6754500Y6390000D02*
Y6213500D01*
G01X6500500Y6390000D02*
Y6201500D01*
G01X7008500Y6390000D02*
Y6204500D01*
G01X7135500Y6390000D02*
Y6219500D01*
G01X6627500Y6390000D02*
Y6214500D01*
G01X6881500Y6390000D02*
Y6210500D01*
G01X7262500Y6830000D02*
Y6929500D01*
X6551590Y7640410D01*
G01X7389500Y6830000D02*
Y6980480D01*
X7384980Y6985000D01*
X7300000D01*
X6711000Y7574000D01*
G01X7135500Y6830000D02*
Y6980480D01*
X7130980Y6985000D01*
X7009000D01*
X6446000Y7548000D01*
G01X7516500Y6830000D02*
Y6997500D01*
X6943000Y7571000D01*
G01X8024500Y1190000D02*
Y1107000D01*
X7902500Y985000D01*
X7831000D01*
X7298000Y452000D01*
G01X8151500Y1190000D02*
Y1097500D01*
X7517000Y463000D01*
G01X8278500Y1190000D02*
Y1065500D01*
X7705000Y492000D01*
G01X7770500Y1630000D02*
Y1812500D01*
G01X7262500Y1630000D02*
Y1800500D01*
G01X7389500Y1630000D02*
Y1806500D01*
G01X7897500Y1630000D02*
Y1821500D01*
G01X7516500Y1630000D02*
Y1808500D01*
G01X7262500Y6390000D02*
Y6207500D01*
G01X7770500Y6390000D02*
Y6191500D01*
G01X7897500Y6390000D02*
Y6186500D01*
G01X7516500Y6390000D02*
Y6181500D01*
G01X7389500Y6390000D02*
Y6189500D01*
G01X7770500Y6830000D02*
Y7013500D01*
X7197000Y7587000D01*
G01X7897500Y6830000D02*
Y7137500D01*
X7451000Y7584000D01*
G01X8024500Y6830000D02*
Y7259500D01*
X7705000Y7579000D01*
G01X8405500Y1190000D02*
Y929500D01*
X7959000Y483000D01*
G01X8659500Y1190000D02*
Y689500D01*
X8467000Y497000D01*
G01X8532500Y1190000D02*
Y821500D01*
X8213000Y502000D01*
G01X8405500Y1630000D02*
Y1836500D01*
G01X8532500Y1630000D02*
Y1814500D01*
G01X8151500Y1630000D02*
Y1809500D01*
G01X8024500Y1630000D02*
Y1811500D01*
G01X8659500Y1630000D02*
Y1836500D01*
G01X8278500Y1630000D02*
Y1822500D01*
G01X8151500Y6390000D02*
Y6190500D01*
G01X8024500Y6390000D02*
Y6177500D01*
G01X8405500Y6390000D02*
Y6189500D01*
G01X8532500Y6390000D02*
Y6188500D01*
G01X8278500Y6390000D02*
Y6199500D01*
G01X8659500Y6390000D02*
Y6179500D01*
G01X8532500Y6830000D02*
Y7398500D01*
X8721000Y7587000D01*
G01X8151500Y6830000D02*
Y7398500D01*
X7959000Y7591000D01*
G01X8278500Y6830000D02*
Y7519500D01*
X8213000Y7585000D01*
G01X8405500Y6830000D02*
Y7515500D01*
X8467000Y7577000D01*
G01X8659500Y6830000D02*
Y7247500D01*
X8975000Y7563000D01*
G01X9294500Y1190000D02*
Y663500D01*
X9483000Y475000D01*
G01X8786500Y1190000D02*
Y550500D01*
X8721000Y485000D01*
G01X9040500Y1190000D02*
Y558500D01*
X8975000Y493000D01*
G01X9421500Y1190000D02*
Y781500D01*
X9737000Y466000D01*
G01X9167500Y1190000D02*
Y539500D01*
X9229000Y478000D01*
G01X8786500Y1630000D02*
Y1831500D01*
G01X9167500Y1630000D02*
Y1816500D01*
G01X9421500Y1630000D02*
Y1814500D01*
G01X9294500Y1630000D02*
Y1829500D01*
G01X9040500Y1630000D02*
Y1812500D01*
G01X8786500Y6390000D02*
Y6173500D01*
G01X9167500Y6390000D02*
Y6196500D01*
G01X9294500Y6390000D02*
Y6189500D01*
G01X9040500Y6390000D02*
Y6185500D01*
G01X9421500Y6390000D02*
Y6196500D01*
G01Y6830000D02*
Y6979380D01*
X9952640Y7510520D01*
X10168520D01*
X10245000Y7587000D01*
G01X9167500Y6830000D02*
Y6913000D01*
X9244500Y6990000D01*
Y7085500D01*
X9737000Y7578000D01*
G01X9294500Y6830000D02*
Y6966460D01*
X9904040Y7576000D01*
X9965000D01*
G01X9040500Y6830000D02*
Y7130500D01*
X9483000Y7573000D01*
G01X8786500Y6830000D02*
Y7123500D01*
X9229000Y7566000D01*
G01X9929500Y1190000D02*
Y1018380D01*
X10399400Y548480D01*
X10526130D01*
X10598610Y476000D01*
X10753000D01*
G01X9548500Y1190000D02*
Y912500D01*
X9991000Y470000D01*
G01X9675500Y1190000D02*
Y1050500D01*
X10245000Y481000D01*
G01X10056500Y1190000D02*
Y1107000D01*
X10622020Y541480D01*
X10780130D01*
X10849610Y472000D01*
X11007000D01*
G01X9802500Y1190000D02*
Y1016400D01*
X10335900Y483000D01*
X10499000D01*
G01X10056500Y1630000D02*
Y1805500D01*
G01X9548500Y1630000D02*
Y1810500D01*
G01X9802500Y1630000D02*
Y1817500D01*
G01X9929500Y1630000D02*
Y1819500D01*
G01X9675500Y1630000D02*
Y1807500D01*
G01X9802500Y6390000D02*
Y6197500D01*
G01X9548500Y6390000D02*
Y6194500D01*
G01X10056500Y6390000D02*
Y6205500D01*
G01X9929500Y6390000D02*
Y6203500D01*
G01X9675500Y6390000D02*
Y6191500D01*
G01Y6830000D02*
Y7004120D01*
X10081900Y7410520D01*
X10276620D01*
X10292100Y7426000D01*
X10601000D01*
X10753000Y7578000D01*
G01X10056500Y6830000D02*
Y6913000D01*
X10419500Y7276000D01*
X10739720D01*
X10936240Y7472520D01*
X11054850D01*
X11113850Y7531520D01*
X11460520D01*
X11515000Y7586000D01*
G01X9929500Y6830000D02*
Y6913000D01*
X10342500Y7326000D01*
X10719000D01*
X10915520Y7522520D01*
X11034130D01*
X11108610Y7597000D01*
X11261000D01*
G01X9802500Y6830000D02*
Y7004920D01*
X10158100Y7360520D01*
X10297340D01*
X10312820Y7376000D01*
X10698280D01*
X10910280Y7588000D01*
X11007000D01*
G01X9548500Y6830000D02*
Y7003320D01*
X10005700Y7460520D01*
X10211130D01*
X10324610Y7574000D01*
X10499000D01*
G01X10310500Y1190000D02*
Y1081830D01*
X10854850Y537480D01*
X11034130D01*
X11096610Y475000D01*
X11261000D01*
G01X10437500Y1190000D02*
Y1025550D01*
X10875570Y587480D01*
X11054850D01*
X11101850Y540480D01*
X11288130D01*
X11356610Y472000D01*
X11515000D01*
G01X10691500Y1190000D02*
Y1092270D01*
X11143290Y640480D01*
X11906520D01*
X12068000Y479000D01*
G01X10564500Y1190000D02*
Y1018480D01*
X10945500Y637480D01*
X11075570D01*
X11122570Y590480D01*
X11308850D01*
X11361850Y537480D01*
X11542130D01*
X11605610Y474000D01*
X11814000D01*
G01X10818500Y1190000D02*
Y1035990D01*
X11164010Y690480D01*
X12112520D01*
X12322000Y481000D01*
G01X10310500Y1630000D02*
Y1809500D01*
G01X10818500Y1630000D02*
Y1814500D01*
G01X10437500Y1630000D02*
Y1807500D01*
G01X10691500Y1630000D02*
Y1805500D01*
G01X10564500Y1630000D02*
Y1803500D01*
G01X10691500Y6390000D02*
Y6207500D01*
G01X10818500Y6390000D02*
Y6214500D01*
G01X10310500Y6390000D02*
Y6197500D01*
G01X10437500Y6390000D02*
Y6200500D01*
G01X10564500Y6390000D02*
Y6206500D01*
G01X10818500Y6830000D02*
Y6913000D01*
X11128020Y7222520D01*
X11158450D01*
X11206930Y7271000D01*
X12506000D01*
X12830000Y7595000D01*
G01X10310500Y6830000D02*
Y6997400D01*
X10539100Y7226000D01*
X10760440D01*
X10956960Y7422520D01*
X11075570D01*
X11134570Y7481520D01*
X11710520D01*
X11814000Y7585000D01*
G01X10691500Y6830000D02*
Y6913000D01*
X11051020Y7272520D01*
X11137730D01*
X11196730Y7331520D01*
X12318520D01*
X12576000Y7589000D01*
G01X10437500Y6830000D02*
Y6990700D01*
X10622800Y7176000D01*
X10781160D01*
X10977680Y7372520D01*
X11096290D01*
X11155290Y7431520D01*
X11926520D01*
X12068000Y7573000D01*
G01X10564500Y6830000D02*
X10586000Y6851500D01*
Y6994730D01*
X10717270Y7126000D01*
X10801880D01*
X10998400Y7322520D01*
X11117010D01*
X11176010Y7381520D01*
X11997360D01*
X12207840Y7592000D01*
X12322000D01*
G01X11072500Y1190000D02*
Y1107000D01*
X11144500Y1035000D01*
X11931330D01*
X12429850Y536480D01*
X12786520D01*
X12830000Y493000D01*
G01X10945500Y1190000D02*
Y1019880D01*
X11224900Y740480D01*
X12155130D01*
X12424610Y471000D01*
X12576000D01*
G01X11072500Y1630000D02*
Y1819500D01*
G01X10945500Y1630000D02*
Y1813500D01*
G01Y6390000D02*
Y6215500D01*
G01X11072500Y6390000D02*
Y6210500D01*
G01Y6830000D02*
Y6913000D01*
X11330500Y7171000D01*
X12928000D01*
X13338000Y7581000D01*
G01X10945500Y6830000D02*
Y6913000D01*
X11253500Y7221000D01*
X12712000D01*
X13084000Y7593000D01*
G54D16*
X13121000Y1970000D03*
X13781000D03*
G54D26*
G01X7432000Y3174000D02*
X7061600D01*
X5989600Y2102000D01*
X5881000D01*
X5750500Y1971500D01*
X3211500D01*
X3080000Y1840000D01*
G01X7432000Y3424000D02*
X6546000D01*
X5724000Y2602000D01*
X3334000D01*
G01X7432000Y3324000D02*
X6725000D01*
X5749000Y2348000D01*
X3334000D01*
G01X7432000Y3224000D02*
X6921000D01*
X5791000Y2094000D01*
X3334000D01*
G01X7432000Y3624000D02*
X6167000D01*
X5653000Y3110000D01*
X3334000D01*
G01X7432000Y3724000D02*
X5972000D01*
X5612000Y3364000D01*
X3334000D01*
G01X7432000Y3524000D02*
X6358000D01*
X5690000Y2856000D01*
X3334000D01*
G01X7432000Y3924000D02*
X5525000D01*
X5473000Y3872000D01*
X3334000D01*
G01X7432000Y3824000D02*
X5746000D01*
X5540000Y3618000D01*
X3334000D01*
G01X7432000Y4024000D02*
X5581000D01*
X5479000Y4126000D01*
X3334000D01*
G01X7432000Y4124000D02*
X5753000D01*
X5497000Y4380000D01*
X3334000D01*
G01X7432000Y4324000D02*
X6034000D01*
X5470000Y4888000D01*
X3334000D01*
G01X7432000Y4224000D02*
X5895000D01*
X5485000Y4634000D01*
X3334000D01*
G01X7432000Y4424000D02*
X6180000D01*
X5462000Y5142000D01*
X3334000D01*
G01X7432000Y4624000D02*
X6464000D01*
X5438000Y5650000D01*
X3334000D01*
G01X7432000Y4524000D02*
X6319000D01*
X5447000Y5396000D01*
X3334000D01*
G01X7432000Y4824000D02*
X6766000D01*
X5501000Y6089000D01*
X3523480D01*
X3454480Y6158000D01*
X3334000D01*
G01X7432000Y4724000D02*
X6621000D01*
X5441000Y5904000D01*
X3334000D01*
G01X7432000Y3674000D02*
X6088000D01*
X5618000Y3204000D01*
G01X7432000Y3574000D02*
X6264000D01*
X5648000Y2958000D01*
G01X7432000Y4074000D02*
X5637000D01*
X5497000Y4214000D01*
G01X7432000Y3974000D02*
X5446000D01*
X5445000Y3975000D01*
G01X7432000Y3874000D02*
X5660000D01*
X5512000Y3726000D01*
G01X7432000Y3774000D02*
X5875000D01*
X5588000Y3487000D01*
G01X7432000Y4174000D02*
X5798000D01*
X5489000Y4483000D01*
G01X7432000Y4374000D02*
X6082000D01*
X5478000Y4978000D01*
G01X7432000Y4274000D02*
X5944000D01*
X5493000Y4725000D01*
G01X7432000Y4474000D02*
X6248000D01*
X5467000Y5255000D01*
G01X7432000Y4574000D02*
X6382000D01*
X5459000Y5497000D01*
G01X7432000Y4674000D02*
X6528000D01*
X5440000Y5762000D01*
G01X7432000Y4774000D02*
X6666000D01*
X5444000Y5996000D01*
G01X7432000Y3374000D02*
X6640000D01*
X5720000Y2454000D01*
G01X7432000Y3274000D02*
X6850000D01*
X5777000Y2201000D01*
G01X7432000Y3124000D02*
X7141000D01*
X6116000Y2099000D01*
G01X7432000Y3474000D02*
X6448000D01*
X5682000Y2708000D01*
G01X7432000Y4874000D02*
X6874000D01*
X5889000Y5859000D01*
G01X7432000Y3074000D02*
Y3024000D01*
G01X11938000Y2663000D02*
X7398420D01*
X7190000Y2871420D01*
Y2987480D01*
X7226520Y3024000D01*
X7432000D01*
G01Y2974000D02*
Y2924000D01*
G01X7923000Y2852000D02*
X7456020D01*
X7432000Y2876020D01*
Y2924000D01*
G01X13870000Y3989000D02*
X13755000D01*
G54D17*
X12552000Y2661000D03*
X12786000D03*
X12552000Y2821000D03*
X12786000D03*
G54D27*
G01X13123010Y2989000D02*
X12516400D01*
X12364000Y2836600D01*
Y2706000D01*
G01X13123010Y2862000D02*
X12936960D01*
X12895960Y2821000D01*
X12786000D01*
G01X12552000D02*
X12786000D01*
G01X13825000Y574000D02*
X13921490Y670490D01*
Y1819510D01*
X13781000Y1960000D01*
Y1970000D01*
G01X13873000Y4382000D02*
Y4466000D01*
X13484000Y4855000D01*
G01X14463000Y4382000D02*
Y4279300D01*
X14464000Y4278300D01*
Y3989000D01*
G01X14303000Y4382000D02*
X14033000D01*
G54D18*
X13123010Y2608000D03*
Y2735000D03*
Y2862000D03*
Y2989000D03*
Y3116000D03*
Y3243000D03*
Y3370000D03*
G54D28*
G01X14037000Y7453000D02*
X12353000Y5769000D01*
X11222220D01*
X11033000Y5579780D01*
Y5485400D01*
X11566400Y4952000D01*
X12675000D01*
G54D19*
X13122000Y3908000D03*
X13462000D03*
G54D29*
G01X800000Y-600000D02*
Y8600000D01*
X15100000D01*
Y-600000D01*
X800000D01*
M02*
