G04 ================== begin FILE IDENTIFICATION RECORD ==================*
G04 Layout Name:  C:/Users/Sky/Desktop/Srtp/PCB/LED/PCB/LED_FIN.brd*
G04 Film Name:    SOLDERMASK_BOTTOM*
G04 File Format:  Gerber RS274X*
G04 File Origin:  Cadence Allegro 16.6-S003*
G04 Origin Date:  Wed Oct 16 12:41:46 2013*
G04 *
G04 Layer:  PIN/BOTTOM*
G04 Layer:  BOARD GEOMETRY/OUTLINE*
G04 Layer:  BOARD GEOMETRY/SOLDERMASK_BOTTOM*
G04 *
G04 Offset:    (0.0000 0.0000)*
G04 Mirror:    No*
G04 Mode:      Positive*
G04 Rotation:  0*
G04 FullContactRelief:  No*
G04 UndefLineWidth:     0.2000*
G04 ================== end FILE IDENTIFICATION RECORD ====================*
%FSLAX25Y25*MOMM*%
%IR0*IPPOS*OFA0.00000B0.00000*MIA0B0*SFA1.00000B1.00000*%
%ADD11C,.9*%
%ADD12C,.75*%
%ADD10C,1.5*%
%ADD13C,2.5*%
%ADD14C,3.*%
%ADD15C,.2*%
G75*
%LPD*%
G75*
G54D10*
X16560000Y44800000D03*
Y45250000D03*
X16580000Y45695000D03*
X16920000Y45050000D03*
Y45410000D03*
G54D11*
X18245000Y44495000D03*
Y44995000D03*
X18445000Y44495000D03*
Y44995000D03*
X18645000Y44495000D03*
Y44995000D03*
G54D12*
X23685000Y45162000D03*
Y45289000D03*
Y45416000D03*
Y45543000D03*
Y45670000D03*
Y45797000D03*
Y45924000D03*
Y46051000D03*
Y46178000D03*
Y46305000D03*
Y46432000D03*
Y46559000D03*
Y46686000D03*
Y46813000D03*
Y46940000D03*
Y47067000D03*
Y47194000D03*
Y47321000D03*
Y47448000D03*
Y47575000D03*
Y47702000D03*
Y47829000D03*
Y47956000D03*
Y48083000D03*
Y48210000D03*
Y48337000D03*
Y48464000D03*
Y48591000D03*
Y48718000D03*
Y48845000D03*
Y48972000D03*
Y49099000D03*
Y49226000D03*
Y49353000D03*
Y49480000D03*
Y49607000D03*
Y49734000D03*
Y49861000D03*
Y49988000D03*
Y50115000D03*
X23812000Y45162000D03*
Y45289000D03*
Y45416000D03*
Y45543000D03*
Y45670000D03*
Y45797000D03*
Y45924000D03*
Y46051000D03*
Y46178000D03*
Y46305000D03*
Y46432000D03*
Y46559000D03*
Y46686000D03*
Y46813000D03*
Y46940000D03*
Y47067000D03*
Y47194000D03*
Y47321000D03*
Y47448000D03*
Y47575000D03*
Y47702000D03*
Y47829000D03*
Y47956000D03*
Y48083000D03*
Y48210000D03*
Y48337000D03*
Y48464000D03*
Y48591000D03*
Y48718000D03*
Y48845000D03*
Y48972000D03*
Y49099000D03*
Y49226000D03*
Y49353000D03*
Y49480000D03*
Y49607000D03*
Y49734000D03*
Y49861000D03*
Y49988000D03*
Y50115000D03*
X24327000Y44825000D03*
Y44952000D03*
X24317000Y53823000D03*
Y53950000D03*
X24454000Y44825000D03*
Y44952000D03*
X24444000Y53823000D03*
Y53950000D03*
X24581000Y44825000D03*
X24708000D03*
X24581000Y44952000D03*
X24708000D03*
X24571000Y53823000D03*
X24698000D03*
X24571000Y53950000D03*
X24698000D03*
X24835000Y44825000D03*
X24962000D03*
X24835000Y44952000D03*
X24962000D03*
X24825000Y53823000D03*
X24952000D03*
X24825000Y53950000D03*
X24952000D03*
X25089000Y44825000D03*
Y44952000D03*
X25079000Y53823000D03*
X25206000D03*
X25079000Y53950000D03*
X25206000D03*
X25216000Y44825000D03*
X25343000D03*
X25216000Y44952000D03*
X25343000D03*
X25333000Y53823000D03*
Y53950000D03*
X25470000Y44825000D03*
X25597000D03*
X25470000Y44952000D03*
X25597000D03*
X25460000Y53823000D03*
X25587000D03*
X25460000Y53950000D03*
X25587000D03*
X25724000Y44825000D03*
Y44952000D03*
X25714000Y53823000D03*
X25841000D03*
X25714000Y53950000D03*
X25841000D03*
X25851000Y44825000D03*
X25978000D03*
X25851000Y44952000D03*
X25978000D03*
X25968000Y53823000D03*
Y53950000D03*
X26105000Y44825000D03*
X26232000D03*
X26105000Y44952000D03*
X26232000D03*
X26095000Y53823000D03*
X26222000D03*
X26095000Y53950000D03*
X26222000D03*
X26359000Y44825000D03*
X26486000D03*
X26359000Y44952000D03*
X26486000D03*
X26349000Y53823000D03*
X26476000D03*
X26349000Y53950000D03*
X26476000D03*
X26613000Y44825000D03*
Y44952000D03*
X26603000Y53823000D03*
Y53950000D03*
X26740000Y44825000D03*
X26867000D03*
X26740000Y44952000D03*
X26867000D03*
X26730000Y53823000D03*
X26857000D03*
X26730000Y53950000D03*
X26857000D03*
X26994000Y44825000D03*
X27121000D03*
X26994000Y44952000D03*
X27121000D03*
X26984000Y53823000D03*
X27111000D03*
X26984000Y53950000D03*
X27111000D03*
X27248000Y44825000D03*
Y44952000D03*
X27238000Y53823000D03*
Y53950000D03*
X27375000Y44825000D03*
X27502000D03*
X27375000Y44952000D03*
X27502000D03*
X27365000Y53823000D03*
X27492000D03*
X27365000Y53950000D03*
X27492000D03*
X27629000Y44825000D03*
X27756000D03*
X27629000Y44952000D03*
X27756000D03*
X27619000Y53823000D03*
X27746000D03*
X27619000Y53950000D03*
X27746000D03*
X27883000Y44825000D03*
Y44952000D03*
X27873000Y53823000D03*
Y53950000D03*
X28010000Y44825000D03*
X28137000D03*
X28010000Y44952000D03*
X28137000D03*
X28000000Y53823000D03*
X28127000D03*
X28000000Y53950000D03*
X28127000D03*
X28264000Y44825000D03*
X28391000D03*
X28264000Y44952000D03*
X28391000D03*
X28254000Y53823000D03*
X28381000D03*
X28254000Y53950000D03*
X28381000D03*
X28518000Y44825000D03*
Y44952000D03*
X28508000Y53823000D03*
Y53950000D03*
X28645000Y44825000D03*
X28772000D03*
X28645000Y44952000D03*
X28772000D03*
X28635000Y53823000D03*
X28762000D03*
X28635000Y53950000D03*
X28762000D03*
X28899000Y44825000D03*
X29026000D03*
X28899000Y44952000D03*
X29026000D03*
X28889000Y53823000D03*
X29016000D03*
X28889000Y53950000D03*
X29016000D03*
X29153000Y44825000D03*
Y44952000D03*
X29143000Y53823000D03*
Y53950000D03*
X29280000Y44825000D03*
Y44952000D03*
X29270000Y53823000D03*
Y53950000D03*
X29527000Y44825000D03*
X29654000D03*
X29527000Y44952000D03*
X29654000D03*
X29517000Y53823000D03*
X29644000D03*
X29517000Y53950000D03*
X29644000D03*
X29781000Y44825000D03*
Y44952000D03*
X29771000Y53823000D03*
X29898000D03*
X29771000Y53950000D03*
X29898000D03*
X29908000Y44825000D03*
X30035000D03*
X29908000Y44952000D03*
X30035000D03*
X30025000Y53823000D03*
Y53950000D03*
X30162000Y44825000D03*
X30289000D03*
X30162000Y44952000D03*
X30289000D03*
X30152000Y53823000D03*
X30279000D03*
X30152000Y53950000D03*
X30279000D03*
X30416000Y44825000D03*
Y44952000D03*
X30406000Y53823000D03*
X30533000D03*
X30406000Y53950000D03*
X30533000D03*
X30543000Y44825000D03*
X30670000D03*
X30543000Y44952000D03*
X30670000D03*
X30660000Y53823000D03*
Y53950000D03*
X30797000Y44825000D03*
X30924000D03*
X30797000Y44952000D03*
X30924000D03*
X30787000Y53823000D03*
X30914000D03*
X30787000Y53950000D03*
X30914000D03*
X31051000Y44825000D03*
X31178000D03*
X31051000Y44952000D03*
X31178000D03*
X31041000Y53823000D03*
X31168000D03*
X31041000Y53950000D03*
X31168000D03*
X31305000Y44825000D03*
Y44952000D03*
X31295000Y53823000D03*
Y53950000D03*
X31432000Y44825000D03*
X31559000D03*
X31432000Y44952000D03*
X31559000D03*
X31422000Y53823000D03*
X31549000D03*
X31422000Y53950000D03*
X31549000D03*
X31686000Y44825000D03*
X31813000D03*
X31686000Y44952000D03*
X31813000D03*
X31676000Y53823000D03*
X31803000D03*
X31676000Y53950000D03*
X31803000D03*
X31940000Y44825000D03*
Y44952000D03*
X31930000Y53823000D03*
Y53950000D03*
X32067000Y44825000D03*
X32194000D03*
X32067000Y44952000D03*
X32194000D03*
X32057000Y53823000D03*
X32184000D03*
X32057000Y53950000D03*
X32184000D03*
X32321000Y44825000D03*
X32448000D03*
X32321000Y44952000D03*
X32448000D03*
X32311000Y53823000D03*
X32438000D03*
X32311000Y53950000D03*
X32438000D03*
X32575000Y44825000D03*
Y44952000D03*
X32565000Y53823000D03*
Y53950000D03*
X32702000Y44825000D03*
X32829000D03*
X32702000Y44952000D03*
X32829000D03*
X32692000Y53823000D03*
X32819000D03*
X32692000Y53950000D03*
X32819000D03*
X32956000Y44825000D03*
X33083000D03*
X32956000Y44952000D03*
X33083000D03*
X32946000Y53823000D03*
X33073000D03*
X32946000Y53950000D03*
X33073000D03*
X33210000Y44825000D03*
Y44952000D03*
X33200000Y53823000D03*
Y53950000D03*
X33337000Y44825000D03*
X33464000D03*
X33337000Y44952000D03*
X33464000D03*
X33327000Y53823000D03*
X33454000D03*
X33327000Y53950000D03*
X33454000D03*
X33591000Y44825000D03*
X33718000D03*
X33591000Y44952000D03*
X33718000D03*
X33581000Y53823000D03*
X33708000D03*
X33581000Y53950000D03*
X33708000D03*
X33845000Y44825000D03*
Y44952000D03*
X33835000Y53823000D03*
Y53950000D03*
X33972000Y44825000D03*
X34099000D03*
X33972000Y44952000D03*
X34099000D03*
X33962000Y53823000D03*
X34089000D03*
X33962000Y53950000D03*
X34089000D03*
X34226000Y44825000D03*
X34353000D03*
X34226000Y44952000D03*
X34353000D03*
X34216000Y53823000D03*
X34343000D03*
X34216000Y53950000D03*
X34343000D03*
X34480000Y44825000D03*
Y44952000D03*
X34470000Y53823000D03*
Y53950000D03*
X34727000Y44825000D03*
Y44952000D03*
X34717000Y53823000D03*
Y53950000D03*
X34854000Y44825000D03*
X34981000D03*
X34854000Y44952000D03*
X34981000D03*
X34844000Y53823000D03*
X34971000D03*
X34844000Y53950000D03*
X34971000D03*
X35108000Y44825000D03*
X35235000D03*
X35108000Y44952000D03*
X35235000D03*
X35098000Y53823000D03*
X35225000D03*
X35098000Y53950000D03*
X35225000D03*
X35362000Y44825000D03*
Y44952000D03*
X35352000Y53823000D03*
Y53950000D03*
X35489000Y44825000D03*
X35616000D03*
X35489000Y44952000D03*
X35616000D03*
X35479000Y53823000D03*
X35606000D03*
X35479000Y53950000D03*
X35606000D03*
X35743000Y44825000D03*
X35870000D03*
X35743000Y44952000D03*
X35870000D03*
X35733000Y53823000D03*
X35860000D03*
X35733000Y53950000D03*
X35860000D03*
X35997000Y44825000D03*
Y44952000D03*
X35987000Y53823000D03*
Y53950000D03*
X36124000Y44825000D03*
X36251000D03*
X36124000Y44952000D03*
X36251000D03*
X36114000Y53823000D03*
X36241000D03*
X36114000Y53950000D03*
X36241000D03*
X36378000Y44825000D03*
X36505000D03*
X36378000Y44952000D03*
X36505000D03*
X36368000Y53823000D03*
X36495000D03*
X36368000Y53950000D03*
X36495000D03*
X36632000Y44825000D03*
Y44952000D03*
X36622000Y53823000D03*
Y53950000D03*
X36759000Y44825000D03*
X36886000D03*
X36759000Y44952000D03*
X36886000D03*
X36749000Y53823000D03*
X36876000D03*
X36749000Y53950000D03*
X36876000D03*
X37013000Y44825000D03*
X37140000D03*
X37013000Y44952000D03*
X37140000D03*
X37003000Y53823000D03*
X37130000D03*
X37003000Y53950000D03*
X37130000D03*
X37267000Y44825000D03*
Y44952000D03*
X37257000Y53823000D03*
Y53950000D03*
X37394000Y44825000D03*
X37521000D03*
X37394000Y44952000D03*
X37521000D03*
X37384000Y53823000D03*
X37511000D03*
X37384000Y53950000D03*
X37511000D03*
X37648000Y44825000D03*
X37775000D03*
X37648000Y44952000D03*
X37775000D03*
X37638000Y53823000D03*
X37765000D03*
X37638000Y53950000D03*
X37765000D03*
X37902000Y44825000D03*
Y44952000D03*
X37892000Y53823000D03*
Y53950000D03*
X38029000Y44825000D03*
X38156000D03*
X38029000Y44952000D03*
X38156000D03*
X38019000Y53823000D03*
X38146000D03*
X38019000Y53950000D03*
X38146000D03*
X38283000Y44825000D03*
X38410000D03*
X38283000Y44952000D03*
X38410000D03*
X38273000Y53823000D03*
X38400000D03*
X38273000Y53950000D03*
X38400000D03*
X38537000Y44825000D03*
Y44952000D03*
X38527000Y53823000D03*
Y53950000D03*
X38664000Y44825000D03*
X38791000D03*
X38664000Y44952000D03*
X38791000D03*
X38654000Y53823000D03*
X38781000D03*
X38654000Y53950000D03*
X38781000D03*
X38918000Y44825000D03*
X39045000D03*
X38918000Y44952000D03*
X39045000D03*
X38908000Y53823000D03*
X39035000D03*
X38908000Y53950000D03*
X39035000D03*
X39172000Y44825000D03*
Y44952000D03*
X39162000Y53823000D03*
Y53950000D03*
X39299000Y44825000D03*
X39426000D03*
X39299000Y44952000D03*
X39426000D03*
X39289000Y53823000D03*
X39416000D03*
X39289000Y53950000D03*
X39416000D03*
X39553000Y44825000D03*
X39680000D03*
X39553000Y44952000D03*
X39680000D03*
X39543000Y53823000D03*
X39670000D03*
X39543000Y53950000D03*
X39670000D03*
X40322000Y45162000D03*
X40195000D03*
X40322000Y45289000D03*
Y45416000D03*
X40195000Y45289000D03*
Y45416000D03*
X40322000Y45543000D03*
Y45670000D03*
X40195000Y45543000D03*
Y45670000D03*
X40322000Y45797000D03*
X40195000D03*
X40322000Y45924000D03*
Y46051000D03*
X40195000Y45924000D03*
Y46051000D03*
X40322000Y46178000D03*
Y46305000D03*
X40195000Y46178000D03*
Y46305000D03*
X40322000Y46432000D03*
X40195000D03*
X40322000Y46559000D03*
Y46686000D03*
X40195000Y46559000D03*
Y46686000D03*
X40322000Y46813000D03*
Y46940000D03*
X40195000Y46813000D03*
Y46940000D03*
X40322000Y47067000D03*
X40195000D03*
X40322000Y47194000D03*
Y47321000D03*
X40195000Y47194000D03*
Y47321000D03*
X40322000Y47448000D03*
Y47575000D03*
X40195000Y47448000D03*
Y47575000D03*
X40322000Y47702000D03*
X40195000D03*
X40322000Y47829000D03*
Y47956000D03*
X40195000Y47829000D03*
Y47956000D03*
X40322000Y48083000D03*
Y48210000D03*
X40195000Y48083000D03*
Y48210000D03*
X40322000Y48337000D03*
X40195000D03*
X40322000Y48464000D03*
Y48591000D03*
X40195000Y48464000D03*
Y48591000D03*
X40322000Y48718000D03*
Y48845000D03*
X40195000Y48718000D03*
Y48845000D03*
X40322000Y48972000D03*
Y49099000D03*
X40195000Y48972000D03*
Y49099000D03*
X40322000Y49226000D03*
X40195000D03*
X40322000Y49353000D03*
Y49480000D03*
X40195000Y49353000D03*
Y49480000D03*
X40322000Y49607000D03*
Y49734000D03*
X40195000Y49607000D03*
Y49734000D03*
X40322000Y49861000D03*
X40195000D03*
X40322000Y49988000D03*
Y50115000D03*
X40195000Y49988000D03*
Y50115000D03*
G54D13*
G01X31805000Y41525000D02*
X19800000D01*
Y44520000D01*
X19880000Y44600000D01*
X19755000Y44725000D01*
X18415000D01*
G01X44190000Y50555000D02*
Y41625000D01*
X44050000Y41485000D01*
X32385000D01*
X32375000Y41495000D01*
X32310000D01*
X31905000Y41090000D01*
X31325000D01*
X31110000Y41305000D01*
Y41515000D01*
X31105000Y41520000D01*
X20050000D01*
X31495000Y41530000D03*
X31820000D03*
X32345000D03*
X32680000D03*
G54D14*
G01X17825000Y44725000D02*
Y77995000D01*
X20335000Y80505000D01*
X43845000D01*
X44190000Y80160000D01*
Y61490000D01*
X44200000Y61480000D01*
G01X19875000Y80075000D02*
Y57410000D01*
X19860000Y57395000D01*
G54D15*
G01X16275000Y40800000D02*
Y81000000D01*
X48045000D01*
Y40800000D01*
X16275000D01*
M02*
